<svg width="768" height="1457" viewBox="0 0 768 1457" fill="none" xmlns="http://www.w3.org/2000/svg">
<g clip-path="url(#clip0_915_56)">
<rect width="768" height="1457" fill="white"/>
<path d="M380.599 954.129C380.629 954.068 380.689 954.038 380.735 953.978C380.856 953.796 381.007 953.645 381.173 953.479C381.339 953.312 381.491 953.146 381.687 953.025C381.748 952.995 381.778 952.934 381.838 952.889C381.959 952.813 382.095 952.813 382.216 952.753C382.443 952.662 382.655 952.572 382.897 952.526C383.108 952.481 383.32 952.481 383.532 952.481C383.743 952.481 383.955 952.481 384.167 952.526C384.408 952.572 384.62 952.662 384.847 952.753C384.968 952.813 385.104 952.813 385.225 952.874C385.285 952.904 385.315 952.965 385.376 953.01C385.572 953.131 385.724 953.297 385.89 953.464C386.041 953.63 386.207 953.781 386.328 953.962C386.374 954.023 386.434 954.053 386.464 954.114L528.769 1200.61H573.065L383.516 872.356L166 1249.09L188.133 1287.45L380.599 954.129Z" fill="url(#paint0_linear_915_56)"/>
<path d="M581.879 1202.5C581.985 1202.7 582.03 1202.91 582.091 1203.14C582.151 1203.36 582.212 1203.57 582.227 1203.8C582.227 1203.88 582.272 1203.94 582.272 1204C582.272 1204.15 582.212 1204.27 582.197 1204.41C582.166 1204.63 582.136 1204.86 582.061 1205.09C581.985 1205.3 581.894 1205.48 581.788 1205.66C581.683 1205.84 581.577 1206.02 581.426 1206.19C581.274 1206.37 581.093 1206.51 580.912 1206.64C580.806 1206.73 580.73 1206.86 580.594 1206.92C580.519 1206.96 580.428 1206.98 580.337 1207.02C580.246 1207.07 580.156 1207.1 580.065 1207.14C579.687 1207.28 579.294 1207.38 578.901 1207.38H578.886H526.835H526.82H526.805H294.261L272.113 1245.74H651.165L433.648 869H389.353L581.804 1202.32C581.849 1202.37 581.849 1202.44 581.879 1202.5Z" fill="url(#paint1_linear_915_56)"/>
<path d="M266.277 1252.48C265.884 1252.48 265.506 1252.39 265.113 1252.24C265.022 1252.21 264.931 1252.16 264.841 1252.13C264.75 1252.09 264.674 1252.07 264.584 1252.03C264.463 1251.95 264.387 1251.83 264.266 1251.75C264.085 1251.62 263.903 1251.48 263.752 1251.3C263.616 1251.14 263.51 1250.95 263.389 1250.77C263.283 1250.59 263.178 1250.41 263.117 1250.2C263.042 1249.97 263.011 1249.76 262.981 1249.52C262.966 1249.38 262.905 1249.26 262.905 1249.11C262.905 1249.03 262.936 1248.97 262.951 1248.91C262.966 1248.69 263.026 1248.47 263.087 1248.25C263.147 1248.02 263.193 1247.81 263.299 1247.61C263.329 1247.55 263.329 1247.48 263.359 1247.42L405.664 1000.92L383.516 962.564L193.998 1290.83H629.016L651.164 1252.48H266.277C266.277 1252.48 266.277 1252.47 266.277 1252.48Z" fill="url(#paint2_linear_915_56)"/>
<path d="M419.659 451.084L419.662 451.087C419.873 451.221 420.045 451.396 420.174 451.527C420.195 451.548 420.215 451.569 420.234 451.587L420.247 451.601C420.392 451.745 420.559 451.912 420.7 452.116C420.704 452.119 420.709 452.124 420.716 452.131L420.718 452.132C420.746 452.158 420.819 452.226 420.875 452.33L607.122 774.879L628.012 738.677L417.607 374.255L234.618 691.15L276.429 691.15L414.31 452.315C414.366 452.211 414.439 452.143 414.467 452.118L414.469 452.116C414.476 452.109 414.482 452.104 414.486 452.101C414.595 451.945 414.74 451.794 414.846 451.683C414.881 451.647 414.911 451.616 414.935 451.59L414.943 451.581L414.951 451.573C414.97 451.554 414.99 451.534 415.011 451.512C415.134 451.386 415.298 451.22 415.498 451.088C415.501 451.085 415.505 451.081 415.509 451.076C415.535 451.048 415.609 450.966 415.726 450.907C415.846 450.847 415.965 450.821 416.019 450.809C416.083 450.794 416.093 450.79 416.093 450.79L416.112 450.78L416.131 450.773C416.151 450.765 416.172 450.756 416.194 450.747C416.384 450.67 416.617 450.576 416.878 450.527C417.134 450.473 417.382 450.473 417.575 450.473L417.592 450.473L417.61 450.473C417.803 450.473 418.051 450.473 418.306 450.527C418.568 450.576 418.8 450.67 418.991 450.747C419.012 450.756 419.033 450.765 419.054 450.773L419.073 450.78L419.09 450.789C419.092 450.79 419.096 450.791 419.105 450.794C419.123 450.8 419.139 450.803 419.179 450.814L419.18 450.814C419.245 450.831 419.372 450.865 419.5 450.945L419.518 450.956L419.535 450.969C419.576 451 419.608 451.03 419.631 451.054C419.643 451.065 419.652 451.076 419.659 451.084Z" stroke="url(#paint3_linear_915_56)"/>
<path d="M224.348 694.758C224.356 694.731 224.365 694.705 224.37 694.69C224.389 694.443 224.451 694.213 224.502 694.024L224.516 693.97C224.523 693.945 224.53 693.917 224.538 693.888C224.582 693.715 224.64 693.49 224.748 693.278C224.75 693.271 224.753 693.26 224.756 693.249C224.766 693.217 224.793 693.121 224.864 693.024L411.082 370.5L369.272 370.5L158.867 734.922L524.8 734.922L503.895 698.72L278.625 698.72L278.61 698.72L278.596 698.72L228.108 698.72L228.094 698.72C227.627 698.72 227.182 698.595 226.795 698.456L226.767 698.446L226.741 698.432C226.715 698.419 226.686 698.407 226.64 698.388C226.617 698.378 226.588 698.367 226.557 698.353C226.531 698.341 226.504 698.329 226.477 698.315C226.471 698.312 226.466 698.31 226.451 698.305C226.441 698.301 226.427 698.296 226.406 698.289C226.371 698.276 226.298 698.252 226.221 698.21C226.087 698.145 225.993 698.058 225.933 697.998C225.89 697.956 225.87 697.934 225.857 697.919C225.846 697.907 225.839 697.9 225.828 697.89C225.663 697.766 225.45 697.607 225.268 697.39C225.089 697.192 224.966 696.981 224.869 696.814L224.861 696.8C224.747 696.605 224.644 696.401 224.558 696.159L224.554 696.149C224.464 695.877 224.43 695.611 224.401 695.397L224.4 695.386C224.398 695.37 224.395 695.357 224.382 695.309L224.37 695.263C224.352 695.191 224.323 695.074 224.323 694.935C224.323 694.859 224.338 694.797 224.348 694.758Z" stroke="url(#paint4_linear_915_56)"/>
<path d="M534.393 739.747C534.466 739.527 534.495 739.322 534.525 739.087C534.531 739.032 534.545 738.979 534.559 738.926C534.578 738.852 534.598 738.776 534.598 738.691C534.598 738.618 534.569 738.559 534.554 738.5M534.393 739.747L534.873 739.884C534.872 739.888 534.871 739.891 534.87 739.895M534.393 739.747L534.867 739.905C534.868 739.902 534.869 739.898 534.87 739.895M534.393 739.747C534.334 739.952 534.231 740.128 534.129 740.304C534.096 740.352 534.065 740.401 534.034 740.449C533.953 740.576 533.872 740.7 533.777 740.817C533.63 740.993 533.454 741.125 533.278 741.257C533.22 741.294 533.172 741.342 533.124 741.389C533.077 741.437 533.029 741.485 532.97 741.521C532.926 741.543 532.886 741.558 532.846 741.573C532.805 741.587 532.765 741.602 532.721 741.624C532.677 741.639 532.633 741.657 532.589 741.675C532.545 741.694 532.501 741.712 532.457 741.727C532.136 741.85 531.825 741.932 531.507 741.955L417.61 461.753M534.87 739.895C534.958 739.628 534.992 739.383 535.021 739.149L535.022 739.142C535.023 739.129 535.025 739.119 535.032 739.092C535.037 739.075 535.042 739.052 535.051 739.019C535.07 738.947 535.098 738.83 535.098 738.691C535.098 738.587 535.077 738.502 535.061 738.449C535.057 738.434 535.052 738.419 535.048 738.407M534.87 739.895C534.794 740.157 534.666 740.375 534.57 740.54L534.561 740.556L534.553 740.569L534.545 740.581C534.522 740.616 534.496 740.656 534.469 740.698C534.384 740.831 534.279 740.993 534.164 741.134L534.161 741.137C533.977 741.359 533.761 741.521 533.593 741.646L533.578 741.657L533.561 741.67L533.543 741.681C533.543 741.681 533.539 741.684 533.53 741.692C533.517 741.704 533.503 741.717 533.478 741.743L533.47 741.75C533.427 741.794 533.344 741.877 533.235 741.945L533.215 741.958L533.194 741.968C533.124 742.003 533.06 742.026 533.021 742.041L533.016 742.042C532.974 742.058 532.96 742.064 532.945 742.071L532.913 742.087L532.879 742.098C532.855 742.106 532.828 742.117 532.781 742.137L532.777 742.139C532.739 742.154 532.685 742.177 532.627 742.197C532.211 742.356 531.785 742.461 531.328 742.461L158.868 742.461L179.773 778.663L600.57 778.663L417.61 461.753M535.048 738.407C535.05 738.427 535.051 738.447 535.053 738.467L534.554 738.5M535.048 738.407C535.026 738.175 534.968 737.96 534.92 737.781L534.905 737.726C534.898 737.701 534.891 737.673 534.884 737.644C534.84 737.473 534.783 737.25 534.676 737.04C534.676 737.038 534.676 737.037 534.675 737.036C534.672 737.022 534.666 736.99 534.656 736.958C534.646 736.923 534.631 736.876 534.605 736.825L534.599 736.812L534.591 736.799L396.705 497.956L417.61 461.753M535.048 738.407C535.047 738.403 535.046 738.4 535.045 738.397L535.043 738.391C535.04 738.381 535.039 738.378 535.039 738.378L535.039 738.379L534.554 738.5M534.554 738.5C534.54 738.297 534.489 738.106 534.435 737.905L534.422 737.855C534.413 737.823 534.405 737.79 534.397 737.758C534.349 737.575 534.304 737.402 534.217 737.239C534.202 737.21 534.195 737.177 534.187 737.144C534.18 737.111 534.173 737.078 534.158 737.049L417.61 461.753" stroke="url(#paint5_linear_915_56)"/>
<g filter="url(#filter0_f_915_56)">
<ellipse rx="256" ry="12.5" transform="matrix(1 0 0 -1 399 1299.5)" fill="black" fill-opacity="0.89"/>
</g>
</g>
<defs>
<filter id="filter0_f_915_56" x="-57" y="1087" width="912" height="425" filterUnits="userSpaceOnUse" color-interpolation-filters="sRGB">
<feFlood flood-opacity="0" result="BackgroundImageFix"/>
<feBlend mode="normal" in="SourceGraphic" in2="BackgroundImageFix" result="shape"/>
<feGaussianBlur stdDeviation="100" result="effect1_foregroundBlur_915_56"/>
</filter>
<linearGradient id="paint0_linear_915_56" x1="166" y1="1078.07" x2="573.065" y2="1078.07" gradientUnits="userSpaceOnUse">
<stop stop-color="#002B99"/>
<stop offset="0.604167" stop-color="#8000FF"/>
<stop offset="1" stop-color="#F300F8"/>
</linearGradient>
<linearGradient id="paint1_linear_915_56" x1="272.113" y1="1055.7" x2="651.165" y2="1055.7" gradientUnits="userSpaceOnUse">
<stop stop-color="#002B99"/>
<stop offset="0.604167" stop-color="#8000FF"/>
<stop offset="1" stop-color="#F300F8"/>
</linearGradient>
<linearGradient id="paint2_linear_915_56" x1="193.998" y1="1125.25" x2="651.164" y2="1125.25" gradientUnits="userSpaceOnUse">
<stop stop-color="#002B99"/>
<stop offset="0.604167" stop-color="#8000FF"/>
<stop offset="1" stop-color="#F300F8"/>
</linearGradient>
<linearGradient id="paint3_linear_915_56" x1="628.59" y1="572.785" x2="233.752" y2="572.785" gradientUnits="userSpaceOnUse">
<stop stop-color="#002B99"/>
<stop offset="0.604167" stop-color="#8000FF"/>
<stop offset="1" stop-color="#F300F8"/>
</linearGradient>
<linearGradient id="paint4_linear_915_56" x1="525.666" y1="551.094" x2="158.001" y2="551.094" gradientUnits="userSpaceOnUse">
<stop stop-color="#002B99"/>
<stop offset="0.604167" stop-color="#8000FF"/>
<stop offset="1" stop-color="#F300F8"/>
</linearGradient>
<linearGradient id="paint5_linear_915_56" x1="601.436" y1="618.549" x2="158.002" y2="618.549" gradientUnits="userSpaceOnUse">
<stop stop-color="#002B99"/>
<stop offset="0.604167" stop-color="#8000FF"/>
<stop offset="1" stop-color="#F300F8"/>
</linearGradient>
<clipPath id="clip0_915_56">
<rect width="768" height="1457" fill="white"/>
</clipPath>
</defs>
</svg>
