<svg width="1920" height="1080" viewBox="0 0 1920 1080" fill="none" xmlns="http://www.w3.org/2000/svg">
<g clip-path="url(#clip0_884_2)">
<rect width="1920" height="1080" fill="white"/>
<path d="M989.301 679.942L989.309 679.95C989.54 680.095 989.728 680.287 989.872 680.434C989.896 680.458 989.918 680.48 989.939 680.502L989.953 680.516C990.115 680.678 990.299 680.862 990.453 681.085C990.458 681.089 990.465 681.096 990.476 681.106C990.504 681.132 990.582 681.203 990.641 681.313L1197.2 1039.03L1220.42 998.784L987.065 594.609L784.076 946.141L830.56 946.141L983.457 681.297C983.516 681.186 983.594 681.116 983.623 681.089C983.634 681.079 983.641 681.073 983.646 681.068C983.764 680.899 983.922 680.735 984.041 680.611C984.08 680.57 984.115 680.533 984.143 680.503L984.151 680.494L984.159 680.485C984.18 680.464 984.203 680.442 984.226 680.418C984.365 680.276 984.544 680.094 984.762 679.952C984.766 679.947 984.772 679.941 984.779 679.933L984.781 679.931C984.81 679.899 984.886 679.817 985.005 679.758C985.123 679.698 985.242 679.67 985.306 679.656L985.317 679.653C985.354 679.644 985.374 679.639 985.392 679.634C985.407 679.63 985.412 679.627 985.411 679.628L985.43 679.618L985.449 679.61C985.472 679.601 985.495 679.592 985.519 679.582C985.731 679.497 985.984 679.395 986.268 679.341C986.546 679.282 986.816 679.282 987.031 679.282L987.049 679.282L987.067 679.282C987.282 679.282 987.553 679.282 987.83 679.341C988.115 679.395 988.368 679.497 988.579 679.582C988.603 679.592 988.627 679.601 988.649 679.61L988.669 679.618L988.687 679.628C988.687 679.627 988.692 679.63 988.71 679.635C988.726 679.64 988.741 679.644 988.766 679.651L988.795 679.658C988.867 679.678 989.001 679.713 989.135 679.797L989.153 679.808L989.17 679.821C989.188 679.834 989.204 679.847 989.218 679.86C989.239 679.878 989.257 679.895 989.271 679.91C989.283 679.922 989.293 679.933 989.301 679.942Z" stroke="url(#paint0_linear_884_2)"/>
<path d="M772.833 950.101C772.842 950.068 772.853 950.037 772.858 950.022C772.88 949.726 772.96 949.451 773.019 949.228C773.027 949.198 773.035 949.167 773.043 949.134C773.093 948.942 773.156 948.696 773.274 948.466L773.275 948.462C773.277 948.455 773.281 948.442 773.285 948.429C773.295 948.394 773.323 948.294 773.398 948.194L979.922 590.5L933.438 590.5L700.081 994.674L1106.01 994.674L1082.77 954.425L832.961 954.425L832.945 954.425L832.929 954.425L776.949 954.425L776.933 954.425C776.425 954.425 775.939 954.289 775.512 954.136L775.484 954.126L775.457 954.112C775.426 954.097 775.393 954.083 775.342 954.062C775.296 954.042 775.231 954.016 775.165 953.982C775.151 953.975 775.136 953.97 775.08 953.95L775.076 953.949C775.035 953.935 774.96 953.909 774.882 953.866C774.74 953.797 774.641 953.706 774.576 953.641C774.532 953.598 774.51 953.573 774.494 953.556C774.479 953.54 774.47 953.53 774.456 953.518L774.455 953.517C774.271 953.379 774.039 953.206 773.841 952.969C773.641 952.748 773.505 952.511 773.396 952.324C773.271 952.109 773.158 951.886 773.064 951.622L773.061 951.612C772.962 951.316 772.925 951.026 772.893 950.788L772.892 950.777C772.891 950.77 772.89 950.762 772.888 950.754C772.883 950.732 772.875 950.701 772.858 950.633C772.837 950.554 772.807 950.43 772.807 950.283C772.807 950.206 772.822 950.142 772.833 950.101Z" stroke="url(#paint1_linear_884_2)"/>
<path d="M1114.92 1002.5L1114.89 1002.52L1114.86 1002.53C1114.83 1002.54 1114.8 1002.55 1114.74 1002.57C1114.7 1002.59 1114.64 1002.61 1114.58 1002.64C1114.12 1002.81 1113.65 1002.93 1113.15 1002.93L700.082 1002.93L723.324 1043.17L1190.02 1043.18L987.066 691.627L963.824 731.876L1116.73 996.729L1116.73 996.742L1116.74 996.756C1116.77 996.808 1116.78 996.857 1116.79 996.893C1116.8 996.928 1116.81 996.961 1116.81 996.976L1116.82 996.988C1116.93 997.216 1116.99 997.46 1117.04 997.651C1117.05 997.684 1117.06 997.715 1117.07 997.745L1117.08 997.805C1117.14 998.005 1117.2 998.242 1117.23 998.496C1117.23 998.509 1117.24 998.529 1117.24 998.547C1117.26 998.604 1117.28 998.692 1117.28 998.8C1117.28 998.947 1117.25 999.071 1117.23 999.15C1117.21 999.245 1117.2 999.266 1117.2 999.294L1117.19 999.301C1117.16 999.56 1117.13 999.828 1117.03 1000.12C1116.95 1000.4 1116.81 1000.64 1116.7 1000.82L1116.69 1000.84L1116.68 1000.85L1116.68 1000.87C1116.65 1000.91 1116.62 1000.95 1116.59 1001C1116.5 1001.14 1116.38 1001.32 1116.26 1001.47L1116.25 1001.48C1116.05 1001.72 1115.82 1001.89 1115.63 1002.03L1115.62 1002.05L1115.6 1002.06L1115.58 1002.07C1115.57 1002.08 1115.56 1002.09 1115.5 1002.15C1115.45 1002.19 1115.36 1002.29 1115.24 1002.36L1115.22 1002.37L1115.2 1002.39C1115.12 1002.42 1115.05 1002.45 1115.01 1002.46C1114.99 1002.47 1114.98 1002.48 1114.97 1002.48C1114.95 1002.49 1114.94 1002.49 1114.92 1002.5Z" stroke="url(#paint2_linear_884_2)"/>
</g>
<defs>
<linearGradient id="paint0_linear_884_2" x1="1221" y1="814.846" x2="783.21" y2="814.846" gradientUnits="userSpaceOnUse">
<stop stop-color="#002B99"/>
<stop offset="0.604167" stop-color="#8000FF"/>
<stop offset="1" stop-color="#F300F8"/>
</linearGradient>
<linearGradient id="paint1_linear_884_2" x1="1106.88" y1="790.794" x2="699.215" y2="790.794" gradientUnits="userSpaceOnUse">
<stop stop-color="#002B99"/>
<stop offset="0.604167" stop-color="#8000FF"/>
<stop offset="1" stop-color="#F300F8"/>
</linearGradient>
<linearGradient id="paint2_linear_884_2" x1="1190.89" y1="865.589" x2="699.216" y2="865.589" gradientUnits="userSpaceOnUse">
<stop stop-color="#002B99"/>
<stop offset="0.604167" stop-color="#8000FF"/>
<stop offset="1" stop-color="#F300F8"/>
</linearGradient>
<clipPath id="clip0_884_2">
<rect width="1920" height="1080" fill="white"/>
</clipPath>
</defs>
</svg>
