<svg width="1920" height="1080" viewBox="0 0 1920 1080" fill="none" xmlns="http://www.w3.org/2000/svg">
<g clip-path="url(#clip0_602_5653)">
<rect width="1920" height="1080" fill="white"/>
<path d="M-28.3829 322.839C-28.5129 322.665 -28.556 322.47 -28.6644 322.297C-28.8378 322.015 -29.0112 321.733 -29.1196 321.408C-29.228 321.083 -29.2715 320.758 -29.3148 320.432C-29.3365 320.216 -29.4451 320.042 -29.4451 319.826C-29.4451 319.739 -29.4016 319.652 -29.4016 319.565C-29.38 319.219 -29.2931 318.915 -29.2064 318.568C-29.1196 318.286 -29.0766 318.005 -28.9465 317.744C-28.8164 317.484 -28.6431 317.268 -28.448 317.029C-28.2529 316.747 -28.0576 316.487 -27.7975 316.249C-27.7325 316.184 -27.7106 316.097 -27.6239 316.054C-27.4722 315.924 -27.2771 315.88 -27.1037 315.772C-26.8002 315.598 -26.5186 315.425 -26.1934 315.295C-25.8899 315.186 -25.5648 315.143 -25.2397 315.1C-25.0229 315.078 -24.8277 314.97 -24.6109 314.97H234.33L289.695 245.319H-179L55.3587 540.137L99.8632 484.165L-28.3829 322.839Z" fill="url(#paint0_linear_602_5653)"/>
<path d="M74.4348 324.66H-14.5737L106.041 476.404L150.546 420.41L74.4348 324.66Z" fill="url(#paint1_linear_602_5653)"/>
<path d="M464.549 927.432L514.147 877.855L258.068 555.701L213.585 611.673L464.549 927.432Z" fill="url(#paint2_linear_602_5653)"/>
<path d="M234.373 780.868H76.776H-24.5893C-25.1746 780.868 -25.76 780.738 -26.3236 780.521C-26.5404 780.435 -26.7138 780.305 -26.9089 780.196C-27.1474 780.066 -27.3855 779.98 -27.6022 779.806C-27.6673 779.741 -27.7108 779.676 -27.7758 779.611C-28.036 779.373 -28.2312 779.112 -28.4263 778.831C-28.5997 778.592 -28.7947 778.375 -28.9031 778.115C-29.0332 777.855 -29.0763 777.573 -29.163 777.292C-29.2497 776.966 -29.3366 776.641 -29.3583 776.294C-29.3583 776.208 -29.4017 776.121 -29.4017 776.034C-29.4017 775.817 -29.3148 775.644 -29.2715 775.427C-29.2281 775.102 -29.1851 774.777 -29.0767 774.452C-28.9683 774.127 -28.7944 773.845 -28.621 773.563C-28.5126 773.389 -28.4695 773.194 -28.3395 773.021L454.165 166H-107.615L-177.287 235.651H299.776C299.992 235.651 300.187 235.759 300.404 235.781C300.729 235.824 301.033 235.867 301.336 235.976C301.661 236.084 301.965 236.258 302.247 236.453C302.42 236.561 302.615 236.604 302.767 236.713C302.832 236.778 302.875 236.843 302.94 236.908C303.201 237.146 303.396 237.407 303.591 237.688C303.764 237.927 303.959 238.144 304.089 238.404C304.219 238.664 304.263 238.946 304.349 239.228C304.436 239.553 304.523 239.878 304.545 240.225C304.545 240.311 304.588 240.398 304.588 240.485C304.588 240.702 304.501 240.875 304.458 241.092C304.414 241.417 304.371 241.742 304.262 242.067C304.154 242.392 303.981 242.674 303.807 242.956C303.699 243.13 303.656 243.325 303.526 243.498L-179 850.519H289.695L234.373 780.868Z" fill="url(#paint3_linear_602_5653)"/>
<path d="M162.923 675.428L303.547 852.362C303.677 852.535 303.72 852.73 303.829 852.904C304.002 853.185 304.175 853.467 304.284 853.792C304.392 854.118 304.436 854.443 304.479 854.768C304.501 854.985 304.609 855.158 304.609 855.375C304.609 855.462 304.566 855.548 304.566 855.635C304.544 855.982 304.457 856.285 304.371 856.632C304.284 856.914 304.241 857.196 304.111 857.478C303.981 857.738 303.807 857.955 303.634 858.193C303.439 858.475 303.244 858.735 302.984 858.973C302.918 859.038 302.897 859.125 302.81 859.169C302.593 859.342 302.355 859.429 302.116 859.559C301.921 859.667 301.748 859.797 301.531 859.884C300.967 860.101 300.382 860.231 299.797 860.231H-177.331L-107.659 929.881H454.121L207.406 619.499L162.923 675.428Z" fill="url(#paint4_linear_602_5653)"/>
<path d="M-14.5737 771.178H74.4348L514.147 217.983L464.548 168.406L-14.5737 771.178Z" fill="url(#paint5_linear_602_5653)"/>
<path d="M1961.53 314.839C1961.66 314.665 1961.7 314.47 1961.81 314.297C1961.98 314.015 1962.16 313.733 1962.27 313.408C1962.37 313.083 1962.42 312.758 1962.46 312.432C1962.48 312.216 1962.59 312.042 1962.59 311.826C1962.59 311.739 1962.55 311.652 1962.55 311.565C1962.53 311.219 1962.44 310.915 1962.35 310.568C1962.27 310.286 1962.22 310.005 1962.09 309.744C1961.96 309.484 1961.79 309.268 1961.59 309.029C1961.4 308.747 1961.2 308.487 1960.94 308.249C1960.88 308.184 1960.86 308.097 1960.77 308.054C1960.62 307.924 1960.42 307.88 1960.25 307.772C1959.95 307.598 1959.67 307.425 1959.34 307.295C1959.04 307.186 1958.71 307.143 1958.39 307.1C1958.17 307.078 1957.97 306.97 1957.76 306.97H1698.82L1643.45 237.319H2112.15L1877.79 532.137L1833.28 476.165L1961.53 314.839Z" fill="url(#paint6_linear_602_5653)"/>
<path d="M1858.71 316.66H1947.72L1827.11 468.404L1782.6 412.41L1858.71 316.66Z" fill="url(#paint7_linear_602_5653)"/>
<path d="M1468.6 919.432L1419 869.855L1675.08 547.701L1719.56 603.673L1468.6 919.432Z" fill="url(#paint8_linear_602_5653)"/>
<path d="M1698.77 772.868H1856.37H1957.74C1958.32 772.868 1958.91 772.738 1959.47 772.521C1959.69 772.435 1959.86 772.305 1960.06 772.196C1960.29 772.066 1960.53 771.98 1960.75 771.806C1960.81 771.741 1960.86 771.676 1960.92 771.611C1961.18 771.373 1961.38 771.112 1961.57 770.831C1961.75 770.592 1961.94 770.375 1962.05 770.115C1962.18 769.855 1962.22 769.573 1962.31 769.292C1962.4 768.966 1962.48 768.641 1962.51 768.294C1962.51 768.208 1962.55 768.121 1962.55 768.034C1962.55 767.817 1962.46 767.644 1962.42 767.427C1962.38 767.102 1962.33 766.777 1962.22 766.452C1962.12 766.127 1961.94 765.845 1961.77 765.563C1961.66 765.389 1961.62 765.194 1961.49 765.021L1478.98 158H2040.76L2110.43 227.651H1633.37C1633.15 227.651 1632.96 227.759 1632.74 227.781C1632.42 227.824 1632.11 227.867 1631.81 227.976C1631.49 228.084 1631.18 228.258 1630.9 228.453C1630.73 228.561 1630.53 228.604 1630.38 228.713C1630.32 228.778 1630.27 228.843 1630.21 228.908C1629.95 229.146 1629.75 229.407 1629.56 229.688C1629.38 229.927 1629.19 230.144 1629.06 230.404C1628.93 230.664 1628.88 230.946 1628.8 231.228C1628.71 231.553 1628.62 231.878 1628.6 232.225C1628.6 232.311 1628.56 232.398 1628.56 232.485C1628.56 232.702 1628.65 232.875 1628.69 233.092C1628.73 233.417 1628.78 233.742 1628.88 234.067C1628.99 234.392 1629.17 234.674 1629.34 234.956C1629.45 235.13 1629.49 235.325 1629.62 235.498L2112.15 842.519H1643.45L1698.77 772.868Z" fill="url(#paint9_linear_602_5653)"/>
<path d="M1770.22 667.428L1629.6 844.362C1629.47 844.535 1629.43 844.73 1629.32 844.904C1629.14 845.185 1628.97 845.467 1628.86 845.792C1628.75 846.118 1628.71 846.443 1628.67 846.768C1628.65 846.985 1628.54 847.158 1628.54 847.375C1628.54 847.462 1628.58 847.548 1628.58 847.635C1628.6 847.982 1628.69 848.285 1628.78 848.632C1628.86 848.914 1628.91 849.196 1629.04 849.478C1629.17 849.738 1629.34 849.955 1629.51 850.193C1629.71 850.475 1629.9 850.735 1630.16 850.973C1630.23 851.038 1630.25 851.125 1630.34 851.169C1630.55 851.342 1630.79 851.429 1631.03 851.559C1631.23 851.667 1631.4 851.797 1631.62 851.884C1632.18 852.101 1632.76 852.231 1633.35 852.231H2110.48L2040.81 921.881H1479.03L1725.74 611.499L1770.22 667.428Z" fill="url(#paint10_linear_602_5653)"/>
<path d="M1947.72 763.178H1858.71L1419 209.983L1468.6 160.406L1947.72 763.178Z" fill="url(#paint11_linear_602_5653)"/>
<path d="M767.634 425.972L767.634 425.972L767.642 425.983L892.955 583.619L850.021 637.615L621.607 350.276H1078.41L1025 417.468H771.727C771.543 417.468 771.381 417.514 771.28 417.543L771.26 417.549C771.154 417.58 771.108 417.593 771.061 417.598L771.053 417.598L771.045 417.6L771.024 417.602C770.719 417.643 770.356 417.691 770.009 417.815L770 417.818L769.992 417.822C769.686 417.944 769.413 418.102 769.167 418.245C769.123 418.27 769.08 418.295 769.038 418.319L769.029 418.324L769.021 418.329C768.982 418.353 768.945 418.37 768.877 418.401C768.859 418.409 768.839 418.418 768.817 418.428C768.732 418.466 768.61 418.524 768.491 418.617C768.375 418.691 768.307 418.782 768.273 418.832C768.264 418.844 768.256 418.856 768.251 418.864L768.249 418.867L768.244 418.874C767.966 419.135 767.759 419.412 767.57 419.683C767.385 419.909 767.187 420.157 767.035 420.461L767.482 420.684L767.035 420.461C766.949 420.632 766.897 420.801 766.856 420.948C766.839 421.012 766.825 421.067 766.812 421.118C766.792 421.196 766.774 421.264 766.75 421.344L766.746 421.357L766.742 421.37C766.732 421.41 766.722 421.451 766.711 421.493C766.638 421.778 766.559 422.09 766.537 422.436L766.537 422.446C766.535 422.451 766.533 422.459 766.53 422.473C766.528 422.48 766.526 422.49 766.523 422.502C766.519 422.52 766.513 422.542 766.509 422.566C766.501 422.606 766.494 422.66 766.494 422.722C766.494 422.909 766.541 423.067 766.571 423.165L766.575 423.176C766.607 423.282 766.619 423.322 766.624 423.366L766.625 423.374L766.626 423.382L766.628 423.397C766.669 423.706 766.717 424.065 766.838 424.429C766.963 424.803 767.159 425.121 767.322 425.387L767.332 425.404L767.334 425.406C767.36 425.448 767.378 425.49 767.415 425.573L767.43 425.608C767.472 425.703 767.533 425.838 767.634 425.972Z" stroke="url(#paint12_linear_602_5653)" stroke-opacity="0.3"/>
<path d="M899.643 575.217L782.59 427.955H868.457L942.576 521.2L899.643 575.217Z" stroke="url(#paint13_linear_602_5653)" stroke-opacity="0.3"/>
<path d="M1048.48 654.461L1298.53 969.025L1250.68 1016.85L1005.57 708.457L1048.48 654.461Z" stroke="url(#paint14_linear_602_5653)" stroke-opacity="0.3"/>
<path d="M621.607 941.8L1093.38 348.304L1093.39 348.293C1093.49 348.159 1093.55 348.024 1093.59 347.929C1093.64 347.822 1093.66 347.774 1093.69 347.728L1093.69 347.725L1093.7 347.708C1093.87 347.443 1094.06 347.124 1094.19 346.751C1094.31 346.387 1094.36 346.029 1094.4 345.721C1094.41 345.674 1094.42 345.635 1094.43 345.582C1094.44 345.552 1094.45 345.517 1094.46 345.474C1094.49 345.364 1094.53 345.217 1094.53 345.043C1094.53 344.981 1094.52 344.927 1094.52 344.887C1094.51 344.851 1094.5 344.817 1094.49 344.797L1094.49 344.794C1094.49 344.781 1094.49 344.772 1094.49 344.767L1094.49 344.757C1094.46 344.369 1094.37 344.01 1094.29 343.704L1094.28 343.683L1094.28 343.674L1094.27 343.665C1094.25 343.586 1094.23 343.517 1094.21 343.439C1094.2 343.389 1094.19 343.334 1094.17 343.269C1094.13 343.122 1094.07 342.953 1093.99 342.782C1093.87 342.551 1093.7 342.327 1093.57 342.156C1093.53 342.104 1093.49 342.057 1093.46 342.016C1093.27 341.736 1093.05 341.45 1092.77 341.182C1092.75 341.169 1092.74 341.154 1092.72 341.125L1092.71 341.122C1092.69 341.091 1092.65 341.045 1092.6 340.997L1092.57 340.967L1092.54 340.943C1092.41 340.854 1092.28 340.798 1092.2 340.763C1092.1 340.724 1092.05 340.702 1092.01 340.676C1091.72 340.474 1091.38 340.281 1091.01 340.156C1090.66 340.031 1090.31 339.984 1090 339.942L1089.99 339.941L1089.98 339.94C1089.94 339.935 1089.89 339.922 1089.79 339.891L1089.77 339.886C1089.66 339.856 1089.5 339.81 1089.32 339.81H623.455L690.668 272.618H1239.44L767.685 866.114L767.676 866.125C767.576 866.259 767.514 866.395 767.473 866.489C767.453 866.534 767.438 866.569 767.425 866.598C767.407 866.637 767.393 866.664 767.376 866.691L767.375 866.694L767.362 866.715C767.199 866.979 767.004 867.296 766.88 867.668C766.759 868.03 766.712 868.387 766.671 868.694L766.67 868.698C766.66 868.745 766.649 868.784 766.633 868.837C766.624 868.867 766.614 868.901 766.602 868.944C766.572 869.055 766.536 869.202 766.536 869.375C766.536 869.437 766.544 869.491 766.551 869.531C766.555 869.551 766.56 869.571 766.564 869.588C766.567 869.603 766.57 869.615 766.572 869.624L766.578 869.645C766.578 869.647 766.579 869.649 766.579 869.651L766.58 869.661C766.604 870.05 766.7 870.409 766.782 870.716L766.787 870.735L766.789 870.744L766.792 870.753C766.832 870.885 766.854 870.985 766.899 871.15C766.938 871.292 766.989 871.455 767.07 871.621C767.179 871.876 767.362 872.113 767.495 872.286C767.529 872.33 767.559 872.369 767.584 872.403C767.778 872.683 767.991 872.969 768.28 873.237C768.292 873.249 768.305 873.264 768.329 873.293L768.332 873.296C768.357 873.327 768.396 873.374 768.444 873.422L768.464 873.441L768.486 873.459C768.63 873.574 768.775 873.655 768.901 873.72C768.964 873.752 769.014 873.776 769.059 873.798C769.118 873.827 769.17 873.852 769.234 873.887C769.289 873.918 769.334 873.946 769.388 873.979C769.421 873.999 769.456 874.021 769.498 874.046C769.6 874.107 769.721 874.176 769.864 874.233L769.87 874.235C770.467 874.465 771.101 874.608 771.748 874.608H870.99H1025.04L1078.41 941.8H621.607Z" stroke="url(#paint15_linear_602_5653)" stroke-opacity="0.3"/>
<path d="M998.884 716.922L1239.39 1019.5H690.625L623.412 952.308H1089.34C1089.99 952.308 1090.62 952.165 1091.22 951.935L1091.22 951.933C1091.37 951.876 1091.49 951.807 1091.59 951.746C1091.63 951.721 1091.67 951.699 1091.7 951.679C1091.75 951.646 1091.8 951.618 1091.85 951.588C1091.96 951.526 1092.04 951.495 1092.19 951.42C1092.3 951.36 1092.44 951.286 1092.57 951.184C1092.69 951.109 1092.76 951.016 1092.79 950.966C1092.8 950.952 1092.81 950.938 1092.82 950.931L1092.82 950.923C1093.1 950.659 1093.31 950.377 1093.5 950.103C1093.53 950.07 1093.55 950.035 1093.58 950C1093.72 949.812 1093.88 949.589 1094.01 949.336L1094.01 949.329L1094.02 949.322C1094.1 949.146 1094.15 948.977 1094.19 948.829C1094.2 948.77 1094.22 948.718 1094.23 948.67C1094.25 948.586 1094.27 948.513 1094.3 948.432L1094.3 948.419L1094.3 948.406C1094.31 948.366 1094.32 948.325 1094.33 948.283C1094.41 947.998 1094.49 947.686 1094.51 947.34L1094.51 947.33C1094.51 947.325 1094.51 947.317 1094.51 947.303C1094.52 947.294 1094.52 947.281 1094.52 947.265C1094.53 947.249 1094.53 947.23 1094.54 947.21C1094.54 947.17 1094.55 947.116 1094.55 947.054C1094.55 946.867 1094.5 946.709 1094.47 946.611L1094.47 946.599C1094.44 946.494 1094.43 946.454 1094.42 946.41L1094.42 946.402L1094.42 946.394C1094.38 946.082 1094.33 945.717 1094.21 945.347C1094.08 944.973 1093.89 944.655 1093.72 944.389L1093.71 944.372L1093.71 944.37C1093.69 944.328 1093.67 944.286 1093.63 944.202L1093.61 944.168C1093.57 944.073 1093.51 943.938 1093.41 943.804L1093.4 943.793L955.971 770.876L998.884 716.922Z" stroke="url(#paint16_linear_602_5653)" stroke-opacity="0.3"/>
<path d="M1298.53 323.051L868.457 864.121H782.59L1250.68 275.224L1298.53 323.051Z" stroke="url(#paint17_linear_602_5653)" stroke-opacity="0.3"/>
<g filter="url(#filter0_f_602_5653)">
<ellipse cx="1807" cy="1010" rx="305" ry="8" fill="black" fill-opacity="0.89"/>
</g>
<g filter="url(#filter1_f_602_5653)">
<ellipse cx="209" cy="994" rx="305" ry="8" fill="black" fill-opacity="0.89"/>
</g>
</g>
<defs>
<filter id="filter0_f_602_5653" x="1302" y="802" width="1010" height="416" filterUnits="userSpaceOnUse" color-interpolation-filters="sRGB">
<feFlood flood-opacity="0" result="BackgroundImageFix"/>
<feBlend mode="normal" in="SourceGraphic" in2="BackgroundImageFix" result="shape"/>
<feGaussianBlur stdDeviation="100" result="effect1_foregroundBlur_602_5653"/>
</filter>
<filter id="filter1_f_602_5653" x="-296" y="786" width="1010" height="416" filterUnits="userSpaceOnUse" color-interpolation-filters="sRGB">
<feFlood flood-opacity="0" result="BackgroundImageFix"/>
<feBlend mode="normal" in="SourceGraphic" in2="BackgroundImageFix" result="shape"/>
<feGaussianBlur stdDeviation="100" result="effect1_foregroundBlur_602_5653"/>
</filter>
<linearGradient id="paint0_linear_602_5653" x1="-179" y1="391.423" x2="289.695" y2="391.423" gradientUnits="userSpaceOnUse">
<stop stop-color="#002B99"/>
<stop offset="0.604167" stop-color="#8000FF"/>
<stop offset="1" stop-color="#F300F8"/>
</linearGradient>
<linearGradient id="paint1_linear_602_5653" x1="-14.5737" y1="399.86" x2="150.546" y2="399.86" gradientUnits="userSpaceOnUse">
<stop stop-color="#002B99"/>
</linearGradient>
<linearGradient id="paint2_linear_602_5653" x1="213.585" y1="739.922" x2="514.147" y2="739.922" gradientUnits="userSpaceOnUse">
<stop stop-color="#002B99"/>
<stop offset="0.604167" stop-color="#8000FF"/>
<stop offset="1" stop-color="#F300F8"/>
</linearGradient>
<linearGradient id="paint3_linear_602_5653" x1="-179" y1="505.231" x2="454.165" y2="505.231" gradientUnits="userSpaceOnUse">
<stop stop-color="#002B99"/>
<stop offset="0.604167" stop-color="#8000FF"/>
<stop offset="1" stop-color="#F300F8"/>
</linearGradient>
<linearGradient id="paint4_linear_602_5653" x1="-177.331" y1="773.317" x2="454.121" y2="773.317" gradientUnits="userSpaceOnUse">
<stop stop-color="#002B99"/>
<stop offset="0.604167" stop-color="#8000FF"/>
<stop offset="1" stop-color="#F300F8"/>
</linearGradient>
<linearGradient id="paint5_linear_602_5653" x1="-14.5737" y1="467.125" x2="514.147" y2="467.125" gradientUnits="userSpaceOnUse">
<stop stop-color="#002B99"/>
<stop offset="0.604167" stop-color="#8000FF"/>
<stop offset="1" stop-color="#F300F8"/>
</linearGradient>
<linearGradient id="paint6_linear_602_5653" x1="2112.15" y1="383.423" x2="1643.45" y2="383.423" gradientUnits="userSpaceOnUse">
<stop stop-color="#002B99"/>
<stop offset="0.604167" stop-color="#8000FF"/>
<stop offset="1" stop-color="#F300F8"/>
</linearGradient>
<linearGradient id="paint7_linear_602_5653" x1="1947.72" y1="391.86" x2="1782.6" y2="391.86" gradientUnits="userSpaceOnUse">
<stop stop-color="#002B99"/>
</linearGradient>
<linearGradient id="paint8_linear_602_5653" x1="1719.56" y1="731.922" x2="1419" y2="731.922" gradientUnits="userSpaceOnUse">
<stop stop-color="#002B99"/>
<stop offset="0.604167" stop-color="#8000FF"/>
<stop offset="1" stop-color="#F300F8"/>
</linearGradient>
<linearGradient id="paint9_linear_602_5653" x1="2112.15" y1="497.231" x2="1478.98" y2="497.231" gradientUnits="userSpaceOnUse">
<stop stop-color="#002B99"/>
<stop offset="0.604167" stop-color="#8000FF"/>
<stop offset="1" stop-color="#F300F8"/>
</linearGradient>
<linearGradient id="paint10_linear_602_5653" x1="2110.48" y1="765.317" x2="1479.03" y2="765.317" gradientUnits="userSpaceOnUse">
<stop stop-color="#002B99"/>
<stop offset="0.604167" stop-color="#8000FF"/>
<stop offset="1" stop-color="#F300F8"/>
</linearGradient>
<linearGradient id="paint11_linear_602_5653" x1="1947.72" y1="459.125" x2="1419" y2="459.125" gradientUnits="userSpaceOnUse">
<stop stop-color="#002B99"/>
<stop offset="0.604167" stop-color="#8000FF"/>
<stop offset="1" stop-color="#F300F8"/>
</linearGradient>
<linearGradient id="paint12_linear_602_5653" x1="620.571" y1="492.82" x2="1079.45" y2="492.82" gradientUnits="userSpaceOnUse">
<stop stop-color="#002B99"/>
<stop offset="0.604167" stop-color="#8000FF"/>
<stop offset="1" stop-color="#F300F8"/>
</linearGradient>
<linearGradient id="paint13_linear_602_5653" x1="781.554" y1="501.081" x2="943.215" y2="501.081" gradientUnits="userSpaceOnUse">
<stop stop-color="#002B99"/>
<stop offset="0.604167" stop-color="#8000FF"/>
<stop offset="1" stop-color="#F300F8"/>
</linearGradient>
<linearGradient id="paint14_linear_602_5653" x1="1004.93" y1="834.019" x2="1299.2" y2="834.019" gradientUnits="userSpaceOnUse">
<stop stop-color="#002B99"/>
<stop offset="0.604167" stop-color="#8000FF"/>
<stop offset="1" stop-color="#F300F8"/>
</linearGradient>
<linearGradient id="paint15_linear_602_5653" x1="620.571" y1="604.244" x2="1240.47" y2="604.244" gradientUnits="userSpaceOnUse">
<stop stop-color="#002B99"/>
<stop offset="0.604167" stop-color="#8000FF"/>
<stop offset="1" stop-color="#F300F8"/>
</linearGradient>
<linearGradient id="paint16_linear_602_5653" x1="622.205" y1="866.715" x2="1240.43" y2="866.715" gradientUnits="userSpaceOnUse">
<stop stop-color="#002B99"/>
<stop offset="0.604167" stop-color="#8000FF"/>
<stop offset="1" stop-color="#F300F8"/>
</linearGradient>
<linearGradient id="paint17_linear_602_5653" x1="781.554" y1="566.936" x2="1299.2" y2="566.936" gradientUnits="userSpaceOnUse">
<stop stop-color="#002B99"/>
<stop offset="0.604167" stop-color="#8000FF"/>
<stop offset="1" stop-color="#F300F8"/>
</linearGradient>
<clipPath id="clip0_602_5653">
<rect width="1920" height="1080" fill="white"/>
</clipPath>
</defs>
</svg>
