<svg width="1920" height="1080" viewBox="0 0 1920 1080" fill="none" xmlns="http://www.w3.org/2000/svg">
<g clip-path="url(#clip0_618_603)">
<rect width="1920" height="1080" fill="white"/>
<path d="M-18.9926 680.081C-21.5312 677.928 -23.9831 675.658 -26.3404 673.253C-46.1606 653.015 -57.0798 626.257 -57.0798 597.906C-57.0798 538.596 -8.90899 490.338 50.3072 490.338C52.2703 490.338 54.2334 490.409 56.1965 490.519C57.4106 490.574 58.609 490.669 59.8074 490.772C60.0202 490.787 60.2252 490.803 60.4381 490.819C61.1713 490.89 61.9045 490.984 62.6298 491.079C65.2158 491.379 67.7859 491.741 70.3324 492.222C70.6083 492.277 70.8449 492.404 71.0578 492.561C108.325 501.131 136.218 534.598 136.218 574.499C136.218 599.475 125.276 621.929 107.962 637.342C135.761 618.562 154.178 586.743 154.178 551.021C154.178 494.106 108.317 447.741 51.6711 447C45.3403 447.032 39.1199 447.512 33.0335 448.443C32.8995 448.466 32.7655 448.49 32.6236 448.514C-28.2562 458.014 -75 510.884 -75 574.499C-74.9921 618.365 -52.7594 657.13 -18.9926 680.081Z" fill="url(#paint0_linear_618_603)"/>
<path d="M157.694 551.013C157.694 579.363 146.775 606.121 126.947 626.359C110.422 643.231 89.2456 653.953 66.2718 657.375C61.7464 658.14 57.1028 658.557 52.3645 658.565C52.3488 658.565 52.333 658.565 52.3172 658.565C52.3094 658.565 52.2936 658.565 52.2857 658.565C6.00704 658.565 -31.6466 620.849 -31.6466 574.491C-31.6466 543.878 -15.2244 517.049 9.24732 502.337C-27.6574 518.31 -53.564 555.128 -53.564 597.898C-53.564 649.901 -14.5622 693.657 35.6664 700.878C36.8647 701.036 38.0552 701.217 39.2615 701.336C39.2851 701.336 39.3088 701.344 39.3324 701.344C41.3113 701.549 43.3059 701.69 45.3163 701.801C45.7026 701.817 46.0968 701.84 46.4831 701.856C48.4068 701.943 50.3384 702.006 52.2857 702.006C122.469 702.006 179.572 644.808 179.572 574.499C179.572 522.97 148.888 478.512 104.872 458.424C136.455 477.164 157.694 511.64 157.694 551.013Z" fill="url(#paint1_linear_618_603)"/>
<path d="M-14.9145 970.393C-15.1766 970.132 -15.4376 969.868 -15.6974 969.603L-15.6976 969.603C-35.6094 949.271 -46.5798 922.388 -46.5798 893.906C-46.5798 834.32 1.81406 785.838 61.3072 785.838C63.2812 785.838 65.2531 785.909 67.2217 786.02C67.2227 786.02 67.2236 786.02 67.2246 786.02L-14.9145 970.393ZM-14.9145 970.393C-44.4732 947.121 -63.4927 910.991 -63.5 870.499C-63.5 807.133 -16.9391 754.47 43.7007 745.008L43.7058 745.007C43.8483 744.983 43.9828 744.959 44.1147 744.936C50.1729 744.01 56.3655 743.532 62.6691 743.5C119.039 744.24 164.678 790.381 164.678 847.021C164.678 880.062 148.843 909.753 124.39 928.786C138.829 913.605 147.718 893.077 147.718 870.499C147.718 830.395 119.707 796.753 82.2669 788.096C82.0326 787.936 81.757 787.797 81.4305 787.732L81.4252 787.731C78.8649 787.247 76.2836 786.883 73.691 786.583L-14.9145 970.393Z" stroke="url(#paint2_linear_618_603)"/>
<path d="M169.194 847.013C169.194 810.616 151.127 778.384 123.525 758.802C163.119 780.31 190.072 822.299 190.072 870.499C190.072 940.533 133.192 997.506 63.2857 997.506C61.3489 997.506 59.4255 997.443 57.5056 997.357L57.5035 997.356C57.3138 997.349 57.1217 997.339 56.9268 997.329L56.9249 997.329C56.7314 997.319 56.5351 997.309 56.3403 997.301C54.3362 997.191 52.3512 997.05 50.384 996.846L50.3675 996.844C50.3605 996.843 50.3511 996.842 50.3412 996.841C50.3293 996.839 50.3139 996.838 50.2958 996.837C49.4365 996.752 48.5893 996.636 47.7305 996.518C47.4005 996.473 47.0688 996.427 46.734 996.383C-3.2504 989.195 -42.064 945.647 -42.064 893.898C-42.064 853.855 -19.2449 819.052 14.0409 801.835C-7.25076 817.206 -21.1466 842.247 -21.1466 870.491C-21.1466 917.124 16.7301 955.065 63.2857 955.065H63.2859H63.286H63.2861H63.2863H63.2864H63.2866H63.2867H63.2869H63.287H63.2872H63.2873H63.2875H63.2877H63.2878H63.288H63.2881H63.2883H63.2885H63.2886H63.2888H63.289H63.2891H63.2893H63.2895H63.2896H63.2898H63.29H63.2902H63.2904H63.2905H63.2906H63.2908H63.2909H63.2911H63.2912H63.2913H63.2914H63.2916H63.2917H63.2918H63.2919H63.2921H63.2922H63.2923H63.2924H63.2926H63.2927H63.2928H63.2929H63.2931H63.2932H63.2933H63.2934H63.2936H63.2937H63.2938H63.294H63.2941H63.2942H63.2944H63.2945H63.2946H63.2947H63.2949H63.295H63.2951H63.2953H63.2954H63.2955H63.2957H63.2958H63.2959H63.2961H63.2962H63.2963H63.2965H63.2966H63.2968H63.2969H63.297H63.2972H63.2973H63.2974H63.2976H63.2977H63.2978H63.298H63.2981H63.2982H63.2984H63.2985H63.2987H63.2988H63.2989H63.2991H63.2992H63.2993H63.2995H63.2996H63.2998H63.2999H63.3H63.3002H63.3003H63.3005H63.3006H63.3007H63.3009H63.301H63.3011H63.3013H63.3014H63.3016H63.3017H63.3018H63.302H63.3021H63.3023H63.3024H63.3025H63.3027H63.3028H63.3029H63.3031H63.3032H63.3034H63.3035H63.3036H63.3038H63.3039H63.304H63.3042H63.3043H63.3045H63.3046H63.3047H63.3049H63.305H63.3051H63.3053H63.3054H63.3055H63.3057H63.3058H63.306H63.3061H63.3062H63.3064H63.3065H63.3066H63.3068H63.3069H63.307H63.3072H63.3073H63.3074H63.3076H63.3077H63.3078H63.308H63.3081H63.3082H63.3084H63.3085H63.3086H63.3088H63.3089H63.309H63.3091H63.3093H63.3094H63.3095H63.3097H63.3098H63.3099H63.31H63.3102H63.3103H63.3104H63.3105H63.3107H63.3108H63.3109H63.3111H63.3112H63.3113H63.3114H63.3115H63.3117H63.3118H63.3119H63.312H63.3121H63.3123H63.3124H63.3126H63.3127H63.3129H63.3131H63.3133H63.3134H63.3136H63.3138H63.3139H63.3141H63.3143H63.3145H63.3146H63.3148H63.3149H63.3151H63.3153H63.3154H63.3156H63.3157H63.3159H63.316H63.3162H63.3163H63.3165H63.3166H63.3168H63.3169H63.3171H63.3172H63.3174H63.3176H63.3178H63.318H63.3182H63.3184H63.3185H63.3187H63.3189H63.3191H63.3193H63.3195H63.3196H63.3198H63.32H63.3202H63.3204H63.3206H63.3208H63.3209H63.3211H63.3213H63.3215H63.3217H63.3219H63.3221H63.3222H63.3224H63.3226H63.3228H63.323H63.3232H63.3233H63.3235H63.3237H63.3239H63.3241H63.3243H63.3245H63.3246H63.3248H63.325H63.3252H63.3254H63.3256H63.3257H63.3259H63.3261H63.3263H63.3265H63.3267H63.3269H63.327H63.3272H63.3274H63.3276H63.3278H63.328H63.3281H63.3283H63.3285H63.3287H63.3289H63.3291H63.3293H63.3294H63.3296H63.3298H63.33H63.3302H63.3304H63.3306H63.3307H63.3309H63.3311H63.3313H63.3315H63.3317H63.3318H63.332H63.3322H63.3324H63.3326H63.3328H63.333H63.3331H63.3333H63.3335H63.3337H63.3339H63.3341H63.3342H63.3344H63.3346H63.3348H63.335H63.3352H63.3354H63.3355H63.3357H63.3359H63.3361H63.3363H63.3365H63.3366H63.3368H63.337H63.3372H63.3374H63.3376H63.3378H63.3379H63.3381H63.3383H63.3385H63.3387H63.3389H63.3391H63.3392H63.3394H63.3396H63.3398H63.34H63.3402H63.3403H63.3405H63.3407H63.3409H63.3411H63.3413H63.3415H63.3416H63.3418H63.342H63.3422H63.3424H63.3426H63.3428H63.3429H63.3431H63.3433H63.3435H63.3437H63.3439H63.344H63.3442H63.3444H63.3446H63.3448H63.345H63.3451H63.3453H63.3455H63.3457H63.3459H63.3461H63.3463H63.3464H63.3466H63.3468H63.347H63.3472H63.3474H63.3475H63.3477H63.3479H63.3481H63.3483H63.3485H63.3487H63.3488H63.349H63.3492H63.3494H63.3496H63.3498H63.35H63.3501H63.3503H63.3505H63.3507H63.3509H63.3511H63.3512H63.3514H63.3516H63.3518H63.352H63.3522H63.3524H63.3525H63.3527H63.3529H63.3531H63.3533H63.3535H63.3536H63.3538H63.354H63.3542H63.3544H63.3546H63.3548H63.3549H63.3551H63.3553H63.3555H63.3557H63.3559H63.356H63.3562H63.3564H63.3566H63.3568H63.357H63.3572H63.3573H63.3575H63.3577H63.3579H63.3581H63.3583H63.3585H63.3586H63.3588H63.359H63.3592H63.3594H63.3596H63.3597H63.3599H63.3601H63.3603H63.3605H63.3607H63.3609H63.361H63.3612H63.3614H63.3616H63.3618H63.362H63.3621H63.3623H63.3625H63.3627H63.3629H63.3631H63.3633H63.3634H63.3636H63.3638H63.364H63.3642H63.3644H63.3645H63.3654C68.1308 955.057 72.8003 954.637 77.35 953.869C100.43 950.43 121.704 939.658 138.304 922.709C158.223 902.378 169.194 875.494 169.194 847.013Z" stroke="url(#paint3_linear_618_603)"/>
<path d="M-14.9145 378.393C-15.1766 378.132 -15.4376 377.868 -15.6974 377.603L-15.6976 377.603C-35.6094 357.271 -46.5798 330.388 -46.5798 301.906C-46.5798 242.32 1.81406 193.838 61.3072 193.838C63.2812 193.838 65.2531 193.909 67.2217 194.02C67.2227 194.02 67.2236 194.02 67.2246 194.02L-14.9145 378.393ZM-14.9145 378.393C-44.4732 355.121 -63.4927 318.991 -63.5 278.499C-63.5 215.133 -16.9391 162.47 43.7007 153.008L43.7058 153.007C43.8483 152.983 43.9828 152.959 44.1147 152.936C50.1729 152.01 56.3655 151.532 62.6691 151.5C119.039 152.24 164.678 198.381 164.678 255.021C164.678 288.062 148.843 317.753 124.39 336.786C138.829 321.605 147.718 301.077 147.718 278.499C147.718 238.395 119.707 204.753 82.2669 196.096C82.0326 195.936 81.757 195.797 81.4305 195.732L81.4252 195.731C78.8649 195.247 76.2836 194.883 73.691 194.583L-14.9145 378.393Z" stroke="url(#paint4_linear_618_603)"/>
<path d="M169.194 255.013C169.194 218.616 151.127 186.384 123.525 166.802C163.119 188.31 190.072 230.299 190.072 278.499C190.072 348.533 133.192 405.506 63.2857 405.506C61.3489 405.506 59.4255 405.443 57.5056 405.357L57.5035 405.356C57.3138 405.349 57.1217 405.339 56.9268 405.329L56.9249 405.329C56.7314 405.319 56.5351 405.309 56.3403 405.301C54.3362 405.191 52.3512 405.05 50.384 404.846L50.3675 404.844C50.3605 404.843 50.3511 404.842 50.3412 404.841C50.3293 404.839 50.3139 404.838 50.2958 404.837C49.4365 404.752 48.5893 404.636 47.7305 404.518C47.4005 404.473 47.0688 404.427 46.734 404.383C-3.2504 397.195 -42.064 353.647 -42.064 301.898C-42.064 261.855 -19.2449 227.052 14.0409 209.835C-7.25076 225.206 -21.1466 250.247 -21.1466 278.491C-21.1466 325.124 16.7301 363.065 63.2857 363.065H63.2859H63.286H63.2861H63.2863H63.2864H63.2866H63.2867H63.2869H63.287H63.2872H63.2873H63.2875H63.2877H63.2878H63.288H63.2881H63.2883H63.2885H63.2886H63.2888H63.289H63.2891H63.2893H63.2895H63.2896H63.2898H63.29H63.2902H63.2904H63.2905H63.2906H63.2908H63.2909H63.2911H63.2912H63.2913H63.2914H63.2916H63.2917H63.2918H63.2919H63.2921H63.2922H63.2923H63.2924H63.2926H63.2927H63.2928H63.2929H63.2931H63.2932H63.2933H63.2934H63.2936H63.2937H63.2938H63.294H63.2941H63.2942H63.2944H63.2945H63.2946H63.2947H63.2949H63.295H63.2951H63.2953H63.2954H63.2955H63.2957H63.2958H63.2959H63.2961H63.2962H63.2963H63.2965H63.2966H63.2968H63.2969H63.297H63.2972H63.2973H63.2974H63.2976H63.2977H63.2978H63.298H63.2981H63.2982H63.2984H63.2985H63.2987H63.2988H63.2989H63.2991H63.2992H63.2993H63.2995H63.2996H63.2998H63.2999H63.3H63.3002H63.3003H63.3005H63.3006H63.3007H63.3009H63.301H63.3011H63.3013H63.3014H63.3016H63.3017H63.3018H63.302H63.3021H63.3023H63.3024H63.3025H63.3027H63.3028H63.3029H63.3031H63.3032H63.3034H63.3035H63.3036H63.3038H63.3039H63.304H63.3042H63.3043H63.3045H63.3046H63.3047H63.3049H63.305H63.3051H63.3053H63.3054H63.3055H63.3057H63.3058H63.306H63.3061H63.3062H63.3064H63.3065H63.3066H63.3068H63.3069H63.307H63.3072H63.3073H63.3074H63.3076H63.3077H63.3078H63.308H63.3081H63.3082H63.3084H63.3085H63.3086H63.3088H63.3089H63.309H63.3091H63.3093H63.3094H63.3095H63.3097H63.3098H63.3099H63.31H63.3102H63.3103H63.3104H63.3105H63.3107H63.3108H63.3109H63.3111H63.3112H63.3113H63.3114H63.3115H63.3117H63.3118H63.3119H63.312H63.3121H63.3123H63.3124H63.3126H63.3127H63.3129H63.3131H63.3133H63.3134H63.3136H63.3138H63.3139H63.3141H63.3143H63.3145H63.3146H63.3148H63.3149H63.3151H63.3153H63.3154H63.3156H63.3157H63.3159H63.316H63.3162H63.3163H63.3165H63.3166H63.3168H63.3169H63.3171H63.3172H63.3174H63.3176H63.3178H63.318H63.3182H63.3184H63.3185H63.3187H63.3189H63.3191H63.3193H63.3195H63.3196H63.3198H63.32H63.3202H63.3204H63.3206H63.3208H63.3209H63.3211H63.3213H63.3215H63.3217H63.3219H63.3221H63.3222H63.3224H63.3226H63.3228H63.323H63.3232H63.3233H63.3235H63.3237H63.3239H63.3241H63.3243H63.3245H63.3246H63.3248H63.325H63.3252H63.3254H63.3256H63.3257H63.3259H63.3261H63.3263H63.3265H63.3267H63.3269H63.327H63.3272H63.3274H63.3276H63.3278H63.328H63.3281H63.3283H63.3285H63.3287H63.3289H63.3291H63.3293H63.3294H63.3296H63.3298H63.33H63.3302H63.3304H63.3306H63.3307H63.3309H63.3311H63.3313H63.3315H63.3317H63.3318H63.332H63.3322H63.3324H63.3326H63.3328H63.333H63.3331H63.3333H63.3335H63.3337H63.3339H63.3341H63.3342H63.3344H63.3346H63.3348H63.335H63.3352H63.3354H63.3355H63.3357H63.3359H63.3361H63.3363H63.3365H63.3366H63.3368H63.337H63.3372H63.3374H63.3376H63.3378H63.3379H63.3381H63.3383H63.3385H63.3387H63.3389H63.3391H63.3392H63.3394H63.3396H63.3398H63.34H63.3402H63.3403H63.3405H63.3407H63.3409H63.3411H63.3413H63.3415H63.3416H63.3418H63.342H63.3422H63.3424H63.3426H63.3428H63.3429H63.3431H63.3433H63.3435H63.3437H63.3439H63.344H63.3442H63.3444H63.3446H63.3448H63.345H63.3451H63.3453H63.3455H63.3457H63.3459H63.3461H63.3463H63.3464H63.3466H63.3468H63.347H63.3472H63.3474H63.3475H63.3477H63.3479H63.3481H63.3483H63.3485H63.3487H63.3488H63.349H63.3492H63.3494H63.3496H63.3498H63.35H63.3501H63.3503H63.3505H63.3507H63.3509H63.3511H63.3512H63.3514H63.3516H63.3518H63.352H63.3522H63.3524H63.3525H63.3527H63.3529H63.3531H63.3533H63.3535H63.3536H63.3538H63.354H63.3542H63.3544H63.3546H63.3548H63.3549H63.3551H63.3553H63.3555H63.3557H63.3559H63.356H63.3562H63.3564H63.3566H63.3568H63.357H63.3572H63.3573H63.3575H63.3577H63.3579H63.3581H63.3583H63.3585H63.3586H63.3588H63.359H63.3592H63.3594H63.3596H63.3597H63.3599H63.3601H63.3603H63.3605H63.3607H63.3609H63.361H63.3612H63.3614H63.3616H63.3618H63.362H63.3621H63.3623H63.3625H63.3627H63.3629H63.3631H63.3633H63.3634H63.3636H63.3638H63.364H63.3642H63.3644H63.3645H63.3654C68.1308 363.057 72.8003 362.637 77.35 361.869C100.43 358.43 121.704 347.658 138.304 330.709C158.223 310.378 169.194 283.494 169.194 255.013Z" stroke="url(#paint5_linear_618_603)"/>
<path d="M1758.09 770.612C1757.82 770.874 1757.56 771.138 1757.3 771.403L1757.3 771.403C1737.39 791.734 1726.42 818.618 1726.42 847.1C1726.42 906.686 1774.81 955.168 1834.31 955.168C1836.28 955.168 1838.25 955.097 1840.22 954.986C1840.22 954.986 1840.22 954.986 1840.22 954.986L1758.09 770.612ZM1758.09 770.612C1728.53 793.885 1709.51 830.014 1709.5 870.507C1709.5 933.872 1756.06 986.535 1816.7 995.998L1816.71 995.999C1816.85 996.023 1816.98 996.046 1817.11 996.07C1823.17 996.995 1829.37 997.474 1835.67 997.506C1892.04 996.766 1937.68 950.624 1937.68 893.985C1937.68 860.943 1921.84 831.253 1897.39 812.22C1911.83 827.401 1920.72 847.929 1920.72 870.507C1920.72 910.611 1892.71 944.253 1855.27 952.91C1855.03 953.07 1854.76 953.209 1854.43 953.274L1854.43 953.275C1851.86 953.758 1849.28 954.123 1846.69 954.423L1758.09 770.612Z" stroke="url(#paint6_linear_618_603)"/>
<path d="M1942.19 893.993C1942.19 930.39 1924.13 962.622 1896.52 982.204C1936.12 960.696 1963.07 918.706 1963.07 870.507C1963.07 800.473 1906.19 743.5 1836.29 743.5C1834.35 743.5 1832.43 743.563 1830.51 743.649L1830.5 743.649C1830.31 743.657 1830.12 743.667 1829.93 743.677L1829.92 743.677C1829.73 743.687 1829.54 743.697 1829.34 743.704C1827.34 743.815 1825.35 743.956 1823.38 744.16L1823.37 744.161C1823.36 744.162 1823.35 744.164 1823.34 744.165C1823.33 744.167 1823.31 744.168 1823.3 744.169C1822.44 744.254 1821.59 744.37 1820.73 744.488C1820.4 744.533 1820.07 744.579 1819.73 744.623C1769.75 751.811 1730.94 795.359 1730.94 847.107C1730.94 887.151 1753.76 921.954 1787.04 939.171C1765.75 923.8 1751.85 898.759 1751.85 870.515C1751.85 823.882 1789.73 785.941 1836.29 785.941H1836.29H1836.29H1836.29H1836.29H1836.29H1836.29H1836.29H1836.29H1836.29H1836.29H1836.29H1836.29H1836.29H1836.29H1836.29H1836.29H1836.29H1836.29H1836.29H1836.29H1836.29H1836.29H1836.29H1836.29H1836.29H1836.29H1836.29H1836.29H1836.29H1836.29H1836.29H1836.29H1836.29H1836.29H1836.29H1836.29H1836.29H1836.29H1836.29H1836.29H1836.29H1836.29H1836.29H1836.29H1836.29H1836.29H1836.29H1836.29H1836.29H1836.29H1836.29H1836.29H1836.29H1836.29H1836.29H1836.29H1836.29H1836.29H1836.29H1836.29H1836.29H1836.29H1836.29H1836.29H1836.3H1836.3H1836.3H1836.3H1836.3H1836.3H1836.3H1836.3H1836.3H1836.3H1836.3H1836.3H1836.3H1836.3H1836.3H1836.3H1836.3H1836.3H1836.3H1836.3H1836.3H1836.3H1836.3H1836.3H1836.3H1836.3H1836.3H1836.3H1836.3H1836.3H1836.3H1836.3H1836.3H1836.3H1836.3H1836.3H1836.3H1836.3H1836.3H1836.3H1836.3H1836.3H1836.3H1836.3H1836.3H1836.3H1836.3H1836.3H1836.3H1836.3H1836.3H1836.3H1836.3H1836.3H1836.3H1836.3H1836.3H1836.3H1836.3H1836.3H1836.3H1836.3H1836.3H1836.3H1836.3H1836.3H1836.3H1836.3H1836.3H1836.3H1836.3H1836.3H1836.3H1836.31H1836.31H1836.31H1836.31H1836.31H1836.31H1836.31H1836.31H1836.31H1836.31H1836.31H1836.31H1836.31H1836.31H1836.31H1836.31H1836.31H1836.31H1836.31H1836.31H1836.31H1836.31H1836.31H1836.31H1836.31H1836.31H1836.31H1836.31H1836.31H1836.31H1836.31H1836.31H1836.31H1836.31H1836.31H1836.31H1836.31H1836.31H1836.31H1836.31H1836.31H1836.31H1836.31H1836.31H1836.31H1836.31H1836.31H1836.31H1836.31H1836.31H1836.31H1836.31H1836.31H1836.31H1836.31H1836.31H1836.31H1836.31H1836.31H1836.31H1836.31H1836.31H1836.31H1836.31H1836.31H1836.31H1836.31H1836.31H1836.31H1836.31H1836.31H1836.31H1836.31H1836.32H1836.32H1836.32H1836.32H1836.32H1836.32H1836.32H1836.32H1836.32H1836.32H1836.32H1836.32H1836.32H1836.32H1836.32H1836.32H1836.32H1836.32H1836.32H1836.32H1836.32H1836.32H1836.32H1836.32H1836.32H1836.32H1836.32H1836.32H1836.32H1836.32H1836.32H1836.32H1836.32H1836.32H1836.32H1836.32H1836.32H1836.32H1836.32H1836.32H1836.32H1836.32H1836.32H1836.32H1836.32H1836.32H1836.32H1836.32H1836.32H1836.32H1836.32H1836.32H1836.32H1836.32H1836.32H1836.32H1836.33H1836.33H1836.33H1836.33H1836.33H1836.33H1836.33H1836.33H1836.33H1836.33H1836.33H1836.33H1836.33H1836.33H1836.33H1836.33H1836.33H1836.33H1836.33H1836.33H1836.33H1836.33H1836.33H1836.33H1836.33H1836.33H1836.33H1836.33H1836.33H1836.33H1836.33H1836.33H1836.33H1836.33H1836.33H1836.33H1836.33H1836.33H1836.33H1836.33H1836.33H1836.33H1836.33H1836.33H1836.33H1836.33H1836.33H1836.33H1836.33H1836.33H1836.33H1836.33H1836.33H1836.33H1836.33H1836.34H1836.34H1836.34H1836.34H1836.34H1836.34H1836.34H1836.34H1836.34H1836.34H1836.34H1836.34H1836.34H1836.34H1836.34H1836.34H1836.34H1836.34H1836.34H1836.34H1836.34H1836.34H1836.34H1836.34H1836.34H1836.34H1836.34H1836.34H1836.34H1836.34H1836.34H1836.34H1836.34H1836.34H1836.34H1836.34H1836.34H1836.34H1836.34H1836.34H1836.34H1836.34H1836.34H1836.34H1836.34H1836.34H1836.34H1836.34H1836.34H1836.34H1836.34H1836.34H1836.34H1836.34H1836.35H1836.35H1836.35H1836.35H1836.35H1836.35H1836.35H1836.35H1836.35H1836.35H1836.35H1836.35H1836.35H1836.35H1836.35H1836.35H1836.35H1836.35H1836.35H1836.35H1836.35H1836.35H1836.35H1836.35H1836.35H1836.35H1836.35H1836.35H1836.35H1836.35H1836.35H1836.35H1836.35H1836.35H1836.35H1836.35H1836.35H1836.35H1836.35H1836.35H1836.35H1836.35H1836.35H1836.35H1836.35H1836.35H1836.35H1836.35H1836.35H1836.35H1836.35H1836.35H1836.35H1836.35H1836.36H1836.36H1836.36H1836.36H1836.36H1836.36H1836.36H1836.36H1836.36H1836.36H1836.36H1836.36H1836.36H1836.36H1836.36H1836.36H1836.36H1836.36H1836.36H1836.36H1836.36H1836.36H1836.36H1836.36H1836.36H1836.36H1836.36H1836.36H1836.36H1836.36H1836.36H1836.36H1836.36H1836.36H1836.36H1836.36H1836.36H1836.36H1836.36H1836.36H1836.36H1836.36H1836.36H1836.36H1836.36H1836.36H1836.36H1836.36H1836.36H1836.36H1836.36H1836.36H1836.37C1841.13 785.948 1845.8 786.369 1850.35 787.137C1873.43 790.576 1894.7 801.348 1911.3 818.296C1931.22 838.628 1942.19 865.512 1942.19 893.993Z" stroke="url(#paint7_linear_618_603)"/>
<path d="M1758.09 178.612C1757.82 178.874 1757.56 179.138 1757.3 179.403L1757.3 179.403C1737.39 199.734 1726.42 226.618 1726.42 255.1C1726.42 314.686 1774.81 363.168 1834.31 363.168C1836.28 363.168 1838.25 363.097 1840.22 362.986C1840.22 362.986 1840.22 362.986 1840.22 362.986L1758.09 178.612ZM1758.09 178.612C1728.53 201.885 1709.51 238.014 1709.5 278.507C1709.5 341.872 1756.06 394.535 1816.7 403.998L1816.71 403.999C1816.85 404.023 1816.98 404.046 1817.11 404.07C1823.17 404.995 1829.37 405.474 1835.67 405.506C1892.04 404.766 1937.68 358.624 1937.68 301.985C1937.68 268.943 1921.84 239.253 1897.39 220.22C1911.83 235.401 1920.72 255.929 1920.72 278.507C1920.72 318.611 1892.71 352.253 1855.27 360.91C1855.03 361.07 1854.76 361.209 1854.43 361.274L1854.43 361.275C1851.86 361.758 1849.28 362.123 1846.69 362.423L1758.09 178.612Z" stroke="url(#paint8_linear_618_603)"/>
<path d="M1942.19 301.993C1942.19 338.39 1924.13 370.622 1896.52 390.204C1936.12 368.696 1963.07 326.706 1963.07 278.507C1963.07 208.473 1906.19 151.5 1836.29 151.5C1834.35 151.5 1832.43 151.563 1830.51 151.649L1830.5 151.649C1830.31 151.657 1830.12 151.667 1829.93 151.677L1829.92 151.677C1829.73 151.687 1829.54 151.697 1829.34 151.704C1827.34 151.815 1825.35 151.956 1823.38 152.16L1823.37 152.161C1823.36 152.162 1823.35 152.164 1823.34 152.165C1823.33 152.167 1823.31 152.168 1823.3 152.169C1822.44 152.254 1821.59 152.37 1820.73 152.488C1820.4 152.533 1820.07 152.579 1819.73 152.623C1769.75 159.811 1730.94 203.359 1730.94 255.107C1730.94 295.151 1753.76 329.954 1787.04 347.171C1765.75 331.8 1751.85 306.759 1751.85 278.515C1751.85 231.882 1789.73 193.941 1836.29 193.941H1836.29H1836.29H1836.29H1836.29H1836.29H1836.29H1836.29H1836.29H1836.29H1836.29H1836.29H1836.29H1836.29H1836.29H1836.29H1836.29H1836.29H1836.29H1836.29H1836.29H1836.29H1836.29H1836.29H1836.29H1836.29H1836.29H1836.29H1836.29H1836.29H1836.29H1836.29H1836.29H1836.29H1836.29H1836.29H1836.29H1836.29H1836.29H1836.29H1836.29H1836.29H1836.29H1836.29H1836.29H1836.29H1836.29H1836.29H1836.29H1836.29H1836.29H1836.29H1836.29H1836.29H1836.29H1836.29H1836.29H1836.29H1836.29H1836.29H1836.29H1836.29H1836.29H1836.29H1836.29H1836.3H1836.3H1836.3H1836.3H1836.3H1836.3H1836.3H1836.3H1836.3H1836.3H1836.3H1836.3H1836.3H1836.3H1836.3H1836.3H1836.3H1836.3H1836.3H1836.3H1836.3H1836.3H1836.3H1836.3H1836.3H1836.3H1836.3H1836.3H1836.3H1836.3H1836.3H1836.3H1836.3H1836.3H1836.3H1836.3H1836.3H1836.3H1836.3H1836.3H1836.3H1836.3H1836.3H1836.3H1836.3H1836.3H1836.3H1836.3H1836.3H1836.3H1836.3H1836.3H1836.3H1836.3H1836.3H1836.3H1836.3H1836.3H1836.3H1836.3H1836.3H1836.3H1836.3H1836.3H1836.3H1836.3H1836.3H1836.3H1836.3H1836.3H1836.3H1836.3H1836.3H1836.31H1836.31H1836.31H1836.31H1836.31H1836.31H1836.31H1836.31H1836.31H1836.31H1836.31H1836.31H1836.31H1836.31H1836.31H1836.31H1836.31H1836.31H1836.31H1836.31H1836.31H1836.31H1836.31H1836.31H1836.31H1836.31H1836.31H1836.31H1836.31H1836.31H1836.31H1836.31H1836.31H1836.31H1836.31H1836.31H1836.31H1836.31H1836.31H1836.31H1836.31H1836.31H1836.31H1836.31H1836.31H1836.31H1836.31H1836.31H1836.31H1836.31H1836.31H1836.31H1836.31H1836.31H1836.31H1836.31H1836.31H1836.31H1836.31H1836.31H1836.31H1836.31H1836.31H1836.31H1836.31H1836.31H1836.31H1836.31H1836.31H1836.31H1836.31H1836.31H1836.31H1836.32H1836.32H1836.32H1836.32H1836.32H1836.32H1836.32H1836.32H1836.32H1836.32H1836.32H1836.32H1836.32H1836.32H1836.32H1836.32H1836.32H1836.32H1836.32H1836.32H1836.32H1836.32H1836.32H1836.32H1836.32H1836.32H1836.32H1836.32H1836.32H1836.32H1836.32H1836.32H1836.32H1836.32H1836.32H1836.32H1836.32H1836.32H1836.32H1836.32H1836.32H1836.32H1836.32H1836.32H1836.32H1836.32H1836.32H1836.32H1836.32H1836.32H1836.32H1836.32H1836.32H1836.32H1836.32H1836.32H1836.33H1836.33H1836.33H1836.33H1836.33H1836.33H1836.33H1836.33H1836.33H1836.33H1836.33H1836.33H1836.33H1836.33H1836.33H1836.33H1836.33H1836.33H1836.33H1836.33H1836.33H1836.33H1836.33H1836.33H1836.33H1836.33H1836.33H1836.33H1836.33H1836.33H1836.33H1836.33H1836.33H1836.33H1836.33H1836.33H1836.33H1836.33H1836.33H1836.33H1836.33H1836.33H1836.33H1836.33H1836.33H1836.33H1836.33H1836.33H1836.33H1836.33H1836.33H1836.33H1836.33H1836.33H1836.33H1836.34H1836.34H1836.34H1836.34H1836.34H1836.34H1836.34H1836.34H1836.34H1836.34H1836.34H1836.34H1836.34H1836.34H1836.34H1836.34H1836.34H1836.34H1836.34H1836.34H1836.34H1836.34H1836.34H1836.34H1836.34H1836.34H1836.34H1836.34H1836.34H1836.34H1836.34H1836.34H1836.34H1836.34H1836.34H1836.34H1836.34H1836.34H1836.34H1836.34H1836.34H1836.34H1836.34H1836.34H1836.34H1836.34H1836.34H1836.34H1836.34H1836.34H1836.34H1836.34H1836.34H1836.34H1836.35H1836.35H1836.35H1836.35H1836.35H1836.35H1836.35H1836.35H1836.35H1836.35H1836.35H1836.35H1836.35H1836.35H1836.35H1836.35H1836.35H1836.35H1836.35H1836.35H1836.35H1836.35H1836.35H1836.35H1836.35H1836.35H1836.35H1836.35H1836.35H1836.35H1836.35H1836.35H1836.35H1836.35H1836.35H1836.35H1836.35H1836.35H1836.35H1836.35H1836.35H1836.35H1836.35H1836.35H1836.35H1836.35H1836.35H1836.35H1836.35H1836.35H1836.35H1836.35H1836.35H1836.35H1836.36H1836.36H1836.36H1836.36H1836.36H1836.36H1836.36H1836.36H1836.36H1836.36H1836.36H1836.36H1836.36H1836.36H1836.36H1836.36H1836.36H1836.36H1836.36H1836.36H1836.36H1836.36H1836.36H1836.36H1836.36H1836.36H1836.36H1836.36H1836.36H1836.36H1836.36H1836.36H1836.36H1836.36H1836.36H1836.36H1836.36H1836.36H1836.36H1836.36H1836.36H1836.36H1836.36H1836.36H1836.36H1836.36H1836.36H1836.36H1836.36H1836.36H1836.36H1836.36H1836.37C1841.13 193.948 1845.8 194.369 1850.35 195.137C1873.43 198.576 1894.7 209.348 1911.3 226.296C1931.22 246.628 1942.19 273.512 1942.19 301.993Z" stroke="url(#paint9_linear_618_603)"/>
<path d="M1765.01 468.925C1762.47 471.078 1760.02 473.348 1757.66 475.753C1737.84 495.991 1726.92 522.749 1726.92 551.1C1726.92 610.41 1775.09 658.668 1834.31 658.668C1836.27 658.668 1838.23 658.597 1840.2 658.487C1841.41 658.431 1842.61 658.337 1843.81 658.234C1844.02 658.218 1844.23 658.203 1844.44 658.187C1845.17 658.116 1845.9 658.021 1846.63 657.927C1849.22 657.627 1851.79 657.265 1854.33 656.784C1854.61 656.728 1854.84 656.602 1855.06 656.445C1892.33 647.875 1920.22 614.407 1920.22 574.507C1920.22 549.531 1909.28 527.077 1891.96 511.664C1919.76 530.444 1938.18 562.263 1938.18 597.985C1938.18 654.899 1892.32 701.265 1835.67 702.006C1829.34 701.974 1823.12 701.493 1817.03 700.563C1816.9 700.539 1816.77 700.516 1816.62 700.492C1755.74 690.992 1709 638.122 1709 574.507C1709.01 530.641 1731.24 491.875 1765.01 468.925Z" fill="url(#paint10_linear_618_603)"/>
<path d="M1941.69 597.993C1941.69 569.643 1930.77 542.884 1910.95 522.646C1894.42 505.775 1873.25 495.053 1850.27 491.631C1845.75 490.866 1841.1 490.448 1836.36 490.441C1836.35 490.441 1836.33 490.441 1836.32 490.441C1836.31 490.441 1836.29 490.441 1836.29 490.441C1790.01 490.441 1752.35 528.157 1752.35 574.515C1752.35 605.128 1768.78 631.957 1793.25 646.669C1756.34 630.696 1730.44 593.878 1730.44 551.107C1730.44 499.105 1769.44 455.349 1819.67 448.128C1820.86 447.97 1822.06 447.788 1823.26 447.67C1823.29 447.67 1823.31 447.662 1823.33 447.662C1825.31 447.457 1827.31 447.315 1829.32 447.205C1829.7 447.189 1830.1 447.166 1830.48 447.15C1832.41 447.063 1834.34 447 1836.29 447C1906.47 447 1963.57 504.198 1963.57 574.507C1963.57 626.036 1932.89 670.494 1888.87 690.582C1920.45 671.842 1941.69 637.365 1941.69 597.993Z" fill="url(#paint11_linear_618_603)"/>
</g>
<defs>
<linearGradient id="paint0_linear_618_603" x1="-75" y1="562.509" x2="154.178" y2="562.509" gradientUnits="userSpaceOnUse">
<stop stop-color="#F300F8"/>
<stop offset="0.458333" stop-color="#8000FF"/>
<stop offset="1" stop-color="#002B99"/>
</linearGradient>
<linearGradient id="paint1_linear_618_603" x1="-53.564" y1="579.137" x2="179.572" y2="579.137" gradientUnits="userSpaceOnUse">
<stop stop-color="#002B99"/>
<stop offset="0.604167" stop-color="#8000FF"/>
<stop offset="1" stop-color="#F300F8"/>
</linearGradient>
<linearGradient id="paint2_linear_618_603" x1="-64" y1="858.509" x2="165.178" y2="858.509" gradientUnits="userSpaceOnUse">
<stop stop-color="#002B99"/>
<stop offset="0.604167" stop-color="#8000FF"/>
<stop offset="1" stop-color="#F300F8"/>
</linearGradient>
<linearGradient id="paint3_linear_618_603" x1="-42.564" y1="875.137" x2="190.572" y2="875.137" gradientUnits="userSpaceOnUse">
<stop stop-color="#002B99"/>
<stop offset="0.604167" stop-color="#8000FF"/>
<stop offset="1" stop-color="#F300F8"/>
</linearGradient>
<linearGradient id="paint4_linear_618_603" x1="-64" y1="266.509" x2="165.178" y2="266.509" gradientUnits="userSpaceOnUse">
<stop stop-color="#002B99"/>
<stop offset="0.604167" stop-color="#8000FF"/>
<stop offset="1" stop-color="#F300F8"/>
</linearGradient>
<linearGradient id="paint5_linear_618_603" x1="-42.564" y1="283.137" x2="190.572" y2="283.137" gradientUnits="userSpaceOnUse">
<stop stop-color="#002B99"/>
<stop offset="0.604167" stop-color="#8000FF"/>
<stop offset="1" stop-color="#F300F8"/>
</linearGradient>
<linearGradient id="paint6_linear_618_603" x1="1709" y1="882.497" x2="1938.18" y2="882.497" gradientUnits="userSpaceOnUse">
<stop stop-color="#002B99"/>
<stop offset="0.604167" stop-color="#8000FF"/>
<stop offset="1" stop-color="#F300F8"/>
</linearGradient>
<linearGradient id="paint7_linear_618_603" x1="1730.44" y1="865.869" x2="1963.57" y2="865.869" gradientUnits="userSpaceOnUse">
<stop stop-color="#002B99"/>
<stop offset="0.604167" stop-color="#8000FF"/>
<stop offset="1" stop-color="#F300F8"/>
</linearGradient>
<linearGradient id="paint8_linear_618_603" x1="1709" y1="290.497" x2="1938.18" y2="290.497" gradientUnits="userSpaceOnUse">
<stop stop-color="#002B99"/>
<stop offset="0.604167" stop-color="#8000FF"/>
<stop offset="1" stop-color="#F300F8"/>
</linearGradient>
<linearGradient id="paint9_linear_618_603" x1="1730.44" y1="273.869" x2="1963.57" y2="273.869" gradientUnits="userSpaceOnUse">
<stop stop-color="#002B99"/>
<stop offset="0.604167" stop-color="#8000FF"/>
<stop offset="1" stop-color="#F300F8"/>
</linearGradient>
<linearGradient id="paint10_linear_618_603" x1="1709" y1="586.497" x2="1938.18" y2="586.497" gradientUnits="userSpaceOnUse">
<stop stop-color="#F300F8"/>
<stop offset="0.458333" stop-color="#8000FF"/>
<stop offset="1" stop-color="#002B99"/>
</linearGradient>
<linearGradient id="paint11_linear_618_603" x1="1730.44" y1="569.869" x2="1963.57" y2="569.869" gradientUnits="userSpaceOnUse">
<stop stop-color="#002B99"/>
<stop offset="0.604167" stop-color="#8000FF"/>
<stop offset="1" stop-color="#F300F8"/>
</linearGradient>
<clipPath id="clip0_618_603">
<rect width="1920" height="1080" fill="white"/>
</clipPath>
</defs>
</svg>