<svg width="1920" height="1080" viewBox="0 0 1920 1080" fill="none" xmlns="http://www.w3.org/2000/svg">
<g clip-path="url(#clip0_602_5658)">
<rect width="1920" height="1080" fill="white"/>
<path d="M1627.78 530.348L1716.27 379.24L1804.79 530.348H1627.78Z" stroke="url(#paint0_linear_602_5658)" stroke-opacity="0.2" stroke-width="2"/>
<path d="M1738.24 1H1926.59L2020.71 161.757H1832.36L1738.24 1Z" stroke="url(#paint1_linear_602_5658)" stroke-opacity="0.2" stroke-width="2"/>
<path d="M1399.99 520.737L1195.37 171.386L1289.5 10.6088L1494.13 359.998L1399.99 520.737Z" stroke="url(#paint2_linear_602_5658)" stroke-opacity="0.2" stroke-width="2"/>
<path d="M1721.33 10.6088L1815.47 171.386L1610.88 520.737L1516.71 359.998L1721.33 10.6088Z" stroke="url(#paint3_linear_602_5658)" stroke-opacity="0.2" stroke-width="2"/>
<path d="M1090.57 369.632H1288.93L1383.05 530.35H1184.69L1090.57 369.632Z" stroke="url(#paint4_linear_602_5658)" stroke-opacity="0.2" stroke-width="2"/>
<path d="M1073.62 700.757L979.45 540.018L1073.62 379.241L1167.76 540.018L1073.62 700.757Z" stroke="url(#paint5_linear_602_5658)" stroke-opacity="0.2" stroke-width="2"/>
<path d="M1927.12 369.632H1927.16H1927.2H2142.42L2236.59 530.35H1827.37L1733.21 369.632H1927.12Z" stroke="url(#paint6_linear_602_5658)" stroke-opacity="0.2" stroke-width="2"/>
<path d="M2020.71 181.021L1921.52 350.331H1733.21L1832.36 181.021H2020.71Z" stroke="url(#paint7_linear_602_5658)" stroke-opacity="0.2" stroke-width="2"/>
<path d="M1522.36 710.369L1610.88 559.261L1699.37 710.369H1522.36Z" stroke="url(#paint8_linear_602_5658)" stroke-opacity="0.2" stroke-width="2"/>
<path d="M1416.93 530.348L1505.42 379.24L1593.94 530.348H1416.93Z" stroke="url(#paint9_linear_602_5658)" stroke-opacity="0.2" stroke-width="2"/>
<path d="M2020.71 918.242L1926.59 1079H1738.24L1832.36 918.242H2020.71Z" stroke="url(#paint10_linear_602_5658)" stroke-opacity="0.2" stroke-width="2"/>
<path d="M1832.36 898.979L1627.78 549.65H1816.1L2020.71 898.979H1832.36Z" stroke="url(#paint11_linear_602_5658)" stroke-opacity="0.2" stroke-width="2"/>
<path d="M1721.33 1069.39L1622.13 900.017L1716.27 739.278L1815.47 908.61L1721.33 1069.39Z" stroke="url(#paint12_linear_602_5658)" stroke-opacity="0.2" stroke-width="2"/>
<path d="M1306.44 1079L1511.06 729.671H1699.37L1494.76 1079H1306.44Z" stroke="url(#paint13_linear_602_5658)" stroke-opacity="0.2" stroke-width="2"/>
<path d="M1400.03 549.65H1593.94L1499.78 710.368H1090.57L1184.69 549.65H1399.95H1399.99H1400.03Z" stroke="url(#paint14_linear_602_5658)" stroke-opacity="0.2" stroke-width="2"/>
<path d="M1306.44 1H1494.76L1599.59 179.942L1505.42 340.72L1306.44 1Z" stroke="url(#paint15_linear_602_5658)" stroke-opacity="0.2" stroke-width="2"/>
<path d="M2236.59 549.65L2142.43 710.368H1932.8L1838.64 549.65H2236.59Z" stroke="url(#paint16_linear_602_5658)" stroke-opacity="0.2" stroke-width="2"/>
<path d="M1195.37 908.613L1300.17 729.671H1488.48L1289.5 1069.39L1195.37 908.613Z" stroke="url(#paint17_linear_602_5658)" stroke-opacity="0.2" stroke-width="2"/>
<path d="M504.193 525.337L459.16 447.356L414.146 525.337H504.193Z" fill="url(#paint18_linear_602_5658)"/>
<path d="M611.909 338.799L564.368 256.431H469.248L516.789 338.799H611.909Z" fill="url(#paint19_linear_602_5658)"/>
<path d="M348.917 438.62L246.255 260.799L198.715 343.167L301.377 520.969L348.917 438.62Z" fill="url(#paint20_linear_602_5658)"/>
<path d="M406.584 520.969L509.226 343.167L461.686 260.799L359.024 438.62L406.584 520.969Z" fill="url(#paint21_linear_602_5658)"/>
<path d="M293.796 525.337L246.256 442.988H146.141L193.681 525.337H293.796Z" fill="url(#paint22_linear_602_5658)"/>
<path d="M186.1 529.725L138.56 447.356L91 529.725L138.56 612.073L186.1 529.725Z" fill="url(#paint23_linear_602_5658)"/>
<path d="M564.367 442.988H564.348H466.74L514.3 525.337H719.604L672.044 442.988H564.387H564.367Z" fill="url(#paint24_linear_602_5658)"/>
<path d="M466.74 434.233H561.84L611.908 347.536H516.788L466.74 434.233Z" fill="url(#paint25_linear_602_5658)"/>
<path d="M451.598 616.442L406.584 538.461L361.551 616.442H451.598Z" fill="url(#paint26_linear_602_5658)"/>
<path d="M399.004 525.337L353.971 447.356L308.957 525.337H399.004Z" fill="url(#paint27_linear_602_5658)"/>
<path d="M469.248 803H564.368L611.909 720.631H516.789L469.248 803Z" fill="url(#paint28_linear_602_5658)"/>
<path d="M414.146 534.093L516.788 711.895H611.909L509.247 534.093H414.146Z" fill="url(#paint29_linear_602_5658)"/>
<path d="M509.226 716.263L459.159 629.566L411.619 711.915L461.686 798.632L509.226 716.263Z" fill="url(#paint30_linear_602_5658)"/>
<path d="M451.598 625.198H356.497L253.836 803H348.937L451.598 625.198Z" fill="url(#paint31_linear_602_5658)"/>
<path d="M399.005 534.093H301.397H301.377H301.357H193.681L146.141 616.442H351.445L399.005 534.093Z" fill="url(#paint32_linear_602_5658)"/>
<path d="M401.531 347.496L348.937 256.431H253.836L353.971 429.865L401.531 347.496Z" fill="url(#paint33_linear_602_5658)"/>
<path d="M566.896 616.442H672.045L719.605 534.093H519.335L566.896 616.442Z" fill="url(#paint34_linear_602_5658)"/>
<path d="M346.39 625.198H251.29L198.715 716.264L246.255 798.632L346.39 625.198Z" fill="url(#paint35_linear_602_5658)"/>
<path d="M426.068 514.626L467.572 442.726L509.093 514.626H426.068Z" stroke="black" stroke-width="4"/>
<path d="M481.113 250H571.516L616.698 328.283H526.295L481.113 250Z" stroke="black" stroke-width="4"/>
<path d="M309.953 508.262L209.708 334.645L254.89 256.363L355.135 429.999L309.953 508.262Z" stroke="black" stroke-width="4"/>
<path d="M470.094 256.363L515.276 334.645L415.05 508.262L369.849 429.999L470.094 256.363Z" stroke="black" stroke-width="4"/>
<path d="M158.342 436.364H253.734L298.916 514.627H203.524L158.342 436.364Z" stroke="black" stroke-width="4"/>
<path d="M147.305 599.272L102.105 521.009L147.305 442.727L192.487 521.009L147.305 599.272Z" stroke="black" stroke-width="4"/>
<path d="M572.649 436.364H572.669H572.689H679.078L724.279 514.627H523.808L478.608 436.364H572.649Z" stroke="black" stroke-width="4"/>
<path d="M616.695 341.011L568.99 423.618H478.607L526.294 341.011H616.695Z" stroke="black" stroke-width="4"/>
<path d="M373.529 605.637L415.05 533.737L456.554 605.637H373.529Z" stroke="black" stroke-width="4"/>
<path d="M320.99 514.626L362.493 442.726L404.015 514.626H320.99Z" stroke="black" stroke-width="4"/>
<path d="M616.698 713.717L571.516 791.999H481.113L526.295 713.717H616.698Z" stroke="black" stroke-width="4"/>
<path d="M526.294 700.99L426.068 527.373H516.451L616.696 700.99H526.294Z" stroke="black" stroke-width="4"/>
<path d="M470.095 785.635L422.389 703.009L467.571 624.746L515.277 707.353L470.095 785.635Z" stroke="black" stroke-width="4"/>
<path d="M265.927 792L366.172 618.384H456.554L356.309 792H265.927Z" stroke="black" stroke-width="4"/>
<path d="M309.972 527.373H404.014L358.814 605.636H158.342L203.524 527.373H309.933H309.953H309.972Z" stroke="black" stroke-width="4"/>
<path d="M265.927 250H356.309L407.694 338.971L362.493 417.253L265.927 250Z" stroke="black" stroke-width="4"/>
<path d="M724.281 527.373L679.08 605.636H576.35L531.149 527.373H724.281Z" stroke="black" stroke-width="4"/>
<path d="M209.708 707.354L261.073 618.384H351.456L254.89 785.636L209.708 707.354Z" stroke="black" stroke-width="4"/>
<g filter="url(#filter0_f_602_5658)">
<ellipse cx="386" cy="885.5" rx="279" ry="16.5" fill="black" fill-opacity="0.89"/>
</g>
</g>
<defs>
<filter id="filter0_f_602_5658" x="-93" y="669" width="958" height="433" filterUnits="userSpaceOnUse" color-interpolation-filters="sRGB">
<feFlood flood-opacity="0" result="BackgroundImageFix"/>
<feBlend mode="normal" in="SourceGraphic" in2="BackgroundImageFix" result="shape"/>
<feGaussianBlur stdDeviation="100" result="effect1_foregroundBlur_602_5658"/>
</filter>
<linearGradient id="paint0_linear_602_5658" x1="1626.04" y1="453.623" x2="1806.54" y2="453.623" gradientUnits="userSpaceOnUse">
<stop stop-color="#002B99"/>
<stop offset="0.604167" stop-color="#8000FF"/>
<stop offset="1" stop-color="#F300F8"/>
</linearGradient>
<linearGradient id="paint1_linear_602_5658" x1="1736.49" y1="80.6582" x2="2022.46" y2="80.6582" gradientUnits="userSpaceOnUse">
<stop stop-color="#002B99"/>
<stop offset="0.604167" stop-color="#8000FF"/>
<stop offset="1" stop-color="#F300F8"/>
</linearGradient>
<linearGradient id="paint2_linear_602_5658" x1="1194.21" y1="263.398" x2="1495.29" y2="263.398" gradientUnits="userSpaceOnUse">
<stop stop-color="#002B99"/>
<stop offset="0.604167" stop-color="#8000FF"/>
<stop offset="1" stop-color="#F300F8"/>
</linearGradient>
<linearGradient id="paint3_linear_602_5658" x1="1515.55" y1="263.398" x2="1816.63" y2="263.398" gradientUnits="userSpaceOnUse">
<stop stop-color="#002B99"/>
<stop offset="0.604167" stop-color="#8000FF"/>
<stop offset="1" stop-color="#F300F8"/>
</linearGradient>
<linearGradient id="paint4_linear_602_5658" x1="1088.82" y1="449.271" x2="1384.8" y2="449.271" gradientUnits="userSpaceOnUse">
<stop stop-color="#002B99"/>
<stop offset="0.604167" stop-color="#8000FF"/>
<stop offset="1" stop-color="#F300F8"/>
</linearGradient>
<linearGradient id="paint5_linear_602_5658" x1="978.291" y1="538.559" x2="1168.92" y2="538.559" gradientUnits="userSpaceOnUse">
<stop stop-color="#002B99"/>
<stop offset="0.604167" stop-color="#8000FF"/>
<stop offset="1" stop-color="#F300F8"/>
</linearGradient>
<linearGradient id="paint6_linear_602_5658" x1="1731.46" y1="449.271" x2="2238.33" y2="449.271" gradientUnits="userSpaceOnUse">
<stop stop-color="#002B99"/>
<stop offset="0.604167" stop-color="#8000FF"/>
<stop offset="1" stop-color="#F300F8"/>
</linearGradient>
<linearGradient id="paint7_linear_602_5658" x1="1731.46" y1="264.918" x2="2022.45" y2="264.918" gradientUnits="userSpaceOnUse">
<stop stop-color="#002B99"/>
<stop offset="0.604167" stop-color="#8000FF"/>
<stop offset="1" stop-color="#F300F8"/>
</linearGradient>
<linearGradient id="paint8_linear_602_5658" x1="1520.61" y1="633.644" x2="1701.11" y2="633.644" gradientUnits="userSpaceOnUse">
<stop stop-color="#002B99"/>
<stop offset="0.604167" stop-color="#8000FF"/>
<stop offset="1" stop-color="#F300F8"/>
</linearGradient>
<linearGradient id="paint9_linear_602_5658" x1="1415.19" y1="453.623" x2="1595.69" y2="453.623" gradientUnits="userSpaceOnUse">
<stop stop-color="#002B99"/>
<stop offset="0.604167" stop-color="#8000FF"/>
<stop offset="1" stop-color="#F300F8"/>
</linearGradient>
<linearGradient id="paint10_linear_602_5658" x1="1736.49" y1="997.9" x2="2022.46" y2="997.9" gradientUnits="userSpaceOnUse">
<stop stop-color="#002B99"/>
<stop offset="0.604167" stop-color="#8000FF"/>
<stop offset="1" stop-color="#F300F8"/>
</linearGradient>
<linearGradient id="paint11_linear_602_5658" x1="1626.04" y1="722.76" x2="2022.46" y2="722.76" gradientUnits="userSpaceOnUse">
<stop stop-color="#002B99"/>
<stop offset="0.604167" stop-color="#8000FF"/>
<stop offset="1" stop-color="#F300F8"/>
</linearGradient>
<linearGradient id="paint12_linear_602_5658" x1="1620.97" y1="902.855" x2="1816.63" y2="902.855" gradientUnits="userSpaceOnUse">
<stop stop-color="#002B99"/>
<stop offset="0.604167" stop-color="#8000FF"/>
<stop offset="1" stop-color="#F300F8"/>
</linearGradient>
<linearGradient id="paint13_linear_602_5658" x1="1304.7" y1="902.781" x2="1701.11" y2="902.781" gradientUnits="userSpaceOnUse">
<stop stop-color="#002B99"/>
<stop offset="0.604167" stop-color="#8000FF"/>
<stop offset="1" stop-color="#F300F8"/>
</linearGradient>
<linearGradient id="paint14_linear_602_5658" x1="1088.82" y1="629.289" x2="1595.69" y2="629.289" gradientUnits="userSpaceOnUse">
<stop stop-color="#002B99"/>
<stop offset="0.604167" stop-color="#8000FF"/>
<stop offset="1" stop-color="#F300F8"/>
</linearGradient>
<linearGradient id="paint15_linear_602_5658" x1="1304.7" y1="169.833" x2="1600.75" y2="169.833" gradientUnits="userSpaceOnUse">
<stop stop-color="#002B99"/>
<stop offset="0.604167" stop-color="#8000FF"/>
<stop offset="1" stop-color="#F300F8"/>
</linearGradient>
<linearGradient id="paint16_linear_602_5658" x1="1836.89" y1="629.289" x2="2238.34" y2="629.289" gradientUnits="userSpaceOnUse">
<stop stop-color="#002B99"/>
<stop offset="0.604167" stop-color="#8000FF"/>
<stop offset="1" stop-color="#F300F8"/>
</linearGradient>
<linearGradient id="paint17_linear_602_5658" x1="1194.21" y1="898.504" x2="1490.22" y2="898.504" gradientUnits="userSpaceOnUse">
<stop stop-color="#002B99"/>
<stop offset="0.604167" stop-color="#8000FF"/>
<stop offset="1" stop-color="#F300F8"/>
</linearGradient>
<linearGradient id="paint18_linear_602_5658" x1="414.146" y1="486.002" x2="504.193" y2="486.002" gradientUnits="userSpaceOnUse">
<stop stop-color="#002B99"/>
<stop offset="0.604167" stop-color="#8000FF"/>
<stop offset="1" stop-color="#F300F8"/>
</linearGradient>
<linearGradient id="paint19_linear_602_5658" x1="469.248" y1="297.25" x2="611.909" y2="297.25" gradientUnits="userSpaceOnUse">
<stop stop-color="#002B99"/>
<stop offset="0.604167" stop-color="#8000FF"/>
<stop offset="1" stop-color="#F300F8"/>
</linearGradient>
<linearGradient id="paint20_linear_602_5658" x1="198.715" y1="389.733" x2="348.917" y2="389.733" gradientUnits="userSpaceOnUse">
<stop stop-color="#002B99"/>
<stop offset="0.604167" stop-color="#8000FF"/>
<stop offset="1" stop-color="#F300F8"/>
</linearGradient>
<linearGradient id="paint21_linear_602_5658" x1="359.024" y1="389.733" x2="509.226" y2="389.733" gradientUnits="userSpaceOnUse">
<stop stop-color="#002B99"/>
<stop offset="0.604167" stop-color="#8000FF"/>
<stop offset="1" stop-color="#F300F8"/>
</linearGradient>
<linearGradient id="paint22_linear_602_5658" x1="146.141" y1="483.798" x2="293.796" y2="483.798" gradientUnits="userSpaceOnUse">
<stop stop-color="#002B99"/>
<stop offset="0.604167" stop-color="#8000FF"/>
<stop offset="1" stop-color="#F300F8"/>
</linearGradient>
<linearGradient id="paint23_linear_602_5658" x1="91" y1="528.986" x2="186.1" y2="528.986" gradientUnits="userSpaceOnUse">
<stop stop-color="#002B99"/>
<stop offset="0.604167" stop-color="#8000FF"/>
<stop offset="1" stop-color="#F300F8"/>
</linearGradient>
<linearGradient id="paint24_linear_602_5658" x1="466.74" y1="483.798" x2="719.604" y2="483.798" gradientUnits="userSpaceOnUse">
<stop stop-color="#002B99"/>
<stop offset="0.604167" stop-color="#8000FF"/>
<stop offset="1" stop-color="#F300F8"/>
</linearGradient>
<linearGradient id="paint25_linear_602_5658" x1="466.74" y1="390.501" x2="611.908" y2="390.501" gradientUnits="userSpaceOnUse">
<stop stop-color="#002B99"/>
<stop offset="0.604167" stop-color="#8000FF"/>
<stop offset="1" stop-color="#F300F8"/>
</linearGradient>
<linearGradient id="paint26_linear_602_5658" x1="361.551" y1="577.107" x2="451.598" y2="577.107" gradientUnits="userSpaceOnUse">
<stop stop-color="#002B99"/>
<stop offset="0.604167" stop-color="#8000FF"/>
<stop offset="1" stop-color="#F300F8"/>
</linearGradient>
<linearGradient id="paint27_linear_602_5658" x1="308.957" y1="486.002" x2="399.004" y2="486.002" gradientUnits="userSpaceOnUse">
<stop stop-color="#002B99"/>
<stop offset="0.604167" stop-color="#8000FF"/>
<stop offset="1" stop-color="#F300F8"/>
</linearGradient>
<linearGradient id="paint28_linear_602_5658" x1="469.248" y1="761.451" x2="611.909" y2="761.451" gradientUnits="userSpaceOnUse">
<stop stop-color="#002B99"/>
<stop offset="0.604167" stop-color="#8000FF"/>
<stop offset="1" stop-color="#F300F8"/>
</linearGradient>
<linearGradient id="paint29_linear_602_5658" x1="414.146" y1="622.208" x2="611.909" y2="622.208" gradientUnits="userSpaceOnUse">
<stop stop-color="#002B99"/>
<stop offset="0.604167" stop-color="#8000FF"/>
<stop offset="1" stop-color="#F300F8"/>
</linearGradient>
<linearGradient id="paint30_linear_602_5658" x1="411.619" y1="713.351" x2="509.226" y2="713.351" gradientUnits="userSpaceOnUse">
<stop stop-color="#002B99"/>
<stop offset="0.604167" stop-color="#8000FF"/>
<stop offset="1" stop-color="#F300F8"/>
</linearGradient>
<linearGradient id="paint31_linear_602_5658" x1="253.836" y1="713.313" x2="451.598" y2="713.313" gradientUnits="userSpaceOnUse">
<stop stop-color="#002B99"/>
<stop offset="0.604167" stop-color="#8000FF"/>
<stop offset="1" stop-color="#F300F8"/>
</linearGradient>
<linearGradient id="paint32_linear_602_5658" x1="146.141" y1="574.903" x2="399.005" y2="574.903" gradientUnits="userSpaceOnUse">
<stop stop-color="#002B99"/>
<stop offset="0.604167" stop-color="#8000FF"/>
<stop offset="1" stop-color="#F300F8"/>
</linearGradient>
<linearGradient id="paint33_linear_602_5658" x1="253.836" y1="342.38" x2="401.531" y2="342.38" gradientUnits="userSpaceOnUse">
<stop stop-color="#002B99"/>
<stop offset="0.604167" stop-color="#8000FF"/>
<stop offset="1" stop-color="#F300F8"/>
</linearGradient>
<linearGradient id="paint34_linear_602_5658" x1="519.335" y1="574.903" x2="719.605" y2="574.903" gradientUnits="userSpaceOnUse">
<stop stop-color="#002B99"/>
<stop offset="0.604167" stop-color="#8000FF"/>
<stop offset="1" stop-color="#F300F8"/>
</linearGradient>
<linearGradient id="paint35_linear_602_5658" x1="198.715" y1="711.148" x2="346.39" y2="711.148" gradientUnits="userSpaceOnUse">
<stop stop-color="#002B99"/>
<stop offset="0.604167" stop-color="#8000FF"/>
<stop offset="1" stop-color="#F300F8"/>
</linearGradient>
<clipPath id="clip0_602_5658">
<rect width="1920" height="1080" fill="white"/>
</clipPath>
</defs>
</svg>
