<svg width="62" height="50" viewBox="0 0 62 50" fill="none" xmlns="http://www.w3.org/2000/svg">
<path d="M62 5.91888C59.6783 6.93951 57.2158 7.60945 54.6942 7.90643C57.3207 6.34427 59.3374 3.87054 60.287 0.923113C57.7902 2.39343 55.0584 3.42935 52.2098 3.98614C49.8894 1.53307 46.5838 0 42.9251 0C35.9002 0 30.2047 5.65163 30.2047 12.6222C30.2047 13.6117 30.3173 14.5749 30.534 15.499C19.9625 14.9724 10.5899 9.94732 4.31602 2.31055C3.22134 4.1748 2.59407 6.34331 2.59407 8.65626C2.59407 13.0356 4.83987 16.8989 8.25278 19.1626C6.23281 19.0998 4.25729 18.5584 2.49114 17.5836C2.49041 17.6365 2.49041 17.6894 2.49041 17.7425C2.49041 23.8582 6.87498 28.9599 12.6938 30.1195C10.8207 30.6251 8.8559 30.699 6.94957 30.3358C8.56811 35.3506 13.2658 38.9998 18.8318 39.1019C14.4785 42.4872 8.99363 44.5053 3.03437 44.5053C2.00749 44.5053 0.995148 44.4455 0 44.3289C5.62916 47.9103 12.3152 50 19.4985 50C42.8955 50 55.6896 30.766 55.6896 14.0861C55.6896 13.5386 55.6775 12.9942 55.6528 12.453C58.143 10.6666 60.2924 8.45394 62 5.91888Z" fill="url(#paint0_linear_611_877)"/>
<defs>
<linearGradient id="paint0_linear_611_877" x1="9.73868e-08" y1="24.7788" x2="62" y2="24.7788" gradientUnits="userSpaceOnUse">
<stop stop-color="#002B99"/>
<stop offset="0.604167" stop-color="#8000FF"/>
<stop offset="1" stop-color="#F300F8"/>
</linearGradient>
</defs>
</svg>
