<svg width="768" height="1604" viewBox="0 0 768 1604" fill="none" xmlns="http://www.w3.org/2000/svg">
<g clip-path="url(#clip0_778_7)">
<g filter="url(#filter0_f_778_7)">
<ellipse cx="368" cy="1378" rx="297" ry="16" fill="black" fill-opacity="0.89"/>
</g>
<path d="M383.01 1251.22V1013.47L588.904 894.602V1066.6L542.884 1040.04V980.603C542.884 980.521 542.851 980.456 542.835 980.391C542.819 980.147 542.754 979.919 542.689 979.675C542.623 979.43 542.575 979.203 542.461 978.991C542.428 978.926 542.428 978.844 542.396 978.779C542.249 978.519 542.054 978.291 541.858 978.079C541.842 978.063 541.826 978.047 541.809 978.014C541.516 977.721 541.158 977.51 540.8 977.331C540.703 977.282 540.605 977.249 540.507 977.217C540.1 977.07 539.693 976.972 539.27 976.972C538.847 976.972 538.44 977.07 538.033 977.217C537.919 977.249 537.821 977.298 537.723 977.347C537.642 977.396 537.544 977.412 537.463 977.461L430.902 1038.98L430.869 1038.99C430.853 1039.01 430.853 1039.01 430.837 1039.03C430.576 1039.17 430.349 1039.35 430.137 1039.56C430.121 1039.58 430.104 1039.6 430.088 1039.63C430.023 1039.69 429.99 1039.78 429.925 1039.84C429.844 1039.92 429.779 1040.02 429.714 1040.1C429.665 1040.18 429.583 1040.25 429.534 1040.33C429.502 1040.39 429.502 1040.48 429.469 1040.54C429.404 1040.69 429.339 1040.82 429.29 1040.98C429.242 1041.14 429.193 1041.31 429.16 1041.47C429.127 1041.63 429.111 1041.78 429.095 1041.94C429.095 1042.02 429.046 1042.09 429.046 1042.15V1165.22C429.046 1165.3 429.079 1165.37 429.095 1165.43C429.111 1165.68 429.176 1165.9 429.241 1166.13C429.307 1166.38 429.355 1166.6 429.469 1166.82C429.502 1166.88 429.502 1166.96 429.534 1167.03C429.616 1167.16 429.746 1167.24 429.828 1167.37C429.974 1167.56 430.12 1167.76 430.316 1167.92C430.495 1168.07 430.69 1168.2 430.886 1168.31C431.081 1168.43 431.276 1168.54 431.504 1168.61C431.748 1168.69 431.993 1168.72 432.237 1168.75C432.383 1168.77 432.514 1168.83 432.676 1168.83C432.758 1168.83 432.807 1168.8 432.888 1168.79C433.132 1168.77 433.36 1168.7 433.588 1168.64C433.832 1168.57 434.06 1168.51 434.288 1168.4C434.353 1168.36 434.418 1168.36 434.483 1168.33L485.957 1138.62L531.977 1165.19L383.01 1251.22Z" fill="url(#paint0_linear_778_7)"/>
<path d="M324.487 1168.43C324.715 1168.54 324.943 1168.59 325.188 1168.66C325.432 1168.72 325.66 1168.79 325.887 1168.8C325.969 1168.8 326.018 1168.85 326.099 1168.85C326.262 1168.85 326.392 1168.79 326.538 1168.77C326.799 1168.74 327.027 1168.71 327.271 1168.62C327.499 1168.54 327.678 1168.44 327.89 1168.33C328.085 1168.22 328.281 1168.1 328.46 1167.94C328.655 1167.78 328.801 1167.58 328.948 1167.39C329.045 1167.27 329.176 1167.19 329.241 1167.04C329.274 1166.98 329.274 1166.9 329.306 1166.83C329.42 1166.62 329.469 1166.38 329.534 1166.15C329.599 1165.91 329.664 1165.68 329.681 1165.45C329.681 1165.37 329.729 1165.3 329.729 1165.24V1042.17C329.729 1042.09 329.697 1042.02 329.681 1041.96C329.664 1041.8 329.648 1041.65 329.615 1041.49C329.583 1041.32 329.534 1041.16 329.485 1041C329.436 1040.85 329.371 1040.7 329.306 1040.56C329.274 1040.49 329.274 1040.41 329.241 1040.35C329.192 1040.27 329.127 1040.2 329.062 1040.12C328.997 1040.02 328.932 1039.94 328.85 1039.84C328.802 1039.78 328.753 1039.7 328.687 1039.63C328.671 1039.61 328.655 1039.6 328.639 1039.57C328.427 1039.35 328.183 1039.17 327.939 1039.03C327.922 1039.01 327.922 1039.01 327.906 1039L327.873 1038.98L221.312 977.462C221.231 977.413 221.133 977.396 221.052 977.348C220.954 977.299 220.856 977.266 220.742 977.217C220.335 977.071 219.928 976.973 219.505 976.973C219.082 976.973 218.659 977.071 218.268 977.217C218.17 977.25 218.073 977.299 217.975 977.331C217.601 977.51 217.259 977.722 216.966 978.015C216.95 978.031 216.933 978.048 216.917 978.08C216.722 978.292 216.526 978.52 216.38 978.78C216.347 978.845 216.347 978.927 216.315 978.992C216.201 979.203 216.152 979.431 216.087 979.675C216.022 979.92 215.957 980.148 215.94 980.376C215.94 980.457 215.891 980.522 215.891 980.587V1040.02L169.871 1066.59V894.619L375.766 1013.49V1251.24L226.798 1165.24L272.818 1138.67L324.292 1168.38C324.341 1168.4 324.422 1168.4 324.487 1168.43Z" fill="url(#paint1_linear_778_7)"/>
<path d="M379.379 1007.19L173.484 888.318L322.452 802.317V855.451L270.995 885.16L270.962 885.177C270.946 885.193 270.946 885.193 270.93 885.209C270.588 885.421 270.278 885.697 270.018 886.007C269.936 886.088 269.872 886.186 269.806 886.267C269.758 886.349 269.676 886.414 269.627 886.495C269.546 886.625 269.546 886.772 269.481 886.918C269.383 887.146 269.285 887.374 269.237 887.635C269.188 887.863 269.188 888.09 269.188 888.318C269.188 888.546 269.188 888.774 269.237 889.002C269.285 889.246 269.367 889.474 269.481 889.702C269.546 889.849 269.546 889.995 269.627 890.125C269.66 890.19 269.725 890.223 269.774 890.288C269.904 890.483 270.083 890.662 270.262 890.825C270.441 891.004 270.604 891.167 270.799 891.297C270.864 891.346 270.897 891.411 270.962 891.444L377.54 952.978C377.605 953.01 377.67 953.01 377.735 953.043C377.882 953.108 378.028 953.173 378.174 953.222C378.337 953.271 378.5 953.32 378.663 953.352C378.826 953.385 378.972 953.401 379.135 953.417C379.216 953.417 379.265 953.466 379.347 953.466C379.428 953.466 379.493 953.434 379.558 953.417C379.721 953.401 379.868 953.385 380.03 953.352C380.193 953.32 380.356 953.271 380.519 953.222C380.665 953.173 380.812 953.108 380.958 953.043C381.023 953.01 381.088 953.01 381.153 952.978L487.731 891.444C487.796 891.411 487.829 891.346 487.894 891.314C488.105 891.183 488.284 891.004 488.463 890.809C488.626 890.646 488.805 890.483 488.935 890.288C488.984 890.223 489.05 890.19 489.082 890.125C489.164 889.995 489.164 889.832 489.229 889.702C489.326 889.474 489.424 889.246 489.473 889.002C489.522 888.774 489.522 888.546 489.522 888.318C489.522 888.09 489.522 887.863 489.473 887.635C489.424 887.39 489.326 887.163 489.229 886.918C489.164 886.772 489.164 886.625 489.082 886.495C489.033 886.414 488.968 886.349 488.903 886.267C488.838 886.17 488.773 886.088 488.691 885.99C488.431 885.665 488.122 885.388 487.78 885.193C487.763 885.177 487.763 885.177 487.747 885.16L487.715 885.144L436.257 855.435V802.301L585.225 888.302L379.379 1007.19Z" fill="url(#paint2_linear_778_7)"/>
<path d="M375.75 943.552L329.73 916.985V796.017C329.73 795.936 329.697 795.871 329.681 795.806C329.665 795.562 329.6 795.334 329.534 795.089C329.469 794.845 329.421 794.617 329.307 794.406C329.274 794.341 329.274 794.259 329.242 794.194C329.095 793.934 328.9 793.706 328.704 793.494C328.688 793.478 328.672 793.462 328.655 793.429C328.362 793.136 328.004 792.924 327.646 792.745C327.549 792.696 327.451 792.664 327.353 792.631C326.946 792.485 326.539 792.387 326.116 792.387C325.692 792.387 325.285 792.485 324.878 792.631C324.765 792.664 324.667 792.713 324.569 792.762C324.488 792.81 324.39 792.827 324.309 792.876L164.467 885.16L164.435 885.176C164.418 885.193 164.418 885.193 164.402 885.209C164.142 885.356 163.914 885.535 163.702 885.746C163.686 885.763 163.669 885.779 163.653 885.811C163.588 885.876 163.555 885.958 163.49 886.023C163.409 886.104 163.344 886.202 163.279 886.283C163.23 886.365 163.149 886.43 163.1 886.511C163.067 886.576 163.067 886.658 163.035 886.723C162.969 886.869 162.904 887 162.855 887.162C162.807 887.325 162.758 887.488 162.725 887.651C162.693 887.814 162.676 887.96 162.66 888.123C162.66 888.204 162.611 888.269 162.611 888.335V1072.94C162.611 1073.02 162.644 1073.08 162.66 1073.15C162.676 1073.39 162.741 1073.62 162.807 1073.85C162.872 1074.09 162.937 1074.32 163.035 1074.53C163.067 1074.6 163.067 1074.68 163.1 1074.74C163.181 1074.87 163.311 1074.96 163.393 1075.09C163.539 1075.3 163.702 1075.48 163.897 1075.66C164.076 1075.8 164.256 1075.92 164.451 1076.03C164.663 1076.14 164.858 1076.26 165.086 1076.34C165.314 1076.42 165.541 1076.45 165.786 1076.49C165.948 1076.5 166.079 1076.58 166.241 1076.58C166.323 1076.58 166.388 1076.55 166.47 1076.53C166.697 1076.52 166.925 1076.45 167.153 1076.39C167.397 1076.32 167.641 1076.26 167.853 1076.14C167.918 1076.11 167.983 1076.11 168.049 1076.08L272.803 1015.59L318.823 1042.15L116.559 1158.92V859.635L375.734 710V943.552H375.75Z" fill="url(#paint3_linear_778_7)"/>
<path d="M642.202 1158.92L439.937 1042.15L485.958 1015.59L590.712 1076.08C590.777 1076.11 590.842 1076.11 590.907 1076.14C591.135 1076.26 591.363 1076.32 591.607 1076.39C591.835 1076.45 592.063 1076.52 592.291 1076.53C592.372 1076.53 592.437 1076.58 592.519 1076.58C592.682 1076.58 592.828 1076.52 592.975 1076.49C593.219 1076.45 593.447 1076.42 593.675 1076.34C593.902 1076.26 594.098 1076.14 594.309 1076.03C594.505 1075.92 594.684 1075.8 594.863 1075.66C595.058 1075.49 595.205 1075.3 595.351 1075.09C595.449 1074.97 595.563 1074.89 595.644 1074.74C595.677 1074.68 595.677 1074.6 595.709 1074.53C595.823 1074.32 595.872 1074.08 595.937 1073.85C596.002 1073.6 596.068 1073.38 596.084 1073.13C596.084 1073.05 596.133 1073 596.133 1072.92V888.318C596.133 888.237 596.1 888.172 596.084 888.107C596.068 887.944 596.051 887.797 596.019 887.635C595.986 887.472 595.937 887.309 595.888 887.146C595.839 887 595.775 886.853 595.709 886.707C595.677 886.642 595.677 886.56 595.644 886.495C595.595 886.414 595.531 886.349 595.465 886.267C595.4 886.169 595.335 886.088 595.254 885.99C595.205 885.925 595.156 885.844 595.091 885.779C595.074 885.762 595.058 885.746 595.042 885.714C594.831 885.502 594.586 885.323 594.342 885.176C594.326 885.16 594.326 885.16 594.309 885.144L594.277 885.128L434.435 792.843C434.354 792.794 434.256 792.778 434.175 792.729C434.077 792.68 433.979 792.648 433.865 792.599C433.458 792.452 433.035 792.355 432.628 792.355C432.205 792.355 431.782 792.452 431.391 792.599C431.293 792.631 431.195 792.68 431.098 792.713C430.723 792.892 430.382 793.103 430.089 793.396C430.072 793.413 430.056 793.429 430.04 793.462C429.844 793.673 429.649 793.901 429.502 794.162C429.47 794.227 429.47 794.308 429.437 794.373C429.323 794.585 429.275 794.829 429.21 795.057C429.144 795.301 429.079 795.529 429.063 795.757C429.063 795.838 429.014 795.903 429.014 795.968V916.936L382.994 943.504V710L642.186 859.635V1158.92H642.202Z" fill="url(#paint4_linear_778_7)"/>
<path d="M322.471 1101.59L271.046 1131.28C271.03 1131.3 271.013 1131.3 270.997 1131.31L217.749 1162.06L217.717 1162.08C217.7 1162.08 217.7 1162.1 217.684 1162.11C217.342 1162.32 217.033 1162.6 216.772 1162.91C216.691 1162.99 216.626 1163.09 216.561 1163.17C216.512 1163.25 216.43 1163.32 216.382 1163.4C216.3 1163.53 216.3 1163.67 216.235 1163.82C216.137 1164.05 216.04 1164.28 215.991 1164.54C215.942 1164.77 215.942 1164.99 215.942 1165.22C215.942 1165.45 215.942 1165.68 215.991 1165.9C216.04 1166.15 216.137 1166.38 216.235 1166.62C216.3 1166.77 216.3 1166.91 216.382 1167.04C216.414 1167.11 216.479 1167.14 216.528 1167.21C216.658 1167.4 216.837 1167.57 217 1167.74C217.179 1167.92 217.342 1168.09 217.554 1168.23C217.619 1168.28 217.651 1168.33 217.717 1168.38L377.591 1260.68C377.656 1260.71 377.721 1260.71 377.802 1260.75C377.949 1260.81 378.095 1260.88 378.242 1260.92C378.405 1260.97 378.568 1261.02 378.73 1261.05C378.893 1261.09 379.04 1261.1 379.202 1261.12C379.284 1261.12 379.332 1261.17 379.414 1261.17C379.495 1261.17 379.544 1261.14 379.626 1261.12C379.788 1261.1 379.935 1261.09 380.098 1261.05C380.261 1261.02 380.424 1260.97 380.586 1260.92C380.733 1260.88 380.879 1260.81 381.025 1260.75C381.091 1260.71 381.172 1260.71 381.237 1260.68L541.112 1168.38C541.177 1168.35 541.209 1168.28 541.275 1168.23C541.486 1168.1 541.649 1167.92 541.828 1167.74C542.007 1167.57 542.17 1167.4 542.3 1167.21C542.349 1167.14 542.414 1167.11 542.447 1167.04C542.528 1166.91 542.528 1166.77 542.593 1166.62C542.69 1166.39 542.788 1166.17 542.837 1165.9C542.886 1165.68 542.886 1165.45 542.886 1165.22C542.886 1164.99 542.886 1164.77 542.837 1164.54C542.788 1164.29 542.69 1164.07 542.593 1163.82C542.528 1163.67 542.528 1163.53 542.447 1163.4C542.398 1163.32 542.332 1163.25 542.267 1163.17C542.202 1163.07 542.137 1162.99 542.056 1162.89C541.795 1162.57 541.486 1162.29 541.144 1162.1C541.128 1162.08 541.128 1162.08 541.112 1162.06L541.079 1162.05L487.815 1131.3C487.798 1131.28 487.782 1131.28 487.766 1131.26L436.325 1101.57V1048.42L638.589 1165.19L379.398 1314.82L120.223 1165.19L322.487 1048.42V1101.59H322.471Z" fill="url(#paint5_linear_778_7)"/>
<path d="M562.924 982.05L562.924 982.049C562.921 982.038 562.917 982.022 562.911 982.001C562.877 981.861 562.794 981.524 562.642 981.176C562.641 981.174 562.641 981.172 562.641 981.171C562.615 981.08 562.568 980.937 562.487 980.775L562.465 980.732L562.441 980.689C562.235 980.322 561.992 980.018 561.791 979.791L561.756 979.72L561.526 979.49C561.008 978.972 560.425 978.646 559.997 978.432L559.103 980.221L559.997 978.432C559.771 978.318 559.557 978.247 559.462 978.216C558.932 978.027 558.295 977.863 557.573 977.863C556.862 977.863 556.233 978.022 555.708 978.207C555.458 978.286 555.256 978.386 555.161 978.433C555.133 978.444 555.096 978.458 555.057 978.475C554.983 978.506 554.877 978.554 554.758 978.623L448.258 1040.11L447.988 1040.24L447.894 1040.33C447.568 1040.54 447.282 1040.78 447.025 1041.04L447.023 1041.04C446.986 1041.08 446.893 1041.17 446.79 1041.32C446.772 1041.34 446.756 1041.36 446.742 1041.38C446.725 1041.4 446.709 1041.42 446.695 1041.44C446.623 1041.52 446.568 1041.59 446.533 1041.64C446.511 1041.67 446.488 1041.7 446.475 1041.72L446.469 1041.72C446.458 1041.74 446.454 1041.74 446.454 1041.74L446.374 1041.84C446.359 1041.86 446.343 1041.88 446.326 1041.9C446.274 1041.96 446.199 1042.06 446.122 1042.19L446.083 1042.26L446.048 1042.33C445.967 1042.49 445.921 1042.63 445.895 1042.72C445.893 1042.73 445.892 1042.73 445.89 1042.74C445.833 1042.87 445.743 1043.08 445.677 1043.3L445.67 1043.32C445.626 1043.47 445.553 1043.71 445.502 1043.97L447.463 1044.36L445.502 1043.97C445.463 1044.16 445.44 1044.33 445.423 1044.48C445.392 1044.6 445.349 1044.8 445.349 1045.04V1168.11C445.349 1168.37 445.393 1168.58 445.429 1168.72C445.476 1169.07 445.562 1169.37 445.611 1169.54L445.612 1169.54C445.613 1169.54 445.614 1169.55 445.615 1169.55C445.618 1169.56 445.621 1169.57 445.624 1169.59C445.658 1169.73 445.742 1170.06 445.894 1170.41C445.894 1170.41 445.894 1170.41 445.895 1170.42C445.921 1170.51 445.967 1170.65 446.048 1170.81L446.091 1170.9L446.141 1170.98C446.239 1171.13 446.338 1171.26 446.413 1171.34C446.463 1171.39 446.512 1171.44 446.543 1171.48L446.554 1171.49C446.69 1171.67 446.959 1172.03 447.338 1172.35L447.345 1172.36L447.352 1172.36C447.631 1172.59 447.917 1172.78 448.181 1172.93L448.213 1172.95C448.389 1173.05 448.757 1173.27 449.214 1173.41C449.619 1173.54 450.002 1173.59 450.224 1173.62L450.255 1173.63C450.36 1173.65 450.635 1173.72 450.979 1173.72C451.232 1173.72 451.439 1173.68 451.576 1173.65C451.931 1173.6 452.233 1173.51 452.404 1173.46L452.406 1173.46C452.412 1173.46 452.418 1173.46 452.424 1173.46C452.641 1173.4 452.964 1173.31 453.317 1173.15C453.323 1173.15 453.328 1173.15 453.334 1173.15C453.423 1173.12 453.544 1173.08 453.68 1173.01L453.734 1172.98L453.786 1172.95L504.26 1143.82L546.28 1168.08L403.312 1250.65V1017.51L605.207 900.956V1066.03L563.187 1041.77V983.493C563.187 983.233 563.142 983.02 563.107 982.886C563.062 982.556 562.984 982.269 562.939 982.107C562.933 982.086 562.928 982.066 562.924 982.05ZM561.576 979.556C561.571 979.551 561.575 979.555 561.584 979.564L561.576 979.556ZM445.487 1044.28L445.487 1044.28C445.488 1044.28 445.488 1044.28 445.487 1044.28ZM445.48 1168.89C445.481 1168.89 445.481 1168.89 445.479 1168.89L445.48 1168.89ZM563.055 982.715C563.054 982.712 563.055 982.713 563.056 982.717L563.055 982.715Z" stroke="black" stroke-width="4"/>
<path d="M343.822 1173.66C343.492 1173.62 343.195 1173.54 343.032 1173.49C343.011 1173.49 342.992 1173.48 342.975 1173.48C342.961 1173.48 342.941 1173.47 342.917 1173.46C342.773 1173.43 342.466 1173.35 342.14 1173.22C342.093 1173.21 342.032 1173.19 341.963 1173.17L341.771 1173.1L341.595 1173L291.121 1143.87L249.101 1168.13L392.068 1250.67V1017.53L190.174 900.973V1066.01L232.194 1041.76V983.477C232.194 983.228 232.238 983.028 232.27 982.911C232.314 982.575 232.397 982.272 232.441 982.108C232.447 982.086 232.453 982.067 232.457 982.05L234.39 982.566L232.457 982.05C232.46 982.039 232.464 982.023 232.469 982.002C232.504 981.862 232.587 981.525 232.739 981.177C232.739 981.175 232.74 981.173 232.74 981.172C232.766 981.081 232.813 980.938 232.894 980.776L232.915 980.732L232.939 980.69C233.168 980.284 233.442 979.955 233.652 979.721C233.742 979.604 233.818 979.527 233.852 979.494L233.854 979.491L233.855 979.491C234.361 978.985 234.917 978.655 235.415 978.417L235.527 978.364L235.624 978.331C235.626 978.33 235.628 978.33 235.631 978.328C235.637 978.326 235.644 978.323 235.655 978.319L235.658 978.317C235.68 978.308 235.719 978.292 235.761 978.275C235.798 978.261 235.844 978.243 235.897 978.224C236.443 978.022 237.098 977.863 237.808 977.863C238.541 977.863 239.188 978.033 239.723 978.226L239.778 978.246L239.833 978.269C239.849 978.276 239.858 978.28 239.881 978.289C239.896 978.295 239.916 978.303 239.948 978.315C240.006 978.338 240.104 978.378 240.217 978.433C240.246 978.444 240.284 978.459 240.324 978.476C240.398 978.507 240.504 978.555 240.624 978.625L347.123 1040.11L347.393 1040.24L347.498 1040.35C347.783 1040.53 348.078 1040.76 348.355 1041.04L348.585 1041.27L348.633 1041.37C348.66 1041.4 348.682 1041.43 348.698 1041.45C348.713 1041.48 348.728 1041.5 348.739 1041.51C348.805 1041.59 348.879 1041.69 348.957 1041.8C348.969 1041.81 348.983 1041.83 348.996 1041.84C349.05 1041.91 349.155 1042.04 349.259 1042.21L349.298 1042.27L349.333 1042.34C349.414 1042.5 349.46 1042.65 349.486 1042.74C349.489 1042.75 349.491 1042.76 349.493 1042.76C349.551 1042.9 349.624 1043.07 349.685 1043.26L349.695 1043.28L349.703 1043.31L349.711 1043.34C349.755 1043.49 349.828 1043.73 349.879 1043.98L343.822 1173.66ZM343.822 1173.66C343.826 1173.67 343.829 1173.67 343.833 1173.67C343.981 1173.71 344.174 1173.74 344.402 1173.74C344.746 1173.74 345.021 1173.67 345.126 1173.64L345.154 1173.64C345.419 1173.6 345.793 1173.55 346.207 1173.41L346.227 1173.4L346.247 1173.4C346.615 1173.27 346.909 1173.11 347.102 1173L347.141 1172.98L347.171 1172.97L347.2 1172.95L347.231 1172.93C347.408 1172.83 347.745 1172.63 348.073 1172.34M343.822 1173.66L348.073 1172.34M348.073 1172.34C348.389 1172.07 348.626 1171.77 348.769 1171.59C348.784 1171.57 348.803 1171.55 348.823 1171.53C348.937 1171.42 349.177 1171.17 349.356 1170.78C349.423 1170.64 349.463 1170.52 349.486 1170.43C349.487 1170.43 349.488 1170.43 349.49 1170.42C349.654 1170.04 349.747 1169.64 349.759 1169.59L349.76 1169.59L349.765 1169.57L349.769 1169.55C349.774 1169.54 349.779 1169.52 349.785 1169.5C349.83 1169.33 349.913 1169.03 349.957 1168.69C349.988 1168.58 350.032 1168.38 350.032 1168.13V1045.06C350.032 1044.8 349.988 1044.59 349.953 1044.46C349.937 1044.32 349.914 1044.16 349.879 1043.98L348.073 1172.34ZM232.333 982.712L232.331 982.716L232.331 982.717C232.332 982.715 232.332 982.713 232.333 982.712ZM232.333 982.712L232.333 982.711L232.333 982.712ZM348.404 1041.11C348.399 1041.1 348.404 1041.11 348.415 1041.12C348.411 1041.11 348.408 1041.11 348.405 1041.11L348.404 1041.11ZM232.696 981.348C232.697 981.347 232.697 981.344 232.698 981.34L232.698 981.342L232.696 981.348ZM349.902 1044.29C349.901 1044.28 349.901 1044.28 349.903 1044.29L349.902 1044.29ZM349.9 1168.88L349.905 1168.86C349.901 1168.87 349.898 1168.88 349.897 1168.88L349.9 1168.88ZM349.53 1170.26C349.53 1170.26 349.53 1170.26 349.53 1170.26L349.53 1170.26Z" stroke="black" stroke-width="4"/>
<path d="M398.725 958.204C398.996 958.149 399.25 958.072 399.396 958.028L399.425 958.019L399.454 958.009C399.65 957.944 399.836 957.866 399.97 957.807C399.981 957.803 399.992 957.8 400.005 957.796C400.093 957.768 400.214 957.725 400.35 957.657L400.404 957.63L400.456 957.6L507.01 896.079C507.166 895.993 507.285 895.902 507.368 895.832C507.377 895.824 507.386 895.817 507.394 895.81C507.754 895.563 508.026 895.283 508.203 895.091C508.206 895.088 508.209 895.085 508.212 895.082C508.306 894.992 508.544 894.763 508.76 894.485C508.85 894.394 508.99 894.236 509.114 894.02C509.214 893.85 509.278 893.694 509.321 893.574C509.359 893.465 509.384 893.368 509.398 893.314C509.49 893.1 509.647 892.725 509.734 892.297C509.826 891.861 509.825 891.453 509.824 891.245L509.824 891.208L509.824 891.172C509.825 890.964 509.826 890.556 509.734 890.12C509.65 889.707 509.493 889.323 509.414 889.128C509.41 889.12 509.407 889.112 509.405 889.105L509.401 889.092L509.399 889.083C509.373 888.982 509.293 888.67 509.091 888.341C508.99 888.176 508.89 888.053 508.837 887.99C508.824 887.975 508.81 887.958 508.798 887.944C508.705 887.813 508.617 887.705 508.543 887.615C508.211 887.203 507.806 886.817 507.333 886.505L507.234 886.406L506.965 886.272L456.56 857.171V808.655L599.528 891.193L397.681 1007.77L195.787 891.209L338.755 808.671V857.187L288.35 886.288L398.346 958.248C398.384 958.238 398.414 958.229 398.425 958.226M398.725 958.204L398.333 956.242L398.725 958.204C398.725 958.204 398.725 958.204 398.725 958.204ZM398.725 958.204C398.55 958.239 398.391 958.261 398.254 958.277M398.254 958.277C398.281 958.27 398.305 958.263 398.326 958.257C398.357 958.248 398.382 958.24 398.398 958.234L398.418 958.228L398.425 958.226M398.254 958.277C398.119 958.312 397.908 958.356 397.649 958.356C397.422 958.356 397.229 958.321 397.082 958.282C397.08 958.282 397.078 958.281 397.075 958.28C396.931 958.264 396.761 958.241 396.573 958.204C396.573 958.204 396.573 958.204 396.573 958.204L396.965 956.242C396.803 956.21 396.64 956.161 396.478 956.112L398.254 958.277ZM398.425 958.226C398.429 958.224 398.43 958.224 398.427 958.225L398.425 958.226Z" stroke="black" stroke-width="4"/>
<path d="M392.036 716.354L136.861 863.68V1158.35L333.125 1045.04L291.105 1020.79L187.351 1080.7L187.299 1080.73L187.246 1080.76C187.109 1080.83 186.988 1080.87 186.898 1080.9C186.897 1080.9 186.896 1080.9 186.895 1080.9C186.538 1081.06 186.194 1081.15 186.012 1081.2L186.005 1081.2L185.971 1081.21L185.967 1081.21C185.799 1081.26 185.493 1081.35 185.143 1081.4C185.026 1081.43 184.81 1081.47 184.544 1081.47C184.159 1081.47 183.848 1081.38 183.746 1081.35C183.505 1081.31 183.121 1081.26 182.716 1081.11C182.358 1080.98 182.03 1080.8 181.866 1080.71C181.842 1080.7 181.822 1080.69 181.806 1080.68L181.775 1080.66L181.746 1080.65C181.509 1080.51 181.229 1080.33 180.934 1080.09L180.89 1080.06L180.849 1080.02C180.585 1079.78 180.334 1079.51 180.101 1079.19C180.07 1079.15 180.024 1079.11 179.977 1079.05C179.903 1078.97 179.804 1078.85 179.706 1078.69L179.656 1078.61L179.614 1078.53C179.533 1078.37 179.486 1078.22 179.46 1078.13C179.457 1078.12 179.454 1078.11 179.451 1078.1C179.32 1077.78 179.238 1077.48 179.182 1077.27C179.18 1077.27 179.178 1077.26 179.177 1077.25L179.176 1077.25C179.127 1077.08 179.041 1076.78 178.994 1076.43C178.958 1076.3 178.914 1076.09 178.914 1075.83V891.225C178.914 890.977 178.957 890.779 178.989 890.662C179.005 890.515 179.028 890.341 179.067 890.149L181.028 890.541L179.067 890.149C179.118 889.891 179.191 889.649 179.236 889.5L179.243 889.478L181.158 890.053L179.243 889.478C179.309 889.258 179.398 889.047 179.456 888.919C179.457 888.914 179.459 888.908 179.46 888.903C179.486 888.812 179.533 888.669 179.614 888.507L179.648 888.438L179.687 888.372C179.764 888.246 179.839 888.147 179.891 888.083C179.906 888.064 179.922 888.045 179.936 888.028L180.019 887.925C180.019 887.925 180.02 887.923 180.022 887.921C180.024 887.918 180.029 887.913 180.035 887.904C180.042 887.895 180.055 887.877 180.071 887.857C180.08 887.845 180.089 887.833 180.099 887.82C180.134 887.775 180.189 887.705 180.26 887.625C180.274 887.606 180.289 887.583 180.306 887.56C180.321 887.541 180.337 887.52 180.355 887.497C180.458 887.354 180.55 887.262 180.588 887.225L180.591 887.222C180.847 886.965 181.134 886.726 181.46 886.515L181.553 886.422L181.822 886.288L341.604 794.038C341.723 793.968 341.828 793.92 341.902 793.889C341.941 793.873 341.979 793.859 342.007 793.848C342.1 793.801 342.303 793.701 342.553 793.622C343.078 793.437 343.708 793.277 344.418 793.277C345.14 793.277 345.778 793.442 346.307 793.63C346.4 793.661 346.616 793.733 346.843 793.847L392.036 716.354ZM392.036 716.354V942.969L350.032 918.721V798.907C350.032 798.648 349.988 798.436 349.953 798.303C349.908 797.972 349.829 797.684 349.785 797.522C349.779 797.5 349.774 797.481 349.77 797.464L347.837 797.98L349.77 797.464C349.767 797.453 349.763 797.436 349.757 797.416C349.723 797.276 349.64 796.939 349.488 796.59C349.487 796.589 349.487 796.587 349.486 796.586C349.46 796.495 349.414 796.352 349.333 796.19L349.311 796.146L349.287 796.104C349.081 795.737 348.838 795.433 348.638 795.206L348.602 795.135L348.372 794.905C347.854 794.386 347.271 794.06 346.843 793.847L392.036 716.354ZM179.418 889.073C179.415 889.084 179.416 889.079 179.418 889.071L179.418 889.073ZM179.053 890.459L179.052 890.459C179.053 890.458 179.053 890.457 179.053 890.459ZM348.421 794.97C348.416 794.965 348.42 794.969 348.429 794.978L348.421 794.97ZM349.529 796.755L349.529 796.754C349.53 796.762 349.532 796.767 349.529 796.755ZM349.903 798.134C349.901 798.13 349.902 798.131 349.903 798.135L349.903 798.134Z" stroke="black" stroke-width="4"/>
<path d="M658.488 1158.34V863.68L403.297 716.354V942.93L445.317 918.672V798.859C445.317 798.61 445.361 798.411 445.392 798.295C445.436 797.958 445.519 797.654 445.564 797.489C445.57 797.468 445.575 797.448 445.58 797.432L445.584 797.415L445.589 797.398C445.589 797.397 445.59 797.396 445.59 797.393C445.601 797.347 445.695 796.951 445.859 796.566C445.861 796.562 445.862 796.557 445.863 796.553C445.889 796.462 445.935 796.319 446.016 796.157L446.038 796.114L446.062 796.071C446.291 795.665 446.565 795.336 446.775 795.102C446.864 794.985 446.941 794.909 446.974 794.875L446.977 794.873L446.977 794.872C447.484 794.366 448.039 794.037 448.538 793.799L448.65 793.745L448.747 793.712C448.753 793.71 448.763 793.706 448.779 793.699C448.801 793.69 448.841 793.673 448.885 793.656C448.921 793.642 448.968 793.624 449.021 793.605C449.566 793.404 450.221 793.245 450.931 793.245C451.644 793.245 452.305 793.413 452.846 793.607L452.901 793.627L452.956 793.651C452.983 793.662 452.991 793.665 453.072 793.697C453.13 793.72 453.228 793.76 453.34 793.814C453.368 793.825 453.407 793.84 453.447 793.857C453.521 793.888 453.627 793.936 453.747 794.006L613.527 886.255L613.796 886.39L613.901 886.495C614.186 886.683 614.482 886.912 614.759 887.19L614.988 887.419L615.037 887.517C615.064 887.551 615.085 887.58 615.102 887.603C615.116 887.623 615.131 887.644 615.142 887.659L615.142 887.66C615.207 887.739 615.282 887.834 615.361 887.945C615.373 887.959 615.388 887.976 615.401 887.992C615.456 888.058 615.56 888.186 615.662 888.356L615.701 888.422L615.736 888.491C615.817 888.653 615.863 888.796 615.889 888.887C615.892 888.896 615.894 888.905 615.897 888.913C615.954 889.045 616.027 889.22 616.088 889.404L616.098 889.433L616.107 889.462C616.15 889.606 616.228 889.861 616.283 890.133M658.488 1158.34L616.304 890.431C616.303 890.428 616.303 890.428 616.305 890.433M658.488 1158.34L462.24 1045.04M658.488 1158.34L462.24 1045.04M616.283 890.133L614.321 890.525L616.283 890.132C616.283 890.132 616.283 890.133 616.283 890.133ZM616.283 890.133C616.318 890.307 616.34 890.466 616.356 890.604M616.356 890.604C616.349 890.577 616.342 890.552 616.336 890.532C616.327 890.501 616.319 890.476 616.313 890.46L616.307 890.44L616.305 890.433M616.356 890.604C616.391 890.738 616.435 890.95 616.435 891.208V1075.81C616.435 1076.04 616.4 1076.23 616.361 1076.38C616.361 1076.38 616.36 1076.38 616.36 1076.38M616.356 890.604C616.364 890.674 616.371 890.739 616.377 890.798L614.387 890.997L616.327 890.512C616.317 890.473 616.308 890.443 616.305 890.433M616.305 890.433L616.36 1076.38M616.36 1076.38C616.369 1076.31 616.377 1076.23 616.382 1076.15L616.387 1076.09V1076.02C616.387 1076.07 616.385 1076.11 616.382 1076.15C616.372 1076.28 616.35 1076.39 616.327 1076.48C616.313 1076.53 616.3 1076.57 616.292 1076.6C616.285 1076.62 616.279 1076.63 616.283 1076.62C616.284 1076.62 616.288 1076.61 616.294 1076.59C616.298 1076.58 616.304 1076.56 616.31 1076.55C616.323 1076.51 616.341 1076.45 616.36 1076.38ZM616.36 1076.38C616.316 1076.73 616.234 1077.03 616.188 1077.2C616.182 1077.22 616.177 1077.24 616.172 1077.25L616.168 1077.27L616.163 1077.29C616.161 1077.29 616.067 1077.71 615.893 1078.12M616.36 1076.38L614.387 1076.02C614.372 1076.25 614.315 1076.46 614.255 1076.68L614.24 1076.74C614.226 1076.79 614.212 1076.84 614.199 1076.89C614.15 1077.07 614.101 1077.26 614.012 1077.42M615.893 1078.12C615.904 1078.08 615.913 1078.04 615.919 1078.02C615.925 1077.99 615.93 1077.97 615.932 1077.96L615.931 1077.96C615.93 1077.97 615.929 1077.98 615.926 1077.98C615.924 1078 615.92 1078.01 615.916 1078.02C615.9 1078.08 615.866 1078.19 615.801 1078.32L614.012 1077.42M615.893 1078.12C615.856 1078.2 615.816 1078.29 615.773 1078.37L614.012 1077.42M615.893 1078.12C615.892 1078.12 615.89 1078.13 615.889 1078.13C615.863 1078.22 615.817 1078.37 615.736 1078.53L615.716 1078.57L615.695 1078.6C615.535 1078.89 615.355 1079.09 615.249 1079.2C615.232 1079.22 615.217 1079.24 615.204 1079.25M614.012 1077.42C613.996 1077.45 613.988 1077.49 613.98 1077.53C613.971 1077.56 613.963 1077.6 613.947 1077.63C613.893 1077.73 613.824 1077.8 613.755 1077.87C613.721 1077.9 613.687 1077.94 613.654 1077.98M615.204 1079.25C615.239 1079.2 615.27 1079.15 615.298 1079.11L613.654 1077.98M615.204 1079.25C615.197 1079.26 615.19 1079.26 615.185 1079.27L615.151 1079.3C615.137 1079.32 615.151 1079.3 615.173 1079.28L613.654 1077.98M615.204 1079.25C615.037 1079.48 614.79 1079.8 614.446 1080.08L614.439 1080.09L614.432 1080.09C614.137 1080.33 613.856 1080.51 613.62 1080.65L613.59 1080.66L613.56 1080.68C613.544 1080.69 613.524 1080.7 613.5 1080.71C613.336 1080.8 613.008 1080.98 612.65 1081.11C612.274 1081.25 611.916 1081.31 611.674 1081.34M613.654 1077.98C613.508 1078.19 613.361 1078.38 613.166 1078.55C612.987 1078.69 612.807 1078.81 612.612 1078.92C612.58 1078.94 612.548 1078.95 612.517 1078.97C612.341 1079.07 612.171 1079.16 611.977 1079.23C611.749 1079.31 611.522 1079.34 611.277 1079.38M611.674 1081.34C611.7 1081.33 611.719 1081.33 611.724 1081.33C611.752 1081.32 611.739 1081.32 611.711 1081.33L611.277 1079.38M611.674 1081.34C611.634 1081.35 611.598 1081.35 611.565 1081.35L611.542 1081.36L611.277 1079.38M611.674 1081.34C611.645 1081.35 611.609 1081.36 611.578 1081.37C611.439 1081.4 611.164 1081.47 610.822 1081.47C610.599 1081.47 610.416 1081.44 610.29 1081.41C610.277 1081.41 610.265 1081.4 610.253 1081.4M611.277 1079.38C611.131 1079.41 610.984 1079.47 610.822 1079.47C610.781 1079.47 610.744 1079.46 610.708 1079.45C610.671 1079.44 610.634 1079.42 610.593 1079.42C610.366 1079.41 610.138 1079.34 609.91 1079.28M610.253 1081.4C610.318 1081.41 610.384 1081.41 610.451 1081.42L610.522 1081.42H610.593C610.543 1081.42 610.495 1081.42 610.451 1081.42C610.336 1081.41 610.243 1081.39 610.179 1081.38C610.15 1081.37 610.126 1081.36 610.108 1081.36C610.1 1081.35 610.093 1081.35 610.087 1081.35L610.075 1081.35C610.081 1081.35 610.11 1081.36 610.142 1081.37C610.17 1081.38 610.208 1081.39 610.253 1081.4ZM610.253 1081.4C609.89 1081.35 609.571 1081.26 609.398 1081.21L609.395 1081.21L609.91 1079.28M609.91 1079.28L609.36 1081.2L609.375 1081.21M609.91 1079.28C609.666 1079.21 609.438 1079.15 609.21 1079.03C609.177 1079.02 609.145 1079.01 609.112 1079C609.08 1078.99 609.047 1078.98 609.014 1078.97L504.26 1018.48L460.24 1043.89L462.24 1045.04M609.375 1081.21L460.24 1046.2L462.24 1045.04M609.375 1081.21C609.158 1081.15 608.836 1081.06 608.484 1080.9C608.479 1080.9 608.473 1080.9 608.467 1080.9C608.378 1080.87 608.257 1080.83 608.12 1080.76L608.066 1080.73L608.014 1080.7L504.26 1020.79L462.24 1045.04M609.375 1081.21L462.24 1045.04M614.807 887.254C614.805 887.252 614.809 887.256 614.818 887.265C614.814 887.261 614.811 887.258 614.808 887.255L614.807 887.254Z" stroke="black" stroke-width="4"/>
<path d="M288.349 1132.44L288.121 1132.57L288.11 1132.58L235.133 1163.17C235.042 1163.22 234.952 1163.27 234.864 1163.33C234.819 1163.36 234.777 1163.4 234.737 1163.43C234.299 1163.73 233.914 1164.08 233.59 1164.46C233.495 1164.56 233.423 1164.65 233.38 1164.71C233.354 1164.74 233.327 1164.78 233.317 1164.79C233.304 1164.81 233.301 1164.81 233.301 1164.81L233.22 1164.91C233.206 1164.93 233.19 1164.95 233.173 1164.97C233.123 1165.03 233.051 1165.12 232.978 1165.25C232.776 1165.57 232.696 1165.88 232.67 1165.99L232.668 1165.99L232.667 1166C232.573 1166.22 232.419 1166.59 232.333 1167.03C232.244 1167.47 232.244 1167.87 232.245 1168.08C232.245 1168.09 232.245 1168.1 232.245 1168.11C232.245 1168.12 232.245 1168.13 232.245 1168.15C232.244 1168.36 232.244 1168.76 232.335 1169.2C232.419 1169.61 232.576 1170 232.656 1170.19C232.659 1170.2 232.662 1170.21 232.665 1170.21L232.668 1170.23L232.67 1170.24C232.695 1170.33 232.769 1170.62 232.953 1170.94C233.075 1171.15 233.214 1171.31 233.305 1171.4C233.411 1171.54 233.513 1171.65 233.59 1171.73C233.688 1171.84 233.717 1171.87 233.738 1171.89C233.757 1171.91 233.771 1171.92 233.823 1171.98L233.855 1172.02L233.888 1172.05L233.913 1172.07C234.061 1172.22 234.29 1172.45 234.589 1172.67C234.642 1172.72 234.722 1172.8 234.819 1172.87L234.915 1172.94L235.019 1173L394.894 1265.3L394.946 1265.33L394.999 1265.36C395.168 1265.44 395.327 1265.49 395.428 1265.52C395.559 1265.58 395.731 1265.65 395.912 1265.71L395.941 1265.72L395.97 1265.73L395.992 1265.74C396.142 1265.78 396.383 1265.85 396.641 1265.91L397.033 1263.94L396.641 1265.91C396.828 1265.94 396.998 1265.97 397.142 1265.98C397.144 1265.98 397.146 1265.98 397.148 1265.98C397.296 1266.02 397.489 1266.06 397.717 1266.06C397.969 1266.06 398.177 1266.02 398.313 1265.98C398.452 1265.96 398.614 1265.94 398.793 1265.91L398.401 1263.94L398.793 1265.91C399.05 1265.85 399.292 1265.78 399.441 1265.74L399.464 1265.73L399.493 1265.72L399.522 1265.71C399.706 1265.65 399.881 1265.58 400.012 1265.52C400.02 1265.52 400.028 1265.52 400.037 1265.51C400.128 1265.49 400.271 1265.44 400.434 1265.36L400.488 1265.33L400.54 1265.3L560.395 1173.01C560.606 1172.89 560.765 1172.76 560.861 1172.67C561.167 1172.44 561.407 1172.19 561.509 1172.09C561.524 1172.07 561.536 1172.06 561.545 1172.05L561.574 1172.02C561.706 1171.89 561.924 1171.67 562.132 1171.4C562.222 1171.3 562.359 1171.15 562.48 1170.94C562.665 1170.62 562.739 1170.33 562.764 1170.23L562.766 1170.23L562.767 1170.22C562.86 1170.01 563.015 1169.63 563.101 1169.19C563.19 1168.76 563.189 1168.35 563.189 1168.15L563.189 1168.11L563.189 1168.07C563.189 1167.87 563.19 1167.46 563.099 1167.02C563.014 1166.61 562.857 1166.23 562.778 1166.03C562.775 1166.02 562.772 1166.02 562.769 1166.01L562.766 1166C562.742 1165.91 562.664 1165.59 562.456 1165.25C562.355 1165.08 562.254 1164.96 562.201 1164.89C562.189 1164.88 562.174 1164.86 562.163 1164.85C562.07 1164.72 561.982 1164.61 561.907 1164.52C561.575 1164.11 561.171 1163.72 560.698 1163.41L560.598 1163.31L560.329 1163.17L507.307 1132.56L507.297 1132.55L507.068 1132.42L456.628 1103.31V1054.77L652.892 1168.08L397.7 1315.4L142.526 1168.08L338.79 1054.77V1103.31L288.349 1132.44ZM234.525 1172.61L234.525 1172.61C234.516 1172.6 234.515 1172.6 234.525 1172.61ZM395.543 1265.55C395.542 1265.55 395.54 1265.55 395.539 1265.55C395.557 1265.56 395.557 1265.56 395.543 1265.55ZM562.78 1170.17C562.783 1170.16 562.782 1170.16 562.78 1170.17L562.78 1170.17ZM562.78 1166.05L562.78 1166.05C562.782 1166.06 562.783 1166.06 562.78 1166.05Z" stroke="black" stroke-width="4"/>
<path d="M558.594 312.846L558.583 312.824L558.571 312.803C558.373 312.458 558.126 312.171 557.918 311.947L557.894 311.9L557.778 311.786C557.351 311.368 556.857 311.09 556.44 310.886C556.272 310.804 556.11 310.751 556.012 310.719L556.008 310.718C555.514 310.544 554.965 310.409 554.366 310.409C553.773 310.409 553.23 310.541 552.739 310.712C552.534 310.774 552.366 310.858 552.275 310.903L552.25 310.915C552.247 310.916 552.244 310.918 552.24 310.919C552.219 310.926 552.173 310.942 552.125 310.962C552.075 310.983 552.01 311.012 551.938 311.053C551.936 311.055 551.933 311.057 551.93 311.058L438.186 375.419L438.179 375.422L438.033 375.493L437.974 375.552C437.66 375.739 437.385 375.958 437.135 376.203L437.134 376.205C437.107 376.23 437.049 376.288 436.985 376.378C436.968 376.398 436.953 376.417 436.94 376.435C436.91 376.474 436.884 376.512 436.872 376.53L436.871 376.531C436.8 376.605 436.744 376.674 436.704 376.725C436.67 376.768 436.655 376.788 436.643 376.803C436.632 376.818 436.625 376.827 436.609 376.847L436.566 376.9L436.554 376.92C436.552 376.922 436.55 376.924 436.547 376.926L436.544 376.93C436.528 376.947 436.498 376.981 436.466 377.019C436.432 377.061 436.385 377.121 436.339 377.196L436.319 377.229L436.301 377.264C436.255 377.354 436.228 377.436 436.211 377.492C436.202 377.522 436.195 377.552 436.19 377.574C436.188 377.578 436.186 377.581 436.185 377.585C436.129 377.704 436.04 377.895 435.975 378.107L435.969 378.126C435.921 378.285 435.857 378.494 435.812 378.711C435.772 378.909 435.751 379.085 435.734 379.246C435.728 379.262 435.722 379.281 435.716 379.303C435.697 379.369 435.67 379.484 435.67 379.626V508.427C435.67 508.608 435.708 508.752 435.732 508.832C435.734 508.837 435.735 508.842 435.737 508.847C435.772 509.159 435.854 509.437 435.911 509.632L435.914 509.644C435.915 509.647 435.916 509.649 435.916 509.652C435.923 509.675 435.929 509.7 435.936 509.728C435.984 509.91 436.058 510.198 436.193 510.476C436.198 510.496 436.204 510.52 436.211 510.545C436.228 510.601 436.255 510.682 436.301 510.773L436.323 510.816L436.349 510.856C436.456 511.025 436.587 511.152 436.639 511.203L436.649 511.212C436.664 511.226 436.674 511.237 436.681 511.244L436.685 511.25L436.711 511.284L436.73 511.309C436.876 511.501 437.094 511.785 437.394 512.03L437.401 512.036C437.642 512.229 437.896 512.394 438.138 512.532L438.165 512.547C438.356 512.657 438.649 512.825 439.004 512.928C439.348 513.038 439.68 513.081 439.921 513.112L439.948 513.116L439.959 513.117L439.96 513.117C439.961 513.118 439.963 513.118 439.966 513.119C439.981 513.122 439.99 513.125 440.006 513.129C440.018 513.132 440.035 513.136 440.062 513.143C440.154 513.166 440.331 513.21 440.547 513.21C440.733 513.21 440.876 513.17 440.953 513.147C441.273 513.113 441.558 513.033 441.762 512.976L441.773 512.973C441.776 512.972 441.779 512.971 441.782 512.97C442.026 512.906 442.328 512.825 442.643 512.679C442.663 512.673 442.689 512.666 442.717 512.658C442.77 512.641 442.839 512.617 442.916 512.579L442.943 512.566L442.969 512.552L497.439 481.738L544.549 508.393L388.514 596.72V350.19L606.365 226.916V403.501L559.225 376.828V315.209C559.225 315.028 559.187 314.884 559.163 314.804C559.162 314.799 559.16 314.794 559.159 314.789C559.125 314.498 559.052 314.232 558.999 314.04C558.993 314.017 558.987 313.995 558.981 313.975C558.975 313.95 558.967 313.922 558.959 313.891C558.912 313.709 558.837 313.421 558.703 313.143C558.698 313.123 558.691 313.099 558.684 313.074C558.668 313.018 558.641 312.937 558.594 312.846ZM557.829 311.853C557.825 311.849 557.826 311.85 557.83 311.854L557.829 311.853ZM441.003 513.131C441.001 513.131 440.997 513.132 440.992 513.134L441.001 513.131L441.003 513.131Z" stroke="url(#paint6_linear_778_7)" stroke-opacity="0.2" stroke-width="2"/>
<path d="M326.285 513.14L326.289 513.142C326.274 513.137 326.271 513.135 326.285 513.14ZM326.358 513.166C326.439 513.192 326.579 513.227 326.744 513.227C326.96 513.227 327.137 513.184 327.229 513.161C327.29 513.146 327.298 513.143 327.325 513.137C327.328 513.136 327.33 513.136 327.332 513.135L327.334 513.135C327.616 513.1 327.945 513.057 328.306 512.939L328.316 512.936L328.326 512.933C328.651 512.819 328.906 512.681 329.123 512.567L329.138 512.559L329.152 512.55L329.176 512.537C329.369 512.427 329.648 512.267 329.914 512.034C330.197 511.799 330.405 511.531 330.548 511.344C330.55 511.342 330.552 511.34 330.554 511.337L330.564 511.328C330.584 511.31 330.625 511.271 330.655 511.243C330.741 511.158 330.891 511.001 331.001 510.767C331.04 510.686 331.064 510.614 331.079 510.563C331.087 510.537 331.093 510.512 331.098 510.492C331.228 510.221 331.307 509.921 331.349 509.76C331.358 509.727 331.366 509.699 331.371 509.679L331.374 509.67L331.376 509.662C331.382 509.64 331.388 509.618 331.395 509.594C331.45 509.395 331.527 509.114 331.558 508.821C331.563 508.805 331.569 508.787 331.575 508.767C331.593 508.7 331.62 508.587 331.62 508.445V379.644C331.62 379.465 331.583 379.322 331.559 379.242C331.557 379.234 331.554 379.227 331.552 379.22C331.536 379.071 331.515 378.909 331.478 378.729C331.434 378.512 331.37 378.303 331.321 378.144L331.315 378.125L331.311 378.11L331.306 378.095C331.243 377.91 331.165 377.733 331.101 377.594C331.096 377.572 331.089 377.541 331.079 377.509C331.063 377.454 331.036 377.372 330.989 377.281L330.972 377.247L330.952 377.214C330.885 377.105 330.816 377.021 330.771 376.968C330.752 376.946 330.739 376.931 330.729 376.92C330.717 376.906 330.711 376.899 330.704 376.891C330.621 376.774 330.541 376.676 330.463 376.583C330.454 376.571 330.459 376.576 330.406 376.503C330.38 376.468 330.343 376.42 330.297 376.367L330.272 376.318L330.155 376.204C329.893 375.947 329.605 375.734 329.325 375.56L329.258 375.494L329.113 375.423L329.105 375.42L215.361 311.059C215.358 311.057 215.355 311.056 215.352 311.054C215.28 311.013 215.215 310.983 215.166 310.963C215.117 310.943 215.071 310.927 215.051 310.92C215.047 310.918 215.044 310.917 215.041 310.916L215.016 310.904C214.908 310.851 214.715 310.776 214.652 310.751C214.642 310.747 214.635 310.745 214.633 310.744L214.606 310.732L214.578 310.723C214.08 310.547 213.528 310.41 212.924 310.41C212.332 310.41 211.766 310.542 211.273 310.722C211.193 310.749 211.121 310.778 211.077 310.796L211.069 310.8C211.01 310.823 210.992 310.831 210.98 310.834L210.922 310.853L210.866 310.88C210.405 311.095 209.933 311.374 209.513 311.786L210.213 312.5L209.513 311.786L209.511 311.788C209.486 311.813 209.432 311.866 209.372 311.948C209.164 312.172 208.918 312.459 208.72 312.803L208.708 312.825L208.696 312.847C208.65 312.937 208.623 313.019 208.607 313.075C208.599 313.1 208.593 313.124 208.588 313.144C208.453 313.422 208.379 313.709 208.332 313.892C208.323 313.923 208.316 313.951 208.309 313.976C208.304 313.997 208.297 314.02 208.291 314.043C208.236 314.242 208.159 314.522 208.128 314.815C208.123 314.831 208.117 314.849 208.111 314.869C208.093 314.935 208.066 315.05 208.066 315.192V376.812L160.926 403.485V226.934L378.777 350.208V596.738L222.742 508.445L269.851 481.789L324.322 512.604L324.409 512.653L324.504 512.684C324.52 512.689 324.534 512.694 324.548 512.698C324.574 512.705 324.597 512.71 324.615 512.714C324.64 512.72 324.663 512.724 324.679 512.727C324.957 512.85 325.235 512.919 325.424 512.967C325.458 512.975 325.49 512.983 325.518 512.99C325.539 512.996 325.562 513.002 325.586 513.008C325.788 513.062 326.067 513.136 326.358 513.166ZM330.208 376.272C330.203 376.268 330.204 376.269 330.209 376.273C330.208 376.273 330.208 376.273 330.208 376.272ZM327.335 513.134C327.335 513.134 327.335 513.134 327.334 513.135L327.335 513.134Z" stroke="url(#paint7_linear_778_7)" stroke-opacity="0.2" stroke-width="2"/>
<path d="M267.431 214.439L267.286 214.51L267.213 214.581C266.802 214.846 266.437 215.172 266.128 215.526C266.055 215.601 265.998 215.672 265.957 215.724C265.89 215.809 265.895 215.806 265.862 215.846L265.819 215.899L265.807 215.919C265.805 215.921 265.803 215.923 265.8 215.926C265.786 215.942 265.753 215.978 265.719 216.018C265.686 216.059 265.642 216.116 265.597 216.187C265.467 216.394 265.415 216.594 265.393 216.679C265.379 216.733 265.373 216.757 265.371 216.764L265.361 216.787C265.263 217.009 265.122 217.331 265.048 217.71C264.975 218.051 264.976 218.377 264.976 218.597L264.976 218.625L264.976 218.654C264.976 218.874 264.975 219.203 265.049 219.547C265.118 219.879 265.228 220.185 265.373 220.477C265.376 220.489 265.382 220.512 265.393 220.554L265.393 220.556C265.415 220.639 265.464 220.825 265.582 221.022C265.675 221.183 265.787 221.29 265.833 221.332C266.026 221.595 266.255 221.814 266.44 221.979L266.447 221.987C266.606 222.143 266.814 222.346 267.068 222.525C267.112 222.571 267.223 222.684 267.392 222.775L381.18 287.167L381.206 287.182L381.232 287.195C381.309 287.233 381.379 287.257 381.432 287.273C381.464 287.283 381.494 287.291 381.515 287.297C381.659 287.359 381.845 287.44 382.039 287.503L382.054 287.508L382.068 287.512L382.085 287.517C382.248 287.565 382.46 287.627 382.679 287.67C382.876 287.709 383.052 287.73 383.213 287.746C383.294 287.772 383.435 287.808 383.602 287.808C383.778 287.808 383.918 287.773 383.999 287.75C384.007 287.747 384.015 287.745 384.024 287.742C384.176 287.727 384.341 287.706 384.524 287.67C384.744 287.627 384.955 287.565 385.119 287.517L385.136 287.512L385.15 287.508L385.164 287.503C385.358 287.44 385.545 287.359 385.689 287.296C385.71 287.291 385.74 287.283 385.772 287.273C385.789 287.268 385.808 287.262 385.828 287.255C385.871 287.24 385.919 287.22 385.971 287.195L385.998 287.182L386.024 287.167L499.81 222.775C499.899 222.728 499.968 222.677 500.018 222.636C500.04 222.617 500.061 222.598 500.078 222.583C500.394 222.382 500.641 222.133 500.829 221.933C500.843 221.919 500.859 221.903 500.877 221.887C501.005 221.764 501.214 221.564 501.387 221.333C501.432 221.292 501.546 221.185 501.64 221.021C501.758 220.822 501.808 220.629 501.828 220.551L501.83 220.543L501.84 220.502C501.842 220.494 501.843 220.488 501.845 220.484L501.849 220.474L501.861 220.447C501.957 220.227 502.096 219.909 502.171 219.552C502.249 219.192 502.245 218.847 502.245 218.625V218.597C502.245 218.376 502.246 218.045 502.171 217.701C502.103 217.375 501.978 217.072 501.889 216.858C501.878 216.831 501.868 216.806 501.858 216.782L501.851 216.765L501.85 216.762C501.848 216.755 501.842 216.731 501.828 216.678C501.805 216.593 501.754 216.394 501.624 216.188C501.559 216.083 501.492 216.001 501.448 215.95C501.416 215.912 501.402 215.896 501.391 215.884C501.387 215.88 501.384 215.876 501.381 215.872C501.294 215.749 501.209 215.646 501.127 215.548C500.811 215.164 500.432 214.818 499.997 214.554L499.935 214.493L499.791 214.422L499.782 214.418L445.37 183.627V130.316L601.406 218.608L383.636 341.882L165.816 218.625L321.851 130.333V183.644L267.439 214.435L267.431 214.439ZM383.144 287.721L383.148 287.723C383.133 287.718 383.13 287.716 383.144 287.721Z" stroke="url(#paint8_linear_778_7)" stroke-opacity="0.2" stroke-width="2"/>
<path d="M378.743 33.7149L104 189.189V500.12L316.944 379.627L269.835 352.971L158.473 416.002L158.447 416.017L158.42 416.03C158.343 416.068 158.274 416.092 158.221 416.109C158.196 416.116 158.172 416.123 158.153 416.128C157.847 416.275 157.529 416.358 157.311 416.414L157.294 416.419L157.277 416.423L157.263 416.427C157.061 416.484 156.774 416.565 156.464 416.598C156.456 416.6 156.446 416.603 156.435 416.606C156.366 416.625 156.226 416.66 156.051 416.66C155.81 416.66 155.612 416.601 155.526 416.575L155.52 416.574C155.475 416.56 155.452 416.553 155.443 416.551L155.434 416.55L155.43 416.549C155.176 416.516 154.838 416.472 154.486 416.349C154.2 416.248 153.941 416.11 153.756 416.01C153.726 415.994 153.698 415.979 153.672 415.965L153.657 415.958L153.643 415.949C153.413 415.818 153.171 415.669 152.922 415.469L152.9 415.452L152.879 415.433C152.627 415.206 152.4 414.964 152.192 414.67L152.187 414.663C152.18 414.656 152.169 414.645 152.152 414.628L152.142 414.618C152.09 414.568 151.96 414.441 151.853 414.273L151.827 414.232L151.805 414.19C151.759 414.099 151.732 414.017 151.715 413.962C151.706 413.93 151.699 413.9 151.693 413.878C151.566 413.593 151.485 413.307 151.42 413.07C151.42 413.067 151.419 413.064 151.418 413.061L151.415 413.051C151.358 412.854 151.276 412.577 151.241 412.264C151.239 412.259 151.238 412.254 151.236 412.249C151.212 412.168 151.174 412.025 151.174 411.844V218.642C151.174 218.5 151.201 218.385 151.22 218.319C151.226 218.297 151.232 218.278 151.238 218.262C151.255 218.102 151.276 217.925 151.316 217.727C151.361 217.508 151.425 217.298 151.474 217.137L151.479 217.123C151.544 216.912 151.633 216.72 151.689 216.601C151.69 216.597 151.692 216.594 151.694 216.59C151.699 216.568 151.706 216.539 151.715 216.508C151.732 216.452 151.759 216.37 151.805 216.28L151.823 216.245L151.843 216.212C151.889 216.137 151.935 216.078 151.97 216.036C152.003 215.995 152.036 215.959 152.051 215.943C152.053 215.941 152.055 215.938 152.057 215.936L152.07 215.916L152.112 215.863C152.146 215.822 152.141 215.826 152.208 215.74C152.248 215.69 152.304 215.621 152.375 215.548C152.386 215.531 152.412 215.492 152.443 215.451C152.456 215.434 152.472 215.415 152.489 215.394C152.554 215.302 152.614 215.244 152.639 215.219C152.639 215.219 152.639 215.219 152.639 215.219L153.339 215.933C153.565 215.712 153.808 215.525 154.087 215.371L378.743 33.7149ZM378.743 33.7149V274.708L331.621 248.045V122.024C331.621 121.845 331.584 121.703 331.56 121.622C331.558 121.617 331.557 121.611 331.555 121.605C331.522 121.314 331.448 121.048 331.395 120.855C331.389 120.833 331.383 120.811 331.377 120.791C331.371 120.766 331.363 120.738 331.355 120.707C331.308 120.525 331.234 120.237 331.099 119.959C331.094 119.939 331.088 119.915 331.08 119.89C331.064 119.834 331.037 119.753 330.991 119.662L330.979 119.64L330.967 119.619C330.769 119.274 330.522 118.987 330.314 118.763L330.29 118.716L330.174 118.601C329.747 118.184 329.253 117.906 328.836 117.702L328.396 118.6L328.836 117.702C328.668 117.62 328.506 117.567 328.409 117.535L328.404 117.534C327.91 117.36 327.361 117.225 326.762 117.225C326.169 117.225 325.626 117.357 325.135 117.528C324.94 117.587 324.779 117.666 324.686 117.712L324.671 117.719L324.646 117.731C324.643 117.732 324.64 117.733 324.636 117.735C324.616 117.742 324.57 117.758 324.521 117.778C324.472 117.798 324.406 117.828 324.335 117.869C324.332 117.871 324.329 117.873 324.326 117.874L153.69 214.435L153.682 214.439L153.537 214.51L153.478 214.568L378.743 33.7149ZM330.226 118.67C330.222 118.665 330.223 118.666 330.227 118.671L330.226 118.67Z" stroke="url(#paint9_linear_778_7)" stroke-opacity="0.2" stroke-width="2"/>
<path d="M663.257 189.189V500.11L450.33 379.627L497.439 352.971L608.801 416.002L608.827 416.017L608.854 416.03C608.931 416.068 609 416.092 609.053 416.109C609.081 416.117 609.108 416.124 609.128 416.13C609.443 416.275 609.744 416.357 609.989 416.421C609.991 416.422 609.994 416.423 609.997 416.423L610.011 416.427C610.219 416.486 610.52 416.57 610.841 416.601C610.865 416.608 610.896 416.617 610.929 416.625C611.002 416.642 611.103 416.66 611.224 416.66C611.438 416.66 611.618 416.618 611.73 416.589C611.851 416.556 611.867 416.55 611.891 416.543C612.138 416.51 612.457 416.464 612.788 416.349C613.075 416.248 613.333 416.11 613.518 416.01C613.548 415.994 613.576 415.979 613.602 415.965L613.617 415.958L613.632 415.949C613.861 415.818 614.103 415.669 614.352 415.469L614.359 415.464C614.653 415.223 614.864 414.951 615.024 414.727C615.027 414.724 615.029 414.722 615.032 414.719C615.045 414.706 615.092 414.661 615.125 414.627C615.207 414.543 615.326 414.413 615.431 414.228L615.442 414.209L615.452 414.19C615.498 414.099 615.525 414.018 615.541 413.962C615.548 413.939 615.554 413.918 615.558 413.899C615.559 413.896 615.56 413.894 615.56 413.891C615.717 413.563 615.8 413.192 615.834 413.078L615.836 413.069L615.839 413.061C615.893 412.859 615.984 412.553 616.019 412.215C616.047 412.132 616.082 411.991 616.082 411.827V218.625C616.082 218.445 616.045 218.301 616.02 218.22C616.018 218.214 616.016 218.207 616.014 218.2C615.998 218.052 615.977 217.89 615.94 217.71C615.896 217.493 615.832 217.285 615.784 217.126L615.778 217.106L615.773 217.091L615.768 217.077C615.705 216.892 615.627 216.715 615.564 216.575C615.558 216.553 615.551 216.523 615.541 216.491C615.525 216.435 615.498 216.353 615.452 216.263L615.434 216.228L615.414 216.195C615.348 216.087 615.279 216.003 615.234 215.951C615.202 215.912 615.187 215.896 615.177 215.884C615.173 215.88 615.17 215.877 615.167 215.873C615.084 215.755 615.003 215.656 614.925 215.564C614.923 215.561 614.921 215.559 614.92 215.557C614.915 215.549 614.907 215.538 614.868 215.485C614.842 215.45 614.806 215.402 614.76 215.349L614.734 215.3L614.618 215.185C614.355 214.928 614.067 214.715 613.787 214.542L613.72 214.476L613.575 214.405L613.567 214.401L442.931 117.84C442.928 117.838 442.924 117.836 442.921 117.835C442.85 117.793 442.785 117.764 442.736 117.744C442.687 117.724 442.641 117.708 442.621 117.701C442.617 117.699 442.613 117.698 442.61 117.697L442.586 117.685C442.479 117.633 442.292 117.559 442.226 117.534C442.214 117.529 442.205 117.526 442.203 117.525L442.176 117.513L442.149 117.504C441.648 117.327 441.079 117.191 440.495 117.191C439.902 117.191 439.337 117.323 438.844 117.503C438.764 117.529 438.691 117.559 438.647 117.577L438.639 117.58C438.581 117.604 438.562 117.611 438.55 117.615L438.492 117.634L438.436 117.66C437.975 117.876 437.503 118.155 437.083 118.567C437.083 118.567 437.083 118.567 437.083 118.567L437.081 118.569C437.056 118.594 437.002 118.647 436.942 118.729C436.734 118.953 436.488 119.24 436.29 119.584L436.277 119.606L436.266 119.628C436.22 119.718 436.193 119.8 436.176 119.856C436.169 119.881 436.163 119.906 436.158 119.927C436.028 120.197 435.949 120.498 435.906 120.658C435.897 120.692 435.89 120.72 435.884 120.739L435.882 120.748L435.879 120.757C435.874 120.778 435.867 120.801 435.861 120.824C435.806 121.024 435.728 121.304 435.698 121.598C435.693 121.613 435.687 121.632 435.681 121.652C435.663 121.718 435.636 121.832 435.636 121.973V247.994L388.496 274.667V33.7148L663.257 189.189ZM615.99 412.296C615.991 412.294 615.991 412.293 615.992 412.29C615.987 412.307 615.985 412.31 615.99 412.296ZM614.669 215.253C614.667 215.251 614.668 215.251 614.671 215.254C614.67 215.254 614.67 215.254 614.67 215.253L614.669 215.253Z" stroke="url(#paint10_linear_778_7)" stroke-opacity="0.2" stroke-width="2"/>
<path d="M267.467 472.035L267.353 472.1L267.342 472.111L210.602 504.227C210.547 504.252 210.493 504.282 210.44 504.318C210.403 504.343 210.37 504.369 210.341 504.395C209.936 504.657 209.577 504.98 209.272 505.329C209.2 505.404 209.142 505.475 209.101 505.527C209.034 505.612 209.039 505.609 209.006 505.649L208.963 505.702L208.951 505.722C208.949 505.724 208.947 505.726 208.945 505.729L208.942 505.732C208.926 505.749 208.895 505.783 208.864 505.821C208.83 505.862 208.785 505.919 208.741 505.99C208.612 506.196 208.56 506.396 208.537 506.481C208.523 506.536 208.516 506.559 208.515 506.566L208.506 506.587C208.408 506.811 208.267 507.133 208.192 507.513C208.119 507.854 208.12 508.18 208.12 508.4L208.12 508.428L208.12 508.457C208.12 508.677 208.119 509.007 208.194 509.35C208.261 509.677 208.387 509.981 208.476 510.196C208.487 510.222 208.497 510.248 208.507 510.271L208.514 510.289L208.515 510.291C208.517 510.299 208.523 510.322 208.537 510.376L208.538 510.377C208.56 510.46 208.608 510.646 208.726 510.842C208.82 511.006 208.935 511.113 208.979 511.153C209.132 511.357 209.328 511.557 209.443 511.673C209.474 511.706 209.5 511.731 209.516 511.749L209.533 511.767L209.55 511.783L209.566 511.8C209.739 511.969 209.953 512.179 210.231 512.375L210.233 512.376C210.26 512.403 210.329 512.471 210.422 512.539L210.47 512.575L210.522 512.604L381.234 609.205L381.259 609.219L381.286 609.232C381.428 609.302 381.559 609.332 381.602 609.342L381.605 609.342C381.746 609.404 381.925 609.48 382.111 609.541L382.125 609.545L382.139 609.549C382.305 609.598 382.523 609.663 382.75 609.708C382.947 609.746 383.123 609.767 383.284 609.783C383.365 609.809 383.506 609.846 383.673 609.846C383.859 609.846 384.002 609.806 384.078 609.783C384.08 609.782 384.082 609.781 384.084 609.781C384.239 609.765 384.408 609.744 384.595 609.708C384.822 609.663 385.041 609.598 385.207 609.549L385.221 609.545L385.235 609.541C385.424 609.479 385.605 609.401 385.746 609.34C385.769 609.335 385.801 609.327 385.834 609.318C385.849 609.313 385.866 609.308 385.885 609.303C385.934 609.287 385.995 609.264 386.06 609.232L386.086 609.219L386.112 609.205L556.81 512.612C556.97 512.525 557.079 512.419 557.127 512.369C557.386 512.194 557.598 511.981 557.733 511.846C557.756 511.822 557.777 511.801 557.796 511.783L557.096 511.069L557.796 511.783L557.819 511.761C557.978 511.605 558.186 511.401 558.369 511.151C558.415 511.11 558.527 511.003 558.62 510.842C558.739 510.644 558.787 510.456 558.809 510.374C558.823 510.321 558.829 510.297 558.831 510.29L558.841 510.266C558.938 510.044 559.079 509.723 559.153 509.346C559.226 509.004 559.226 508.676 559.226 508.456V508.428V508.4C559.226 508.179 559.226 507.848 559.152 507.504C559.084 507.179 558.959 506.876 558.871 506.663C558.859 506.635 558.849 506.61 558.839 506.585L558.831 506.568L558.831 506.566C558.829 506.558 558.822 506.534 558.809 506.482L558.808 506.481C558.786 506.394 558.734 506.196 558.605 505.99C558.54 505.886 558.472 505.804 558.429 505.753C558.397 505.715 558.382 505.699 558.372 505.687C558.368 505.683 558.365 505.679 558.362 505.675C558.275 505.552 558.19 505.449 558.107 505.352C557.792 504.967 557.413 504.621 556.978 504.357L556.915 504.296L556.77 504.225L556.763 504.221L499.987 472.094L499.976 472.083L499.862 472.018L445.442 441.23V387.901L658.386 508.394L383.655 663.851L108.943 508.394L321.887 387.901V441.237L267.467 472.035ZM267.493 472.025C267.493 472.025 267.492 472.025 267.492 472.025L267.493 472.025ZM383.214 609.758C383.215 609.759 383.217 609.759 383.218 609.76C383.203 609.755 383.2 609.753 383.214 609.758ZM557.166 512.327C557.17 512.323 557.169 512.325 557.165 512.329L557.166 512.327Z" stroke="url(#paint11_linear_778_7)" stroke-opacity="0.2" stroke-width="2"/>
</g>
<defs>
<filter id="filter0_f_778_7" x="-129" y="1162" width="994" height="432" filterUnits="userSpaceOnUse" color-interpolation-filters="sRGB">
<feFlood flood-opacity="0" result="BackgroundImageFix"/>
<feBlend mode="normal" in="SourceGraphic" in2="BackgroundImageFix" result="shape"/>
<feGaussianBlur stdDeviation="100" result="effect1_foregroundBlur_778_7"/>
</filter>
<linearGradient id="paint0_linear_778_7" x1="383.01" y1="1071.33" x2="588.904" y2="1071.33" gradientUnits="userSpaceOnUse">
<stop stop-color="#002B99"/>
<stop offset="0.604167" stop-color="#8000FF"/>
<stop offset="1" stop-color="#F300F8"/>
</linearGradient>
<linearGradient id="paint1_linear_778_7" x1="169.871" y1="1071.35" x2="375.766" y2="1071.35" gradientUnits="userSpaceOnUse">
<stop stop-color="#002B99"/>
<stop offset="0.604167" stop-color="#8000FF"/>
<stop offset="1" stop-color="#F300F8"/>
</linearGradient>
<linearGradient id="paint2_linear_778_7" x1="173.484" y1="903.837" x2="585.225" y2="903.837" gradientUnits="userSpaceOnUse">
<stop stop-color="#002B99"/>
<stop offset="0.604167" stop-color="#8000FF"/>
<stop offset="1" stop-color="#F300F8"/>
</linearGradient>
<linearGradient id="paint3_linear_778_7" x1="116.559" y1="932.474" x2="375.75" y2="932.474" gradientUnits="userSpaceOnUse">
<stop stop-color="#002B99"/>
<stop offset="0.604167" stop-color="#8000FF"/>
<stop offset="1" stop-color="#F300F8"/>
</linearGradient>
<linearGradient id="paint4_linear_778_7" x1="382.994" y1="932.474" x2="642.202" y2="932.474" gradientUnits="userSpaceOnUse">
<stop stop-color="#002B99"/>
<stop offset="0.604167" stop-color="#8000FF"/>
<stop offset="1" stop-color="#F300F8"/>
</linearGradient>
<linearGradient id="paint5_linear_778_7" x1="120.223" y1="1180.44" x2="638.589" y2="1180.44" gradientUnits="userSpaceOnUse">
<stop stop-color="#002B99"/>
<stop offset="0.604167" stop-color="#8000FF"/>
<stop offset="1" stop-color="#F300F8"/>
</linearGradient>
<linearGradient id="paint6_linear_778_7" x1="387.514" y1="410.166" x2="607.365" y2="410.166" gradientUnits="userSpaceOnUse">
<stop stop-color="#002B99"/>
<stop offset="0.604167" stop-color="#8000FF"/>
<stop offset="1" stop-color="#F300F8"/>
</linearGradient>
<linearGradient id="paint7_linear_778_7" x1="159.926" y1="410.184" x2="379.777" y2="410.184" gradientUnits="userSpaceOnUse">
<stop stop-color="#002B99"/>
<stop offset="0.604167" stop-color="#8000FF"/>
<stop offset="1" stop-color="#F300F8"/>
</linearGradient>
<linearGradient id="paint8_linear_778_7" x1="163.785" y1="234.867" x2="603.436" y2="234.867" gradientUnits="userSpaceOnUse">
<stop stop-color="#002B99"/>
<stop offset="0.604167" stop-color="#8000FF"/>
<stop offset="1" stop-color="#F300F8"/>
</linearGradient>
<linearGradient id="paint9_linear_778_7" x1="103" y1="264.838" x2="379.761" y2="264.838" gradientUnits="userSpaceOnUse">
<stop stop-color="#002B99"/>
<stop offset="0.604167" stop-color="#8000FF"/>
<stop offset="1" stop-color="#F300F8"/>
</linearGradient>
<linearGradient id="paint10_linear_778_7" x1="387.496" y1="264.838" x2="664.274" y2="264.838" gradientUnits="userSpaceOnUse">
<stop stop-color="#002B99"/>
<stop offset="0.604167" stop-color="#8000FF"/>
<stop offset="1" stop-color="#F300F8"/>
</linearGradient>
<linearGradient id="paint11_linear_778_7" x1="106.912" y1="524.36" x2="660.417" y2="524.36" gradientUnits="userSpaceOnUse">
<stop stop-color="#002B99"/>
<stop offset="0.604167" stop-color="#8000FF"/>
<stop offset="1" stop-color="#F300F8"/>
</linearGradient>
<clipPath id="clip0_778_7">
<rect width="768" height="1604" fill="white"/>
</clipPath>
</defs>
</svg>
