<svg width="1920" height="1080" viewBox="0 0 1920 1080" fill="none" xmlns="http://www.w3.org/2000/svg">
<g clip-path="url(#clip0_607_16)">
<rect width="1920" height="1080" fill="white"/>
<path d="M401.58 740.795V494.005L615.301 370.619V549.159L567.531 521.582V459.889C567.531 459.804 567.498 459.737 567.481 459.669C567.464 459.416 567.396 459.179 567.328 458.926C567.261 458.672 567.21 458.436 567.092 458.216C567.058 458.148 567.058 458.064 567.024 457.996C566.872 457.726 566.669 457.489 566.467 457.27C566.45 457.253 566.433 457.236 566.416 457.202C566.112 456.898 565.74 456.678 565.368 456.492C565.267 456.442 565.166 456.408 565.064 456.374C564.642 456.222 564.22 456.121 563.78 456.121C563.341 456.121 562.918 456.222 562.496 456.374C562.378 456.408 562.276 456.458 562.175 456.509C562.09 456.56 561.989 456.577 561.904 456.627L451.293 520.484L451.259 520.5C451.242 520.517 451.242 520.517 451.225 520.534C450.955 520.686 450.718 520.872 450.499 521.092C450.482 521.109 450.465 521.126 450.448 521.159C450.38 521.227 450.346 521.312 450.279 521.379C450.194 521.464 450.127 521.565 450.059 521.65C450.009 521.734 449.924 521.802 449.873 521.886C449.839 521.954 449.839 522.038 449.806 522.106C449.738 522.258 449.671 522.393 449.62 522.562C449.569 522.731 449.518 522.9 449.485 523.069C449.451 523.238 449.434 523.39 449.417 523.559C449.417 523.643 449.366 523.711 449.366 523.779V651.525C449.366 651.609 449.4 651.677 449.417 651.744C449.434 651.998 449.502 652.234 449.569 652.471C449.637 652.724 449.687 652.961 449.806 653.181C449.839 653.248 449.839 653.333 449.873 653.4C449.958 653.535 450.093 653.62 450.178 653.755C450.33 653.958 450.481 654.161 450.684 654.33C450.87 654.482 451.073 654.617 451.276 654.735C451.479 654.853 451.681 654.972 451.918 655.039C452.171 655.124 452.425 655.158 452.678 655.191C452.831 655.208 452.966 655.276 453.135 655.276C453.219 655.276 453.27 655.242 453.354 655.225C453.608 655.208 453.844 655.141 454.081 655.073C454.334 655.005 454.571 654.938 454.808 654.82C454.875 654.786 454.943 654.786 455.01 654.752L508.441 623.914L556.21 651.491L401.58 740.795Z" fill="url(#paint0_linear_607_16)"/>
<path d="M340.833 654.854C341.069 654.972 341.306 655.023 341.56 655.091C341.813 655.158 342.05 655.226 342.286 655.243C342.371 655.243 342.421 655.293 342.506 655.293C342.675 655.293 342.81 655.226 342.962 655.209C343.232 655.175 343.469 655.141 343.723 655.057C343.959 654.972 344.145 654.871 344.365 654.753C344.567 654.634 344.77 654.516 344.956 654.347C345.159 654.178 345.311 653.975 345.463 653.773C345.564 653.654 345.7 653.57 345.767 653.418C345.801 653.35 345.801 653.266 345.835 653.198C345.953 652.978 346.004 652.725 346.071 652.488C346.139 652.235 346.207 651.998 346.223 651.762C346.223 651.677 346.274 651.61 346.274 651.542V523.796C346.274 523.712 346.24 523.644 346.223 523.577C346.207 523.408 346.19 523.255 346.156 523.086C346.122 522.917 346.071 522.749 346.021 522.58C345.97 522.427 345.902 522.275 345.835 522.123C345.801 522.056 345.801 521.971 345.767 521.904C345.717 521.819 345.649 521.752 345.581 521.667C345.514 521.566 345.446 521.481 345.362 521.38C345.311 521.312 345.26 521.228 345.193 521.16C345.176 521.143 345.159 521.126 345.142 521.093C344.922 520.873 344.669 520.687 344.415 520.535C344.398 520.518 344.398 520.518 344.381 520.501L344.348 520.484L233.736 456.628C233.651 456.577 233.55 456.561 233.466 456.51C233.364 456.459 233.263 456.425 233.144 456.375C232.722 456.223 232.299 456.121 231.86 456.121C231.421 456.121 230.981 456.223 230.576 456.375C230.475 456.409 230.373 456.459 230.272 456.493C229.883 456.679 229.529 456.899 229.224 457.203C229.208 457.22 229.191 457.237 229.174 457.27C228.971 457.49 228.768 457.727 228.616 457.997C228.582 458.064 228.582 458.149 228.548 458.217C228.43 458.436 228.379 458.673 228.312 458.926C228.244 459.18 228.177 459.416 228.16 459.653C228.16 459.737 228.109 459.805 228.109 459.873V521.566L180.339 549.143V370.636L394.06 494.023V740.812L239.43 651.542L287.2 623.965L340.63 654.803C340.681 654.82 340.765 654.82 340.833 654.854Z" fill="url(#paint1_linear_607_16)"/>
<path d="M397.811 487.483L184.09 364.097L338.72 274.826V329.98L285.307 360.818L285.273 360.835C285.257 360.852 285.257 360.852 285.24 360.869C284.885 361.089 284.564 361.376 284.293 361.697C284.209 361.782 284.141 361.883 284.074 361.967C284.023 362.052 283.938 362.12 283.888 362.204C283.803 362.339 283.803 362.491 283.736 362.643C283.635 362.88 283.533 363.117 283.482 363.387C283.431 363.623 283.431 363.86 283.431 364.097C283.431 364.333 283.431 364.57 283.482 364.806C283.533 365.06 283.618 365.296 283.736 365.533C283.803 365.685 283.803 365.837 283.888 365.972C283.922 366.04 283.989 366.074 284.04 366.141C284.175 366.344 284.361 366.53 284.547 366.699C284.733 366.885 284.902 367.054 285.104 367.189C285.172 367.24 285.206 367.307 285.273 367.341L395.902 431.214C395.97 431.248 396.037 431.248 396.105 431.281C396.257 431.349 396.409 431.417 396.561 431.467C396.73 431.518 396.899 431.569 397.068 431.603C397.237 431.636 397.389 431.653 397.558 431.67C397.642 431.67 397.693 431.721 397.778 431.721C397.862 431.721 397.93 431.687 397.997 431.67C398.166 431.653 398.318 431.636 398.487 431.603C398.656 431.569 398.825 431.518 398.994 431.467C399.147 431.417 399.299 431.349 399.451 431.281C399.518 431.248 399.586 431.248 399.653 431.214L510.282 367.341C510.349 367.307 510.383 367.24 510.451 367.206C510.671 367.071 510.856 366.885 511.042 366.682C511.211 366.513 511.397 366.344 511.532 366.141C511.583 366.074 511.651 366.04 511.685 365.972C511.769 365.837 511.769 365.668 511.837 365.533C511.938 365.296 512.039 365.06 512.09 364.806C512.141 364.57 512.141 364.333 512.141 364.097C512.141 363.86 512.141 363.623 512.09 363.387C512.039 363.133 511.938 362.897 511.837 362.643C511.769 362.491 511.769 362.339 511.685 362.204C511.634 362.12 511.566 362.052 511.498 361.967C511.431 361.866 511.363 361.782 511.279 361.68C511.009 361.342 510.687 361.055 510.333 360.852C510.316 360.835 510.316 360.835 510.299 360.818L510.265 360.802L456.852 329.963V274.81L611.482 364.08L397.811 487.483Z" fill="url(#paint2_linear_607_16)"/>
<path d="M394.044 421.43L346.274 393.853V268.287C346.274 268.202 346.241 268.135 346.224 268.067C346.207 267.814 346.139 267.577 346.071 267.324C346.004 267.07 345.953 266.834 345.835 266.614C345.801 266.547 345.801 266.462 345.767 266.394C345.615 266.124 345.412 265.888 345.21 265.668C345.193 265.651 345.176 265.634 345.159 265.6C344.855 265.296 344.483 265.076 344.111 264.891C344.01 264.84 343.908 264.806 343.807 264.772C343.385 264.62 342.962 264.519 342.523 264.519C342.083 264.519 341.661 264.62 341.238 264.772C341.12 264.806 341.019 264.857 340.918 264.907C340.833 264.958 340.732 264.975 340.647 265.026L174.73 360.818L174.696 360.835C174.679 360.852 174.679 360.852 174.662 360.869C174.392 361.021 174.155 361.207 173.935 361.427C173.919 361.444 173.902 361.46 173.885 361.494C173.817 361.562 173.783 361.646 173.716 361.714C173.631 361.798 173.564 361.9 173.496 361.984C173.445 362.069 173.361 362.136 173.31 362.221C173.276 362.288 173.276 362.373 173.243 362.44C173.175 362.593 173.107 362.728 173.057 362.897C173.006 363.066 172.955 363.235 172.922 363.404C172.888 363.573 172.871 363.725 172.854 363.894C172.854 363.978 172.803 364.046 172.803 364.113V555.732C172.803 555.817 172.837 555.884 172.854 555.952C172.871 556.205 172.938 556.442 173.006 556.679C173.074 556.932 173.141 557.169 173.243 557.388C173.276 557.456 173.276 557.54 173.31 557.608C173.395 557.743 173.53 557.828 173.614 557.963C173.766 558.182 173.935 558.368 174.138 558.554C174.324 558.706 174.51 558.825 174.713 558.943C174.933 559.061 175.135 559.179 175.372 559.264C175.608 559.348 175.845 559.382 176.098 559.416C176.267 559.433 176.402 559.517 176.571 559.517C176.656 559.517 176.724 559.484 176.808 559.467C177.045 559.45 177.281 559.382 177.518 559.315C177.771 559.247 178.025 559.179 178.244 559.061C178.312 559.027 178.38 559.027 178.447 558.993L287.183 496.202L334.953 523.779L125 644.986V334.323L394.027 179V421.43H394.044Z" fill="url(#paint3_linear_607_16)"/>
<path d="M670.624 644.986L460.671 523.779L508.44 496.202L617.176 558.993C617.244 559.027 617.312 559.027 617.379 559.061C617.616 559.179 617.852 559.247 618.106 559.315C618.342 559.382 618.579 559.45 618.815 559.467C618.9 559.467 618.968 559.517 619.052 559.517C619.221 559.517 619.373 559.45 619.525 559.416C619.779 559.382 620.015 559.348 620.252 559.264C620.488 559.179 620.691 559.061 620.911 558.943C621.113 558.825 621.299 558.706 621.485 558.554C621.688 558.385 621.84 558.182 621.992 557.963C622.094 557.844 622.212 557.76 622.296 557.608C622.33 557.54 622.33 557.456 622.364 557.388C622.482 557.169 622.533 556.915 622.6 556.679C622.668 556.425 622.736 556.189 622.753 555.935C622.753 555.851 622.803 555.8 622.803 555.715V364.096C622.803 364.012 622.769 363.944 622.753 363.877C622.736 363.708 622.719 363.556 622.685 363.387C622.651 363.218 622.6 363.049 622.55 362.88C622.499 362.728 622.432 362.576 622.364 362.424C622.33 362.356 622.33 362.271 622.296 362.204C622.246 362.119 622.178 362.052 622.111 361.967C622.043 361.866 621.975 361.781 621.891 361.68C621.84 361.613 621.789 361.528 621.722 361.46C621.705 361.444 621.688 361.427 621.671 361.393C621.452 361.173 621.198 360.987 620.944 360.835C620.928 360.818 620.927 360.818 620.911 360.801L620.877 360.785L454.959 264.992C454.875 264.941 454.773 264.924 454.689 264.874C454.588 264.823 454.486 264.789 454.368 264.738C453.946 264.586 453.506 264.485 453.084 264.485C452.644 264.485 452.205 264.586 451.8 264.738C451.698 264.772 451.596 264.823 451.495 264.857C451.106 265.043 450.752 265.262 450.448 265.566C450.431 265.583 450.414 265.6 450.397 265.634C450.194 265.854 449.991 266.09 449.839 266.361C449.805 266.428 449.805 266.513 449.772 266.58C449.653 266.8 449.603 267.053 449.535 267.29C449.468 267.543 449.4 267.78 449.383 268.017C449.383 268.101 449.333 268.169 449.333 268.236V393.802L401.563 421.379V179L670.607 334.323V644.986H670.624Z" fill="url(#paint4_linear_607_16)"/>
<path d="M338.738 585.472L285.359 616.294C285.342 616.31 285.325 616.31 285.308 616.327L230.036 648.247L230.002 648.264C229.985 648.264 229.985 648.281 229.968 648.298C229.613 648.517 229.292 648.805 229.022 649.126C228.937 649.21 228.87 649.311 228.802 649.396C228.752 649.48 228.667 649.548 228.616 649.633C228.532 649.768 228.532 649.92 228.464 650.072C228.363 650.308 228.262 650.545 228.211 650.815C228.16 651.052 228.16 651.288 228.16 651.525C228.16 651.762 228.16 651.998 228.211 652.235C228.262 652.488 228.363 652.725 228.464 652.978C228.532 653.13 228.532 653.282 228.616 653.418C228.65 653.485 228.718 653.519 228.769 653.587C228.904 653.789 229.089 653.958 229.258 654.144C229.444 654.33 229.613 654.499 229.833 654.651C229.901 654.702 229.934 654.752 230.002 654.803L395.953 750.613C396.021 750.646 396.088 750.646 396.173 750.68C396.325 750.748 396.477 750.815 396.629 750.866C396.798 750.917 396.967 750.967 397.136 751.001C397.305 751.035 397.457 751.052 397.626 751.069C397.711 751.069 397.761 751.12 397.846 751.12C397.93 751.12 397.981 751.086 398.066 751.069C398.235 751.052 398.387 751.035 398.556 751.001C398.725 750.967 398.894 750.917 399.063 750.866C399.215 750.815 399.367 750.748 399.519 750.68C399.586 750.646 399.671 750.646 399.738 750.613L565.69 654.803C565.757 654.769 565.791 654.702 565.859 654.651C566.079 654.516 566.247 654.33 566.433 654.144C566.619 653.958 566.788 653.789 566.923 653.587C566.974 653.519 567.042 653.485 567.076 653.418C567.16 653.282 567.16 653.13 567.227 652.978C567.329 652.742 567.43 652.505 567.481 652.235C567.532 651.998 567.532 651.762 567.532 651.525C567.532 651.288 567.532 651.052 567.481 650.815C567.43 650.562 567.329 650.325 567.227 650.072C567.16 649.92 567.16 649.768 567.076 649.633C567.025 649.548 566.957 649.48 566.89 649.396C566.822 649.295 566.755 649.21 566.67 649.109C566.4 648.771 566.079 648.483 565.724 648.281C565.707 648.264 565.707 648.264 565.69 648.247L565.656 648.23L510.367 616.31C510.35 616.294 510.333 616.294 510.316 616.277L456.92 585.455V530.285L666.873 651.491L397.829 806.814L128.802 651.491L338.755 530.285V585.472H338.738Z" fill="url(#paint5_linear_607_16)"/>
<mask id="path-7-inside-1_607_16" fill="white">
<path d="M420.58 743.795V497.005L634.301 373.619V552.159L586.531 524.582V462.889C586.531 462.804 586.498 462.737 586.481 462.669C586.464 462.416 586.396 462.179 586.328 461.926C586.261 461.672 586.21 461.436 586.092 461.216C586.058 461.148 586.058 461.064 586.024 460.996C585.872 460.726 585.669 460.489 585.467 460.27C585.45 460.253 585.433 460.236 585.416 460.202C585.112 459.898 584.74 459.678 584.368 459.492C584.267 459.442 584.166 459.408 584.064 459.374C583.642 459.222 583.22 459.121 582.78 459.121C582.341 459.121 581.918 459.222 581.496 459.374C581.378 459.408 581.276 459.458 581.175 459.509C581.09 459.56 580.989 459.577 580.904 459.627L470.293 523.484L470.259 523.5C470.242 523.517 470.242 523.517 470.225 523.534C469.955 523.686 469.718 523.872 469.499 524.092C469.482 524.109 469.465 524.126 469.448 524.159C469.38 524.227 469.346 524.312 469.279 524.379C469.194 524.464 469.127 524.565 469.059 524.65C469.009 524.734 468.924 524.802 468.873 524.886C468.839 524.954 468.839 525.038 468.806 525.106C468.738 525.258 468.671 525.393 468.62 525.562C468.569 525.731 468.518 525.9 468.485 526.069C468.451 526.238 468.434 526.39 468.417 526.559C468.417 526.643 468.366 526.711 468.366 526.779V654.525C468.366 654.609 468.4 654.677 468.417 654.744C468.434 654.998 468.502 655.234 468.569 655.471C468.637 655.724 468.687 655.961 468.806 656.181C468.839 656.248 468.839 656.333 468.873 656.4C468.958 656.535 469.093 656.62 469.178 656.755C469.33 656.958 469.481 657.161 469.684 657.33C469.87 657.482 470.073 657.617 470.276 657.735C470.479 657.853 470.681 657.972 470.918 658.039C471.171 658.124 471.425 658.158 471.678 658.191C471.831 658.208 471.966 658.276 472.135 658.276C472.219 658.276 472.27 658.242 472.354 658.225C472.608 658.208 472.844 658.141 473.081 658.073C473.334 658.005 473.571 657.938 473.808 657.82C473.875 657.786 473.943 657.786 474.01 657.752L527.441 626.914L575.21 654.491L420.58 743.795Z"/>
</mask>
<path d="M420.58 743.795H416.58V750.724L422.581 747.258L420.58 743.795ZM420.58 497.005L418.58 493.541L416.58 494.696V497.005H420.58ZM634.301 373.619H638.301V366.691L632.301 370.155L634.301 373.619ZM634.301 552.159L632.301 555.623L638.301 559.087V552.159H634.301ZM586.531 524.582H582.531V526.891L584.532 528.046L586.531 524.582ZM586.481 462.669L582.49 462.935L582.513 463.292L582.6 463.639L586.481 462.669ZM586.092 461.216L582.514 463.005L582.541 463.059L582.57 463.112L586.092 461.216ZM586.024 460.996L589.602 459.207L589.559 459.12L589.511 459.035L586.024 460.996ZM585.467 460.27L588.406 457.556L588.352 457.498L588.295 457.441L585.467 460.27ZM585.416 460.202L588.994 458.413L588.703 457.833L588.244 457.374L585.416 460.202ZM584.368 459.492L582.58 463.07L584.368 459.492ZM584.064 459.374L582.71 463.138L582.754 463.154L582.8 463.169L584.064 459.374ZM581.496 459.374L582.595 463.22L582.724 463.183L582.851 463.138L581.496 459.374ZM581.175 459.509L579.386 455.931L579.248 456L579.117 456.079L581.175 459.509ZM580.904 459.627L582.904 463.092L582.933 463.075L582.962 463.057L580.904 459.627ZM470.293 523.484L472.077 527.063L472.187 527.009L472.293 526.948L470.293 523.484ZM470.259 523.5L468.474 519.921L467.891 520.211L467.43 520.672L470.259 523.5ZM470.225 523.534L472.186 527.021L472.665 526.751L473.053 526.363L470.225 523.534ZM469.499 524.092L472.327 526.92L469.499 524.092ZM469.448 524.159L472.276 526.988L472.735 526.529L473.026 525.948L469.448 524.159ZM469.279 524.379L472.107 527.208L469.279 524.379ZM469.059 524.65L465.936 522.151L465.768 522.361L465.629 522.592L469.059 524.65ZM468.873 524.886L465.443 522.828L465.364 522.96L465.295 523.097L468.873 524.886ZM468.806 525.106L465.228 523.317L465.187 523.398L465.15 523.481L468.806 525.106ZM468.417 526.559L464.437 526.161L464.417 526.359V526.559H468.417ZM468.417 654.744L472.408 654.478L472.384 654.121L472.297 653.774L468.417 654.744ZM468.569 655.471L472.434 654.44L472.425 654.406L472.415 654.372L468.569 655.471ZM468.806 656.181L472.383 654.392L472.356 654.337L472.327 654.284L468.806 656.181ZM468.873 656.4L465.295 658.189L465.38 658.359L465.481 658.52L468.873 656.4ZM469.178 656.755L465.786 658.875L465.876 659.019L465.978 659.155L469.178 656.755ZM469.684 657.33L467.123 660.402L467.137 660.414L467.151 660.425L469.684 657.33ZM470.918 658.039L472.183 654.245L472.1 654.217L472.017 654.193L470.918 658.039ZM471.678 658.191L471.15 662.156L471.193 662.162L471.237 662.167L471.678 658.191ZM472.354 658.225L472.088 654.234L471.827 654.251L471.57 654.303L472.354 658.225ZM473.081 658.073L472.05 654.208L472.016 654.217L471.982 654.227L473.081 658.073ZM473.808 657.82L475.596 661.397L473.808 657.82ZM474.01 657.752L475.799 661.33L475.906 661.276L476.01 661.216L474.01 657.752ZM527.441 626.914L529.44 623.45L527.441 622.295L525.441 623.449L527.441 626.914ZM575.21 654.491L577.211 657.955L583.209 654.49L577.21 651.027L575.21 654.491ZM424.58 743.795V497.005H416.58V743.795H424.58ZM422.58 500.469L636.301 377.083L632.301 370.155L418.58 493.541L422.58 500.469ZM630.301 373.619V552.159H638.301V373.619H630.301ZM636.301 548.695L588.531 521.118L584.532 528.046L632.301 555.623L636.301 548.695ZM590.531 524.582V462.889H582.531V524.582H590.531ZM590.531 462.889C590.531 462.305 590.412 461.854 590.35 461.643C590.325 461.558 590.292 461.46 590.302 461.489C590.302 461.491 590.31 461.514 590.319 461.546C590.329 461.579 590.345 461.632 590.361 461.699L582.6 463.639C582.639 463.796 582.68 463.922 582.69 463.951C582.71 464.015 582.69 463.951 582.675 463.902C582.634 463.763 582.531 463.388 582.531 462.889H590.531ZM590.472 462.403C590.423 461.675 590.226 461.016 590.193 460.895L582.464 462.956C582.468 462.975 582.473 462.992 582.478 463.008C582.482 463.025 582.486 463.039 582.49 463.054C582.497 463.082 582.503 463.104 582.508 463.123C582.513 463.141 582.516 463.154 582.518 463.163C582.52 463.171 582.521 463.174 582.521 463.173C582.52 463.171 582.515 463.147 582.509 463.107C582.502 463.066 582.494 463.008 582.49 462.935L590.472 462.403ZM590.193 460.895C590.176 460.828 590.179 460.838 590.148 460.722C590.128 460.644 590.097 460.528 590.057 460.397C589.977 460.134 589.844 459.747 589.614 459.319L582.57 463.112C582.458 462.905 582.41 462.745 582.401 462.719C582.398 462.707 582.399 462.711 582.411 462.755C582.417 462.778 582.422 462.799 582.432 462.836C582.44 462.868 582.451 462.911 582.464 462.956L590.193 460.895ZM589.67 459.427C589.807 459.702 589.881 459.935 589.918 460.062C589.937 460.129 589.949 460.181 589.956 460.208C589.962 460.232 589.966 460.251 589.963 460.237C589.962 460.232 589.953 460.194 589.943 460.151C589.932 460.105 589.914 460.034 589.89 459.949C589.843 459.785 589.757 459.516 589.602 459.207L582.447 462.785C582.309 462.51 582.235 462.277 582.199 462.15C582.18 462.083 582.167 462.031 582.161 462.004C582.155 461.98 582.151 461.961 582.154 461.975C582.155 461.98 582.163 462.018 582.174 462.061C582.185 462.107 582.202 462.178 582.226 462.263C582.273 462.427 582.36 462.696 582.514 463.005L589.67 459.427ZM589.511 459.035C589.12 458.34 588.651 457.822 588.406 457.556L582.527 462.983C582.562 463.02 582.585 463.046 582.602 463.065C582.61 463.075 582.616 463.082 582.62 463.086C582.624 463.091 582.626 463.093 582.625 463.093C582.625 463.093 582.616 463.081 582.601 463.06C582.586 463.038 582.564 463.003 582.538 462.957L589.511 459.035ZM588.295 457.441C588.274 457.42 588.415 457.557 588.563 457.742C588.731 457.95 588.875 458.176 588.994 458.413L581.838 461.991C582.151 462.616 582.542 463.001 582.638 463.098L588.295 457.441ZM588.244 457.374C587.489 456.618 586.668 456.17 586.157 455.915L582.58 463.07C582.63 463.095 582.665 463.114 582.691 463.128C582.716 463.142 582.726 463.149 582.726 463.149C582.726 463.149 582.712 463.14 582.688 463.121C582.664 463.102 582.629 463.072 582.588 463.03L588.244 457.374ZM586.157 455.915C585.764 455.718 585.399 455.603 585.329 455.579L582.8 463.169C582.827 463.178 582.835 463.181 582.84 463.182C582.842 463.183 582.831 463.179 582.811 463.172C582.771 463.157 582.687 463.124 582.58 463.07L586.157 455.915ZM585.419 455.61C584.741 455.366 583.84 455.121 582.78 455.121V463.121C582.69 463.121 582.631 463.11 582.614 463.107C582.602 463.104 582.629 463.109 582.71 463.138L585.419 455.61ZM582.78 455.121C581.721 455.121 580.819 455.366 580.141 455.61L582.851 463.138C582.932 463.109 582.959 463.104 582.946 463.107C582.93 463.11 582.871 463.121 582.78 463.121V455.121ZM580.397 455.528C579.871 455.678 579.455 455.897 579.386 455.931L582.963 463.087C583.025 463.056 582.99 463.075 582.938 463.098C582.873 463.126 582.753 463.175 582.595 463.22L580.397 455.528ZM579.117 456.079C579.31 455.963 579.473 455.89 579.563 455.853C579.609 455.833 579.645 455.82 579.662 455.813C579.676 455.808 579.687 455.804 579.671 455.81C579.663 455.812 579.63 455.825 579.592 455.839C579.552 455.854 579.494 455.877 579.425 455.905C579.289 455.962 579.082 456.056 578.846 456.198L582.962 463.057C582.769 463.174 582.606 463.246 582.516 463.284C582.47 463.303 582.434 463.317 582.417 463.323C582.403 463.329 582.392 463.333 582.408 463.327C582.416 463.324 582.449 463.312 582.487 463.298C582.527 463.283 582.585 463.26 582.654 463.231C582.79 463.174 582.997 463.081 583.233 462.939L579.117 456.079ZM578.905 456.163L468.293 520.019L472.293 526.948L582.904 463.092L578.905 456.163ZM468.508 519.904L468.474 519.921L472.043 527.08L472.077 527.063L468.508 519.904ZM467.43 520.672C467.429 520.674 467.421 520.682 467.42 520.682C467.379 520.724 467.455 520.648 467.414 520.689C467.392 520.711 467.423 520.68 467.397 520.706L473.053 526.363C473.055 526.361 473.063 526.353 473.064 526.353C473.105 526.311 473.029 526.387 473.07 526.346C473.092 526.324 473.061 526.355 473.087 526.329L467.43 520.672ZM468.264 520.048C467.637 520.401 467.114 520.82 466.67 521.263L472.327 526.92C472.328 526.92 472.314 526.933 472.287 526.954C472.26 526.975 472.225 526.999 472.186 527.021L468.264 520.048ZM466.67 521.263C466.573 521.36 466.183 521.745 465.87 522.371L473.026 525.948C472.907 526.185 472.763 526.411 472.595 526.62C472.447 526.805 472.306 526.942 472.327 526.92L466.67 521.263ZM466.619 521.331C466.427 521.524 466.285 521.701 466.193 521.826C466.146 521.888 466.109 521.941 466.084 521.977C466.061 522.011 466.041 522.042 466.037 522.048C466.028 522.061 466.036 522.049 466.046 522.034C466.058 522.017 466.082 521.982 466.114 521.939C466.18 521.851 466.291 521.71 466.45 521.551L472.107 527.208C472.3 527.015 472.441 526.837 472.534 526.713C472.58 526.651 472.617 526.598 472.642 526.561C472.665 526.527 472.686 526.497 472.69 526.491C472.699 526.478 472.691 526.489 472.68 526.504C472.668 526.522 472.645 526.556 472.612 526.6C472.547 526.687 472.435 526.829 472.276 526.988L466.619 521.331ZM466.45 521.551C466.229 521.772 466.069 521.976 465.996 522.071C465.961 522.116 465.923 522.167 465.918 522.173C465.903 522.192 465.915 522.176 465.936 522.151L472.183 527.148C472.211 527.112 472.236 527.081 472.256 527.055C472.275 527.031 472.291 527.008 472.303 526.994C472.308 526.986 472.314 526.979 472.317 526.974C472.322 526.968 472.324 526.965 472.327 526.962C472.332 526.955 472.332 526.955 472.329 526.958C472.326 526.963 472.303 526.992 472.269 527.032C472.234 527.073 472.18 527.135 472.107 527.208L466.45 521.551ZM465.629 522.592C465.745 522.398 465.853 522.26 465.91 522.189C465.94 522.152 465.963 522.125 465.974 522.113C465.983 522.103 465.99 522.096 465.979 522.108C465.973 522.115 465.949 522.141 465.924 522.171C465.896 522.202 465.857 522.248 465.811 522.304C465.722 522.414 465.584 522.593 465.443 522.828L472.303 526.944C472.187 527.137 472.079 527.276 472.022 527.346C471.992 527.383 471.969 527.41 471.958 527.422C471.949 527.432 471.943 527.44 471.954 527.427C471.96 527.421 471.983 527.394 472.009 527.365C472.036 527.334 472.076 527.288 472.121 527.231C472.21 527.122 472.348 526.943 472.489 526.707L465.629 522.592ZM465.295 523.097C465.141 523.406 465.054 523.674 465.007 523.839C464.983 523.924 464.966 523.995 464.955 524.041C464.944 524.084 464.936 524.122 464.935 524.127C464.932 524.141 464.936 524.122 464.942 524.098C464.948 524.071 464.961 524.019 464.98 523.952C465.016 523.824 465.09 523.592 465.228 523.317L472.383 526.895C472.538 526.586 472.624 526.317 472.671 526.152C472.696 526.068 472.713 525.997 472.724 525.951C472.734 525.908 472.743 525.87 472.744 525.865C472.747 525.851 472.743 525.87 472.737 525.894C472.731 525.921 472.718 525.973 472.699 526.039C472.662 526.167 472.588 526.4 472.451 526.675L465.295 523.097ZM465.15 523.481C465.141 523.503 465.135 523.515 465.111 523.568C465.092 523.61 465.062 523.678 465.029 523.754C464.96 523.915 464.871 524.139 464.789 524.413L472.451 526.711C472.436 526.763 472.421 526.807 472.408 526.841C472.395 526.874 472.386 526.896 472.384 526.901C472.383 526.903 472.383 526.902 472.386 526.897C472.389 526.89 472.392 526.882 472.399 526.867C472.402 526.86 472.406 526.852 472.41 526.842C472.414 526.833 472.419 526.823 472.424 526.811C472.434 526.789 472.447 526.761 472.461 526.73L465.15 523.481ZM464.789 524.413C464.749 524.546 464.639 524.898 464.562 525.284L472.407 526.853C472.399 526.892 472.395 526.905 472.402 526.877C472.406 526.864 472.411 526.845 472.42 526.817C472.428 526.787 472.438 526.756 472.451 526.711L464.789 524.413ZM464.562 525.284C464.488 525.656 464.456 525.972 464.437 526.161L472.397 526.957C472.412 526.808 472.414 526.819 472.407 526.853L464.562 525.284ZM464.417 526.559C464.417 526.177 464.475 525.866 464.526 525.661C464.551 525.559 464.575 525.478 464.592 525.427C464.6 525.4 464.607 525.379 464.612 525.366C464.616 525.353 464.62 525.343 464.62 525.343C464.62 525.343 464.62 525.342 464.619 525.346C464.618 525.348 464.616 525.353 464.614 525.358C464.611 525.369 464.603 525.389 464.595 525.414C464.579 525.462 464.55 525.549 464.519 525.659C464.489 525.77 464.451 525.923 464.421 526.107C464.39 526.293 464.366 526.52 464.366 526.779H472.366C472.366 527.02 472.343 527.23 472.316 527.399C472.289 527.566 472.255 527.702 472.229 527.796C472.203 527.889 472.18 527.959 472.169 527.989C472.164 528.005 472.16 528.017 472.159 528.019C472.159 528.02 472.159 528.02 472.159 528.018C472.16 528.017 472.161 528.012 472.163 528.007C472.169 527.991 472.188 527.936 472.21 527.869C472.232 527.799 472.263 527.699 472.292 527.578C472.353 527.334 472.417 526.983 472.417 526.559H464.417ZM464.366 526.779V654.525H472.366V526.779H464.366ZM464.366 654.525C464.366 655.108 464.486 655.56 464.548 655.771C464.573 655.855 464.605 655.954 464.596 655.924C464.595 655.923 464.588 655.9 464.578 655.867C464.568 655.834 464.553 655.781 464.536 655.714L472.297 653.774C472.258 653.617 472.217 653.491 472.208 653.463C472.187 653.399 472.208 653.462 472.222 653.511C472.263 653.65 472.366 654.026 472.366 654.525H464.366ZM464.426 655.01C464.475 655.756 464.673 656.396 464.723 656.57L472.415 654.372C472.406 654.341 472.4 654.318 472.394 654.296C472.387 654.274 472.383 654.258 472.38 654.246C472.373 654.219 472.372 654.215 472.374 654.223C472.377 654.24 472.398 654.335 472.408 654.478L464.426 655.01ZM464.704 656.501C464.722 656.568 464.719 656.558 464.749 656.674C464.77 656.752 464.801 656.868 464.84 656.999C464.92 657.262 465.053 657.649 465.284 658.077L472.327 654.284C472.439 654.492 472.488 654.651 472.496 654.678C472.5 654.69 472.498 654.686 472.487 654.642C472.481 654.619 472.475 654.597 472.466 654.561C472.457 654.528 472.446 654.486 472.434 654.44L464.704 656.501ZM465.228 657.969C465.09 657.694 465.016 657.462 464.98 657.334C464.961 657.268 464.948 657.216 464.942 657.189C464.936 657.165 464.932 657.145 464.935 657.16C464.936 657.164 464.944 657.203 464.955 657.246C464.966 657.291 464.983 657.362 465.007 657.447C465.054 657.612 465.141 657.88 465.295 658.189L472.451 654.611C472.588 654.886 472.662 655.119 472.699 655.247C472.718 655.313 472.731 655.365 472.737 655.392C472.743 655.416 472.747 655.435 472.744 655.421C472.743 655.416 472.734 655.378 472.724 655.335C472.713 655.289 472.696 655.218 472.671 655.134C472.624 654.969 472.538 654.7 472.383 654.392L465.228 657.969ZM465.481 658.52C465.657 658.801 465.833 659.015 465.959 659.156C466.022 659.227 466.078 659.285 466.117 659.326C466.154 659.364 466.189 659.398 466.199 659.408C466.216 659.425 466.209 659.419 466.199 659.408C466.187 659.396 466.158 659.366 466.121 659.324C466.047 659.241 465.919 659.088 465.786 658.875L472.57 654.635C472.394 654.354 472.217 654.14 472.091 653.999C472.028 653.928 471.973 653.87 471.933 653.83C471.896 653.792 471.862 653.758 471.852 653.747C471.835 653.73 471.841 653.737 471.851 653.747C471.864 653.76 471.892 653.789 471.93 653.831C472.004 653.914 472.132 654.067 472.265 654.28L465.481 658.52ZM465.978 659.155C466.087 659.301 466.505 659.887 467.123 660.402L472.245 654.257C472.371 654.362 472.446 654.448 472.464 654.47C472.473 654.48 472.473 654.48 472.457 654.46C472.439 654.437 472.419 654.41 472.378 654.355L465.978 659.155ZM467.151 660.425C467.536 660.74 467.922 660.993 468.26 661.19L472.291 654.28C472.26 654.262 472.238 654.248 472.224 654.238C472.21 654.228 472.208 654.226 472.217 654.234L467.151 660.425ZM468.26 661.19C468.401 661.272 469.024 661.658 469.819 661.885L472.017 654.193C472.202 654.246 472.328 654.306 472.374 654.329C472.396 654.34 472.404 654.345 472.388 654.336C472.37 654.326 472.347 654.312 472.291 654.28L468.26 661.19ZM469.653 661.834C470.323 662.057 470.949 662.129 471.15 662.156L472.207 654.226C472.174 654.222 472.149 654.219 472.124 654.215C472.1 654.212 472.081 654.209 472.065 654.207C472.049 654.205 472.038 654.203 472.03 654.202C472.023 654.2 472.019 654.2 472.019 654.2C472.018 654.2 472.034 654.203 472.062 654.209C472.091 654.216 472.132 654.228 472.183 654.245L469.653 661.834ZM471.237 662.167C471.053 662.146 470.917 662.116 470.866 662.104C470.841 662.098 470.825 662.093 470.834 662.096C470.84 662.097 470.842 662.098 470.857 662.102C470.868 662.104 470.885 662.109 470.904 662.114C471.045 662.15 471.524 662.276 472.135 662.276V654.276C472.362 654.276 472.55 654.299 472.684 654.322C472.75 654.333 472.802 654.344 472.837 654.352C472.871 654.359 472.894 654.365 472.896 654.366C472.897 654.366 472.896 654.366 472.889 654.364C472.884 654.363 472.882 654.362 472.875 654.36C472.87 654.359 472.863 654.357 472.856 654.355C472.841 654.351 472.821 654.346 472.798 654.34C472.774 654.334 472.746 654.327 472.714 654.32C472.65 654.305 472.566 654.286 472.468 654.268C472.369 654.249 472.252 654.23 472.12 654.216L471.237 662.167ZM472.135 662.276C472.432 662.276 472.703 662.245 472.945 662.199C473.175 662.155 473.354 662.101 473.439 662.074C473.461 662.067 473.479 662.061 473.491 662.058C473.502 662.054 473.513 662.05 473.514 662.05C473.523 662.047 473.504 662.054 473.477 662.062C473.417 662.08 473.296 662.116 473.139 662.147L471.57 654.303C471.37 654.343 471.211 654.389 471.115 654.419C471.071 654.432 471.033 654.444 471.025 654.447C471.008 654.453 471.028 654.446 471.05 654.439C471.101 654.423 471.247 654.379 471.441 654.342C471.647 654.302 471.88 654.276 472.135 654.276V662.276ZM472.62 662.216C473.365 662.167 474.004 661.969 474.18 661.919L471.982 654.227C471.951 654.236 471.928 654.242 471.906 654.249C471.885 654.255 471.869 654.259 471.856 654.262C471.83 654.269 471.826 654.27 471.834 654.268C471.851 654.264 471.945 654.243 472.088 654.234L472.62 662.216ZM474.111 661.938C474.375 661.868 474.962 661.715 475.596 661.397L472.019 654.242C472.063 654.22 472.101 654.203 472.131 654.191C472.16 654.179 472.18 654.172 472.186 654.17C472.192 654.168 472.186 654.171 472.163 654.177C472.152 654.18 472.137 654.185 472.118 654.19C472.099 654.195 472.077 654.201 472.05 654.208L474.111 661.938ZM475.596 661.397C475.374 661.509 475.181 661.577 475.053 661.617C474.99 661.637 474.94 661.65 474.912 661.658C474.888 661.664 474.868 661.669 474.881 661.666C474.885 661.665 474.921 661.656 474.963 661.645C475.008 661.633 475.074 661.614 475.154 661.589C475.316 661.539 475.543 661.458 475.799 661.33L472.221 654.174C472.444 654.063 472.636 653.995 472.765 653.955C472.828 653.935 472.878 653.921 472.905 653.914C472.93 653.907 472.95 653.902 472.937 653.906C472.933 653.907 472.896 653.916 472.855 653.927C472.81 653.939 472.743 653.957 472.664 653.982C472.501 654.033 472.275 654.114 472.019 654.242L475.596 661.397ZM476.01 661.216L529.44 630.378L525.441 623.449L472.011 654.288L476.01 661.216ZM525.441 630.378L573.21 657.955L577.21 651.027L529.44 623.45L525.441 630.378ZM573.21 651.027L418.58 740.331L422.581 747.258L577.211 657.955L573.21 651.027Z" fill="black" mask="url(#path-7-inside-1_607_16)"/>
<path d="M360.105 660.039C360.275 660.086 360.58 660.169 360.919 660.214C360.925 660.216 360.93 660.217 360.935 660.219C361.084 660.258 361.277 660.293 361.506 660.293C361.854 660.293 362.131 660.222 362.238 660.194L362.272 660.186C362.547 660.151 362.93 660.096 363.355 659.954L363.375 659.947L363.395 659.94C363.772 659.806 364.073 659.643 364.273 659.535L364.313 659.514L364.343 659.497L364.372 659.48L364.404 659.462C364.589 659.355 364.935 659.153 365.27 658.855C365.593 658.579 365.835 658.275 365.981 658.081C365.998 658.065 366.019 658.045 366.041 658.023C366.158 657.906 366.399 657.653 366.579 657.265C366.646 657.122 366.687 656.997 366.71 656.915C366.712 656.909 366.713 656.903 366.715 656.897C366.894 656.481 366.991 656.05 366.994 656.038L366.999 656.021L367.004 656.004C367.008 655.986 367.014 655.966 367.02 655.943C367.067 655.771 367.153 655.458 367.197 655.112C367.229 654.997 367.274 654.795 367.274 654.542V526.796C367.274 526.534 367.229 526.319 367.193 526.185C367.176 526.042 367.153 525.876 367.117 525.694C367.061 525.417 366.981 525.156 366.936 525.005L366.927 524.976L366.918 524.947C366.854 524.756 366.779 524.576 366.719 524.439C366.716 524.429 366.713 524.418 366.71 524.407C366.684 524.315 366.637 524.172 366.556 524.009L366.522 523.94L366.482 523.875C366.378 523.701 366.272 523.57 366.216 523.504C366.202 523.488 366.187 523.469 366.174 523.455C366.093 523.34 366.016 523.243 365.948 523.159C365.936 523.143 365.92 523.12 365.904 523.098C365.887 523.074 365.863 523.042 365.834 523.004L365.786 522.908L365.556 522.678C365.27 522.393 364.965 522.156 364.671 521.963L364.565 521.857L364.295 521.722L253.744 457.901C253.624 457.831 253.518 457.782 253.443 457.751C253.401 457.733 253.36 457.718 253.331 457.706C253.215 457.65 253.113 457.609 253.053 457.585C253.02 457.572 252.998 457.563 252.983 457.557C252.959 457.548 252.949 457.544 252.932 457.536L252.878 457.513L252.822 457.493C252.272 457.295 251.61 457.121 250.86 457.121C250.134 457.121 249.463 457.284 248.903 457.491C248.848 457.51 248.801 457.528 248.763 457.543C248.719 457.561 248.677 457.579 248.654 457.588C248.636 457.595 248.626 457.6 248.62 457.602L248.521 457.635L248.409 457.689C247.897 457.934 247.328 458.271 246.81 458.788L246.81 458.789L246.807 458.791C246.773 458.825 246.696 458.903 246.605 459.022C246.388 459.263 246.107 459.6 245.873 460.016L245.849 460.059L245.827 460.102C245.746 460.265 245.699 460.409 245.673 460.5C245.672 460.503 245.671 460.507 245.67 460.51C245.515 460.865 245.429 461.211 245.393 461.358C245.387 461.38 245.383 461.398 245.379 461.411L247.312 461.926L245.379 461.411C245.375 461.428 245.369 461.449 245.363 461.471C245.316 461.643 245.231 461.955 245.186 462.3C245.154 462.416 245.109 462.619 245.109 462.873V523.411L201.339 548.679V377.1L411.06 498.177V740.348L262.431 654.542L306.2 629.275L358.631 659.536L358.806 659.637L358.998 659.701C359.07 659.725 359.134 659.742 359.182 659.753C359.515 659.89 359.83 659.969 359.982 660.007C360.008 660.014 360.029 660.019 360.044 660.023C360.062 660.028 360.082 660.033 360.105 660.039ZM367.143 526.016C367.142 526.013 367.142 526.013 367.143 526.017L367.143 526.016ZM365.607 522.747C365.602 522.741 365.607 522.746 365.618 522.757C365.614 522.754 365.611 522.75 365.607 522.747ZM367.141 655.292L367.145 655.279C367.139 655.299 367.134 655.312 367.136 655.307L367.138 655.302L367.141 655.292ZM245.628 460.679C245.628 460.679 245.629 460.676 245.63 460.672L245.63 460.672L245.628 460.679ZM245.249 462.103L245.248 462.103C245.249 462.101 245.249 462.101 245.249 462.103Z" stroke="black" stroke-width="4"/>
<path d="M355.72 331.826L303.36 362.056L303.089 362.191L302.971 362.309C302.528 362.613 302.138 362.973 301.808 363.356C301.712 363.46 301.638 363.553 301.594 363.61C301.572 363.638 301.549 363.669 301.536 363.686L301.529 363.696C301.521 363.707 301.516 363.713 301.514 363.716C301.512 363.718 301.512 363.719 301.512 363.719L301.428 363.823L301.428 363.823C301.413 363.841 301.395 363.862 301.378 363.883C301.328 363.945 301.256 364.038 301.183 364.158C300.977 364.492 300.897 364.808 300.87 364.913L300.868 364.921L300.866 364.929C300.77 365.153 300.61 365.539 300.521 365.993C300.43 366.434 300.431 366.845 300.431 367.059C300.431 367.072 300.431 367.085 300.431 367.097C300.431 367.108 300.431 367.121 300.431 367.134C300.431 367.35 300.43 367.767 300.524 368.211C300.601 368.592 300.721 368.942 300.872 369.271C300.899 369.378 300.975 369.664 301.156 369.973C301.279 370.188 301.419 370.347 301.51 370.44C301.738 370.74 301.985 370.98 302.164 371.144C302.301 371.282 302.524 371.506 302.807 371.72C302.902 371.813 303.068 371.958 303.293 372.084L413.902 435.946L413.954 435.976L414.008 436.003C414.145 436.071 414.267 436.115 414.357 436.143C414.371 436.147 414.384 436.151 414.396 436.155C414.534 436.216 414.726 436.297 414.928 436.365L414.957 436.374L414.986 436.383C415.138 436.429 415.398 436.508 415.676 436.564C415.87 436.603 416.046 436.626 416.196 436.643C416.2 436.644 416.204 436.645 416.209 436.646C416.356 436.686 416.55 436.721 416.778 436.721C417.041 436.721 417.256 436.676 417.391 436.639C417.533 436.623 417.698 436.6 417.88 436.564C418.143 436.511 418.39 436.437 418.545 436.39L418.569 436.383L418.598 436.374L418.627 436.365C418.83 436.297 419.021 436.216 419.16 436.155C419.173 436.151 419.186 436.147 419.2 436.143C419.29 436.115 419.411 436.071 419.548 436.003L419.601 435.976L419.653 435.946L530.258 372.086C530.415 372 530.535 371.908 530.618 371.838C530.629 371.829 530.638 371.821 530.648 371.813C531.017 371.56 531.296 371.272 531.479 371.074C531.483 371.07 531.487 371.066 531.492 371.062C531.591 370.966 531.835 370.731 532.055 370.446C532.146 370.355 532.289 370.194 532.416 369.974C532.515 369.804 532.58 369.647 532.622 369.527C532.662 369.413 532.688 369.312 532.702 369.257C532.797 369.037 532.959 368.652 533.048 368.212C533.142 367.767 533.141 367.35 533.141 367.134L533.141 367.097L533.141 367.059C533.141 366.843 533.142 366.423 533.048 365.977C532.961 365.557 532.803 365.169 532.72 364.966C532.716 364.956 532.712 364.946 532.709 364.937L532.704 364.918L532.702 364.91C532.675 364.807 532.595 364.494 532.392 364.162C532.29 363.995 532.187 363.869 532.133 363.804C532.12 363.788 532.104 363.769 532.092 363.755C531.996 363.62 531.905 363.508 531.827 363.414C531.485 362.99 531.07 362.594 530.583 362.274L530.484 362.175L530.213 362.039L477.852 331.809V281.274L626.482 367.08L416.811 488.173L207.09 367.097L355.72 281.29V331.826ZM417.562 436.588C417.565 436.587 417.564 436.587 417.56 436.589L417.562 436.588ZM530.78 371.688L530.779 371.689C530.785 371.684 530.784 371.684 530.78 371.688Z" stroke="black" stroke-width="4"/>
<mask id="path-11-inside-2_607_16" fill="white">
<path d="M413.044 424.43L365.274 396.853V271.287C365.274 271.202 365.241 271.135 365.224 271.067C365.207 270.814 365.139 270.577 365.071 270.324C365.004 270.07 364.953 269.834 364.835 269.614C364.801 269.547 364.801 269.462 364.767 269.394C364.615 269.124 364.412 268.888 364.21 268.668C364.193 268.651 364.176 268.634 364.159 268.6C363.855 268.296 363.483 268.076 363.111 267.891C363.01 267.84 362.908 267.806 362.807 267.772C362.385 267.62 361.962 267.519 361.523 267.519C361.083 267.519 360.661 267.62 360.238 267.772C360.12 267.806 360.019 267.857 359.918 267.907C359.833 267.958 359.732 267.975 359.647 268.026L193.73 363.818L193.696 363.835C193.679 363.852 193.679 363.852 193.662 363.869C193.392 364.021 193.155 364.207 192.935 364.427C192.919 364.444 192.902 364.46 192.885 364.494C192.817 364.562 192.783 364.646 192.716 364.714C192.631 364.798 192.564 364.9 192.496 364.984C192.445 365.069 192.361 365.136 192.31 365.221C192.276 365.288 192.276 365.373 192.243 365.44C192.175 365.593 192.107 365.728 192.057 365.897C192.006 366.066 191.955 366.235 191.922 366.404C191.888 366.573 191.871 366.725 191.854 366.894C191.854 366.978 191.803 367.046 191.803 367.113V558.732C191.803 558.817 191.837 558.884 191.854 558.952C191.871 559.205 191.938 559.442 192.006 559.679C192.074 559.932 192.141 560.169 192.243 560.388C192.276 560.456 192.276 560.54 192.31 560.608C192.395 560.743 192.53 560.828 192.614 560.963C192.766 561.182 192.935 561.368 193.138 561.554C193.324 561.706 193.51 561.825 193.713 561.943C193.933 562.061 194.135 562.179 194.372 562.264C194.608 562.348 194.845 562.382 195.098 562.416C195.267 562.433 195.402 562.517 195.571 562.517C195.656 562.517 195.724 562.484 195.808 562.467C196.045 562.45 196.281 562.382 196.518 562.315C196.771 562.247 197.025 562.179 197.244 562.061C197.312 562.027 197.38 562.027 197.447 561.993L306.183 499.202L353.953 526.779L144 647.986V337.323L413.027 182V424.43H413.044Z"/>
</mask>
<path d="M413.044 424.43V428.43H427.973L415.043 420.966L413.044 424.43ZM365.274 396.853H361.274V399.163L363.274 400.317L365.274 396.853ZM365.224 271.067L361.232 271.333L361.256 271.69L361.343 272.037L365.224 271.067ZM364.835 269.614L361.257 271.403L361.284 271.457L361.313 271.511L364.835 269.614ZM364.767 269.394L368.345 267.606L368.301 267.518L368.254 267.433L364.767 269.394ZM364.21 268.668L367.149 265.955L367.095 265.896L367.038 265.839L364.21 268.668ZM364.159 268.6L367.737 266.811L367.446 266.231L366.987 265.772L364.159 268.6ZM363.111 267.891L364.9 264.313L363.111 267.891ZM362.807 267.772L361.452 271.536L361.497 271.552L361.542 271.567L362.807 267.772ZM360.238 267.772L361.337 271.618L361.467 271.581L361.593 271.536L360.238 267.772ZM359.918 267.907L358.129 264.33L357.991 264.398L357.86 264.477L359.918 267.907ZM359.647 268.026L361.647 271.49L361.676 271.473L361.705 271.456L359.647 268.026ZM193.73 363.818L195.516 367.397L195.625 367.343L195.73 367.282L193.73 363.818ZM193.696 363.835L191.909 360.256L191.327 360.547L190.868 361.007L193.696 363.835ZM193.662 363.869L195.623 367.355L196.102 367.086L196.491 366.697L193.662 363.869ZM192.935 364.427L195.764 367.255L192.935 364.427ZM192.885 364.494L195.713 367.323L196.172 366.864L196.462 366.283L192.885 364.494ZM192.716 364.714L195.544 367.542L192.716 364.714ZM192.496 364.984L189.373 362.485L189.205 362.696L189.066 362.926L192.496 364.984ZM192.31 365.221L188.88 363.163L188.801 363.295L188.733 363.432L192.31 365.221ZM192.243 365.44L188.665 363.652L188.624 363.733L188.587 363.816L192.243 365.44ZM191.854 366.894L187.874 366.496L187.854 366.694V366.894H191.854ZM191.854 558.952L195.845 558.686L195.821 558.329L195.735 557.982L191.854 558.952ZM192.006 559.679L195.871 558.648L195.862 558.614L195.852 558.58L192.006 559.679ZM192.243 560.388L188.611 562.064L188.637 562.121L188.665 562.177L192.243 560.388ZM192.31 560.608L188.733 562.397L188.817 562.567L188.918 562.728L192.31 560.608ZM192.614 560.963L189.222 563.083L189.272 563.162L189.325 563.24L192.614 560.963ZM193.138 561.554L190.435 564.503L190.518 564.579L190.605 564.65L193.138 561.554ZM193.713 561.943L191.697 565.398L191.756 565.432L191.816 565.465L193.713 561.943ZM195.098 562.416L194.569 566.381L194.635 566.39L194.7 566.396L195.098 562.416ZM195.808 562.467L195.523 558.477L195.271 558.495L195.024 558.544L195.808 562.467ZM196.518 562.315L195.487 558.45L195.453 558.459L195.419 558.468L196.518 562.315ZM197.244 562.061L195.455 558.483L195.401 558.51L195.348 558.539L197.244 562.061ZM197.447 561.993L199.236 565.571L199.343 565.517L199.447 565.457L197.447 561.993ZM306.183 499.202L308.183 495.738L306.183 494.583L304.183 495.738L306.183 499.202ZM353.953 526.779L355.952 530.243L361.953 526.779L355.952 523.315L353.953 526.779ZM144 647.986H140V654.913L146 651.45L144 647.986ZM144 337.323L142 333.859L140 335.013V337.323H144ZM413.027 182H417.027V175.072L411.027 178.536L413.027 182ZM413.027 424.43H409.027V428.43H413.027V424.43ZM415.043 420.966L367.274 393.389L363.274 400.317L411.044 427.894L415.043 420.966ZM369.274 396.853V271.287H361.274V396.853H369.274ZM369.274 271.287C369.274 270.71 369.157 270.262 369.095 270.051C369.07 269.965 369.038 269.868 369.047 269.895C369.047 269.896 369.054 269.918 369.064 269.949C369.073 269.981 369.088 270.032 369.104 270.097L361.343 272.037C361.381 272.191 361.421 272.314 361.43 272.341C361.45 272.403 361.43 272.341 361.415 272.291C361.374 272.151 361.274 271.78 361.274 271.287H369.274ZM369.215 270.801C369.166 270.074 368.968 269.414 368.936 269.293L361.206 271.354C361.211 271.373 361.216 271.391 361.22 271.407C361.225 271.424 361.229 271.438 361.233 271.452C361.24 271.481 361.246 271.502 361.251 271.521C361.256 271.54 361.259 271.552 361.261 271.561C361.263 271.57 361.264 271.573 361.264 271.572C361.263 271.57 361.258 271.545 361.251 271.505C361.245 271.465 361.237 271.406 361.232 271.333L369.215 270.801ZM368.936 269.293C368.919 269.227 368.922 269.236 368.891 269.121C368.871 269.043 368.84 268.926 368.8 268.796C368.72 268.532 368.587 268.145 368.357 267.718L361.313 271.511C361.201 271.303 361.152 271.144 361.144 271.117C361.141 271.105 361.142 271.109 361.154 271.153C361.16 271.176 361.165 271.197 361.175 271.234C361.183 271.267 361.194 271.309 361.206 271.354L368.936 269.293ZM368.413 267.825C368.55 268.1 368.624 268.333 368.661 268.461C368.68 268.527 368.692 268.579 368.699 268.606C368.705 268.63 368.709 268.649 368.706 268.635C368.705 268.63 368.696 268.592 368.686 268.549C368.675 268.503 368.657 268.432 368.633 268.348C368.586 268.183 368.499 267.914 368.345 267.606L361.19 271.183C361.052 270.908 360.978 270.676 360.942 270.548C360.923 270.482 360.91 270.43 360.904 270.403C360.898 270.379 360.894 270.359 360.897 270.374C360.898 270.378 360.906 270.417 360.916 270.459C360.927 270.505 360.945 270.576 360.969 270.661C361.016 270.826 361.103 271.094 361.257 271.403L368.413 267.825ZM368.254 267.433C367.863 266.738 367.394 266.221 367.149 265.955L361.27 271.381C361.305 271.418 361.328 271.444 361.345 271.464C361.353 271.473 361.359 271.48 361.363 271.485C361.367 271.489 361.369 271.491 361.368 271.491C361.368 271.491 361.359 271.48 361.344 271.458C361.329 271.436 361.307 271.402 361.281 271.355L368.254 267.433ZM367.038 265.839C367.017 265.818 367.158 265.955 367.306 266.14C367.474 266.349 367.618 266.574 367.737 266.811L360.581 270.389C360.894 271.014 361.284 271.4 361.381 271.496L367.038 265.839ZM366.987 265.772C366.232 265.017 365.411 264.568 364.9 264.313L361.323 271.468C361.373 271.493 361.408 271.512 361.433 271.526C361.458 271.54 361.469 271.547 361.469 271.547C361.469 271.547 361.455 271.538 361.431 271.519C361.407 271.5 361.372 271.47 361.33 271.429L366.987 265.772ZM364.9 264.313C364.505 264.115 364.136 263.999 364.072 263.978L361.542 271.567C361.571 271.577 361.579 271.579 361.584 271.581C361.587 271.582 361.576 271.578 361.557 271.571C361.517 271.556 361.432 271.523 361.323 271.468L364.9 264.313ZM364.162 264.009C363.484 263.765 362.582 263.519 361.523 263.519V271.519C361.432 271.519 361.373 271.508 361.357 271.505C361.344 271.502 361.371 271.507 361.452 271.536L364.162 264.009ZM361.523 263.519C360.463 263.519 359.561 263.765 358.884 264.009L361.593 271.536C361.674 271.507 361.701 271.502 361.689 271.505C361.673 271.508 361.613 271.519 361.523 271.519V263.519ZM359.14 263.926C358.612 264.077 358.193 264.297 358.129 264.33L361.706 271.485C361.771 271.453 361.735 271.472 361.683 271.495C361.618 271.523 361.497 271.573 361.337 271.618L359.14 263.926ZM357.86 264.477C358.053 264.361 358.216 264.289 358.306 264.251C358.352 264.231 358.388 264.218 358.405 264.212C358.419 264.206 358.43 264.202 358.414 264.208C358.406 264.211 358.372 264.223 358.335 264.237C358.295 264.252 358.237 264.275 358.168 264.304C358.032 264.36 357.825 264.454 357.589 264.596L361.705 271.456C361.512 271.572 361.349 271.645 361.259 271.682C361.213 271.702 361.177 271.715 361.16 271.722C361.146 271.727 361.135 271.731 361.151 271.725C361.158 271.722 361.192 271.71 361.23 271.696C361.27 271.681 361.328 271.658 361.397 271.63C361.533 271.573 361.74 271.479 361.976 271.337L357.86 264.477ZM357.647 264.562L191.73 360.354L195.73 367.282L361.647 271.49L357.647 264.562ZM191.943 360.24L191.909 360.256L195.483 367.414L195.516 367.397L191.943 360.24ZM190.868 361.007C190.86 361.014 190.857 361.018 190.853 361.022C190.848 361.026 190.843 361.031 190.834 361.041L196.491 366.697C196.498 366.69 196.501 366.687 196.505 366.683C196.51 366.678 196.515 366.673 196.524 366.664L190.868 361.007ZM191.701 360.383C191.075 360.735 190.551 361.154 190.107 361.598L195.764 367.255C195.764 367.255 195.751 367.268 195.724 367.289C195.696 367.31 195.662 367.334 195.623 367.355L191.701 360.383ZM190.107 361.598C190.012 361.693 189.62 362.079 189.307 362.705L196.462 366.283C196.344 366.52 196.199 366.746 196.031 366.956C195.883 367.14 195.742 367.277 195.764 367.255L190.107 361.598ZM190.056 361.666C189.863 361.859 189.721 362.038 189.628 362.163C189.582 362.225 189.544 362.279 189.519 362.315C189.496 362.349 189.476 362.38 189.472 362.386C189.463 362.399 189.471 362.387 189.481 362.372C189.493 362.354 189.517 362.32 189.55 362.276C189.615 362.188 189.728 362.045 189.887 361.885L195.544 367.542C195.738 367.349 195.879 367.171 195.972 367.045C196.019 366.983 196.056 366.93 196.081 366.893C196.104 366.859 196.125 366.828 196.129 366.822C196.138 366.809 196.13 366.821 196.119 366.836C196.107 366.854 196.083 366.888 196.051 366.932C195.985 367.021 195.873 367.163 195.713 367.323L190.056 361.666ZM189.887 361.885C189.667 362.106 189.508 362.308 189.434 362.403C189.399 362.449 189.361 362.499 189.356 362.506C189.341 362.526 189.353 362.51 189.373 362.485L195.62 367.483C195.648 367.448 195.672 367.416 195.692 367.391C195.71 367.367 195.727 367.345 195.738 367.33C195.744 367.323 195.749 367.315 195.753 367.311C195.757 367.305 195.76 367.302 195.762 367.298C195.767 367.292 195.767 367.292 195.765 367.295C195.761 367.3 195.739 367.328 195.705 367.368C195.67 367.409 195.616 367.47 195.544 367.542L189.887 361.885ZM189.066 362.926C189.181 362.734 189.289 362.596 189.346 362.526C189.375 362.489 189.398 362.463 189.409 362.451C189.418 362.44 189.424 362.433 189.413 362.445C189.407 362.452 189.384 362.478 189.358 362.508C189.331 362.539 189.292 362.585 189.246 362.641C189.158 362.75 189.021 362.929 188.88 363.163L195.74 367.279C195.625 367.471 195.517 367.609 195.461 367.679C195.431 367.716 195.408 367.743 195.397 367.755C195.389 367.765 195.382 367.772 195.393 367.76C195.399 367.753 195.422 367.727 195.448 367.697C195.475 367.666 195.514 367.62 195.56 367.564C195.648 367.455 195.785 367.277 195.926 367.042L189.066 362.926ZM188.733 363.432C188.578 363.741 188.492 364.009 188.444 364.174C188.42 364.259 188.403 364.329 188.392 364.375C188.382 364.418 188.373 364.457 188.372 364.461C188.369 364.476 188.373 364.456 188.379 364.432C188.385 364.405 188.398 364.353 188.417 364.287C188.453 364.159 188.527 363.927 188.665 363.652L195.82 367.229C195.975 366.921 196.061 366.652 196.108 366.487C196.133 366.403 196.15 366.332 196.161 366.286C196.171 366.243 196.18 366.205 196.181 366.2C196.184 366.186 196.18 366.205 196.174 366.229C196.168 366.256 196.155 366.308 196.136 366.374C196.099 366.502 196.025 366.735 195.888 367.01L188.733 363.432ZM188.587 363.816C188.578 363.836 188.572 363.849 188.549 363.901C188.53 363.943 188.499 364.01 188.467 364.087C188.398 364.247 188.308 364.472 188.225 364.747L195.888 367.046C195.872 367.098 195.857 367.143 195.844 367.177C195.832 367.211 195.822 367.233 195.82 367.238C195.819 367.24 195.819 367.239 195.822 367.233C195.825 367.227 195.829 367.218 195.835 367.203C195.839 367.196 195.842 367.188 195.847 367.178C195.851 367.169 195.856 367.158 195.861 367.147C195.871 367.124 195.884 367.096 195.898 367.065L188.587 363.816ZM188.225 364.747C188.184 364.885 188.076 365.234 187.999 365.619L195.844 367.188C195.836 367.226 195.832 367.238 195.84 367.21C195.843 367.197 195.849 367.178 195.857 367.15C195.866 367.121 195.875 367.09 195.888 367.046L188.225 364.747ZM187.999 365.619C187.925 365.991 187.893 366.307 187.874 366.496L195.834 367.292C195.849 367.143 195.851 367.154 195.844 367.188L187.999 365.619ZM187.854 366.894C187.854 366.512 187.912 366.201 187.963 365.996C187.988 365.894 188.012 365.813 188.029 365.761C188.037 365.735 188.044 365.714 188.049 365.701C188.054 365.687 188.057 365.678 188.057 365.677C188.057 365.677 188.057 365.677 188.056 365.68C188.055 365.683 188.053 365.688 188.051 365.693C188.048 365.704 188.041 365.724 188.032 365.749C188.016 365.797 187.987 365.884 187.956 365.994C187.926 366.105 187.888 366.258 187.858 366.442C187.827 366.628 187.803 366.855 187.803 367.113H195.803C195.803 367.355 195.781 367.565 195.753 367.734C195.726 367.901 195.692 368.037 195.666 368.131C195.64 368.224 195.617 368.294 195.606 368.324C195.601 368.34 195.597 368.351 195.596 368.353C195.596 368.355 195.596 368.355 195.596 368.353C195.597 368.351 195.599 368.347 195.6 368.342C195.606 368.326 195.625 368.271 195.647 368.204C195.669 368.133 195.7 368.034 195.729 367.913C195.79 367.669 195.854 367.318 195.854 366.894H187.854ZM187.803 367.113V558.732H195.803V367.113H187.803ZM187.803 558.732C187.803 559.316 187.923 559.767 187.985 559.978C188.01 560.063 188.043 560.161 188.033 560.132C188.033 560.13 188.025 560.107 188.015 560.075C188.005 560.042 187.99 559.989 187.973 559.922L195.735 557.982C195.695 557.825 195.654 557.699 195.645 557.67C195.624 557.606 195.645 557.67 195.659 557.719C195.7 557.858 195.803 558.233 195.803 558.732H187.803ZM187.863 559.218C187.912 559.963 188.109 560.6 188.16 560.777L195.852 558.58C195.843 558.549 195.837 558.526 195.831 558.504C195.825 558.483 195.82 558.467 195.817 558.454C195.81 558.429 195.809 558.424 195.811 558.433C195.815 558.449 195.836 558.543 195.845 558.686L187.863 559.218ZM188.141 560.709C188.209 560.963 188.35 561.5 188.611 562.064L195.874 558.712C195.893 558.751 195.905 558.782 195.912 558.801C195.919 558.819 195.921 558.827 195.92 558.822C195.918 558.816 195.913 558.801 195.905 558.771C195.896 558.74 195.885 558.702 195.871 558.648L188.141 560.709ZM188.665 562.177C188.527 561.902 188.453 561.67 188.417 561.542C188.398 561.475 188.385 561.423 188.379 561.396C188.373 561.372 188.369 561.353 188.372 561.367C188.373 561.372 188.381 561.41 188.392 561.453C188.403 561.499 188.42 561.57 188.444 561.655C188.492 561.82 188.578 562.088 188.733 562.397L195.888 558.819C196.025 559.094 196.099 559.327 196.136 559.455C196.155 559.521 196.168 559.573 196.174 559.6C196.18 559.624 196.184 559.643 196.181 559.629C196.18 559.624 196.171 559.586 196.161 559.543C196.15 559.497 196.133 559.426 196.108 559.342C196.061 559.177 195.975 558.908 195.82 558.599L188.665 562.177ZM188.918 562.728C189.093 563.008 189.269 563.221 189.394 563.362C189.457 563.432 189.513 563.49 189.552 563.531C189.589 563.569 189.623 563.603 189.633 563.613C189.65 563.63 189.644 563.624 189.634 563.613C189.622 563.601 189.593 563.571 189.556 563.53C189.482 563.447 189.355 563.295 189.222 563.083L196.006 558.843C195.831 558.563 195.656 558.35 195.53 558.209C195.467 558.138 195.412 558.08 195.373 558.04C195.336 558.002 195.302 557.968 195.291 557.958C195.274 557.94 195.281 557.947 195.291 557.957C195.303 557.97 195.332 558 195.369 558.041C195.442 558.124 195.57 558.276 195.702 558.488L188.918 562.728ZM189.325 563.24C189.679 563.75 190.058 564.157 190.435 564.503L195.841 558.606C195.822 558.588 195.826 558.59 195.843 558.609C195.861 558.63 195.883 558.657 195.903 558.686L189.325 563.24ZM190.605 564.65C191.024 564.992 191.412 565.232 191.697 565.398L195.728 558.488C195.666 558.451 195.643 558.436 195.637 558.432C195.635 558.431 195.649 558.44 195.671 558.458L190.605 564.65ZM191.816 565.465C191.875 565.496 192.427 565.817 193.026 566.031L195.717 558.497C195.815 558.532 195.87 558.561 195.853 558.553C195.844 558.548 195.824 558.538 195.781 558.514C195.759 558.502 195.738 558.491 195.708 558.474C195.68 558.459 195.646 558.44 195.609 558.421L191.816 565.465ZM193.026 566.031C193.712 566.276 194.344 566.351 194.569 566.381L195.627 558.451C195.566 558.443 195.532 558.438 195.505 558.434C195.481 558.431 195.477 558.43 195.487 558.431C195.508 558.435 195.595 558.453 195.717 558.497L193.026 566.031ZM194.7 566.396C194.467 566.373 194.29 566.33 194.2 566.307C194.14 566.291 194.062 566.267 194.166 566.298C194.222 566.315 194.404 566.372 194.63 566.419C194.87 566.469 195.192 566.517 195.571 566.517V558.517C195.867 558.517 196.108 558.555 196.27 558.589C196.35 558.606 196.412 558.622 196.45 558.632C196.486 558.642 196.51 558.649 196.504 558.648C196.5 558.647 196.498 558.646 196.484 558.642C196.473 558.638 196.455 558.632 196.433 558.626C196.391 558.613 196.322 558.593 196.239 558.571C196.071 558.527 195.814 558.468 195.496 558.436L194.7 566.396ZM195.571 566.517C196.153 566.517 196.601 566.397 196.76 566.353C196.799 566.342 196.833 566.332 196.843 566.329C196.86 566.324 196.85 566.327 196.839 566.33C196.812 566.337 196.719 566.364 196.593 566.389L195.024 558.544C194.855 558.578 194.721 558.615 194.656 558.634C194.625 558.642 194.595 558.651 194.594 558.651C194.584 558.654 194.599 558.65 194.62 558.644C194.702 558.621 195.074 558.517 195.571 558.517V566.517ZM196.093 566.456C196.817 566.405 197.46 566.205 197.617 566.161L195.419 558.468C195.388 558.477 195.365 558.484 195.342 558.49C195.32 558.497 195.303 558.501 195.289 558.505C195.26 558.513 195.253 558.514 195.258 558.513C195.264 558.512 195.291 558.506 195.334 558.499C195.377 558.492 195.441 558.483 195.523 558.477L196.093 566.456ZM197.548 566.18C197.707 566.137 198.434 565.963 199.141 565.583L195.348 558.539C195.435 558.492 195.507 558.46 195.556 558.44C195.605 558.42 195.639 558.409 195.648 558.406C195.657 558.403 195.652 558.405 195.623 558.413C195.591 558.422 195.555 558.432 195.487 558.45L197.548 566.18ZM199.033 565.639C198.809 565.751 198.616 565.819 198.487 565.859C198.424 565.879 198.374 565.893 198.346 565.9C198.322 565.906 198.302 565.911 198.315 565.908C198.319 565.907 198.356 565.898 198.397 565.887C198.442 565.875 198.509 565.857 198.589 565.832C198.751 565.781 198.978 565.7 199.236 565.571L195.658 558.416C195.882 558.304 196.076 558.236 196.204 558.195C196.267 558.176 196.317 558.162 196.345 558.155C196.37 558.148 196.39 558.143 196.376 558.146C196.373 558.147 196.336 558.157 196.294 558.168C196.25 558.179 196.183 558.198 196.103 558.223C195.94 558.274 195.713 558.355 195.455 558.483L199.033 565.639ZM199.447 565.457L308.183 502.666L304.183 495.738L195.447 558.53L199.447 565.457ZM304.183 502.666L351.953 530.243L355.952 523.315L308.183 495.738L304.183 502.666ZM351.953 523.315L142 644.521L146 651.45L355.952 530.243L351.953 523.315ZM148 647.986V337.323H140V647.986H148ZM146 340.787L415.027 185.464L411.027 178.536L142 333.859L146 340.787ZM409.027 182V424.43H417.027V182H409.027ZM413.027 428.43H413.044V420.43H413.027V428.43Z" fill="black" mask="url(#path-11-inside-2_607_16)"/>
<path d="M642.136 363.047C642.134 363.044 642.138 363.049 642.148 363.059C642.144 363.055 642.14 363.051 642.136 363.047ZM642.136 363.047L640.907 364.275L640.722 364.46M642.136 363.047C642.136 363.047 642.136 363.046 642.136 363.046L640.907 364.275L640.722 364.46M640.722 364.46C640.706 364.445 640.69 364.429 640.674 364.399C640.673 364.397 640.672 364.395 640.671 364.393M640.722 364.46C640.77 364.508 640.809 364.565 640.846 364.618C640.861 364.639 640.876 364.661 640.891 364.68L640.671 364.393M640.671 364.393C640.452 364.173 640.198 363.987 639.944 363.835L640.671 364.393ZM687.607 338.478V644.512L483.671 526.779L527.44 501.511L635.176 563.725L635.228 563.756L635.282 563.782C635.419 563.851 635.541 563.895 635.631 563.923C635.638 563.925 635.646 563.927 635.653 563.929C636.014 564.091 636.347 564.182 636.572 564.242C636.578 564.244 636.585 564.245 636.591 564.247L636.595 564.249C636.776 564.301 637.104 564.395 637.476 564.442C637.49 564.446 637.504 564.449 637.519 564.453C637.645 564.484 637.829 564.517 638.052 564.517C638.397 564.517 638.676 564.448 638.817 564.41C638.851 564.401 638.891 564.389 638.921 564.381C639.17 564.346 639.538 564.285 639.925 564.147C640.343 563.998 640.72 563.779 640.859 563.704L640.889 563.688L640.918 563.67C641.162 563.528 641.45 563.349 641.752 563.102L641.759 563.096L641.766 563.091C642.118 562.797 642.371 562.475 642.543 562.235C642.557 562.221 642.574 562.203 642.593 562.184C642.7 562.072 642.883 561.87 643.045 561.579L643.066 561.541L643.085 561.502C643.167 561.34 643.213 561.196 643.239 561.105C643.241 561.099 643.243 561.093 643.244 561.087C643.423 560.671 643.52 560.24 643.523 560.228L643.528 560.211L643.533 560.194C643.538 560.176 643.543 560.156 643.549 560.134C643.597 559.959 643.681 559.649 643.726 559.296C643.727 559.293 643.728 559.289 643.729 559.286C643.768 559.138 643.803 558.944 643.803 558.715V367.096C643.803 366.833 643.758 366.618 643.722 366.483C643.705 366.34 643.682 366.176 643.646 365.994C643.594 365.732 643.519 365.485 643.473 365.331L643.465 365.305L643.457 365.276L643.447 365.247C643.383 365.057 643.308 364.876 643.248 364.739C643.245 364.729 643.242 364.718 643.239 364.707C643.213 364.616 643.167 364.472 643.085 364.309L643.051 364.241L643.011 364.175C642.908 364.003 642.803 363.873 642.747 363.807C642.733 363.789 642.717 363.77 642.704 363.755C642.622 363.64 642.544 363.542 642.477 363.459C642.465 363.443 642.449 363.42 642.433 363.398C642.416 363.374 642.393 363.343 642.364 363.305L642.315 363.208L642.086 362.979C641.8 362.693 641.494 362.456 641.201 362.263L641.095 362.157L640.824 362.022L474.968 266.265C474.847 266.194 474.741 266.146 474.666 266.114C474.624 266.097 474.584 266.081 474.554 266.07C474.439 266.014 474.338 265.973 474.278 265.949C474.246 265.937 474.226 265.928 474.21 265.922C474.185 265.912 474.174 265.908 474.156 265.9L474.101 265.877L474.045 265.857C473.49 265.657 472.812 265.485 472.084 265.485C471.357 265.485 470.686 265.648 470.126 265.855C470.072 265.874 470.025 265.892 469.988 265.907C469.946 265.923 469.907 265.94 469.883 265.949L469.879 265.951C469.86 265.959 469.85 265.963 469.844 265.966L469.744 265.999L469.632 266.052C469.12 266.298 468.551 266.635 468.033 267.152L468.033 267.152L468.031 267.155C467.997 267.189 467.919 267.267 467.828 267.386C467.612 267.627 467.33 267.964 467.096 268.38L467.072 268.423L467.05 268.466C466.969 268.629 466.922 268.772 466.896 268.864C466.895 268.87 466.893 268.875 466.891 268.881C466.727 269.265 466.631 269.661 466.615 269.73C466.613 269.736 466.612 269.74 466.612 269.741L466.607 269.758L466.603 269.775C466.598 269.792 466.592 269.813 466.586 269.835C466.539 270.008 466.454 270.321 466.409 270.666C466.378 270.782 466.333 270.984 466.333 271.236V395.648L422.563 420.915V185.464L687.607 338.478ZM643.671 366.313C643.67 366.309 643.67 366.31 643.671 366.314L643.671 366.313Z" stroke="black" stroke-width="4"/>
<path d="M303.359 617.562L303.131 617.693L303.12 617.704L248.117 649.468C248.025 649.513 247.935 649.566 247.847 649.627C247.8 649.66 247.757 649.693 247.717 649.726C247.266 650.032 246.871 650.397 246.537 650.785C246.44 650.888 246.367 650.981 246.323 651.039C246.301 651.067 246.278 651.097 246.264 651.115L246.257 651.125C246.246 651.14 246.241 651.146 246.24 651.147C246.24 651.147 246.24 651.147 246.24 651.147L246.157 651.252L246.156 651.252C246.141 651.27 246.124 651.29 246.107 651.311C246.057 651.373 245.985 651.467 245.912 651.587C245.707 651.919 245.626 652.234 245.599 652.339L245.597 652.347L245.595 652.356C245.498 652.582 245.338 652.967 245.25 653.422C245.159 653.862 245.16 654.274 245.16 654.488L245.16 654.525L245.16 654.562C245.16 654.778 245.159 655.196 245.252 655.64C245.338 656.062 245.498 656.452 245.581 656.656C245.585 656.666 245.589 656.675 245.592 656.684L245.597 656.703L245.599 656.712C245.625 656.811 245.7 657.103 245.884 657.418C246.009 657.636 246.151 657.796 246.242 657.888C246.351 658.031 246.457 658.148 246.536 658.233C246.635 658.341 246.666 658.371 246.689 658.395C246.71 658.415 246.725 658.43 246.778 658.49L246.81 658.525L246.844 658.558L246.869 658.583C247.023 658.738 247.259 658.974 247.567 659.204C247.62 659.254 247.702 659.328 247.802 659.403L247.898 659.475L248.002 659.535L413.953 755.345L414.006 755.375L414.059 755.402C414.232 755.488 414.394 755.54 414.495 755.568C414.631 755.627 414.809 755.701 414.997 755.763L415.025 755.773L415.055 755.782C415.207 755.828 415.467 755.907 415.744 755.962C415.938 756.001 416.114 756.025 416.264 756.042C416.268 756.043 416.272 756.044 416.275 756.045C416.424 756.084 416.618 756.12 416.846 756.12C417.103 756.12 417.313 756.076 417.45 756.039C417.595 756.023 417.763 755.999 417.948 755.962C418.211 755.91 418.459 755.835 418.614 755.789L418.637 755.782L418.666 755.773L418.695 755.764C418.886 755.7 419.067 755.624 419.203 755.565C419.212 755.562 419.223 755.559 419.234 755.556C419.325 755.53 419.469 755.483 419.633 755.402L419.686 755.375L419.738 755.345L585.67 659.546C585.885 659.426 586.046 659.288 586.142 659.195C586.455 658.964 586.701 658.709 586.808 658.599C586.825 658.582 586.838 658.568 586.848 658.558L586.878 658.528C587.016 658.391 587.24 658.167 587.453 657.884C587.544 657.792 587.684 657.633 587.807 657.418C587.993 657.101 588.068 656.809 588.093 656.709L588.095 656.701L588.097 656.693C588.194 656.468 588.354 656.082 588.443 655.626C588.533 655.187 588.532 654.776 588.532 654.562L588.532 654.525L588.532 654.488C588.532 654.272 588.533 653.854 588.44 653.41C588.349 652.968 588.178 652.559 588.1 652.367L588.095 652.349L588.093 652.341C588.067 652.237 587.986 651.923 587.782 651.59C587.681 651.423 587.578 651.297 587.524 651.233C587.511 651.216 587.495 651.198 587.483 651.183C587.387 651.048 587.296 650.936 587.219 650.843C586.877 650.418 586.461 650.022 585.974 649.703L585.874 649.602L585.603 649.467L530.556 617.687L530.545 617.677L530.316 617.544L477.92 587.301V536.749L681.873 654.491L416.829 807.505L151.802 654.491L355.755 536.749V587.308L303.359 617.562ZM247.505 659.143C247.505 659.143 247.505 659.143 247.505 659.143L247.505 659.143Z" stroke="black" stroke-width="4"/>
<path d="M1840.69 479.49L1840.68 479.468L1840.66 479.446C1840.35 478.892 1839.94 478.426 1839.58 478.044L1839.55 477.978L1839.43 477.864C1838.78 477.229 1838.02 476.795 1837.33 476.459C1837.09 476.339 1836.85 476.262 1836.68 476.206C1835.88 475.924 1835.02 475.717 1834.1 475.717C1833.19 475.717 1832.34 475.922 1831.54 476.2C1831.26 476.283 1831.03 476.399 1830.86 476.48L1830.85 476.488L1830.81 476.505L1830.79 476.517C1830.78 476.519 1830.76 476.528 1830.71 476.546L1830.7 476.551C1830.63 476.576 1830.47 476.632 1830.31 476.722C1830.31 476.724 1830.31 476.726 1830.3 476.727L1636.21 586.553L1636.18 586.568L1636.03 586.64L1635.95 586.72C1635.44 587.016 1634.99 587.369 1634.58 587.77C1634.55 587.806 1634.47 587.879 1634.39 587.996C1634.31 588.096 1634.25 588.187 1634.22 588.227C1634.2 588.256 1634.19 588.271 1634.18 588.278C1634.02 588.437 1633.85 588.659 1633.78 588.762C1633.76 588.785 1633.74 588.803 1633.74 588.811L1633.69 588.864L1633.67 588.91C1633.67 588.91 1633.66 588.911 1633.66 588.912C1633.66 588.92 1633.64 588.939 1633.61 588.975L1633.6 588.986C1633.54 589.044 1633.43 589.172 1633.33 589.329L1633.31 589.362L1633.29 589.396C1633.24 589.499 1633.21 589.593 1633.19 589.662C1633.17 589.728 1633.16 589.791 1633.15 589.818C1633.15 589.825 1633.15 589.831 1633.15 589.835C1633.13 589.866 1633.12 589.899 1633.1 589.934C1633 590.14 1632.88 590.412 1632.78 590.721L1632.78 590.745C1632.69 591.021 1632.59 591.349 1632.52 591.686C1632.45 592.022 1632.42 592.32 1632.39 592.611C1632.38 592.641 1632.36 592.693 1632.35 592.747C1632.32 592.825 1632.3 592.952 1632.3 593.106V812.862C1632.3 813.073 1632.34 813.243 1632.37 813.349C1632.38 813.368 1632.38 813.387 1632.39 813.404C1632.39 813.414 1632.39 813.423 1632.4 813.431C1632.45 813.927 1632.58 814.376 1632.68 814.733L1632.69 814.752C1632.69 814.755 1632.69 814.758 1632.69 814.761C1632.7 814.809 1632.72 814.862 1632.73 814.917C1632.82 815.254 1632.93 815.698 1633.15 816.116C1633.15 816.117 1633.15 816.119 1633.15 816.121C1633.16 816.148 1633.17 816.211 1633.19 816.277C1633.21 816.346 1633.24 816.44 1633.29 816.543L1633.32 816.586L1633.34 816.626C1633.49 816.855 1633.67 817.026 1633.75 817.108C1633.8 817.159 1633.83 817.186 1633.85 817.211C1633.87 817.228 1633.88 817.236 1633.88 817.237L1633.9 817.273L1633.93 817.307L1633.95 817.339C1634.2 817.67 1634.53 818.097 1634.98 818.462L1634.98 818.467C1635.36 818.769 1635.76 819.03 1636.15 819.253L1636.65 818.385L1636.15 819.253L1636.18 819.272C1636.52 819.463 1636.96 819.715 1637.48 819.865C1638.01 820.035 1638.53 820.102 1638.95 820.157L1638.98 820.161L1638.99 820.163L1639 820.164C1639.02 820.166 1639.03 820.169 1639.06 820.174C1639.09 820.182 1639.15 820.196 1639.25 820.223C1639.4 820.26 1639.63 820.315 1639.91 820.315C1640.13 820.315 1640.29 820.269 1640.4 820.238C1640.42 820.232 1640.44 820.225 1640.45 820.221L1640.45 820.22L1640.46 820.218C1640.97 820.173 1641.43 820.043 1641.81 819.939L1641.82 819.934C1641.83 819.933 1641.83 819.932 1641.83 819.931C1642.26 819.818 1642.75 819.685 1643.25 819.447C1643.25 819.446 1643.26 819.445 1643.26 819.443L1643.27 819.441C1643.33 819.427 1643.48 819.39 1643.64 819.312L1643.67 819.299L1643.69 819.284L1736.98 766.513L1818.79 812.804L1550.43 964.714V542.471L1923.53 331.347V635.052L1841.69 588.744V483.2C1841.69 482.989 1841.64 482.818 1841.61 482.712C1841.6 482.683 1841.59 482.653 1841.59 482.63C1841.54 482.17 1841.42 481.743 1841.33 481.39C1841.32 481.353 1841.31 481.316 1841.3 481.28L1840.33 481.543L1841.3 481.28C1841.28 481.229 1841.27 481.174 1841.25 481.115C1841.16 480.778 1841.05 480.334 1840.83 479.916C1840.83 479.915 1840.83 479.913 1840.83 479.911C1840.83 479.884 1840.81 479.821 1840.79 479.756C1840.77 479.687 1840.74 479.592 1840.69 479.49Z" stroke="url(#paint6_linear_607_16)" stroke-opacity="0.2" stroke-width="2"/>
<path d="M1443.83 819.964C1444.23 820.068 1444.73 820.209 1445.24 820.252C1445.32 820.282 1445.51 820.346 1445.74 820.346C1446.02 820.346 1446.25 820.29 1446.4 820.254C1446.58 820.209 1446.61 820.199 1446.65 820.195L1446.67 820.193C1447.14 820.134 1447.65 820.068 1448.19 819.889L1448.2 819.886L1448.21 819.883C1448.68 819.717 1449.06 819.517 1449.42 819.327L1449.47 819.3L1449.49 819.292L1449.5 819.284L1449.53 819.267C1449.87 819.075 1450.29 818.832 1450.69 818.479C1451.13 818.118 1451.45 817.697 1451.7 817.37L1451.71 817.367C1451.72 817.355 1451.73 817.345 1451.74 817.334C1451.77 817.305 1451.81 817.271 1451.92 817.161C1452.05 817.037 1452.24 816.839 1452.37 816.551C1452.42 816.457 1452.44 816.371 1452.46 816.308C1452.48 816.242 1452.5 816.179 1452.5 816.152C1452.5 816.15 1452.5 816.148 1452.5 816.146C1452.71 815.75 1452.83 815.298 1452.91 814.991C1452.93 814.918 1452.95 814.854 1452.96 814.8L1452.96 814.792L1452.97 814.783C1452.98 814.745 1452.99 814.706 1453 814.666C1453.1 814.298 1453.22 813.846 1453.26 813.384C1453.27 813.354 1453.29 813.303 1453.31 813.25C1453.33 813.172 1453.36 813.046 1453.36 812.893V593.137C1453.36 592.928 1453.31 592.758 1453.28 592.652C1453.27 592.619 1453.26 592.584 1453.25 592.56C1453.23 592.295 1453.19 592.021 1453.13 591.716C1453.06 591.37 1452.96 591.033 1452.87 590.751L1452.86 590.737L1452.86 590.722C1452.76 590.415 1452.62 590.116 1452.51 589.866C1452.51 589.861 1452.5 589.856 1452.5 589.849L1452.5 589.844C1452.5 589.815 1452.48 589.755 1452.46 589.693C1452.45 589.657 1452.44 589.614 1452.42 589.567C1452.4 589.523 1452.38 589.476 1452.36 589.427L1452.34 589.392L1452.32 589.359C1452.24 589.221 1452.15 589.109 1452.08 589.03C1452 588.944 1451.98 588.918 1451.94 588.872C1451.81 588.682 1451.68 588.523 1451.54 588.362C1451.51 588.313 1451.37 588.109 1451.22 587.951L1451.19 587.886L1451.07 587.772C1450.65 587.357 1450.17 587.011 1449.71 586.73L1449.62 586.641L1449.48 586.57L1449.44 586.555L1255.35 476.729C1255.35 476.727 1255.34 476.725 1255.34 476.723C1255.18 476.633 1255.03 476.578 1254.96 476.552L1254.94 476.547C1254.89 476.53 1254.87 476.521 1254.86 476.519L1254.84 476.506L1254.81 476.49C1254.66 476.418 1254.46 476.337 1254.32 476.282C1254.26 476.262 1254.22 476.244 1254.19 476.233L1254.16 476.222L1254.14 476.212C1253.33 475.928 1252.47 475.719 1251.55 475.719C1250.64 475.719 1249.75 475.923 1248.97 476.211C1248.85 476.25 1248.74 476.295 1248.66 476.327L1248.65 476.331C1248.56 476.37 1248.5 476.392 1248.45 476.408L1248.39 476.427L1248.34 476.453C1247.6 476.801 1246.87 477.237 1246.22 477.865L1246.92 478.579L1246.22 477.865L1246.22 477.867C1246.19 477.903 1246.11 477.973 1246.04 478.084C1245.69 478.459 1245.3 478.912 1244.99 479.448L1244.98 479.469L1244.97 479.491C1244.91 479.594 1244.88 479.688 1244.86 479.757C1244.84 479.823 1244.83 479.886 1244.82 479.913C1244.82 479.915 1244.82 479.917 1244.82 479.918C1244.61 480.336 1244.49 480.78 1244.4 481.117C1244.39 481.175 1244.37 481.231 1244.36 481.282C1244.35 481.32 1244.34 481.358 1244.33 481.398C1244.22 481.766 1244.1 482.218 1244.06 482.679C1244.05 482.709 1244.03 482.76 1244.02 482.812C1244 482.891 1243.97 483.018 1243.97 483.172V588.717L1162.13 635.025V331.378L1535.23 542.502V964.745L1266.87 812.893L1348.68 766.602L1441.96 819.373L1442.05 819.422L1442.14 819.453C1442.23 819.483 1442.32 819.498 1442.35 819.505C1442.38 819.509 1442.4 819.512 1442.41 819.515L1442.41 819.515L1442.43 819.518C1442.86 819.72 1443.3 819.831 1443.65 819.919C1443.71 819.935 1443.77 819.95 1443.83 819.964ZM1244.08 482.633C1244.08 482.63 1244.08 482.632 1244.08 482.64C1244.08 482.636 1244.08 482.634 1244.08 482.633Z" stroke="url(#paint7_linear_607_16)" stroke-opacity="0.2" stroke-width="2"/>
<path d="M1344.86 311.905L1344.71 311.976L1344.62 312.069C1343.95 312.491 1343.35 313.023 1342.84 313.606C1342.69 313.763 1342.53 313.97 1342.45 314.069C1342.44 314.092 1342.42 314.109 1342.42 314.118L1342.37 314.171L1342.35 314.216C1342.34 314.221 1342.32 314.24 1342.29 314.282L1342.28 314.293C1342.22 314.35 1342.11 314.475 1342.02 314.627C1341.86 314.882 1341.79 315.134 1341.75 315.272L1341.74 315.322C1341.71 315.447 1341.7 315.471 1341.69 315.5L1341.68 315.513L1341.67 315.548C1341.5 315.933 1341.28 316.423 1341.17 316.992C1341.06 317.501 1341.06 317.996 1341.06 318.379V318.413V318.448C1341.06 318.832 1341.06 319.329 1341.17 319.841C1341.28 320.362 1341.46 320.843 1341.69 321.31C1341.7 321.339 1341.71 321.378 1341.75 321.526C1341.79 321.659 1341.85 321.898 1342 322.144C1342.11 322.345 1342.26 322.474 1342.31 322.523L1342.32 322.527C1342.33 322.54 1342.34 322.55 1342.35 322.557C1342.65 322.975 1343.02 323.333 1343.34 323.62L1343.35 323.634C1343.64 323.92 1343.98 324.25 1344.39 324.528C1344.4 324.536 1344.41 324.546 1344.42 324.561L1344.42 324.564C1344.48 324.62 1344.61 324.763 1344.82 324.874L1538.97 434.742L1538.99 434.757L1539.02 434.77C1539.18 434.848 1539.33 434.885 1539.39 434.899L1539.4 434.901C1539.41 434.903 1539.41 434.905 1539.42 434.906L1539.44 434.916C1539.69 435.026 1540 435.157 1540.31 435.259L1540.32 435.263L1540.33 435.267L1540.35 435.273C1540.64 435.356 1540.97 435.455 1541.31 435.522C1541.65 435.588 1541.95 435.621 1542.24 435.65C1542.32 435.679 1542.51 435.744 1542.75 435.744C1542.96 435.744 1543.13 435.703 1543.23 435.672C1543.27 435.662 1543.3 435.651 1543.33 435.643C1543.6 435.615 1543.88 435.583 1544.19 435.522C1544.53 435.455 1544.87 435.356 1545.15 435.273L1545.17 435.267L1545.18 435.263L1545.2 435.259C1545.51 435.156 1545.82 435.024 1546.07 434.913L1546.09 434.906C1546.09 434.905 1546.1 434.903 1546.1 434.901L1546.11 434.899C1546.17 434.885 1546.32 434.848 1546.48 434.77L1546.51 434.757L1546.54 434.742L1740.68 324.874C1740.79 324.82 1740.87 324.761 1740.93 324.712C1740.98 324.67 1741.02 324.627 1741.04 324.604C1741.54 324.302 1741.93 323.909 1742.26 323.56C1742.29 323.528 1742.33 323.493 1742.37 323.456C1742.6 323.229 1742.93 322.916 1743.18 322.557C1743.19 322.55 1743.2 322.54 1743.22 322.527L1743.22 322.523C1743.28 322.474 1743.42 322.344 1743.53 322.142C1743.69 321.889 1743.75 321.634 1743.78 321.509C1743.82 321.357 1743.83 321.335 1743.83 321.336L1743.84 321.312L1743.85 321.285L1743.87 321.253C1744.04 320.868 1744.25 320.379 1744.36 319.84C1744.47 319.328 1744.47 318.831 1744.47 318.447V318.413V318.379C1744.47 317.995 1744.47 317.498 1744.36 316.987C1744.26 316.499 1744.07 316.042 1743.92 315.669C1743.9 315.623 1743.88 315.579 1743.86 315.536L1743.86 315.518L1743.85 315.5C1743.83 315.467 1743.83 315.441 1743.78 315.27C1743.75 315.133 1743.68 314.883 1743.52 314.629C1743.44 314.493 1743.35 314.384 1743.28 314.306C1743.24 314.26 1743.22 314.231 1743.19 314.207C1743.18 314.186 1743.16 314.169 1743.14 314.148C1743.01 313.95 1742.87 313.785 1742.73 313.617C1742.22 312.991 1741.6 312.44 1740.91 312.029L1740.82 311.947L1740.68 311.876L1740.65 311.86L1647.43 259.112V166.532L1915.79 318.384L1542.81 529.52L1169.74 318.413L1438.1 166.561V259.141L1344.89 311.889L1344.86 311.905Z" stroke="url(#paint8_linear_607_16)" stroke-opacity="0.2" stroke-width="2"/>
<path d="M1065 267.778L1535.17 1.7149V415.31L1453.36 369.019V153.596C1453.36 153.387 1453.31 153.217 1453.28 153.111C1453.28 153.094 1453.27 153.076 1453.27 153.059C1453.26 153.048 1453.26 153.037 1453.26 153.028C1453.21 152.567 1453.09 152.14 1453 151.787C1452.99 151.749 1452.98 151.713 1452.97 151.677C1452.95 151.626 1452.94 151.571 1452.92 151.512C1452.84 151.175 1452.72 150.731 1452.5 150.313C1452.5 150.312 1452.5 150.31 1452.5 150.308C1452.5 150.296 1452.5 150.276 1452.49 150.251C1452.48 150.223 1452.47 150.188 1452.46 150.152C1452.44 150.083 1452.41 149.989 1452.36 149.886L1452.35 149.864L1452.34 149.843C1452.02 149.288 1451.61 148.823 1451.25 148.44L1451.22 148.375L1451.1 148.26C1450.45 147.626 1449.69 147.192 1449 146.856C1448.76 146.738 1448.53 146.661 1448.36 146.606L1448.35 146.603C1447.55 146.321 1446.69 146.114 1445.77 146.114C1444.86 146.114 1444.01 146.318 1443.22 146.597C1442.92 146.683 1442.68 146.805 1442.52 146.885L1442.48 146.901L1442.46 146.914C1442.45 146.917 1442.43 146.925 1442.38 146.943L1442.37 146.947C1442.3 146.973 1442.14 147.029 1441.98 147.119C1441.98 147.121 1441.98 147.122 1441.98 147.124L1150.81 311.889L1150.78 311.904L1150.64 311.975L1150.56 312.055C1150.04 312.352 1149.6 312.704 1149.19 313.106C1149.19 313.106 1149.19 313.106 1149.19 313.106L1149.18 313.108C1149.15 313.144 1149.07 313.217 1149 313.332C1148.91 313.432 1148.85 313.523 1148.82 313.563C1148.8 313.592 1148.79 313.607 1148.79 313.614C1148.63 313.773 1148.46 313.993 1148.38 314.096C1148.36 314.12 1148.35 314.138 1148.34 314.147L1148.3 314.2L1148.27 314.244C1148.27 314.244 1148.27 314.244 1148.27 314.245C1148.27 314.25 1148.25 314.269 1148.21 314.311C1148.16 314.363 1148.04 314.498 1147.94 314.664L1147.92 314.697L1147.9 314.732C1147.85 314.835 1147.81 314.929 1147.79 314.998C1147.79 315.025 1147.78 315.051 1147.77 315.074C1147.76 315.109 1147.76 315.137 1147.75 315.154C1147.75 315.161 1147.75 315.166 1147.75 315.171C1147.74 315.202 1147.72 315.235 1147.7 315.27C1147.61 315.477 1147.48 315.749 1147.39 316.056L1147.38 316.072C1147.3 316.352 1147.2 316.682 1147.13 317.021C1147.06 317.357 1147.03 317.656 1147 317.947C1146.98 317.976 1146.97 318.029 1146.95 318.082C1146.93 318.161 1146.9 318.288 1146.9 318.442V648.075C1146.9 648.286 1146.94 648.457 1146.98 648.563C1146.98 648.592 1146.99 648.622 1147 648.645C1147.05 649.141 1147.18 649.592 1147.29 649.95L1147.29 649.966C1147.29 649.969 1147.29 649.972 1147.29 649.975C1147.41 650.399 1147.54 650.866 1147.75 651.318C1147.75 651.323 1147.75 651.328 1147.75 651.334C1147.76 651.362 1147.77 651.424 1147.79 651.49C1147.81 651.559 1147.85 651.654 1147.9 651.756L1147.92 651.799L1147.95 651.84C1148.08 652.055 1148.25 652.22 1148.34 652.306L1148.36 652.321C1148.41 652.372 1148.43 652.399 1148.46 652.424C1148.47 652.443 1148.48 652.451 1148.48 652.451L1148.49 652.47L1148.51 652.489C1148.82 652.94 1149.17 653.314 1149.57 653.674L1149.59 653.692L1149.62 653.71C1150 654.018 1150.38 654.251 1150.75 654.466L1150.77 654.475L1150.78 654.483C1150.83 654.509 1150.89 654.537 1150.94 654.566C1151.26 654.736 1151.64 654.943 1152.08 655.094L1152.41 654.151L1152.08 655.094C1152.6 655.278 1153.11 655.346 1153.55 655.404L1153.57 655.406L1153.58 655.407C1153.61 655.41 1153.64 655.417 1153.81 655.468L1153.81 655.469C1153.95 655.51 1154.21 655.587 1154.51 655.587C1154.72 655.587 1154.89 655.545 1154.98 655.519C1155.01 655.512 1155.03 655.506 1155.05 655.501L1155.09 655.49C1155.57 655.445 1156.04 655.315 1156.4 655.211L1156.43 655.205L1156.44 655.201L1156.47 655.194C1156.87 655.09 1157.38 654.956 1157.86 654.717C1157.86 654.716 1157.86 654.716 1157.86 654.715L1157.88 654.712C1157.93 654.698 1158.09 654.662 1158.24 654.583L1158.27 654.57L1158.3 654.556L1348.65 546.817L1430.46 593.107L1065 799.899V267.778Z" stroke="url(#paint9_linear_607_16)" stroke-opacity="0.2" stroke-width="2"/>
<path d="M2020.59 267.778V799.882L1655.17 593.107L1736.98 546.817L1927.33 654.556L1927.35 654.57L1927.38 654.583C1927.55 654.667 1927.71 654.703 1927.76 654.715C1927.76 654.716 1927.77 654.717 1927.77 654.719C1928.27 654.956 1928.75 655.089 1929.19 655.202C1929.19 655.203 1929.19 655.204 1929.2 655.205L1929.22 655.211C1929.6 655.319 1930.09 655.455 1930.6 655.495L1930.6 655.496C1930.63 655.506 1930.7 655.528 1930.77 655.546C1930.81 655.554 1930.84 655.562 1930.89 655.569C1930.95 655.579 1931.03 655.587 1931.11 655.587C1931.39 655.587 1931.63 655.532 1931.79 655.488C1931.99 655.436 1932.03 655.418 1932.12 655.398C1932.54 655.342 1933.04 655.272 1933.55 655.094L1933.22 654.151L1933.55 655.094C1933.98 654.943 1934.36 654.737 1934.68 654.566C1934.74 654.537 1934.79 654.509 1934.84 654.483L1934.85 654.475L1934.87 654.466C1935.25 654.251 1935.62 654.018 1936.01 653.71L1936.01 653.704C1936.46 653.338 1936.78 652.915 1937.05 652.537C1937.08 652.514 1937.1 652.495 1937.12 652.468C1937.15 652.438 1937.2 652.398 1937.26 652.329C1937.38 652.206 1937.54 652.034 1937.67 651.795L1937.69 651.776L1937.7 651.756C1937.75 651.654 1937.78 651.559 1937.8 651.49C1937.82 651.428 1937.83 651.37 1937.84 651.34L1937.84 651.334C1937.84 651.332 1937.84 651.331 1937.84 651.329C1938.04 650.932 1938.16 650.48 1938.25 650.174C1938.27 650.101 1938.28 650.036 1938.3 649.983L1938.3 649.974L1938.3 649.966L1938.33 649.855C1938.43 649.487 1938.56 649.039 1938.6 648.555C1938.63 648.471 1938.69 648.28 1938.69 648.046V318.413C1938.69 318.202 1938.65 318.031 1938.62 317.925C1938.61 317.908 1938.61 317.891 1938.6 317.875C1938.6 317.86 1938.59 317.847 1938.59 317.835C1938.56 317.57 1938.53 317.297 1938.47 316.992L1937.49 317.192L1938.47 316.992C1938.4 316.656 1938.3 316.329 1938.21 316.052L1938.21 316.027L1938.2 316.013L1938.2 315.998C1938.09 315.69 1937.96 315.392 1937.84 315.142C1937.84 315.137 1937.84 315.132 1937.84 315.125L1937.83 315.092C1937.82 315.06 1937.81 315.015 1937.8 314.969C1937.78 314.9 1937.75 314.805 1937.7 314.703L1937.68 314.668L1937.66 314.635C1937.54 314.45 1937.35 314.232 1937.28 314.149C1937.28 314.146 1937.28 314.144 1937.27 314.141C1937.14 313.954 1937.01 313.796 1936.88 313.638C1936.85 313.589 1936.7 313.386 1936.56 313.228L1936.52 313.162L1936.41 313.048C1935.98 312.633 1935.51 312.287 1935.05 312.005L1934.96 311.917L1934.81 311.846L1934.78 311.83L1643.62 147.066C1643.61 147.064 1643.61 147.062 1643.61 147.06C1643.45 146.97 1643.3 146.915 1643.22 146.889L1643.21 146.884C1643.16 146.867 1643.14 146.858 1643.13 146.856L1643.11 146.843L1643.08 146.827C1642.88 146.728 1642.56 146.613 1642.46 146.57L1642.43 146.559L1642.41 146.549C1641.6 146.264 1640.71 146.056 1639.82 146.056C1638.91 146.056 1638.02 146.26 1637.24 146.548C1637.12 146.587 1637.01 146.632 1636.93 146.663L1636.92 146.668C1636.83 146.707 1636.77 146.729 1636.72 146.745L1636.66 146.764L1636.61 146.79C1635.86 147.138 1635.13 147.574 1634.49 148.202L1635.19 148.916L1634.49 148.202L1634.49 148.204C1634.45 148.24 1634.38 148.31 1634.31 148.421C1633.96 148.796 1633.57 149.249 1633.26 149.785L1633.25 149.806L1633.23 149.828C1633.18 149.931 1633.15 150.025 1633.13 150.094C1633.11 150.16 1633.1 150.222 1633.09 150.25C1633.09 150.252 1633.09 150.254 1633.09 150.256C1632.89 150.652 1632.77 151.104 1632.68 151.411C1632.66 151.483 1632.65 151.548 1632.63 151.601L1632.63 151.61L1632.63 151.619C1632.62 151.657 1632.61 151.695 1632.59 151.735C1632.49 152.103 1632.37 152.555 1632.33 153.018C1632.32 153.047 1632.3 153.099 1632.29 153.151C1632.26 153.23 1632.24 153.356 1632.24 153.509V368.932L1550.4 415.239V1.71485L2020.59 267.778ZM1632.35 152.972C1632.35 152.969 1632.35 152.971 1632.34 152.979C1632.34 152.976 1632.35 152.973 1632.35 152.972Z" stroke="url(#paint10_linear_607_16)" stroke-opacity="0.2" stroke-width="2"/>
<path d="M1344.95 751.386L1344.84 751.451L1344.82 751.465C1344.82 751.468 1344.81 751.472 1344.81 751.476L1247.9 806.33C1247.83 806.356 1247.77 806.39 1247.71 806.433C1247.65 806.469 1247.61 806.507 1247.57 806.543C1246.92 806.961 1246.33 807.484 1245.83 808.056C1245.65 808.25 1245.45 808.522 1245.41 808.569L1245.37 808.621L1245.34 808.667C1245.33 808.672 1245.32 808.69 1245.28 808.732C1245.23 808.783 1245.11 808.914 1245.01 809.077C1244.85 809.332 1244.78 809.583 1244.75 809.721C1244.72 809.835 1244.7 809.884 1244.69 809.914C1244.69 809.929 1244.68 809.94 1244.68 809.951L1244.67 809.963L1244.66 809.992C1244.49 810.379 1244.28 810.87 1244.17 811.442C1244.06 811.952 1244.06 812.446 1244.06 812.829V812.864V812.898C1244.06 813.282 1244.06 813.78 1244.17 814.291C1244.27 814.779 1244.46 815.235 1244.61 815.608C1244.63 815.654 1244.65 815.698 1244.66 815.741L1244.67 815.759L1244.68 815.776C1244.69 815.81 1244.7 815.836 1244.75 816.006C1244.78 816.139 1244.84 816.378 1244.99 816.623C1245.11 816.829 1245.26 816.96 1245.31 817.006C1245.32 817.02 1245.33 817.03 1245.34 817.037C1245.56 817.346 1245.86 817.645 1246.07 817.864C1246.14 817.935 1246.2 817.997 1246.25 818.049L1246.27 818.067L1246.28 818.083L1246.3 818.102C1246.61 818.404 1246.95 818.741 1247.4 819.049C1247.41 819.054 1247.42 819.065 1247.44 819.087L1247.45 819.093C1247.49 819.137 1247.58 819.223 1247.7 819.309L1247.74 819.344L1247.8 819.373L1539.06 984.19L1539.08 984.204L1539.11 984.217C1539.28 984.299 1539.43 984.335 1539.5 984.35L1539.51 984.352C1539.54 984.36 1539.56 984.365 1539.57 984.366C1539.82 984.476 1540.12 984.606 1540.43 984.706L1540.44 984.711L1540.45 984.715L1540.47 984.72C1540.76 984.804 1541.09 984.902 1541.43 984.969C1541.77 985.035 1542.07 985.068 1542.36 985.097C1542.44 985.126 1542.63 985.191 1542.87 985.191C1543.09 985.191 1543.26 985.146 1543.36 985.115C1543.38 985.109 1543.39 985.103 1543.41 985.099L1543.41 985.097L1543.43 985.092C1543.71 985.064 1543.99 985.032 1544.31 984.969C1544.65 984.902 1544.99 984.803 1545.27 984.719L1545.29 984.715L1545.3 984.711L1545.32 984.706C1545.63 984.604 1545.94 984.47 1546.19 984.36C1546.2 984.358 1546.2 984.357 1546.21 984.355C1546.22 984.352 1546.24 984.349 1546.26 984.345C1546.29 984.338 1546.33 984.329 1546.37 984.317C1546.4 984.308 1546.44 984.296 1546.48 984.281C1546.53 984.264 1546.58 984.244 1546.63 984.217L1546.66 984.204L1546.69 984.19L1837.93 819.382C1838.14 819.27 1838.28 819.121 1838.33 819.069C1838.34 819.059 1838.35 819.05 1838.36 819.043C1838.76 818.783 1839.09 818.453 1839.34 818.203C1839.38 818.161 1839.42 818.121 1839.46 818.083L1839.49 818.056C1839.78 817.77 1840.12 817.439 1840.4 817.036C1840.41 817.029 1840.42 817.019 1840.43 817.006C1840.49 816.96 1840.63 816.83 1840.75 816.623C1840.9 816.377 1840.96 816.138 1841 816.005C1841.02 815.925 1841.03 815.877 1841.04 815.845C1841.05 815.809 1841.06 815.794 1841.06 815.777L1841.07 815.764L1841.09 815.728C1841.25 815.344 1841.47 814.855 1841.58 814.287C1841.69 813.777 1841.69 813.282 1841.69 812.898V812.864V812.829C1841.69 812.445 1841.69 811.948 1841.58 811.437C1841.46 810.889 1841.24 810.38 1841.08 809.986L1841.07 809.968L1841.06 809.951C1841.05 809.921 1841.04 809.898 1841.01 809.773L1841 809.722C1840.96 809.584 1840.9 809.333 1840.73 809.078C1840.65 808.943 1840.56 808.834 1840.5 808.756C1840.42 808.67 1840.4 808.644 1840.36 808.598C1840.22 808.4 1840.09 808.236 1839.94 808.067C1839.43 807.442 1838.82 806.89 1838.12 806.479L1838.04 806.397L1837.89 806.326L1837.86 806.31L1740.91 751.447C1740.9 751.443 1740.9 751.439 1740.89 751.436L1740.88 751.421L1740.76 751.357L1647.55 698.624V606.014L2013.01 812.805L1542.84 1078.85L1072.7 812.805L1438.16 606.014V698.636L1344.95 751.386ZM1247.41 806.746C1247.41 806.747 1247.41 806.747 1247.41 806.744L1247.41 806.746ZM1543.45 985.085C1543.46 985.084 1543.45 985.085 1543.45 985.086L1543.45 985.085Z" stroke="url(#paint11_linear_607_16)" stroke-opacity="0.2" stroke-width="2"/>
<g filter="url(#filter0_f_607_16)">
<ellipse cx="386" cy="872.5" rx="308" ry="16.5" fill="black" fill-opacity="0.89"/>
</g>
</g>
<defs>
<filter id="filter0_f_607_16" x="-122" y="656" width="1016" height="433" filterUnits="userSpaceOnUse" color-interpolation-filters="sRGB">
<feFlood flood-opacity="0" result="BackgroundImageFix"/>
<feBlend mode="normal" in="SourceGraphic" in2="BackgroundImageFix" result="shape"/>
<feGaussianBlur stdDeviation="100" result="effect1_foregroundBlur_607_16"/>
</filter>
<linearGradient id="paint0_linear_607_16" x1="401.58" y1="554.069" x2="615.301" y2="554.069" gradientUnits="userSpaceOnUse">
<stop stop-color="#002B99"/>
<stop offset="0.604167" stop-color="#8000FF"/>
<stop offset="1" stop-color="#F300F8"/>
</linearGradient>
<linearGradient id="paint1_linear_607_16" x1="180.339" y1="554.086" x2="394.06" y2="554.086" gradientUnits="userSpaceOnUse">
<stop stop-color="#002B99"/>
<stop offset="0.604167" stop-color="#8000FF"/>
<stop offset="1" stop-color="#F300F8"/>
</linearGradient>
<linearGradient id="paint2_linear_607_16" x1="184.09" y1="380.205" x2="611.482" y2="380.205" gradientUnits="userSpaceOnUse">
<stop stop-color="#002B99"/>
<stop offset="0.604167" stop-color="#8000FF"/>
<stop offset="1" stop-color="#F300F8"/>
</linearGradient>
<linearGradient id="paint3_linear_607_16" x1="125" y1="409.931" x2="394.044" y2="409.931" gradientUnits="userSpaceOnUse">
<stop stop-color="#002B99"/>
<stop offset="0.604167" stop-color="#8000FF"/>
<stop offset="1" stop-color="#F300F8"/>
</linearGradient>
<linearGradient id="paint4_linear_607_16" x1="401.563" y1="409.931" x2="670.624" y2="409.931" gradientUnits="userSpaceOnUse">
<stop stop-color="#002B99"/>
<stop offset="0.604167" stop-color="#8000FF"/>
<stop offset="1" stop-color="#F300F8"/>
</linearGradient>
<linearGradient id="paint5_linear_607_16" x1="128.802" y1="667.326" x2="666.873" y2="667.326" gradientUnits="userSpaceOnUse">
<stop stop-color="#002B99"/>
<stop offset="0.604167" stop-color="#8000FF"/>
<stop offset="1" stop-color="#F300F8"/>
</linearGradient>
<linearGradient id="paint6_linear_607_16" x1="1549.43" y1="645.213" x2="1924.53" y2="645.213" gradientUnits="userSpaceOnUse">
<stop stop-color="#002B99"/>
<stop offset="0.604167" stop-color="#8000FF"/>
<stop offset="1" stop-color="#F300F8"/>
</linearGradient>
<linearGradient id="paint7_linear_607_16" x1="1161.13" y1="645.244" x2="1536.23" y2="645.244" gradientUnits="userSpaceOnUse">
<stop stop-color="#002B99"/>
<stop offset="0.604167" stop-color="#8000FF"/>
<stop offset="1" stop-color="#F300F8"/>
</linearGradient>
<linearGradient id="paint8_linear_607_16" x1="1167.71" y1="346.124" x2="1917.82" y2="346.124" gradientUnits="userSpaceOnUse">
<stop stop-color="#002B99"/>
<stop offset="0.604167" stop-color="#8000FF"/>
<stop offset="1" stop-color="#F300F8"/>
</linearGradient>
<linearGradient id="paint9_linear_607_16" x1="1064" y1="397.26" x2="1536.2" y2="397.26" gradientUnits="userSpaceOnUse">
<stop stop-color="#002B99"/>
<stop offset="0.604167" stop-color="#8000FF"/>
<stop offset="1" stop-color="#F300F8"/>
</linearGradient>
<linearGradient id="paint10_linear_607_16" x1="1549.4" y1="397.26" x2="2021.62" y2="397.26" gradientUnits="userSpaceOnUse">
<stop stop-color="#002B99"/>
<stop offset="0.604167" stop-color="#8000FF"/>
<stop offset="1" stop-color="#F300F8"/>
</linearGradient>
<linearGradient id="paint11_linear_607_16" x1="1070.67" y1="840.045" x2="2015.04" y2="840.045" gradientUnits="userSpaceOnUse">
<stop stop-color="#002B99"/>
<stop offset="0.604167" stop-color="#8000FF"/>
<stop offset="1" stop-color="#F300F8"/>
</linearGradient>
<clipPath id="clip0_607_16">
<rect width="1920" height="1080" fill="white"/>
</clipPath>
</defs>
</svg>
