<svg width="2560" height="1440" viewBox="0 0 2560 1440" fill="none" xmlns="http://www.w3.org/2000/svg">
<g clip-path="url(#clip0_89_152)">
<rect width="2560" height="1440" fill="url(#paint0_linear_89_152)" fill-opacity="0.4"/>
<g filter="url(#filter0_ddddd_89_152)">
<path d="M926.844 1307.6L537.27 636.903C533.409 630.256 523.772 630.282 519.923 636.948L131.52 1309.68C127.671 1316.35 132.496 1324.66 140.206 1324.64L918.184 1322.6C925.894 1322.58 930.705 1314.25 926.844 1307.6Z" stroke="white" stroke-width="6" shape-rendering="crispEdges"/>
</g>
<g filter="url(#filter1_ddddd_89_152)">
<path d="M3077.84 359.143L2688.27 -311.556C2684.41 -318.203 2674.77 -318.177 2670.92 -311.511L2282.52 361.224C2278.67 367.891 2283.5 376.199 2291.21 376.179L3069.18 374.143C3076.89 374.123 3081.7 365.79 3077.84 359.143Z" stroke="white" stroke-width="6" shape-rendering="crispEdges"/>
</g>
<path d="M1273 1874L2467.25 -170.5H78.751L1273 1874Z" fill="white"/>
<g filter="url(#filter2_ddddd_89_152)">
<path d="M2428.84 1307.6L2039.27 636.903C2035.41 630.256 2025.77 630.282 2021.92 636.948L1633.52 1309.68C1629.67 1316.35 1634.5 1324.66 1642.21 1324.64L2420.18 1322.6C2427.89 1322.58 2432.7 1314.25 2428.84 1307.6Z" stroke="white" stroke-width="6" shape-rendering="crispEdges"/>
</g>
<g filter="url(#filter3_ddddd_89_152)">
<path d="M306.844 359.602L-82.7302 -311.097C-86.5907 -317.744 -96.2278 -317.718 -100.077 -311.052L-488.48 361.683C-492.329 368.35 -487.504 376.658 -479.794 376.638L298.184 374.602C305.894 374.582 310.705 366.249 306.844 359.602Z" stroke="white" stroke-width="6" shape-rendering="crispEdges"/>
</g>
<path d="M62.0362 1189.11L387.466 622.029C391.291 615.362 386.451 607.029 378.753 607.029H-276.065C-283.763 607.029 -288.545 615.362 -284.673 622.029L44.7157 1189.11C48.588 1195.78 58.2105 1195.78 62.0362 1189.11Z" stroke="white" stroke-width="6"/>
<path d="M62.6089 1353.11L529.205 540.031C533.031 533.364 528.19 525.031 520.492 525.031H-418.376C-426.074 525.031 -430.857 533.364 -426.984 540.031L45.2883 1353.11C49.1606 1359.78 58.7832 1359.78 62.6089 1353.11Z" stroke="white" stroke-opacity="0.1" stroke-width="6"/>
<path d="M62.4924 1319.8L500.414 556.687C504.239 550.02 499.399 541.687 491.701 541.687H-389.469C-397.167 541.687 -401.949 550.02 -398.077 556.687L45.1719 1319.8C49.0441 1326.46 58.6667 1326.46 62.4924 1319.8Z" stroke="white" stroke-opacity="0.2" stroke-width="6"/>
<path d="M62.3878 1289.64L474.353 571.764C478.179 565.097 473.338 556.764 465.64 556.764H-363.302C-371 556.764 -375.782 565.097 -371.91 571.764L45.0672 1289.64C48.9395 1296.31 58.562 1296.31 62.3878 1289.64Z" stroke="white" stroke-opacity="0.4" stroke-width="6"/>
<path d="M62.2702 1256.19L445.436 588.492C449.262 581.825 444.422 573.492 436.724 573.492H-334.27C-341.968 573.492 -346.75 581.825 -342.878 588.492L44.9497 1256.19C48.822 1262.85 58.4445 1262.85 62.2702 1256.19Z" stroke="white" stroke-opacity="0.6" stroke-width="6"/>
<path d="M62.157 1223.79L417.432 604.692C421.258 598.026 416.418 589.692 408.72 589.692H-306.153C-313.851 589.692 -318.633 598.026 -314.761 604.692L44.8365 1223.79C48.7087 1230.45 58.3312 1230.45 62.157 1223.79Z" stroke="white" stroke-opacity="0.8" stroke-width="6"/>
<path d="M2570.04 1189.11L2895.47 622.029C2899.29 615.362 2894.45 607.029 2886.75 607.029H2231.93C2224.24 607.029 2219.45 615.362 2223.33 622.029L2552.72 1189.11C2556.59 1195.78 2566.21 1195.78 2570.04 1189.11Z" stroke="white" stroke-width="6"/>
<path d="M2570.61 1353.11L3037.2 540.031C3041.03 533.364 3036.19 525.031 3028.49 525.031H2089.62C2081.93 525.031 2077.14 533.364 2081.02 540.031L2553.29 1353.11C2557.16 1359.78 2566.78 1359.78 2570.61 1353.11Z" stroke="white" stroke-opacity="0.1" stroke-width="6"/>
<path d="M2570.49 1319.8L3008.41 556.687C3012.24 550.02 3007.4 541.687 2999.7 541.687H2118.53C2110.83 541.687 2106.05 550.02 2109.92 556.687L2553.17 1319.8C2557.04 1326.46 2566.67 1326.46 2570.49 1319.8Z" stroke="white" stroke-opacity="0.2" stroke-width="6"/>
<path d="M2570.39 1289.64L2982.35 571.764C2986.18 565.097 2981.34 556.764 2973.64 556.764H2144.7C2137 556.764 2132.22 565.097 2136.09 571.764L2553.07 1289.64C2556.94 1296.31 2566.56 1296.31 2570.39 1289.64Z" stroke="white" stroke-opacity="0.4" stroke-width="6"/>
<path d="M2570.27 1256.19L2953.44 588.492C2957.26 581.825 2952.42 573.492 2944.72 573.492H2173.73C2166.03 573.492 2161.25 581.825 2165.12 588.492L2552.95 1256.19C2556.82 1262.85 2566.44 1262.85 2570.27 1256.19Z" stroke="white" stroke-opacity="0.6" stroke-width="6"/>
<path d="M2570.16 1223.79L2925.43 604.692C2929.26 598.026 2924.42 589.692 2916.72 589.692H2201.85C2194.15 589.692 2189.37 598.026 2193.24 604.692L2552.84 1223.79C2556.71 1230.45 2566.33 1230.45 2570.16 1223.79Z" stroke="white" stroke-opacity="0.8" stroke-width="6"/>
</g>
<rect x="0.5" y="0.5" width="2559" height="1439" stroke="black"/>
<defs>
<filter id="filter0_ddddd_89_152" x="2.1582" y="628.938" width="929.056" height="823.696" filterUnits="userSpaceOnUse" color-interpolation-filters="sRGB">
<feFlood flood-opacity="0" result="BackgroundImageFix"/>
<feColorMatrix in="SourceAlpha" type="matrix" values="0 0 0 0 0 0 0 0 0 0 0 0 0 0 0 0 0 0 127 0" result="hardAlpha"/>
<feOffset dx="-25" dy="25"/>
<feComposite in2="hardAlpha" operator="out"/>
<feColorMatrix type="matrix" values="0 0 0 0 1 0 0 0 0 1 0 0 0 0 1 0 0 0 1 0"/>
<feBlend mode="normal" in2="BackgroundImageFix" result="effect1_dropShadow_89_152"/>
<feColorMatrix in="SourceAlpha" type="matrix" values="0 0 0 0 0 0 0 0 0 0 0 0 0 0 0 0 0 0 127 0" result="hardAlpha"/>
<feOffset dx="-50" dy="50"/>
<feComposite in2="hardAlpha" operator="out"/>
<feColorMatrix type="matrix" values="0 0 0 0 1 0 0 0 0 1 0 0 0 0 1 0 0 0 0.8 0"/>
<feBlend mode="normal" in2="effect1_dropShadow_89_152" result="effect2_dropShadow_89_152"/>
<feColorMatrix in="SourceAlpha" type="matrix" values="0 0 0 0 0 0 0 0 0 0 0 0 0 0 0 0 0 0 127 0" result="hardAlpha"/>
<feOffset dx="-75" dy="75"/>
<feComposite in2="hardAlpha" operator="out"/>
<feColorMatrix type="matrix" values="0 0 0 0 1 0 0 0 0 1 0 0 0 0 1 0 0 0 0.6 0"/>
<feBlend mode="normal" in2="effect2_dropShadow_89_152" result="effect3_dropShadow_89_152"/>
<feColorMatrix in="SourceAlpha" type="matrix" values="0 0 0 0 0 0 0 0 0 0 0 0 0 0 0 0 0 0 127 0" result="hardAlpha"/>
<feOffset dx="-100" dy="100"/>
<feComposite in2="hardAlpha" operator="out"/>
<feColorMatrix type="matrix" values="0 0 0 0 1 0 0 0 0 1 0 0 0 0 1 0 0 0 0.4 0"/>
<feBlend mode="normal" in2="effect3_dropShadow_89_152" result="effect4_dropShadow_89_152"/>
<feColorMatrix in="SourceAlpha" type="matrix" values="0 0 0 0 0 0 0 0 0 0 0 0 0 0 0 0 0 0 127 0" result="hardAlpha"/>
<feOffset dx="-125" dy="125"/>
<feComposite in2="hardAlpha" operator="out"/>
<feColorMatrix type="matrix" values="0 0 0 0 1 0 0 0 0 1 0 0 0 0 1 0 0 0 0.2 0"/>
<feBlend mode="normal" in2="effect4_dropShadow_89_152" result="effect5_dropShadow_89_152"/>
<feBlend mode="normal" in="SourceGraphic" in2="effect5_dropShadow_89_152" result="shape"/>
</filter>
<filter id="filter1_ddddd_89_152" x="2153.16" y="-319.521" width="929.056" height="823.696" filterUnits="userSpaceOnUse" color-interpolation-filters="sRGB">
<feFlood flood-opacity="0" result="BackgroundImageFix"/>
<feColorMatrix in="SourceAlpha" type="matrix" values="0 0 0 0 0 0 0 0 0 0 0 0 0 0 0 0 0 0 127 0" result="hardAlpha"/>
<feOffset dx="-25" dy="25"/>
<feComposite in2="hardAlpha" operator="out"/>
<feColorMatrix type="matrix" values="0 0 0 0 1 0 0 0 0 1 0 0 0 0 1 0 0 0 1 0"/>
<feBlend mode="normal" in2="BackgroundImageFix" result="effect1_dropShadow_89_152"/>
<feColorMatrix in="SourceAlpha" type="matrix" values="0 0 0 0 0 0 0 0 0 0 0 0 0 0 0 0 0 0 127 0" result="hardAlpha"/>
<feOffset dx="-50" dy="50"/>
<feComposite in2="hardAlpha" operator="out"/>
<feColorMatrix type="matrix" values="0 0 0 0 1 0 0 0 0 1 0 0 0 0 1 0 0 0 0.8 0"/>
<feBlend mode="normal" in2="effect1_dropShadow_89_152" result="effect2_dropShadow_89_152"/>
<feColorMatrix in="SourceAlpha" type="matrix" values="0 0 0 0 0 0 0 0 0 0 0 0 0 0 0 0 0 0 127 0" result="hardAlpha"/>
<feOffset dx="-75" dy="75"/>
<feComposite in2="hardAlpha" operator="out"/>
<feColorMatrix type="matrix" values="0 0 0 0 1 0 0 0 0 1 0 0 0 0 1 0 0 0 0.6 0"/>
<feBlend mode="normal" in2="effect2_dropShadow_89_152" result="effect3_dropShadow_89_152"/>
<feColorMatrix in="SourceAlpha" type="matrix" values="0 0 0 0 0 0 0 0 0 0 0 0 0 0 0 0 0 0 127 0" result="hardAlpha"/>
<feOffset dx="-100" dy="100"/>
<feComposite in2="hardAlpha" operator="out"/>
<feColorMatrix type="matrix" values="0 0 0 0 1 0 0 0 0 1 0 0 0 0 1 0 0 0 0.4 0"/>
<feBlend mode="normal" in2="effect3_dropShadow_89_152" result="effect4_dropShadow_89_152"/>
<feColorMatrix in="SourceAlpha" type="matrix" values="0 0 0 0 0 0 0 0 0 0 0 0 0 0 0 0 0 0 127 0" result="hardAlpha"/>
<feOffset dx="-125" dy="125"/>
<feComposite in2="hardAlpha" operator="out"/>
<feColorMatrix type="matrix" values="0 0 0 0 1 0 0 0 0 1 0 0 0 0 1 0 0 0 0.2 0"/>
<feBlend mode="normal" in2="effect4_dropShadow_89_152" result="effect5_dropShadow_89_152"/>
<feBlend mode="normal" in="SourceGraphic" in2="effect5_dropShadow_89_152" result="shape"/>
</filter>
<filter id="filter2_ddddd_89_152" x="1629.16" y="628.938" width="929.056" height="823.696" filterUnits="userSpaceOnUse" color-interpolation-filters="sRGB">
<feFlood flood-opacity="0" result="BackgroundImageFix"/>
<feColorMatrix in="SourceAlpha" type="matrix" values="0 0 0 0 0 0 0 0 0 0 0 0 0 0 0 0 0 0 127 0" result="hardAlpha"/>
<feOffset dx="25" dy="25"/>
<feComposite in2="hardAlpha" operator="out"/>
<feColorMatrix type="matrix" values="0 0 0 0 1 0 0 0 0 1 0 0 0 0 1 0 0 0 1 0"/>
<feBlend mode="normal" in2="BackgroundImageFix" result="effect1_dropShadow_89_152"/>
<feColorMatrix in="SourceAlpha" type="matrix" values="0 0 0 0 0 0 0 0 0 0 0 0 0 0 0 0 0 0 127 0" result="hardAlpha"/>
<feOffset dx="50" dy="50"/>
<feComposite in2="hardAlpha" operator="out"/>
<feColorMatrix type="matrix" values="0 0 0 0 1 0 0 0 0 1 0 0 0 0 1 0 0 0 0.8 0"/>
<feBlend mode="normal" in2="effect1_dropShadow_89_152" result="effect2_dropShadow_89_152"/>
<feColorMatrix in="SourceAlpha" type="matrix" values="0 0 0 0 0 0 0 0 0 0 0 0 0 0 0 0 0 0 127 0" result="hardAlpha"/>
<feOffset dx="75" dy="75"/>
<feComposite in2="hardAlpha" operator="out"/>
<feColorMatrix type="matrix" values="0 0 0 0 1 0 0 0 0 1 0 0 0 0 1 0 0 0 0.6 0"/>
<feBlend mode="normal" in2="effect2_dropShadow_89_152" result="effect3_dropShadow_89_152"/>
<feColorMatrix in="SourceAlpha" type="matrix" values="0 0 0 0 0 0 0 0 0 0 0 0 0 0 0 0 0 0 127 0" result="hardAlpha"/>
<feOffset dx="100" dy="100"/>
<feComposite in2="hardAlpha" operator="out"/>
<feColorMatrix type="matrix" values="0 0 0 0 1 0 0 0 0 1 0 0 0 0 1 0 0 0 0.4 0"/>
<feBlend mode="normal" in2="effect3_dropShadow_89_152" result="effect4_dropShadow_89_152"/>
<feColorMatrix in="SourceAlpha" type="matrix" values="0 0 0 0 0 0 0 0 0 0 0 0 0 0 0 0 0 0 127 0" result="hardAlpha"/>
<feOffset dx="125" dy="125"/>
<feComposite in2="hardAlpha" operator="out"/>
<feColorMatrix type="matrix" values="0 0 0 0 1 0 0 0 0 1 0 0 0 0 1 0 0 0 0.2 0"/>
<feBlend mode="normal" in2="effect4_dropShadow_89_152" result="effect5_dropShadow_89_152"/>
<feBlend mode="normal" in="SourceGraphic" in2="effect5_dropShadow_89_152" result="shape"/>
</filter>
<filter id="filter3_ddddd_89_152" x="-492.842" y="-319.062" width="929.056" height="823.696" filterUnits="userSpaceOnUse" color-interpolation-filters="sRGB">
<feFlood flood-opacity="0" result="BackgroundImageFix"/>
<feColorMatrix in="SourceAlpha" type="matrix" values="0 0 0 0 0 0 0 0 0 0 0 0 0 0 0 0 0 0 127 0" result="hardAlpha"/>
<feOffset dx="25" dy="25"/>
<feComposite in2="hardAlpha" operator="out"/>
<feColorMatrix type="matrix" values="0 0 0 0 1 0 0 0 0 1 0 0 0 0 1 0 0 0 1 0"/>
<feBlend mode="normal" in2="BackgroundImageFix" result="effect1_dropShadow_89_152"/>
<feColorMatrix in="SourceAlpha" type="matrix" values="0 0 0 0 0 0 0 0 0 0 0 0 0 0 0 0 0 0 127 0" result="hardAlpha"/>
<feOffset dx="50" dy="50"/>
<feComposite in2="hardAlpha" operator="out"/>
<feColorMatrix type="matrix" values="0 0 0 0 1 0 0 0 0 1 0 0 0 0 1 0 0 0 0.8 0"/>
<feBlend mode="normal" in2="effect1_dropShadow_89_152" result="effect2_dropShadow_89_152"/>
<feColorMatrix in="SourceAlpha" type="matrix" values="0 0 0 0 0 0 0 0 0 0 0 0 0 0 0 0 0 0 127 0" result="hardAlpha"/>
<feOffset dx="75" dy="75"/>
<feComposite in2="hardAlpha" operator="out"/>
<feColorMatrix type="matrix" values="0 0 0 0 1 0 0 0 0 1 0 0 0 0 1 0 0 0 0.6 0"/>
<feBlend mode="normal" in2="effect2_dropShadow_89_152" result="effect3_dropShadow_89_152"/>
<feColorMatrix in="SourceAlpha" type="matrix" values="0 0 0 0 0 0 0 0 0 0 0 0 0 0 0 0 0 0 127 0" result="hardAlpha"/>
<feOffset dx="100" dy="100"/>
<feComposite in2="hardAlpha" operator="out"/>
<feColorMatrix type="matrix" values="0 0 0 0 1 0 0 0 0 1 0 0 0 0 1 0 0 0 0.4 0"/>
<feBlend mode="normal" in2="effect3_dropShadow_89_152" result="effect4_dropShadow_89_152"/>
<feColorMatrix in="SourceAlpha" type="matrix" values="0 0 0 0 0 0 0 0 0 0 0 0 0 0 0 0 0 0 127 0" result="hardAlpha"/>
<feOffset dx="125" dy="125"/>
<feComposite in2="hardAlpha" operator="out"/>
<feColorMatrix type="matrix" values="0 0 0 0 1 0 0 0 0 1 0 0 0 0 1 0 0 0 0.2 0"/>
<feBlend mode="normal" in2="effect4_dropShadow_89_152" result="effect5_dropShadow_89_152"/>
<feBlend mode="normal" in="SourceGraphic" in2="effect5_dropShadow_89_152" result="shape"/>
</filter>
<linearGradient id="paint0_linear_89_152" x1="1280" y1="0" x2="1280" y2="1440" gradientUnits="userSpaceOnUse">
<stop stop-color="#EB26CE"/>
<stop offset="1" stop-color="#012B99"/>
</linearGradient>
<clipPath id="clip0_89_152">
<rect width="2560" height="1440" fill="white"/>
</clipPath>
</defs>
</svg>
