<svg width="1920" height="1080" viewBox="0 0 1920 1080" fill="none" xmlns="http://www.w3.org/2000/svg">
<g clip-path="url(#clip0_618_367)">
<rect width="1920" height="1080" fill="white"/>
<g filter="url(#filter0_d_618_367)">
<path d="M583.854 724.376C588.858 733.043 582.603 743.876 572.596 743.876L53.3965 743.876C43.3891 743.876 37.1345 733.043 42.1382 724.376L301.738 274.736C306.741 266.07 319.251 266.07 324.254 274.736L583.854 724.376Z" fill="url(#paint0_linear_618_367)"/>
</g>
<g filter="url(#filter1_d_618_367)">
<path d="M1582.6 274.5C1587.56 265.833 1600.07 265.833 1605.11 274.5L1866.91 724.134C1871.96 732.801 1865.76 743.634 1855.75 743.634H1336.55C1326.54 743.634 1320.23 732.801 1325.19 724.134L1582.6 274.5Z" fill="url(#paint1_linear_618_367)"/>
</g>
<g filter="url(#filter2_d_618_367)">
<path d="M-28.292 733.016C-23.258 741.683 -10.7488 741.683 -5.77531 733.016L252.255 283.379C257.228 274.712 250.936 263.879 240.929 263.879L-278.271 263.879C-288.278 263.879 -294.495 274.712 -289.461 283.379L-28.292 733.016Z" fill="url(#paint2_linear_618_367)"/>
</g>
<g filter="url(#filter3_dddd_618_367)">
<path d="M73.6992 845.688V844.688H72.303L72.7524 846.009L73.6992 845.688ZM90.457 845.688L91.4092 845.382L91.1864 844.688H90.457V845.688ZM109.5 905.043L108.548 905.348L109.5 908.316L110.452 905.348L109.5 905.043ZM128.543 845.688V844.688H127.814L127.591 845.382L128.543 845.688ZM145.301 845.688L146.248 846.009L146.697 844.688H145.301V845.688ZM116.297 931V932H117.013L117.244 931.322L116.297 931ZM102.703 931L101.756 931.322L101.987 932H102.703V931ZM63.5039 845.688V844.688H62.5039V845.688H63.5039ZM80.8477 845.688L81.8464 845.638L81.7996 844.688H80.8477V845.688ZM84.0703 911.078H85.0703V911.053L85.0691 911.029L84.0703 911.078ZM84.0703 931V932H85.0703V931H84.0703ZM63.5039 931H62.5039V932H63.5039V931ZM138.152 845.688V844.688H137.2L137.154 845.638L138.152 845.688ZM155.555 845.688H156.555V844.688H155.555V845.688ZM155.555 931V932H156.555V931H155.555ZM134.93 931H133.93V932H134.93V931ZM134.93 911.078L133.931 911.029L133.93 911.053V911.078H134.93ZM73.6992 846.688H90.457V844.688H73.6992V846.688ZM89.5048 845.993L108.548 905.348L110.452 904.737L91.4092 845.382L89.5048 845.993ZM110.452 905.348L129.495 845.993L127.591 845.382L108.548 904.737L110.452 905.348ZM128.543 846.688H145.301V844.688H128.543V846.688ZM144.354 845.366L115.35 930.678L117.244 931.322L146.248 846.009L144.354 845.366ZM116.297 930H102.703V932H116.297V930ZM103.65 930.678L74.646 845.366L72.7524 846.009L101.756 931.322L103.65 930.678ZM63.5039 846.688H80.8477V844.688H63.5039V846.688ZM79.8489 845.737L83.0715 911.127L85.0691 911.029L81.8464 845.638L79.8489 845.737ZM83.0703 911.078V931H85.0703V911.078H83.0703ZM84.0703 930H63.5039V932H84.0703V930ZM64.5039 931V845.688H62.5039V931H64.5039ZM138.152 846.688H155.555V844.688H138.152V846.688ZM154.555 845.688V931H156.555V845.688H154.555ZM155.555 930H134.93V932H155.555V930ZM135.93 931V911.078H133.93V931H135.93ZM135.928 911.127L139.151 845.737L137.154 845.638L133.931 911.029L135.928 911.127ZM255.745 863.617L256.701 863.912L256.725 863.834L256.736 863.753L255.745 863.617ZM234.945 931V932H235.682L235.9 931.295L234.945 931ZM212.855 931L211.916 930.655L211.422 932H212.855V931ZM244.202 845.688V844.688H243.504L243.264 845.343L244.202 845.688ZM258.206 845.688L259.197 845.823L259.353 844.688H258.206V845.688ZM272.972 931L272.017 931.296L272.235 932H272.972V931ZM252.113 863.617L251.124 863.766L251.135 863.841L251.157 863.913L252.113 863.617ZM249.417 845.688V844.688H248.256L248.428 845.836L249.417 845.688ZM263.597 845.688L264.535 845.341L264.293 844.688H263.597V845.688ZM295.12 931V932H296.556L296.058 930.653L295.12 931ZM272.152 899.184H273.152V898.184H272.152V899.184ZM272.152 915.062V916.062H273.152V915.062H272.152ZM228.382 915.062H227.382V916.062H228.382V915.062ZM228.382 899.184V898.184H227.382V899.184H228.382ZM254.79 863.322L233.989 930.705L235.9 931.295L256.701 863.912L254.79 863.322ZM234.945 930H212.855V932H234.945V930ZM213.793 931.345L245.141 846.032L243.264 845.343L211.916 930.655L213.793 931.345ZM244.202 846.688H258.206V844.688H244.202V846.688ZM257.216 845.552L254.755 863.481L256.736 863.753L259.197 845.823L257.216 845.552ZM273.927 930.704L253.068 863.321L251.157 863.913L272.017 931.296L273.927 930.704ZM253.101 863.469L250.406 845.539L248.428 845.836L251.124 863.766L253.101 863.469ZM249.417 846.688H263.597V844.688H249.417V846.688ZM262.659 846.034L294.182 931.347L296.058 930.653L264.535 845.341L262.659 846.034ZM295.12 930H272.972V932H295.12V930ZM271.152 899.184V915.062H273.152V899.184H271.152ZM272.152 914.062H228.382V916.062H272.152V914.062ZM229.382 915.062V899.184H227.382V915.062H229.382ZM228.382 900.184H272.152V898.184H228.382V900.184ZM371.756 845.688H372.756V844.688H371.756V845.688ZM371.756 931V932H372.756V931H371.756ZM351.19 931H350.19V932H351.19V931ZM351.19 845.688V844.688H350.19V845.688H351.19ZM422.674 845.688L423.469 846.295L424.697 844.688H422.674V845.688ZM389.627 888.93L390.365 889.604L390.395 889.572L390.422 889.537L389.627 888.93ZM370.291 910.082L369.311 910.277L369.696 912.216L371.03 910.757L370.291 910.082ZM366.541 891.215L365.707 890.664L365.481 891.007L365.561 891.41L366.541 891.215ZM378.905 872.465L378.081 871.899L378.075 871.906L378.07 871.914L378.905 872.465ZM397.303 845.688V844.688H396.777L396.479 845.121L397.303 845.688ZM398.358 931L397.49 931.497L397.778 932H398.358V931ZM376.327 892.562L375.734 891.757L375.015 892.286L375.459 893.06L376.327 892.562ZM392.323 880.785L393.178 880.268L392.612 879.33L391.73 879.98L392.323 880.785ZM422.674 931V932H424.447L423.53 930.483L422.674 931ZM370.756 845.688V931H372.756V845.688H370.756ZM371.756 930H351.19V932H371.756V930ZM352.19 931V845.688H350.19V931H352.19ZM351.19 846.688H371.756V844.688H351.19V846.688ZM421.88 845.08L388.833 888.322L390.422 889.537L423.469 846.295L421.88 845.08ZM388.889 888.255L369.553 909.407L371.03 910.757L390.365 889.604L388.889 888.255ZM371.272 909.887L367.522 891.02L365.561 891.41L369.311 910.277L371.272 909.887ZM367.376 891.765L379.74 873.015L378.07 871.914L365.707 890.664L367.376 891.765ZM379.729 873.031L398.127 846.254L396.479 845.121L378.081 871.899L379.729 873.031ZM397.303 846.688H422.674V844.688H397.303V846.688ZM399.225 930.503L377.194 892.065L375.459 893.06L397.49 931.497L399.225 930.503ZM376.919 893.368L392.916 881.59L391.73 879.98L375.734 891.757L376.919 893.368ZM391.467 881.302L421.818 931.517L423.53 930.483L393.178 880.268L391.467 881.302ZM422.674 930H398.358V932H422.674V930ZM536.459 915.18H537.459V914.18H536.459V915.18ZM536.459 931V932H537.459V931H536.459ZM490.99 931H489.99V932H490.99V931ZM490.99 915.18V914.18H489.99V915.18H490.99ZM498.314 845.688H499.314V844.688H498.314V845.688ZM498.314 931V932H499.314V931H498.314ZM477.748 931H476.748V932H477.748V931ZM477.748 845.688V844.688H476.748V845.688H477.748ZM530.599 879.555H531.599V878.555H530.599V879.555ZM530.599 894.848V895.848H531.599V894.848H530.599ZM490.99 894.848H489.99V895.848H490.99V894.848ZM490.99 879.555V878.555H489.99V879.555H490.99ZM536.634 845.688H537.634V844.688H536.634V845.688ZM536.634 861.566V862.566H537.634V861.566H536.634ZM490.99 861.566H489.99V862.566H490.99V861.566ZM490.99 845.688V844.688H489.99V845.688H490.99ZM535.459 915.18V931H537.459V915.18H535.459ZM536.459 930H490.99V932H536.459V930ZM491.99 931V915.18H489.99V931H491.99ZM490.99 916.18H536.459V914.18H490.99V916.18ZM497.314 845.688V931H499.314V845.688H497.314ZM498.314 930H477.748V932H498.314V930ZM478.748 931V845.688H476.748V931H478.748ZM477.748 846.688H498.314V844.688H477.748V846.688ZM529.599 879.555V894.848H531.599V879.555H529.599ZM530.599 893.848H490.99V895.848H530.599V893.848ZM491.99 894.848V879.555H489.99V894.848H491.99ZM490.99 880.555H530.599V878.555H490.99V880.555ZM535.634 845.688V861.566H537.634V845.688H535.634ZM536.634 860.566H490.99V862.566H536.634V860.566ZM491.99 861.566V845.688H489.99V861.566H491.99ZM490.99 846.688H536.634V844.688H490.99V846.688ZM696.234 845.688H697.234V844.688H696.234V845.688ZM696.234 931V932H697.234V931H696.234ZM675.727 931H674.727V932H675.727V931ZM675.727 845.688V844.688H674.727V845.688H675.727ZM695.234 845.688V931H697.234V845.688H695.234ZM696.234 930H675.727V932H696.234V930ZM676.727 931V845.688H674.727V931H676.727ZM675.727 846.688H696.234V844.688H675.727V846.688ZM800.058 845.688H801.058V844.688H800.058V845.688ZM800.058 931V932H801.058V931H800.058ZM779.491 931H778.491V932H779.491V931ZM779.491 845.688V844.688H778.491V845.688H779.491ZM825.722 845.688H826.722V844.688H825.722V845.688ZM825.722 861.566V862.566H826.722V861.566H825.722ZM754.413 861.566H753.413V862.566H754.413V861.566ZM754.413 845.688V844.688H753.413V845.688H754.413ZM799.058 845.688V931H801.058V845.688H799.058ZM800.058 930H779.491V932H800.058V930ZM780.491 931V845.688H778.491V931H780.491ZM779.491 846.688H800.058V844.688H779.491V846.688ZM824.722 845.688V861.566H826.722V845.688H824.722ZM825.722 860.566H754.413V862.566H825.722V860.566ZM755.413 861.566V845.688H753.413V861.566H755.413ZM754.413 846.688H825.722V844.688H754.413V846.688Z" fill="black"/>
</g>
<path d="M998.634 902.055H977.423V886.176H998.634C1001.52 886.176 1003.87 885.688 1005.66 884.711C1007.46 883.734 1008.77 882.387 1009.59 880.668C1010.45 878.91 1010.88 876.938 1010.88 874.75C1010.88 872.406 1010.45 870.238 1009.59 868.246C1008.77 866.254 1007.46 864.652 1005.66 863.441C1003.87 862.191 1001.52 861.566 998.634 861.566H985.157V931H964.591V845.688H998.634C1005.47 845.688 1011.35 846.938 1016.27 849.438C1021.23 851.938 1025.04 855.375 1027.7 859.75C1030.35 864.086 1031.68 869.047 1031.68 874.633C1031.68 880.141 1030.35 884.945 1027.7 889.047C1025.04 893.148 1021.23 896.352 1016.27 898.656C1011.35 900.922 1005.47 902.055 998.634 902.055ZM1164.74 886.645V890.102C1164.74 896.625 1163.82 902.484 1161.99 907.68C1160.19 912.836 1157.63 917.25 1154.31 920.922C1150.99 924.555 1147.07 927.348 1142.54 929.301C1138 931.215 1133 932.172 1127.54 932.172C1122.03 932.172 1116.99 931.215 1112.42 929.301C1107.89 927.348 1103.94 924.555 1100.58 920.922C1097.26 917.25 1094.68 912.836 1092.85 907.68C1091.05 902.484 1090.15 896.625 1090.15 890.102V886.645C1090.15 880.121 1091.05 874.262 1092.85 869.066C1094.68 863.871 1097.24 859.457 1100.52 855.824C1103.84 852.152 1107.77 849.359 1112.3 847.445C1116.87 845.492 1121.91 844.516 1127.42 844.516C1132.89 844.516 1137.89 845.492 1142.42 847.445C1146.99 849.359 1150.93 852.152 1154.25 855.824C1157.57 859.457 1160.15 863.871 1161.99 869.066C1163.82 874.262 1164.74 880.121 1164.74 886.645ZM1143.88 890.102V886.527C1143.88 882.309 1143.51 878.598 1142.77 875.395C1142.07 872.152 1141.01 869.438 1139.61 867.25C1138.2 865.062 1136.46 863.422 1134.39 862.328C1132.36 861.195 1130.04 860.629 1127.42 860.629C1124.68 860.629 1122.3 861.195 1120.27 862.328C1118.24 863.422 1116.54 865.062 1115.17 867.25C1113.8 869.438 1112.77 872.152 1112.07 875.395C1111.4 878.598 1111.07 882.309 1111.07 886.527V890.102C1111.07 894.281 1111.4 897.992 1112.07 901.234C1112.77 904.438 1113.8 907.152 1115.17 909.379C1116.58 911.605 1118.3 913.285 1120.33 914.418C1122.4 915.551 1124.8 916.117 1127.54 916.117C1130.15 916.117 1132.48 915.551 1134.51 914.418C1136.54 913.285 1138.24 911.605 1139.61 909.379C1141.01 907.152 1142.07 904.438 1142.77 901.234C1143.51 897.992 1143.88 894.281 1143.88 890.102ZM1269.15 908.324C1269.15 906.996 1268.96 905.805 1268.57 904.75C1268.18 903.656 1267.45 902.641 1266.4 901.703C1265.34 900.766 1263.82 899.828 1261.83 898.891C1259.87 897.914 1257.3 896.898 1254.09 895.844C1250.34 894.594 1246.73 893.188 1243.25 891.625C1239.78 890.023 1236.67 888.168 1233.94 886.059C1231.2 883.91 1229.03 881.41 1227.43 878.559C1225.83 875.668 1225.03 872.309 1225.03 868.48C1225.03 864.809 1225.85 861.508 1227.49 858.578C1229.13 855.609 1231.42 853.09 1234.35 851.02C1237.32 848.91 1240.79 847.309 1244.78 846.215C1248.76 845.082 1253.12 844.516 1257.84 844.516C1264.09 844.516 1269.6 845.609 1274.37 847.797C1279.17 849.945 1282.92 853.012 1285.62 856.996C1288.35 860.941 1289.72 865.609 1289.72 871H1269.27C1269.27 868.852 1268.82 866.957 1267.92 865.316C1267.06 863.676 1265.75 862.387 1264 861.449C1262.24 860.512 1260.03 860.043 1257.37 860.043C1254.8 860.043 1252.63 860.434 1250.87 861.215C1249.11 861.996 1247.78 863.051 1246.89 864.379C1245.99 865.668 1245.54 867.094 1245.54 868.656C1245.54 869.945 1245.89 871.117 1246.59 872.172C1247.34 873.188 1248.37 874.145 1249.7 875.043C1251.07 875.941 1252.71 876.801 1254.62 877.621C1256.57 878.441 1258.76 879.242 1261.18 880.023C1265.71 881.469 1269.74 883.09 1273.25 884.887C1276.81 886.645 1279.8 888.656 1282.22 890.922C1284.68 893.148 1286.53 895.688 1287.78 898.539C1289.07 901.391 1289.72 904.613 1289.72 908.207C1289.72 912.035 1288.98 915.434 1287.49 918.402C1286.01 921.371 1283.88 923.891 1281.1 925.961C1278.33 927.992 1275.01 929.535 1271.14 930.59C1267.28 931.645 1262.96 932.172 1258.19 932.172C1253.82 932.172 1249.5 931.625 1245.25 930.531C1241.03 929.398 1237.2 927.68 1233.76 925.375C1230.32 923.031 1227.57 920.043 1225.5 916.41C1223.47 912.738 1222.45 908.383 1222.45 903.344H1243.08C1243.08 905.844 1243.41 907.953 1244.07 909.672C1244.74 911.391 1245.71 912.777 1247 913.832C1248.29 914.848 1249.87 915.59 1251.75 916.059C1253.62 916.488 1255.77 916.703 1258.19 916.703C1260.81 916.703 1262.92 916.332 1264.52 915.59C1266.12 914.809 1267.3 913.793 1268.04 912.543C1268.78 911.254 1269.15 909.848 1269.15 908.324ZM1394.07 908.324C1394.07 906.996 1393.87 905.805 1393.48 904.75C1393.09 903.656 1392.37 902.641 1391.31 901.703C1390.26 900.766 1388.74 899.828 1386.74 898.891C1384.79 897.914 1382.21 896.898 1379.01 895.844C1375.26 894.594 1371.65 893.188 1368.17 891.625C1364.69 890.023 1361.59 888.168 1358.85 886.059C1356.12 883.91 1353.95 881.41 1352.35 878.559C1350.75 875.668 1349.95 872.309 1349.95 868.48C1349.95 864.809 1350.77 861.508 1352.41 858.578C1354.05 855.609 1356.33 853.09 1359.26 851.02C1362.23 848.91 1365.71 847.309 1369.69 846.215C1373.68 845.082 1378.03 844.516 1382.76 844.516C1389.01 844.516 1394.52 845.609 1399.28 847.797C1404.09 849.945 1407.84 853.012 1410.53 856.996C1413.27 860.941 1414.64 865.609 1414.64 871H1394.19C1394.19 868.852 1393.74 866.957 1392.84 865.316C1391.98 863.676 1390.67 862.387 1388.91 861.449C1387.15 860.512 1384.95 860.043 1382.29 860.043C1379.71 860.043 1377.55 860.434 1375.79 861.215C1374.03 861.996 1372.7 863.051 1371.8 864.379C1370.9 865.668 1370.46 867.094 1370.46 868.656C1370.46 869.945 1370.81 871.117 1371.51 872.172C1372.25 873.188 1373.29 874.145 1374.62 875.043C1375.98 875.941 1377.62 876.801 1379.54 877.621C1381.49 878.441 1383.68 879.242 1386.1 880.023C1390.63 881.469 1394.65 883.09 1398.17 884.887C1401.73 886.645 1404.71 888.656 1407.14 890.922C1409.6 893.148 1411.45 895.688 1412.7 898.539C1413.99 901.391 1414.64 904.613 1414.64 908.207C1414.64 912.035 1413.89 915.434 1412.41 918.402C1410.92 921.371 1408.8 923.891 1406.02 925.961C1403.25 927.992 1399.93 929.535 1396.06 930.59C1392.19 931.645 1387.88 932.172 1383.11 932.172C1378.74 932.172 1374.42 931.625 1370.16 930.531C1365.94 929.398 1362.12 927.68 1358.68 925.375C1355.24 923.031 1352.49 920.043 1350.42 916.41C1348.39 912.738 1347.37 908.383 1347.37 903.344H1367.99C1367.99 905.844 1368.33 907.953 1368.99 909.672C1369.65 911.391 1370.63 912.777 1371.92 913.832C1373.21 914.848 1374.79 915.59 1376.67 916.059C1378.54 916.488 1380.69 916.703 1383.11 916.703C1385.73 916.703 1387.84 916.332 1389.44 915.59C1391.04 914.809 1392.21 913.793 1392.96 912.543C1393.7 911.254 1394.07 909.848 1394.07 908.324ZM1496.9 845.688V931H1476.39V845.688H1496.9ZM1595.97 894.73H1574L1573.88 881.254H1591.7C1594.9 881.254 1597.46 880.902 1599.37 880.199C1601.29 879.457 1602.67 878.383 1603.53 876.977C1604.43 875.57 1604.88 873.812 1604.88 871.703C1604.88 869.281 1604.43 867.328 1603.53 865.844C1602.63 864.359 1601.21 863.285 1599.25 862.621C1597.34 861.918 1594.86 861.566 1591.81 861.566H1581.74V931H1561.17V845.688H1591.81C1597.09 845.688 1601.79 846.176 1605.93 847.152C1610.08 848.09 1613.59 849.535 1616.48 851.488C1619.41 853.441 1621.64 855.902 1623.16 858.871C1624.68 861.801 1625.45 865.258 1625.45 869.242C1625.45 872.719 1624.7 875.98 1623.22 879.027C1621.74 882.074 1619.25 884.555 1615.78 886.469C1612.34 888.344 1607.63 889.32 1601.66 889.398L1595.97 894.73ZM1595.15 931H1569.02L1576.05 915.18H1595.15C1597.97 915.18 1600.21 914.75 1601.89 913.891C1603.61 912.992 1604.84 911.82 1605.58 910.375C1606.36 908.891 1606.75 907.25 1606.75 905.453C1606.75 903.266 1606.38 901.371 1605.64 899.77C1604.94 898.168 1603.81 896.938 1602.24 896.078C1600.68 895.18 1598.59 894.73 1595.97 894.73H1578.69L1578.81 881.254H1599.49L1604.29 886.645C1610 886.41 1614.51 887.211 1617.83 889.047C1621.19 890.883 1623.59 893.305 1625.04 896.312C1626.48 899.32 1627.2 902.465 1627.2 905.746C1627.2 911.332 1625.99 916 1623.57 919.75C1621.19 923.5 1617.61 926.312 1612.85 928.188C1608.08 930.062 1602.18 931 1595.15 931ZM1744.8 915.18V931H1701.67V915.18H1744.8ZM1709 845.688V931H1688.43V845.688H1709ZM1861.98 915.18V931H1816.51V915.18H1861.98ZM1823.84 845.688V931H1803.27V845.688H1823.84ZM1856.12 879.555V894.848H1816.51V879.555H1856.12ZM1862.16 845.688V861.566H1816.51V845.688H1862.16Z" fill="url(#paint3_linear_618_367)"/>
<g filter="url(#filter4_d_618_367)">
<path d="M1913.71 732.5C1918.74 741.167 1931.25 741.167 1936.22 732.5L2194.25 282.863C2199.23 274.196 2192.94 263.363 2182.93 263.363L1663.73 263.363C1653.72 263.363 1647.5 274.196 1652.54 282.863L1913.71 732.5Z" fill="url(#paint4_linear_618_367)"/>
</g>
<g filter="url(#filter5_dddd_618_367)">
<path d="M28 822V965H1739" stroke="black"/>
</g>
<g filter="url(#filter6_dddd_618_367)">
<path d="M1893 962V819H158" stroke="url(#paint5_linear_618_367)"/>
</g>
<g filter="url(#filter7_dddd_618_367)">
<path d="M938 1015L960 1037L982 1015" stroke="black" stroke-width="2"/>
</g>
</g>
<defs>
<filter id="filter0_d_618_367" x="20.3772" y="248.236" width="605.238" height="535.64" filterUnits="userSpaceOnUse" color-interpolation-filters="sRGB">
<feFlood flood-opacity="0" result="BackgroundImageFix"/>
<feColorMatrix in="SourceAlpha" type="matrix" values="0 0 0 0 0 0 0 0 0 0 0 0 0 0 0 0 0 0 127 0" result="hardAlpha"/>
<feOffset dx="10" dy="10"/>
<feGaussianBlur stdDeviation="15"/>
<feComposite in2="hardAlpha" operator="out"/>
<feColorMatrix type="matrix" values="0 0 0 0 0 0 0 0 0 0 0 0 0 0 0 0 0 0 0.25 0"/>
<feBlend mode="normal" in2="BackgroundImageFix" result="effect1_dropShadow_618_367"/>
<feBlend mode="normal" in="SourceGraphic" in2="effect1_dropShadow_618_367" result="shape"/>
</filter>
<filter id="filter1_d_618_367" x="1283.46" y="248" width="605.239" height="535.634" filterUnits="userSpaceOnUse" color-interpolation-filters="sRGB">
<feFlood flood-opacity="0" result="BackgroundImageFix"/>
<feColorMatrix in="SourceAlpha" type="matrix" values="0 0 0 0 0 0 0 0 0 0 0 0 0 0 0 0 0 0 127 0" result="hardAlpha"/>
<feOffset dx="-10" dy="10"/>
<feGaussianBlur stdDeviation="15"/>
<feComposite in2="hardAlpha" operator="out"/>
<feColorMatrix type="matrix" values="0 0 0 0 0 0 0 0 0 0 0 0 0 0 0 0 0 0 0.25 0"/>
<feBlend mode="normal" in2="BackgroundImageFix" result="effect1_dropShadow_618_367"/>
<feBlend mode="normal" in="SourceGraphic" in2="effect1_dropShadow_618_367" result="shape"/>
</filter>
<filter id="filter2_d_618_367" x="-311.245" y="243.879" width="605.239" height="535.637" filterUnits="userSpaceOnUse" color-interpolation-filters="sRGB">
<feFlood flood-opacity="0" result="BackgroundImageFix"/>
<feColorMatrix in="SourceAlpha" type="matrix" values="0 0 0 0 0 0 0 0 0 0 0 0 0 0 0 0 0 0 127 0" result="hardAlpha"/>
<feOffset dx="10" dy="10"/>
<feGaussianBlur stdDeviation="15"/>
<feComposite in2="hardAlpha" operator="out"/>
<feColorMatrix type="matrix" values="0 0 0 0 0 0 0 0 0 0 0 0 0 0 0 0 0 0 0.25 0"/>
<feBlend mode="normal" in2="BackgroundImageFix" result="effect1_dropShadow_618_367"/>
<feBlend mode="normal" in="SourceGraphic" in2="effect1_dropShadow_618_367" result="shape"/>
</filter>
<filter id="filter3_dddd_618_367" x="63.5039" y="845.688" width="806.218" height="129.312" filterUnits="userSpaceOnUse" color-interpolation-filters="sRGB">
<feFlood flood-opacity="0" result="BackgroundImageFix"/>
<feColorMatrix in="SourceAlpha" type="matrix" values="0 0 0 0 0 0 0 0 0 0 0 0 0 0 0 0 0 0 127 0" result="hardAlpha"/>
<feOffset dx="10" dy="10"/>
<feComposite in2="hardAlpha" operator="out"/>
<feColorMatrix type="matrix" values="0 0 0 0 0 0 0 0 0 0 0 0 0 0 0 0 0 0 0.8 0"/>
<feBlend mode="normal" in2="BackgroundImageFix" result="effect1_dropShadow_618_367"/>
<feColorMatrix in="SourceAlpha" type="matrix" values="0 0 0 0 0 0 0 0 0 0 0 0 0 0 0 0 0 0 127 0" result="hardAlpha"/>
<feOffset dx="20" dy="20"/>
<feGaussianBlur stdDeviation="2"/>
<feComposite in2="hardAlpha" operator="out"/>
<feColorMatrix type="matrix" values="0 0 0 0 0 0 0 0 0 0 0 0 0 0 0 0 0 0 0.6 0"/>
<feBlend mode="normal" in2="effect1_dropShadow_618_367" result="effect2_dropShadow_618_367"/>
<feColorMatrix in="SourceAlpha" type="matrix" values="0 0 0 0 0 0 0 0 0 0 0 0 0 0 0 0 0 0 127 0" result="hardAlpha"/>
<feOffset dx="30" dy="30"/>
<feGaussianBlur stdDeviation="2"/>
<feComposite in2="hardAlpha" operator="out"/>
<feColorMatrix type="matrix" values="0 0 0 0 0 0 0 0 0 0 0 0 0 0 0 0 0 0 0.4 0"/>
<feBlend mode="normal" in2="effect2_dropShadow_618_367" result="effect3_dropShadow_618_367"/>
<feColorMatrix in="SourceAlpha" type="matrix" values="0 0 0 0 0 0 0 0 0 0 0 0 0 0 0 0 0 0 127 0" result="hardAlpha"/>
<feOffset dx="40" dy="40"/>
<feGaussianBlur stdDeviation="2"/>
<feComposite in2="hardAlpha" operator="out"/>
<feColorMatrix type="matrix" values="0 0 0 0 0 0 0 0 0 0 0 0 0 0 0 0 0 0 0.2 0"/>
<feBlend mode="normal" in2="effect3_dropShadow_618_367" result="effect4_dropShadow_618_367"/>
<feBlend mode="normal" in="SourceGraphic" in2="effect4_dropShadow_618_367" result="shape"/>
</filter>
<filter id="filter4_d_618_367" x="1610.75" y="243.363" width="605.239" height="535.637" filterUnits="userSpaceOnUse" color-interpolation-filters="sRGB">
<feFlood flood-opacity="0" result="BackgroundImageFix"/>
<feColorMatrix in="SourceAlpha" type="matrix" values="0 0 0 0 0 0 0 0 0 0 0 0 0 0 0 0 0 0 127 0" result="hardAlpha"/>
<feOffset dx="-10" dy="10"/>
<feGaussianBlur stdDeviation="15"/>
<feComposite in2="hardAlpha" operator="out"/>
<feColorMatrix type="matrix" values="0 0 0 0 0 0 0 0 0 0 0 0 0 0 0 0 0 0 0.25 0"/>
<feBlend mode="normal" in2="BackgroundImageFix" result="effect1_dropShadow_618_367"/>
<feBlend mode="normal" in="SourceGraphic" in2="effect1_dropShadow_618_367" result="shape"/>
</filter>
<filter id="filter5_dddd_618_367" x="27.5" y="822" width="1731.5" height="163.5" filterUnits="userSpaceOnUse" color-interpolation-filters="sRGB">
<feFlood flood-opacity="0" result="BackgroundImageFix"/>
<feColorMatrix in="SourceAlpha" type="matrix" values="0 0 0 0 0 0 0 0 0 0 0 0 0 0 0 0 0 0 127 0" result="hardAlpha"/>
<feOffset dx="5" dy="5"/>
<feComposite in2="hardAlpha" operator="out"/>
<feColorMatrix type="matrix" values="0 0 0 0 0 0 0 0 0 0 0 0 0 0 0 0 0 0 0.8 0"/>
<feBlend mode="normal" in2="BackgroundImageFix" result="effect1_dropShadow_618_367"/>
<feColorMatrix in="SourceAlpha" type="matrix" values="0 0 0 0 0 0 0 0 0 0 0 0 0 0 0 0 0 0 127 0" result="hardAlpha"/>
<feOffset dx="10" dy="10"/>
<feComposite in2="hardAlpha" operator="out"/>
<feColorMatrix type="matrix" values="0 0 0 0 0 0 0 0 0 0 0 0 0 0 0 0 0 0 0.7 0"/>
<feBlend mode="normal" in2="effect1_dropShadow_618_367" result="effect2_dropShadow_618_367"/>
<feColorMatrix in="SourceAlpha" type="matrix" values="0 0 0 0 0 0 0 0 0 0 0 0 0 0 0 0 0 0 127 0" result="hardAlpha"/>
<feOffset dx="15" dy="15"/>
<feComposite in2="hardAlpha" operator="out"/>
<feColorMatrix type="matrix" values="0 0 0 0 0 0 0 0 0 0 0 0 0 0 0 0 0 0 0.6 0"/>
<feBlend mode="normal" in2="effect2_dropShadow_618_367" result="effect3_dropShadow_618_367"/>
<feColorMatrix in="SourceAlpha" type="matrix" values="0 0 0 0 0 0 0 0 0 0 0 0 0 0 0 0 0 0 127 0" result="hardAlpha"/>
<feOffset dx="20" dy="20"/>
<feComposite in2="hardAlpha" operator="out"/>
<feColorMatrix type="matrix" values="0 0 0 0 0 0 0 0 0 0 0 0 0 0 0 0 0 0 0.5 0"/>
<feBlend mode="normal" in2="effect3_dropShadow_618_367" result="effect4_dropShadow_618_367"/>
<feBlend mode="normal" in="SourceGraphic" in2="effect4_dropShadow_618_367" result="shape"/>
</filter>
<filter id="filter6_dddd_618_367" x="138" y="798.5" width="1755.5" height="163.5" filterUnits="userSpaceOnUse" color-interpolation-filters="sRGB">
<feFlood flood-opacity="0" result="BackgroundImageFix"/>
<feColorMatrix in="SourceAlpha" type="matrix" values="0 0 0 0 0 0 0 0 0 0 0 0 0 0 0 0 0 0 127 0" result="hardAlpha"/>
<feOffset dx="-5" dy="-5"/>
<feComposite in2="hardAlpha" operator="out"/>
<feColorMatrix type="matrix" values="0 0 0 0 0 0 0 0 0 0 0 0 0 0 0 0 0 0 0.8 0"/>
<feBlend mode="normal" in2="BackgroundImageFix" result="effect1_dropShadow_618_367"/>
<feColorMatrix in="SourceAlpha" type="matrix" values="0 0 0 0 0 0 0 0 0 0 0 0 0 0 0 0 0 0 127 0" result="hardAlpha"/>
<feOffset dx="-10" dy="-10"/>
<feComposite in2="hardAlpha" operator="out"/>
<feColorMatrix type="matrix" values="0 0 0 0 0 0 0 0 0 0 0 0 0 0 0 0 0 0 0.7 0"/>
<feBlend mode="normal" in2="effect1_dropShadow_618_367" result="effect2_dropShadow_618_367"/>
<feColorMatrix in="SourceAlpha" type="matrix" values="0 0 0 0 0 0 0 0 0 0 0 0 0 0 0 0 0 0 127 0" result="hardAlpha"/>
<feOffset dx="-15" dy="-15"/>
<feComposite in2="hardAlpha" operator="out"/>
<feColorMatrix type="matrix" values="0 0 0 0 0 0 0 0 0 0 0 0 0 0 0 0 0 0 0.6 0"/>
<feBlend mode="normal" in2="effect2_dropShadow_618_367" result="effect3_dropShadow_618_367"/>
<feColorMatrix in="SourceAlpha" type="matrix" values="0 0 0 0 0 0 0 0 0 0 0 0 0 0 0 0 0 0 127 0" result="hardAlpha"/>
<feOffset dx="-20" dy="-20"/>
<feComposite in2="hardAlpha" operator="out"/>
<feColorMatrix type="matrix" values="0 0 0 0 0 0 0 0 0 0 0 0 0 0 0 0 0 0 0.5 0"/>
<feBlend mode="normal" in2="effect3_dropShadow_618_367" result="effect4_dropShadow_618_367"/>
<feBlend mode="normal" in="SourceGraphic" in2="effect4_dropShadow_618_367" result="shape"/>
</filter>
<filter id="filter7_dddd_618_367" x="937.293" y="1014.29" width="45.4141" height="64.1213" filterUnits="userSpaceOnUse" color-interpolation-filters="sRGB">
<feFlood flood-opacity="0" result="BackgroundImageFix"/>
<feColorMatrix in="SourceAlpha" type="matrix" values="0 0 0 0 0 0 0 0 0 0 0 0 0 0 0 0 0 0 127 0" result="hardAlpha"/>
<feOffset dy="10"/>
<feComposite in2="hardAlpha" operator="out"/>
<feColorMatrix type="matrix" values="0 0 0 0 0 0 0 0 0 0 0 0 0 0 0 0 0 0 0.8 0"/>
<feBlend mode="normal" in2="BackgroundImageFix" result="effect1_dropShadow_618_367"/>
<feColorMatrix in="SourceAlpha" type="matrix" values="0 0 0 0 0 0 0 0 0 0 0 0 0 0 0 0 0 0 127 0" result="hardAlpha"/>
<feOffset dy="20"/>
<feComposite in2="hardAlpha" operator="out"/>
<feColorMatrix type="matrix" values="0 0 0 0 0 0 0 0 0 0 0 0 0 0 0 0 0 0 0.6 0"/>
<feBlend mode="normal" in2="effect1_dropShadow_618_367" result="effect2_dropShadow_618_367"/>
<feColorMatrix in="SourceAlpha" type="matrix" values="0 0 0 0 0 0 0 0 0 0 0 0 0 0 0 0 0 0 127 0" result="hardAlpha"/>
<feOffset dy="30"/>
<feComposite in2="hardAlpha" operator="out"/>
<feColorMatrix type="matrix" values="0 0 0 0 0 0 0 0 0 0 0 0 0 0 0 0 0 0 0.4 0"/>
<feBlend mode="normal" in2="effect2_dropShadow_618_367" result="effect3_dropShadow_618_367"/>
<feColorMatrix in="SourceAlpha" type="matrix" values="0 0 0 0 0 0 0 0 0 0 0 0 0 0 0 0 0 0 127 0" result="hardAlpha"/>
<feOffset dy="40"/>
<feComposite in2="hardAlpha" operator="out"/>
<feColorMatrix type="matrix" values="0 0 0 0 0 0 0 0 0 0 0 0 0 0 0 0 0 0 0.2 0"/>
<feBlend mode="normal" in2="effect3_dropShadow_618_367" result="effect4_dropShadow_618_367"/>
<feBlend mode="normal" in="SourceGraphic" in2="effect4_dropShadow_618_367" result="shape"/>
</filter>
<linearGradient id="paint0_linear_618_367" x1="312.883" y1="294.249" x2="312.883" y2="846.234" gradientUnits="userSpaceOnUse">
<stop offset="0.29886" stop-color="#8000FF"/>
<stop offset="1" stop-color="#1A83FF"/>
</linearGradient>
<linearGradient id="paint1_linear_618_367" x1="1595.48" y1="906.534" x2="1596.39" y2="405.012" gradientUnits="userSpaceOnUse">
<stop stop-color="#1FA8D9"/>
<stop offset="1" stop-color="#F300F8"/>
</linearGradient>
<linearGradient id="paint2_linear_618_367" x1="-18.5237" y1="706.08" x2="-17.0182" y2="274.805" gradientUnits="userSpaceOnUse">
<stop stop-color="#002B99"/>
<stop offset="0.895833" stop-color="#00C4EF"/>
</linearGradient>
<linearGradient id="paint3_linear_618_367" x1="971" y1="889" x2="1883" y2="889" gradientUnits="userSpaceOnUse">
<stop stop-color="#002B99"/>
<stop offset="0.453125" stop-color="#8000FF"/>
<stop offset="1" stop-color="#F300F8"/>
</linearGradient>
<linearGradient id="paint4_linear_618_367" x1="1923.48" y1="705.564" x2="1924.98" y2="274.289" gradientUnits="userSpaceOnUse">
<stop stop-color="#002B99"/>
<stop offset="0.895833" stop-color="#00C4EF"/>
</linearGradient>
<linearGradient id="paint5_linear_618_367" x1="1893" y1="891.133" x2="158" y2="891.133" gradientUnits="userSpaceOnUse">
<stop stop-color="#002B99"/>
<stop offset="0.604167" stop-color="#8000FF"/>
<stop offset="1" stop-color="#F300F8"/>
</linearGradient>
<clipPath id="clip0_618_367">
<rect width="1920" height="1080" fill="white"/>
</clipPath>
</defs>
</svg>
