<svg width="1920" height="900" viewBox="0 0 1920 1080" fill="none" xmlns="http://www.w3.org/2000/svg">
<g clip-path="url(#clip0_860_2)">
<rect width="1920" height="1080" fill="white"/>
<path d="M257.599 359.129C257.629 359.068 257.689 359.038 257.735 358.978C257.856 358.796 258.007 358.645 258.173 358.479C258.339 358.312 258.491 358.146 258.687 358.025C258.748 357.995 258.778 357.934 258.838 357.889C258.959 357.813 259.095 357.813 259.216 357.753C259.443 357.662 259.655 357.572 259.897 357.526C260.108 357.481 260.32 357.481 260.532 357.481C260.743 357.481 260.955 357.481 261.167 357.526C261.408 357.572 261.62 357.662 261.847 357.753C261.968 357.813 262.104 357.813 262.225 357.874C262.285 357.904 262.315 357.965 262.376 358.01C262.572 358.131 262.724 358.297 262.89 358.464C263.041 358.63 263.207 358.781 263.328 358.962C263.374 359.023 263.434 359.053 263.464 359.114L405.769 605.611H450.065L260.516 277.356L43 654.094L65.1326 692.448L257.599 359.129Z" fill="url(#paint0_linear_860_2)"/>
<path d="M458.878 607.501C458.984 607.698 459.029 607.909 459.09 608.136C459.15 608.363 459.211 608.574 459.226 608.801C459.226 608.877 459.271 608.937 459.271 608.998C459.271 609.149 459.211 609.27 459.196 609.406C459.165 609.633 459.135 609.859 459.06 610.086C458.984 610.298 458.893 610.479 458.788 610.661C458.682 610.842 458.576 611.024 458.425 611.19C458.274 611.371 458.092 611.507 457.911 611.643C457.805 611.734 457.729 611.855 457.593 611.915C457.518 611.961 457.427 611.976 457.336 612.021C457.246 612.067 457.155 612.097 457.064 612.142C456.686 612.278 456.293 612.384 455.9 612.384H455.885H403.834H403.819H403.804H171.26L149.112 650.738H528.164L310.647 274H266.352L458.803 607.32C458.848 607.365 458.848 607.441 458.878 607.501Z" fill="url(#paint1_linear_860_2)"/>
<path d="M143.277 657.481C142.884 657.481 142.506 657.39 142.113 657.239C142.022 657.208 141.931 657.163 141.841 657.133C141.75 657.088 141.674 657.072 141.584 657.027C141.463 656.951 141.387 656.831 141.266 656.755C141.085 656.619 140.903 656.483 140.752 656.301C140.616 656.135 140.51 655.954 140.389 655.772C140.283 655.591 140.178 655.409 140.117 655.198C140.042 654.971 140.011 654.759 139.981 654.517C139.966 654.381 139.905 654.26 139.905 654.109C139.905 654.034 139.936 653.973 139.951 653.913C139.966 653.686 140.026 653.474 140.087 653.248C140.147 653.021 140.193 652.809 140.299 652.613C140.329 652.552 140.329 652.477 140.359 652.416L282.664 405.919L260.516 367.564L70.998 695.835H506.016L528.164 657.481H143.277C143.277 657.465 143.277 657.481 143.277 657.481Z" fill="url(#paint2_linear_860_2)"/>
<path d="M1668.57 356.129C1668.54 356.068 1668.47 356.038 1668.43 355.977C1668.31 355.796 1668.16 355.645 1667.99 355.479C1667.82 355.312 1667.67 355.146 1667.48 355.025C1667.42 354.995 1667.39 354.934 1667.33 354.889C1667.2 354.813 1667.07 354.813 1666.95 354.753C1666.72 354.662 1666.51 354.572 1666.27 354.526C1666.06 354.481 1665.84 354.481 1665.63 354.481C1665.42 354.481 1665.21 354.481 1665 354.526C1664.76 354.572 1664.54 354.662 1664.32 354.753C1664.2 354.813 1664.06 354.813 1663.94 354.874C1663.88 354.904 1663.85 354.965 1663.79 355.01C1663.59 355.131 1663.44 355.297 1663.27 355.463C1663.12 355.63 1662.96 355.781 1662.84 355.962C1662.79 356.023 1662.73 356.053 1662.7 356.114L1520.39 602.611L1476.1 602.611L1665.65 274.356L1883.16 651.094L1861.03 689.448L1668.57 356.129Z" fill="url(#paint3_linear_860_2)"/>
<path d="M1467.29 604.501C1467.18 604.698 1467.13 604.909 1467.07 605.136C1467.01 605.363 1466.95 605.574 1466.94 605.801C1466.94 605.877 1466.89 605.937 1466.89 605.998C1466.89 606.149 1466.95 606.27 1466.97 606.406C1467 606.633 1467.03 606.859 1467.1 607.086C1467.18 607.298 1467.27 607.479 1467.38 607.661C1467.48 607.842 1467.59 608.024 1467.74 608.19C1467.89 608.371 1468.07 608.507 1468.25 608.643C1468.36 608.734 1468.43 608.855 1468.57 608.915C1468.65 608.961 1468.74 608.976 1468.83 609.021C1468.92 609.067 1469.01 609.097 1469.1 609.142C1469.48 609.278 1469.87 609.384 1470.26 609.384L1470.28 609.384L1522.33 609.384L1522.35 609.384L1522.36 609.384L1754.9 609.384L1777.05 647.738L1398 647.738L1615.52 271L1659.81 271L1467.36 604.32C1467.32 604.365 1467.32 604.441 1467.29 604.501Z" fill="url(#paint4_linear_860_2)"/>
<path d="M1782.89 654.481C1783.28 654.481 1783.66 654.39 1784.05 654.239C1784.14 654.208 1784.23 654.163 1784.32 654.133C1784.41 654.088 1784.49 654.072 1784.58 654.027C1784.7 653.951 1784.78 653.83 1784.9 653.755C1785.08 653.619 1785.26 653.483 1785.41 653.301C1785.55 653.135 1785.65 652.954 1785.77 652.772C1785.88 652.591 1785.99 652.409 1786.05 652.198C1786.12 651.971 1786.15 651.759 1786.18 651.517C1786.2 651.381 1786.26 651.26 1786.26 651.109C1786.26 651.034 1786.23 650.973 1786.21 650.913C1786.2 650.686 1786.14 650.474 1786.08 650.248C1786.02 650.021 1785.97 649.809 1785.87 649.613C1785.84 649.552 1785.84 649.477 1785.81 649.416L1643.5 402.919L1665.65 364.564L1855.17 692.835L1420.15 692.835L1398 654.481L1782.89 654.481C1782.89 654.465 1782.89 654.481 1782.89 654.481Z" fill="url(#paint5_linear_860_2)"/>
<path d="M970.878 898.375L894.082 1031.37L911.076 1031.37L969.234 930.629C969.273 930.559 969.319 930.51 969.343 930.487C969.406 930.404 969.485 930.323 969.52 930.287C969.527 930.279 969.533 930.273 969.536 930.27L969.544 930.262L969.552 930.253C969.557 930.248 969.564 930.241 969.571 930.234C969.616 930.188 969.697 930.104 969.798 930.033C969.825 930.005 969.879 929.956 969.955 929.918L969.955 929.918C970 929.895 970.042 929.881 970.073 929.871C970.103 929.863 970.13 929.856 970.141 929.854C970.141 929.854 970.142 929.854 970.142 929.853L970.147 929.851C970.155 929.848 970.164 929.845 970.173 929.841C970.25 929.81 970.374 929.759 970.513 929.733C970.651 929.704 970.781 929.704 970.86 929.704L970.872 929.704L970.884 929.704C970.963 929.704 971.093 929.704 971.23 929.732C971.37 929.759 971.493 929.81 971.571 929.841C971.58 929.845 971.589 929.848 971.597 929.851L971.606 929.855L971.616 929.858C971.646 929.866 971.737 929.889 971.831 929.947L971.849 929.959L971.866 929.971C971.894 929.993 971.917 930.014 971.933 930.029C972.039 930.103 972.126 930.192 972.172 930.24C972.18 930.247 972.186 930.254 972.192 930.259L972.201 930.269C972.255 930.323 972.332 930.4 972.403 930.495C972.427 930.519 972.472 930.567 972.51 930.635L1050.93 1066.45L1059.42 1051.73L970.878 898.375ZM971.851 929.98L971.857 929.983C971.855 929.982 971.853 929.981 971.851 929.98ZM971.595 929.852L971.596 929.853C971.596 929.852 971.595 929.852 971.595 929.852Z" stroke="url(#paint6_linear_860_2)"/>
<path d="M862.083 1049.86L1015.66 1049.86L1007.16 1035.14L912.17 1035.14L912.164 1035.14L912.158 1035.14L890.831 1035.14L890.825 1035.14C890.579 1035.14 890.354 1035.08 890.179 1035.02L890.151 1035.01L890.124 1034.99C890.125 1034.99 890.124 1034.99 890.12 1034.99L890.1 1034.98L890.097 1034.98C890.082 1034.97 890.055 1034.96 890.026 1034.95C890.024 1034.95 890.021 1034.95 890.017 1034.95L890.017 1034.95C890.007 1034.94 889.987 1034.94 889.964 1034.93C889.947 1034.92 889.925 1034.91 889.901 1034.9C889.805 1034.85 889.741 1034.79 889.708 1034.75C889.698 1034.74 889.684 1034.73 889.677 1034.72C889.609 1034.67 889.505 1034.59 889.413 1034.48C889.315 1034.37 889.249 1034.26 889.21 1034.19L889.642 1033.94L889.21 1034.19C889.155 1034.1 889.103 1033.99 889.059 1033.87L889.059 1033.87L889.056 1033.86C889.01 1033.72 888.992 1033.59 888.981 1033.5L888.979 1033.49C888.979 1033.49 888.979 1033.49 888.978 1033.49C888.977 1033.49 888.976 1033.48 888.973 1033.47C888.963 1033.43 888.944 1033.35 888.944 1033.26C888.944 1033.19 888.956 1033.14 888.965 1033.1C888.966 1033.1 888.967 1033.1 888.968 1033.09C888.98 1032.98 889.01 1032.87 889.029 1032.8C889.031 1032.79 889.033 1032.78 889.035 1032.77L889.518 1032.9L889.035 1032.77C889.037 1032.77 889.039 1032.76 889.042 1032.75C889.058 1032.68 889.087 1032.57 889.141 1032.45C889.147 1032.43 889.157 1032.4 889.173 1032.37C889.184 1032.35 889.198 1032.32 889.218 1032.29L967.622 896.5L950.627 896.5L862.083 1049.86ZM889.133 1032.48L889.134 1032.48C889.133 1032.48 889.132 1032.48 889.133 1032.48ZM888.982 1033.05C888.981 1033.05 888.981 1033.05 888.981 1033.05L888.981 1033.05C888.982 1033.05 888.982 1033.05 888.982 1033.05Z" stroke="url(#paint7_linear_860_2)"/>
<path d="M1047.66 1068.34L970.878 935.336L962.381 950.05L1020.54 1050.8L1020.55 1050.81L1020.56 1050.82C1020.58 1050.87 1020.59 1050.9 1020.6 1050.93C1020.6 1050.93 1020.6 1050.94 1020.6 1050.95C1020.65 1051.06 1020.68 1051.17 1020.7 1051.23C1020.7 1051.24 1020.7 1051.25 1020.7 1051.26C1020.71 1051.27 1020.71 1051.27 1020.71 1051.28C1020.73 1051.35 1020.76 1051.45 1020.77 1051.56C1020.78 1051.6 1020.8 1051.66 1020.8 1051.74C1020.8 1051.84 1020.78 1051.92 1020.77 1051.95C1020.76 1051.96 1020.76 1051.97 1020.76 1051.97C1020.76 1051.97 1020.76 1051.98 1020.76 1051.98C1020.75 1052.07 1020.73 1052.2 1020.69 1052.33C1020.64 1052.48 1020.57 1052.6 1020.54 1052.66L1020.53 1052.67L1020.52 1052.69L1020.51 1052.7C1020.51 1052.71 1020.5 1052.72 1020.49 1052.73C1020.46 1052.79 1020.4 1052.88 1020.34 1052.95L1020.33 1052.96C1020.23 1053.08 1020.12 1053.16 1020.05 1053.22L1020.04 1053.22L1020.03 1053.23C1020.03 1053.23 1020.03 1053.23 1020.03 1053.23C1020.02 1053.24 1020.01 1053.24 1020.01 1053.25C1020 1053.26 1019.99 1053.27 1019.97 1053.28C1019.95 1053.3 1019.92 1053.33 1019.87 1053.36L1019.85 1053.37L1019.83 1053.38C1019.78 1053.41 1019.74 1053.42 1019.73 1053.43C1019.72 1053.43 1019.72 1053.43 1019.72 1053.43L1019.69 1053.44L1019.66 1053.45C1019.66 1053.45 1019.66 1053.45 1019.64 1053.46L1019.64 1053.46C1019.62 1053.47 1019.59 1053.48 1019.56 1053.49C1019.37 1053.57 1019.15 1053.62 1018.91 1053.62L862.082 1053.62L870.579 1068.34L1047.66 1068.34ZM1020.76 1051.96L1020.76 1051.97C1020.76 1051.97 1020.76 1051.97 1020.76 1051.96Z" stroke="url(#paint8_linear_860_2)"/>
<g filter="url(#filter0_f_860_2)">
<ellipse rx="256" ry="12.5" transform="matrix(1 0 0 -1 306 848.5)" fill="black" fill-opacity="0.89"/>
</g>
<g filter="url(#filter1_f_860_2)">
<ellipse rx="256" ry="12.5" transform="matrix(1 0 0 -1 1634 848.5)" fill="black" fill-opacity="0.89"/>
</g>
</g>
<defs>
<filter id="filter0_f_860_2" x="-150" y="636" width="912" height="425" filterUnits="userSpaceOnUse" color-interpolation-filters="sRGB">
<feFlood flood-opacity="0" result="BackgroundImageFix"/>
<feBlend mode="normal" in="SourceGraphic" in2="BackgroundImageFix" result="shape"/>
<feGaussianBlur stdDeviation="100" result="effect1_foregroundBlur_860_2"/>
</filter>
<filter id="filter1_f_860_2" x="1178" y="636" width="912" height="425" filterUnits="userSpaceOnUse" color-interpolation-filters="sRGB">
<feFlood flood-opacity="0" result="BackgroundImageFix"/>
<feBlend mode="normal" in="SourceGraphic" in2="BackgroundImageFix" result="shape"/>
<feGaussianBlur stdDeviation="100" result="effect1_foregroundBlur_860_2"/>
</filter>
<linearGradient id="paint0_linear_860_2" x1="43" y1="483.065" x2="450.065" y2="483.065" gradientUnits="userSpaceOnUse">
<stop stop-color="#002B99"/>
<stop offset="0.604167" stop-color="#8000FF"/>
<stop offset="1" stop-color="#F300F8"/>
</linearGradient>
<linearGradient id="paint1_linear_860_2" x1="149.112" y1="460.702" x2="528.164" y2="460.702" gradientUnits="userSpaceOnUse">
<stop stop-color="#002B99"/>
<stop offset="0.604167" stop-color="#8000FF"/>
<stop offset="1" stop-color="#F300F8"/>
</linearGradient>
<linearGradient id="paint2_linear_860_2" x1="70.998" y1="530.247" x2="528.164" y2="530.247" gradientUnits="userSpaceOnUse">
<stop stop-color="#002B99"/>
<stop offset="0.604167" stop-color="#8000FF"/>
<stop offset="1" stop-color="#F300F8"/>
</linearGradient>
<linearGradient id="paint3_linear_860_2" x1="1883.16" y1="480.065" x2="1476.1" y2="480.065" gradientUnits="userSpaceOnUse">
<stop stop-color="#002B99"/>
<stop offset="0.604167" stop-color="#8000FF"/>
<stop offset="1" stop-color="#F300F8"/>
</linearGradient>
<linearGradient id="paint4_linear_860_2" x1="1777.05" y1="457.702" x2="1398" y2="457.702" gradientUnits="userSpaceOnUse">
<stop stop-color="#002B99"/>
<stop offset="0.604167" stop-color="#8000FF"/>
<stop offset="1" stop-color="#F300F8"/>
</linearGradient>
<linearGradient id="paint5_linear_860_2" x1="1855.17" y1="527.247" x2="1398" y2="527.247" gradientUnits="userSpaceOnUse">
<stop stop-color="#002B99"/>
<stop offset="0.604167" stop-color="#8000FF"/>
<stop offset="1" stop-color="#F300F8"/>
</linearGradient>
<linearGradient id="paint6_linear_860_2" x1="1060" y1="981.659" x2="893.215" y2="981.659" gradientUnits="userSpaceOnUse">
<stop stop-color="#002B99"/>
<stop offset="0.604167" stop-color="#8000FF"/>
<stop offset="1" stop-color="#F300F8"/>
</linearGradient>
<linearGradient id="paint7_linear_860_2" x1="1016.52" y1="972.496" x2="861.217" y2="972.496" gradientUnits="userSpaceOnUse">
<stop stop-color="#002B99"/>
<stop offset="0.604167" stop-color="#8000FF"/>
<stop offset="1" stop-color="#F300F8"/>
</linearGradient>
<linearGradient id="paint8_linear_860_2" x1="1048.53" y1="1000.99" x2="861.216" y2="1000.99" gradientUnits="userSpaceOnUse">
<stop stop-color="#002B99"/>
<stop offset="0.604167" stop-color="#8000FF"/>
<stop offset="1" stop-color="#F300F8"/>
</linearGradient>
<clipPath id="clip0_860_2">
<rect width="1920" height="1080" fill="white"/>
</clipPath>
</defs>
</svg>
