<svg width="2560" height="1440" viewBox="0 0 2560 1440" fill="none" xmlns="http://www.w3.org/2000/svg">
<g clip-path="url(#clip0_87_2)">
<rect width="2560" height="1440" fill="#EFEFEF"/>
<g filter="url(#filter0_d_87_2)">
<path d="M105.008 19.4998C110.042 10.8332 122.551 10.8333 127.525 19.4999L661.919 950.723C666.893 959.389 660.6 970.222 650.593 970.222L-424.697 970.222C-434.705 970.222 -440.921 959.389 -435.887 950.723L105.008 19.4998Z" fill="url(#paint0_linear_87_2)"/>
<path d="M127.091 19.7499L661.485 950.973C666.268 959.306 660.217 969.723 650.595 969.723L-424.696 969.723C-434.318 969.723 -440.296 959.306 -435.455 950.973L105.44 19.7498C110.281 11.4165 122.309 11.4166 127.091 19.7499Z" stroke="url(#paint1_linear_87_2)"/>
</g>
<g filter="url(#filter1_d_87_2)">
<path d="M2457.95 19.4998C2452.92 10.8332 2440.41 10.8333 2435.44 19.4999L1901.04 950.723C1896.07 959.389 1902.36 970.222 1912.37 970.222L2987.66 970.222C2997.67 970.222 3003.88 959.389 2998.85 950.723L2457.95 19.4998Z" fill="url(#paint2_linear_87_2)"/>
</g>
<g filter="url(#filter2_d_87_2)">
<path d="M241.175 249.72C246.136 241.053 258.645 241.053 263.691 249.72L805.887 1180.94C810.933 1189.6 804.731 1200.44 794.724 1200.44H-280.566C-290.574 1200.44 -296.881 1189.6 -291.92 1180.94L241.175 249.72Z" fill="url(#paint3_linear_87_2)"/>
</g>
<g filter="url(#filter3_d_87_2)">
<path d="M2323.79 249.72C2318.83 241.053 2306.32 241.053 2301.27 249.72L1759.08 1180.94C1754.03 1189.6 1760.23 1200.44 1770.24 1200.44H2845.53C2855.54 1200.44 2861.84 1189.6 2856.88 1180.94L2323.79 249.72Z" fill="url(#paint4_linear_87_2)"/>
</g>
<g filter="url(#filter4_d_87_2)">
<path d="M945.295 1417.7C950.299 1426.37 944.044 1437.2 934.037 1437.2L-141.253 1437.2C-151.26 1437.2 -157.515 1426.37 -152.511 1417.7L385.134 486.472C390.138 477.805 402.647 477.805 407.651 486.472L945.295 1417.7Z" fill="url(#paint5_linear_87_2)"/>
</g>
<g filter="url(#filter5_d_87_2)">
<path d="M1622.67 1417.7C1617.66 1426.37 1623.92 1437.2 1633.93 1437.2L2709.22 1437.2C2719.22 1437.2 2725.48 1426.37 2720.47 1417.7L2182.83 486.472C2177.83 477.805 2165.32 477.805 2160.31 486.472L1622.67 1417.7Z" fill="url(#paint6_linear_87_2)"/>
</g>
</g>
<rect x="0.5" y="0.5" width="2559" height="1439" stroke="black"/>
<defs>
<filter id="filter0_d_87_2" x="-457.671" y="-7.00012" width="1161.33" height="1017.22" filterUnits="userSpaceOnUse" color-interpolation-filters="sRGB">
<feFlood flood-opacity="0" result="BackgroundImageFix"/>
<feColorMatrix in="SourceAlpha" type="matrix" values="0 0 0 0 0 0 0 0 0 0 0 0 0 0 0 0 0 0 127 0" result="hardAlpha"/>
<feOffset dx="10" dy="10"/>
<feGaussianBlur stdDeviation="15"/>
<feComposite in2="hardAlpha" operator="out"/>
<feColorMatrix type="matrix" values="0 0 0 0 0 0 0 0 0 0 0 0 0 0 0 0 0 0 0.25 0"/>
<feBlend mode="normal" in2="BackgroundImageFix" result="effect1_dropShadow_87_2"/>
<feBlend mode="normal" in="SourceGraphic" in2="effect1_dropShadow_87_2" result="shape"/>
</filter>
<filter id="filter1_d_87_2" x="1879.3" y="-7.00012" width="1161.33" height="1017.22" filterUnits="userSpaceOnUse" color-interpolation-filters="sRGB">
<feFlood flood-opacity="0" result="BackgroundImageFix"/>
<feColorMatrix in="SourceAlpha" type="matrix" values="0 0 0 0 0 0 0 0 0 0 0 0 0 0 0 0 0 0 127 0" result="hardAlpha"/>
<feOffset dx="10" dy="10"/>
<feGaussianBlur stdDeviation="15"/>
<feComposite in2="hardAlpha" operator="out"/>
<feColorMatrix type="matrix" values="0 0 0 0 0 0 0 0 0 0 0 0 0 0 0 0 0 0 0.25 0"/>
<feBlend mode="normal" in2="BackgroundImageFix" result="effect1_dropShadow_87_2"/>
<feBlend mode="normal" in="SourceGraphic" in2="effect1_dropShadow_87_2" result="shape"/>
</filter>
<filter id="filter2_d_87_2" x="-313.649" y="223.22" width="1161.33" height="1017.22" filterUnits="userSpaceOnUse" color-interpolation-filters="sRGB">
<feFlood flood-opacity="0" result="BackgroundImageFix"/>
<feColorMatrix in="SourceAlpha" type="matrix" values="0 0 0 0 0 0 0 0 0 0 0 0 0 0 0 0 0 0 127 0" result="hardAlpha"/>
<feOffset dx="10" dy="10"/>
<feGaussianBlur stdDeviation="15"/>
<feComposite in2="hardAlpha" operator="out"/>
<feColorMatrix type="matrix" values="0 0 0 0 0 0 0 0 0 0 0 0 0 0 0 0 0 0 0.25 0"/>
<feBlend mode="normal" in2="BackgroundImageFix" result="effect1_dropShadow_87_2"/>
<feBlend mode="normal" in="SourceGraphic" in2="effect1_dropShadow_87_2" result="shape"/>
</filter>
<filter id="filter3_d_87_2" x="1737.28" y="223.22" width="1161.33" height="1017.22" filterUnits="userSpaceOnUse" color-interpolation-filters="sRGB">
<feFlood flood-opacity="0" result="BackgroundImageFix"/>
<feColorMatrix in="SourceAlpha" type="matrix" values="0 0 0 0 0 0 0 0 0 0 0 0 0 0 0 0 0 0 127 0" result="hardAlpha"/>
<feOffset dx="10" dy="10"/>
<feGaussianBlur stdDeviation="15"/>
<feComposite in2="hardAlpha" operator="out"/>
<feColorMatrix type="matrix" values="0 0 0 0 0 0 0 0 0 0 0 0 0 0 0 0 0 0 0.25 0"/>
<feBlend mode="normal" in2="BackgroundImageFix" result="effect1_dropShadow_87_2"/>
<feBlend mode="normal" in="SourceGraphic" in2="effect1_dropShadow_87_2" result="shape"/>
</filter>
<filter id="filter4_d_87_2" x="-174.272" y="459.972" width="1161.33" height="1017.23" filterUnits="userSpaceOnUse" color-interpolation-filters="sRGB">
<feFlood flood-opacity="0" result="BackgroundImageFix"/>
<feColorMatrix in="SourceAlpha" type="matrix" values="0 0 0 0 0 0 0 0 0 0 0 0 0 0 0 0 0 0 127 0" result="hardAlpha"/>
<feOffset dx="10" dy="10"/>
<feGaussianBlur stdDeviation="15"/>
<feComposite in2="hardAlpha" operator="out"/>
<feColorMatrix type="matrix" values="0 0 0 0 0 0 0 0 0 0 0 0 0 0 0 0 0 0 0.25 0"/>
<feBlend mode="normal" in2="BackgroundImageFix" result="effect1_dropShadow_87_2"/>
<feBlend mode="normal" in="SourceGraphic" in2="effect1_dropShadow_87_2" result="shape"/>
</filter>
<filter id="filter5_d_87_2" x="1600.91" y="459.972" width="1161.33" height="1017.23" filterUnits="userSpaceOnUse" color-interpolation-filters="sRGB">
<feFlood flood-opacity="0" result="BackgroundImageFix"/>
<feColorMatrix in="SourceAlpha" type="matrix" values="0 0 0 0 0 0 0 0 0 0 0 0 0 0 0 0 0 0 127 0" result="hardAlpha"/>
<feOffset dx="10" dy="10"/>
<feGaussianBlur stdDeviation="15"/>
<feComposite in2="hardAlpha" operator="out"/>
<feColorMatrix type="matrix" values="0 0 0 0 0 0 0 0 0 0 0 0 0 0 0 0 0 0 0.25 0"/>
<feBlend mode="normal" in2="BackgroundImageFix" result="effect1_dropShadow_87_2"/>
<feBlend mode="normal" in="SourceGraphic" in2="effect1_dropShadow_87_2" result="shape"/>
</filter>
<linearGradient id="paint0_linear_87_2" x1="113.241" y1="92.2015" x2="116.23" y2="948.528" gradientUnits="userSpaceOnUse">
<stop stop-color="#002B99"/>
<stop offset="0.895833" stop-color="#3BBDEB"/>
</linearGradient>
<linearGradient id="paint1_linear_87_2" x1="113.241" y1="92.2015" x2="116.23" y2="948.528" gradientUnits="userSpaceOnUse">
<stop stop-color="#002B99"/>
<stop offset="0.895833" stop-color="#3BBDEB"/>
</linearGradient>
<linearGradient id="paint2_linear_87_2" x1="2449.72" y1="92.2015" x2="2446.73" y2="948.528" gradientUnits="userSpaceOnUse">
<stop stop-color="#002B99"/>
<stop offset="0.895833" stop-color="#3BBDEB"/>
</linearGradient>
<linearGradient id="paint3_linear_87_2" x1="663.158" y1="1111.66" x2="-22.9346" y2="761.495" gradientUnits="userSpaceOnUse">
<stop stop-color="#1FA8D9"/>
<stop offset="1" stop-color="#FF1ACD"/>
</linearGradient>
<linearGradient id="paint4_linear_87_2" x1="1901.8" y1="1111.66" x2="2587.9" y2="761.495" gradientUnits="userSpaceOnUse">
<stop stop-color="#1FA8D9"/>
<stop offset="1" stop-color="#FF1ACD"/>
</linearGradient>
<linearGradient id="paint5_linear_87_2" x1="814.799" y1="1354.68" x2="-52.2565" y2="854.083" gradientUnits="userSpaceOnUse">
<stop offset="0.00777062" stop-color="#2EFF81"/>
<stop offset="1" stop-color="#1A83FF"/>
</linearGradient>
<linearGradient id="paint6_linear_87_2" x1="1753.16" y1="1354.68" x2="2620.22" y2="854.083" gradientUnits="userSpaceOnUse">
<stop offset="0.00777062" stop-color="#2EFF81"/>
<stop offset="1" stop-color="#1A83FF"/>
</linearGradient>
<clipPath id="clip0_87_2">
<rect width="2560" height="1440" fill="white"/>
</clipPath>
</defs>
</svg>
