<svg width="2560" height="1440" viewBox="0 0 2560 1440" fill="none" xmlns="http://www.w3.org/2000/svg">
<g clip-path="url(#clip0_89_105)">
<rect y="-1" width="136" height="1436" fill="white"/>
<rect x="2424" y="-1" width="136" height="1436" fill="white"/>
<path d="M2550.58 216.26L2444.36 33.8147C2439.7 25.8148 2445.42 15.8149 2454.66 15.8149H2665.33C2674.57 15.8149 2680.39 25.8148 2675.81 33.8147L2571.37 216.26C2566.79 224.26 2555.24 224.26 2550.58 216.26Z" stroke="url(#paint0_linear_89_105)" stroke-width="2"/>
<path d="M2552.58 256L2446.36 438.445C2441.7 446.445 2447.42 456.445 2456.66 456.445H2667.33C2676.57 456.445 2682.39 446.445 2677.81 438.445L2573.37 256C2568.79 248 2557.24 248 2552.58 256Z" stroke="url(#paint1_linear_89_105)" stroke-width="2"/>
<path d="M-2.87836 18.9998L103.349 201.445C108.007 209.445 102.283 219.445 93.045 219.445H-117.627C-126.865 219.445 -132.687 209.445 -128.107 201.445L-23.663 18.9997C-19.0833 10.9998 -7.53626 10.9999 -2.87836 18.9998Z" stroke="url(#paint2_linear_89_105)" stroke-width="2"/>
<path d="M10.1216 498L116.349 680.445C121.007 688.445 115.283 698.445 106.045 698.445H-104.627C-113.865 698.445 -119.687 688.445 -115.107 680.445L-10.663 498C-6.08326 490 5.46374 490 10.1216 498Z" stroke="url(#paint3_linear_89_105)" stroke-width="2"/>
<path d="M-2.87836 969L103.349 1151.44C108.007 1159.44 102.283 1169.44 93.045 1169.44H-117.627C-126.865 1169.44 -132.687 1159.44 -128.107 1151.44L-23.663 969C-19.0833 961 -7.53626 961 -2.87836 969Z" stroke="url(#paint4_linear_89_105)" stroke-width="2"/>
<path d="M-2.87836 456.26L103.349 273.815C108.007 265.815 102.283 255.815 93.045 255.815H-117.627C-126.865 255.815 -132.687 265.815 -128.107 273.815L-23.663 456.26C-19.0833 464.26 -7.53626 464.26 -2.87836 456.26Z" stroke="url(#paint5_linear_89_105)" stroke-width="2"/>
<path d="M10.1216 935.26L116.349 752.815C121.007 744.815 115.283 734.815 106.045 734.815H-104.627C-113.865 734.815 -119.687 744.815 -115.107 752.815L-10.663 935.26C-6.08326 943.26 5.46374 943.26 10.1216 935.26Z" stroke="url(#paint6_linear_89_105)" stroke-width="2"/>
<path d="M-2.87836 1406.26L103.349 1223.81C108.007 1215.81 102.283 1205.81 93.045 1205.81H-117.627C-126.865 1205.81 -132.687 1215.81 -128.107 1223.81L-23.663 1406.26C-19.0833 1414.26 -7.53626 1414.26 -2.87836 1406.26Z" stroke="url(#paint7_linear_89_105)" stroke-width="2"/>
<path d="M2548.58 693.26L2442.36 510.815C2437.7 502.815 2443.42 492.815 2452.66 492.815H2663.33C2672.57 492.815 2678.39 502.815 2673.81 510.815L2569.37 693.26C2564.79 701.26 2553.24 701.26 2548.58 693.26Z" stroke="url(#paint8_linear_89_105)" stroke-width="2"/>
<path d="M2550.58 733L2444.36 915.445C2439.7 923.445 2445.42 933.445 2454.66 933.445H2665.33C2674.57 933.445 2680.39 923.445 2675.81 915.445L2571.37 733C2566.79 725 2555.24 725 2550.58 733Z" stroke="url(#paint9_linear_89_105)" stroke-width="2"/>
<path d="M2546.58 1170.26L2440.36 987.815C2435.7 979.815 2441.42 969.815 2450.66 969.815H2661.33C2670.57 969.815 2676.39 979.815 2671.81 987.815L2567.37 1170.26C2562.79 1178.26 2551.24 1178.26 2546.58 1170.26Z" stroke="url(#paint10_linear_89_105)" stroke-width="2"/>
<path d="M2548.58 1210L2442.36 1392.44C2437.7 1400.44 2443.42 1410.44 2452.66 1410.44H2663.33C2672.57 1410.44 2678.39 1400.44 2673.81 1392.44L2569.37 1210C2564.79 1202 2553.24 1202 2548.58 1210Z" stroke="url(#paint11_linear_89_105)" stroke-width="2"/>
<line x1="1911.25" y1="1001.75" x2="2056.75" y2="1001.75" stroke="white" stroke-width="0.5" stroke-linecap="round"/>
<line x1="1207.25" y1="1003.75" x2="1352.75" y2="1003.75" stroke="white" stroke-width="0.5" stroke-linecap="round"/>
<line x1="504.25" y1="1004.75" x2="649.75" y2="1004.75" stroke="white" stroke-width="0.5" stroke-linecap="round"/>
</g>
<rect x="0.5" y="0.5" width="2559" height="1439" stroke="black"/>
<defs>
<linearGradient id="paint0_linear_89_105" x1="2467.31" y1="35.0782" x2="2623.9" y2="115" gradientUnits="userSpaceOnUse">
<stop stop-color="#1FA8D9"/>
<stop offset="1" stop-color="#FF1ACD"/>
</linearGradient>
<linearGradient id="paint1_linear_89_105" x1="2469.31" y1="437.181" x2="2625.9" y2="357.259" gradientUnits="userSpaceOnUse">
<stop stop-color="#1FA8D9"/>
<stop offset="1" stop-color="#FF1ACD"/>
</linearGradient>
<linearGradient id="paint2_linear_89_105" x1="80.3983" y1="200.181" x2="-76.1972" y2="120.259" gradientUnits="userSpaceOnUse">
<stop stop-color="#1FA8D9"/>
<stop offset="1" stop-color="#FF1ACD"/>
</linearGradient>
<linearGradient id="paint3_linear_89_105" x1="93.3983" y1="679.181" x2="-63.1972" y2="599.259" gradientUnits="userSpaceOnUse">
<stop stop-color="#1FA8D9"/>
<stop offset="1" stop-color="#FF1ACD"/>
</linearGradient>
<linearGradient id="paint4_linear_89_105" x1="80.3983" y1="1150.18" x2="-76.1972" y2="1070.26" gradientUnits="userSpaceOnUse">
<stop stop-color="#1FA8D9"/>
<stop offset="1" stop-color="#FF1ACD"/>
</linearGradient>
<linearGradient id="paint5_linear_89_105" x1="80.3983" y1="275.078" x2="-76.1972" y2="355" gradientUnits="userSpaceOnUse">
<stop stop-color="#1FA8D9"/>
<stop offset="1" stop-color="#FF1ACD"/>
</linearGradient>
<linearGradient id="paint6_linear_89_105" x1="93.3983" y1="754.078" x2="-63.1972" y2="834" gradientUnits="userSpaceOnUse">
<stop stop-color="#1FA8D9"/>
<stop offset="1" stop-color="#FF1ACD"/>
</linearGradient>
<linearGradient id="paint7_linear_89_105" x1="80.3983" y1="1225.08" x2="-76.1972" y2="1305" gradientUnits="userSpaceOnUse">
<stop stop-color="#1FA8D9"/>
<stop offset="1" stop-color="#FF1ACD"/>
</linearGradient>
<linearGradient id="paint8_linear_89_105" x1="2465.31" y1="512.078" x2="2621.9" y2="592" gradientUnits="userSpaceOnUse">
<stop stop-color="#1FA8D9"/>
<stop offset="1" stop-color="#FF1ACD"/>
</linearGradient>
<linearGradient id="paint9_linear_89_105" x1="2467.31" y1="914.181" x2="2623.9" y2="834.259" gradientUnits="userSpaceOnUse">
<stop stop-color="#1FA8D9"/>
<stop offset="1" stop-color="#FF1ACD"/>
</linearGradient>
<linearGradient id="paint10_linear_89_105" x1="2463.31" y1="989.078" x2="2619.9" y2="1069" gradientUnits="userSpaceOnUse">
<stop stop-color="#1FA8D9"/>
<stop offset="1" stop-color="#FF1ACD"/>
</linearGradient>
<linearGradient id="paint11_linear_89_105" x1="2465.31" y1="1391.18" x2="2621.9" y2="1311.26" gradientUnits="userSpaceOnUse">
<stop stop-color="#1FA8D9"/>
<stop offset="1" stop-color="#FF1ACD"/>
</linearGradient>
<clipPath id="clip0_89_105">
<rect width="2560" height="1440" fill="white"/>
</clipPath>
</defs>
</svg>
