<svg width="18" height="27" viewBox="0 0 18 27" fill="none" xmlns="http://www.w3.org/2000/svg">
<path d="M6.04174 17.8922C6.04174 16.1809 6.23478 14.8348 6.62087 13.8539C7.00696 12.8626 7.63304 12.0017 8.49913 11.2713C9.37565 10.5409 10.0383 9.87826 10.487 9.28348C10.9357 8.67826 11.16 8.01043 11.16 7.28C11.16 5.50609 10.3983 4.61913 8.87478 4.61913C8.17565 4.61913 7.60696 4.88 7.1687 5.40174C6.74087 5.91304 6.5113 6.60696 6.48 7.48348H0.547826C0.568696 5.14609 1.30435 3.32522 2.75478 2.02087C4.21565 0.706086 6.25565 0.0486944 8.87478 0.0486944C11.4939 0.0486944 13.5183 0.653912 14.9478 1.86435C16.3878 3.07478 17.1078 4.7913 17.1078 7.01391C17.1078 7.98435 16.9148 8.8713 16.5287 9.67478C16.1426 10.4678 15.5217 11.2817 14.6661 12.1165L12.6313 13.9948C12.0574 14.5478 11.6609 15.1165 11.4417 15.7009C11.2226 16.2748 11.1026 17.0052 11.0817 17.8922H6.04174ZM5.32174 23.2452C5.32174 22.3791 5.63478 21.6696 6.26087 21.1165C6.88696 20.553 7.66957 20.2713 8.6087 20.2713C9.54783 20.2713 10.3304 20.553 10.9565 21.1165C11.5826 21.6696 11.8957 22.3791 11.8957 23.2452C11.8957 24.1113 11.5826 24.8209 10.9565 25.3739C10.3304 25.927 9.54783 26.2035 8.6087 26.2035C7.66957 26.2035 6.88696 25.927 6.26087 25.3739C5.63478 24.8209 5.32174 24.1113 5.32174 23.2452Z" fill="black"/>
</svg>
