<svg width="1920" height="1080" viewBox="0 0 1920 1080" fill="none" xmlns="http://www.w3.org/2000/svg">
<g clip-path="url(#clip0_602_5657)">
<rect width="1920" height="1080" fill="white"/>
<path d="M268.934 413.794C268.964 413.733 269.025 413.703 269.07 413.642C269.191 413.461 269.342 413.31 269.509 413.143C269.675 412.977 269.826 412.811 270.023 412.69C270.083 412.66 270.113 412.599 270.174 412.554C270.295 412.478 270.431 412.478 270.552 412.418C270.779 412.327 270.99 412.236 271.232 412.191C271.444 412.146 271.655 412.146 271.867 412.146C272.079 412.146 272.29 412.146 272.502 412.191C272.744 412.236 272.956 412.327 273.182 412.418C273.303 412.478 273.439 412.478 273.56 412.539C273.621 412.569 273.651 412.629 273.711 412.675C273.908 412.796 274.059 412.962 274.225 413.128C274.377 413.295 274.543 413.446 274.664 413.627C274.709 413.688 274.77 413.718 274.8 413.778L417.105 660.276H461.4L271.852 332.021L54.3354 708.759L76.4681 747.113L268.934 413.794Z" fill="url(#paint0_linear_602_5657)"/>
<path d="M470.214 662.166C470.319 662.362 470.365 662.574 470.425 662.801C470.486 663.027 470.546 663.239 470.561 663.466C470.561 663.541 470.607 663.602 470.607 663.662C470.607 663.813 470.546 663.934 470.531 664.07C470.501 664.297 470.471 664.524 470.395 664.751C470.319 664.962 470.229 665.144 470.123 665.325C470.017 665.507 469.911 665.688 469.76 665.854C469.609 666.036 469.428 666.172 469.246 666.308C469.14 666.399 469.065 666.52 468.929 666.58C468.853 666.625 468.762 666.641 468.672 666.686C468.581 666.731 468.49 666.761 468.4 666.807C468.022 666.943 467.629 667.049 467.235 667.049H467.22H415.169H415.154H415.139H182.595L160.448 705.403H539.499L321.983 328.665H277.687L470.138 661.984C470.183 662.03 470.183 662.105 470.214 662.166Z" fill="url(#paint1_linear_602_5657)"/>
<path d="M154.612 712.145C154.219 712.145 153.841 712.054 153.448 711.903C153.357 711.873 153.267 711.828 153.176 711.797C153.085 711.752 153.01 711.737 152.919 711.692C152.798 711.616 152.722 711.495 152.602 711.419C152.42 711.283 152.239 711.147 152.088 710.966C151.951 710.8 151.846 710.618 151.725 710.437C151.619 710.255 151.513 710.074 151.453 709.862C151.377 709.636 151.347 709.424 151.316 709.182C151.301 709.046 151.241 708.925 151.241 708.774C151.241 708.698 151.271 708.638 151.286 708.577C151.301 708.351 151.362 708.139 151.422 707.912C151.483 707.685 151.528 707.474 151.634 707.277C151.664 707.217 151.664 707.141 151.694 707.081L293.999 460.583L271.852 422.229L82.3335 750.499H517.351L539.499 712.145H154.612C154.612 712.13 154.612 712.145 154.612 712.145Z" fill="url(#paint2_linear_602_5657)"/>
<path d="M1668.57 417.129C1668.54 417.068 1668.47 417.038 1668.43 416.978C1668.31 416.796 1668.16 416.645 1667.99 416.479C1667.82 416.313 1667.67 416.146 1667.48 416.025C1667.42 415.995 1667.39 415.935 1667.33 415.889C1667.2 415.814 1667.07 415.814 1666.95 415.753C1666.72 415.662 1666.51 415.572 1666.27 415.526C1666.06 415.481 1665.84 415.481 1665.63 415.481C1665.42 415.481 1665.21 415.481 1665 415.526C1664.76 415.572 1664.54 415.662 1664.32 415.753C1664.2 415.814 1664.06 415.814 1663.94 415.874C1663.88 415.904 1663.85 415.965 1663.79 416.01C1663.59 416.131 1663.44 416.297 1663.27 416.464C1663.12 416.63 1662.96 416.781 1662.84 416.963C1662.79 417.023 1662.73 417.053 1662.7 417.114L1520.39 663.611L1476.1 663.611L1665.65 335.356L1883.16 712.094L1861.03 750.449L1668.57 417.129Z" fill="url(#paint3_linear_602_5657)"/>
<path d="M1467.29 665.501C1467.18 665.698 1467.13 665.909 1467.07 666.136C1467.01 666.363 1466.95 666.574 1466.94 666.801C1466.94 666.877 1466.89 666.937 1466.89 666.998C1466.89 667.149 1466.95 667.27 1466.97 667.406C1467 667.633 1467.03 667.859 1467.1 668.086C1467.18 668.298 1467.27 668.479 1467.38 668.661C1467.48 668.842 1467.59 669.024 1467.74 669.19C1467.89 669.371 1468.07 669.507 1468.25 669.643C1468.36 669.734 1468.43 669.855 1468.57 669.915C1468.65 669.961 1468.74 669.976 1468.83 670.021C1468.92 670.067 1469.01 670.097 1469.1 670.142C1469.48 670.278 1469.87 670.384 1470.26 670.384L1470.28 670.384L1522.33 670.384L1522.35 670.384L1522.36 670.384L1754.9 670.384L1777.05 708.738L1398 708.738L1615.52 332L1659.81 332L1467.36 665.32C1467.32 665.365 1467.32 665.441 1467.29 665.501Z" fill="url(#paint4_linear_602_5657)"/>
<path d="M1782.89 715.481C1783.28 715.481 1783.66 715.39 1784.05 715.239C1784.14 715.208 1784.23 715.163 1784.32 715.133C1784.41 715.088 1784.49 715.072 1784.58 715.027C1784.7 714.951 1784.78 714.83 1784.9 714.755C1785.08 714.619 1785.26 714.483 1785.41 714.301C1785.55 714.135 1785.65 713.954 1785.77 713.772C1785.88 713.591 1785.99 713.409 1786.05 713.198C1786.12 712.971 1786.15 712.759 1786.18 712.517C1786.2 712.381 1786.26 712.26 1786.26 712.109C1786.26 712.034 1786.23 711.973 1786.21 711.913C1786.2 711.686 1786.14 711.474 1786.08 711.248C1786.02 711.021 1785.97 710.809 1785.87 710.613C1785.84 710.552 1785.84 710.477 1785.81 710.416L1643.5 463.919L1665.65 425.564L1855.17 753.835L1420.15 753.835L1398 715.481L1782.89 715.481C1782.89 715.465 1782.89 715.481 1782.89 715.481Z" fill="url(#paint5_linear_602_5657)"/>
<path d="M1269.66 859.375L1192.87 992.369L1209.86 992.369L1268.02 891.629C1268.06 891.559 1268.1 891.51 1268.13 891.487C1268.19 891.404 1268.27 891.323 1268.3 891.287C1268.31 891.279 1268.32 891.273 1268.32 891.27L1268.33 891.262L1268.34 891.253C1268.34 891.248 1268.35 891.241 1268.36 891.234C1268.4 891.188 1268.48 891.104 1268.58 891.033C1268.61 891.005 1268.66 890.956 1268.74 890.918L1268.74 890.918C1268.78 890.895 1268.83 890.881 1268.86 890.871C1268.89 890.863 1268.91 890.856 1268.92 890.854C1268.93 890.854 1268.93 890.854 1268.93 890.853L1268.93 890.851C1268.94 890.848 1268.95 890.845 1268.96 890.841C1269.03 890.81 1269.16 890.759 1269.3 890.733C1269.43 890.704 1269.56 890.704 1269.64 890.704L1269.66 890.704L1269.67 890.704C1269.75 890.704 1269.88 890.704 1270.01 890.732C1270.15 890.759 1270.28 890.81 1270.35 890.841C1270.36 890.845 1270.37 890.848 1270.38 890.851L1270.39 890.855L1270.4 890.858C1270.43 890.866 1270.52 890.889 1270.61 890.947L1270.63 890.959L1270.65 890.971C1270.68 890.993 1270.7 891.014 1270.72 891.029C1270.82 891.103 1270.91 891.192 1270.96 891.24C1270.96 891.247 1270.97 891.254 1270.98 891.259L1270.98 891.269C1271.04 891.323 1271.12 891.4 1271.19 891.495C1271.21 891.519 1271.26 891.567 1271.29 891.635L1349.72 1027.45L1358.21 1012.73L1269.66 859.375ZM1270.63 890.98L1270.64 890.983C1270.64 890.982 1270.64 890.981 1270.63 890.98ZM1270.38 890.852L1270.38 890.853C1270.38 890.852 1270.38 890.852 1270.38 890.852Z" stroke="url(#paint6_linear_602_5657)"/>
<path d="M1160.87 1010.86L1314.44 1010.86L1305.94 996.144L1210.95 996.144L1210.95 996.144L1210.94 996.144L1189.61 996.144L1189.61 996.144C1189.36 996.144 1189.14 996.079 1188.96 996.016L1188.93 996.006L1188.91 995.992C1188.91 995.993 1188.91 995.992 1188.9 995.99L1188.88 995.982L1188.88 995.981C1188.87 995.975 1188.84 995.963 1188.81 995.949C1188.81 995.948 1188.8 995.947 1188.8 995.946L1188.8 995.946C1188.79 995.943 1188.77 995.936 1188.75 995.926C1188.73 995.919 1188.71 995.909 1188.68 995.896C1188.59 995.849 1188.52 995.788 1188.49 995.755C1188.48 995.745 1188.47 995.731 1188.46 995.723C1188.39 995.671 1188.29 995.592 1188.2 995.483C1188.1 995.373 1188.03 995.257 1187.99 995.19L1188.43 994.938L1187.99 995.19C1187.94 995.097 1187.89 994.994 1187.84 994.871L1187.84 994.871L1187.84 994.861C1187.79 994.722 1187.78 994.589 1187.76 994.502L1187.76 994.494C1187.76 994.493 1187.76 994.491 1187.76 994.49C1187.76 994.486 1187.76 994.48 1187.76 994.467C1187.75 994.432 1187.73 994.354 1187.73 994.257C1187.73 994.189 1187.74 994.135 1187.75 994.105C1187.75 994.101 1187.75 994.098 1187.75 994.095C1187.76 993.976 1187.79 993.868 1187.81 993.798C1187.81 993.79 1187.82 993.782 1187.82 993.775L1188.3 993.904L1187.82 993.775C1187.82 993.768 1187.82 993.759 1187.82 993.748C1187.84 993.685 1187.87 993.567 1187.92 993.452C1187.93 993.434 1187.94 993.404 1187.96 993.371C1187.97 993.348 1187.98 993.321 1188 993.293L1266.4 857.5L1249.41 857.5L1160.87 1010.86ZM1187.92 993.48L1187.92 993.479C1187.92 993.482 1187.92 993.483 1187.92 993.48ZM1187.76 994.052C1187.76 994.052 1187.76 994.053 1187.76 994.053L1187.76 994.052C1187.77 994.051 1187.77 994.051 1187.76 994.052Z" stroke="url(#paint7_linear_602_5657)"/>
<path d="M1346.45 1029.34L1269.66 896.336L1261.16 911.05L1319.33 1011.8L1319.33 1011.81L1319.34 1011.82C1319.36 1011.87 1319.37 1011.9 1319.38 1011.93C1319.38 1011.93 1319.38 1011.94 1319.39 1011.95C1319.44 1012.06 1319.47 1012.17 1319.48 1012.23C1319.48 1012.24 1319.49 1012.25 1319.49 1012.26C1319.49 1012.27 1319.49 1012.27 1319.49 1012.28C1319.51 1012.35 1319.54 1012.45 1319.55 1012.56C1319.56 1012.6 1319.58 1012.66 1319.58 1012.74C1319.58 1012.84 1319.56 1012.92 1319.55 1012.95C1319.55 1012.96 1319.55 1012.97 1319.54 1012.97C1319.54 1012.97 1319.54 1012.98 1319.54 1012.98C1319.53 1013.07 1319.51 1013.2 1319.47 1013.33C1319.43 1013.48 1319.36 1013.6 1319.32 1013.66L1319.31 1013.67L1319.31 1013.69L1319.3 1013.7C1319.29 1013.71 1319.28 1013.72 1319.27 1013.73C1319.24 1013.79 1319.18 1013.88 1319.12 1013.95L1319.12 1013.96C1319.02 1014.08 1318.9 1014.16 1318.83 1014.22L1318.82 1014.22L1318.81 1014.23C1318.81 1014.23 1318.81 1014.23 1318.81 1014.23C1318.81 1014.24 1318.8 1014.24 1318.79 1014.25C1318.78 1014.26 1318.77 1014.27 1318.76 1014.28C1318.73 1014.3 1318.7 1014.33 1318.66 1014.36L1318.64 1014.37L1318.61 1014.38C1318.57 1014.41 1318.52 1014.42 1318.51 1014.43C1318.51 1014.43 1318.5 1014.43 1318.5 1014.43L1318.48 1014.44L1318.44 1014.45C1318.44 1014.45 1318.44 1014.45 1318.42 1014.46L1318.42 1014.46C1318.4 1014.47 1318.38 1014.48 1318.35 1014.49C1318.15 1014.57 1317.93 1014.62 1317.7 1014.62L1160.87 1014.62L1169.36 1029.34L1346.45 1029.34ZM1319.54 1012.96L1319.54 1012.97C1319.54 1012.97 1319.54 1012.97 1319.54 1012.96Z" stroke="url(#paint8_linear_602_5657)"/>
<path d="M970.878 858.375L894.082 991.369L911.076 991.369L969.234 890.629C969.273 890.559 969.319 890.51 969.343 890.487C969.406 890.404 969.485 890.323 969.52 890.287C969.527 890.279 969.533 890.273 969.536 890.27L969.544 890.262L969.552 890.253C969.557 890.248 969.564 890.241 969.571 890.234C969.616 890.188 969.697 890.104 969.798 890.033C969.825 890.005 969.879 889.956 969.955 889.918L969.955 889.918C970 889.895 970.042 889.881 970.073 889.871C970.103 889.863 970.13 889.856 970.141 889.854C970.141 889.854 970.142 889.854 970.142 889.853L970.147 889.851C970.155 889.848 970.164 889.845 970.173 889.841C970.25 889.81 970.374 889.759 970.513 889.733C970.651 889.704 970.781 889.704 970.86 889.704L970.872 889.704L970.884 889.704C970.963 889.704 971.093 889.704 971.23 889.732C971.37 889.759 971.493 889.81 971.571 889.841C971.58 889.845 971.589 889.848 971.597 889.851L971.606 889.855L971.616 889.858C971.646 889.866 971.737 889.889 971.831 889.947L971.849 889.959L971.866 889.971C971.894 889.993 971.917 890.014 971.933 890.029C972.039 890.103 972.126 890.192 972.172 890.24C972.18 890.247 972.186 890.254 972.192 890.259L972.201 890.269C972.255 890.323 972.332 890.4 972.403 890.495C972.427 890.519 972.472 890.567 972.51 890.635L1050.93 1026.45L1059.42 1011.73L970.878 858.375ZM971.851 889.98L971.857 889.983C971.855 889.982 971.853 889.981 971.851 889.98ZM971.595 889.852L971.596 889.853C971.596 889.852 971.595 889.852 971.595 889.852Z" stroke="url(#paint9_linear_602_5657)"/>
<path d="M862.082 1009.86L1015.66 1009.86L1007.16 995.144L912.17 995.144L912.163 995.144L912.157 995.144L890.831 995.144L890.824 995.144C890.578 995.144 890.353 995.079 890.178 995.016L890.15 995.006L890.124 994.992C890.124 994.993 890.123 994.992 890.119 994.99L890.099 994.982L890.096 994.981C890.081 994.975 890.055 994.963 890.025 994.949C890.023 994.948 890.02 994.947 890.017 994.946L890.016 994.946C890.007 994.943 889.986 994.936 889.964 994.926C889.946 994.919 889.925 994.909 889.901 994.896C889.805 994.849 889.741 994.788 889.707 994.755C889.698 994.745 889.684 994.731 889.676 994.723C889.608 994.671 889.505 994.592 889.413 994.483C889.314 994.373 889.249 994.257 889.209 994.19L889.641 993.938L889.209 994.19C889.155 994.097 889.103 993.994 889.059 993.871L889.059 993.871L889.056 993.861C889.009 993.722 888.992 993.589 888.98 993.502L888.979 993.494C888.979 993.493 888.978 993.491 888.978 993.49C888.977 993.486 888.975 993.48 888.972 993.467C888.963 993.432 888.943 993.354 888.943 993.257C888.943 993.189 888.956 993.135 888.964 993.105C888.965 993.101 888.966 993.098 888.967 993.095C888.98 992.976 889.009 992.868 889.028 992.798C889.03 992.79 889.032 992.782 889.034 992.775L889.517 992.904L889.034 992.775C889.036 992.768 889.039 992.759 889.041 992.748C889.057 992.685 889.087 992.567 889.141 992.452C889.147 992.434 889.157 992.404 889.173 992.371C889.183 992.348 889.198 992.321 889.217 992.293L967.621 856.5L950.627 856.5L862.082 1009.86ZM889.133 992.48L889.133 992.479C889.132 992.482 889.132 992.483 889.133 992.48ZM888.981 993.052C888.981 993.052 888.981 993.053 888.981 993.053L888.981 993.052C888.982 993.051 888.982 993.051 888.981 993.052Z" stroke="url(#paint10_linear_602_5657)"/>
<path d="M1047.66 1028.34L970.878 895.336L962.381 910.05L1020.54 1010.8L1020.55 1010.81L1020.56 1010.82C1020.58 1010.87 1020.59 1010.9 1020.6 1010.93C1020.6 1010.93 1020.6 1010.94 1020.6 1010.95C1020.65 1011.06 1020.68 1011.17 1020.7 1011.23C1020.7 1011.24 1020.7 1011.25 1020.7 1011.26C1020.71 1011.27 1020.71 1011.27 1020.71 1011.28C1020.73 1011.35 1020.76 1011.45 1020.77 1011.56C1020.78 1011.6 1020.8 1011.66 1020.8 1011.74C1020.8 1011.84 1020.78 1011.92 1020.77 1011.95C1020.76 1011.96 1020.76 1011.97 1020.76 1011.97C1020.76 1011.97 1020.76 1011.98 1020.76 1011.98C1020.75 1012.07 1020.73 1012.2 1020.69 1012.33C1020.64 1012.48 1020.57 1012.6 1020.54 1012.66L1020.53 1012.67L1020.52 1012.69L1020.51 1012.7C1020.51 1012.71 1020.5 1012.72 1020.49 1012.73C1020.46 1012.79 1020.4 1012.88 1020.34 1012.95L1020.33 1012.96C1020.23 1013.08 1020.12 1013.16 1020.05 1013.22L1020.04 1013.22L1020.03 1013.23C1020.03 1013.23 1020.03 1013.23 1020.03 1013.23C1020.02 1013.24 1020.01 1013.24 1020.01 1013.25C1020 1013.26 1019.99 1013.27 1019.97 1013.28C1019.95 1013.3 1019.92 1013.33 1019.87 1013.36L1019.85 1013.37L1019.83 1013.38C1019.78 1013.41 1019.74 1013.42 1019.73 1013.43C1019.72 1013.43 1019.72 1013.43 1019.72 1013.43L1019.69 1013.44L1019.66 1013.45C1019.66 1013.45 1019.66 1013.45 1019.64 1013.46L1019.64 1013.46C1019.62 1013.47 1019.59 1013.48 1019.56 1013.49C1019.37 1013.57 1019.15 1013.62 1018.91 1013.62L862.082 1013.62L870.579 1028.34L1047.66 1028.34ZM1020.76 1011.96L1020.76 1011.97C1020.76 1011.97 1020.76 1011.97 1020.76 1011.96Z" stroke="url(#paint11_linear_602_5657)"/>
<path d="M671.662 856.375L594.865 989.369L611.859 989.369L670.017 888.629C670.056 888.559 670.103 888.51 670.127 888.487C670.19 888.404 670.269 888.323 670.304 888.287C670.311 888.279 670.317 888.273 670.319 888.27L670.327 888.262L670.336 888.253C670.341 888.248 670.348 888.241 670.355 888.234C670.4 888.188 670.481 888.104 670.581 888.033C670.609 888.005 670.662 887.956 670.738 887.918L670.738 887.918C670.784 887.895 670.826 887.881 670.857 887.871C670.886 887.863 670.914 887.856 670.925 887.854C670.925 887.854 670.926 887.854 670.926 887.853L670.931 887.851C670.939 887.848 670.947 887.845 670.956 887.841C671.034 887.81 671.158 887.759 671.297 887.733C671.434 887.704 671.565 887.704 671.644 887.704L671.656 887.704L671.668 887.704C671.747 887.704 671.877 887.704 672.014 887.732C672.153 887.759 672.277 887.81 672.355 887.841C672.364 887.845 672.372 887.848 672.38 887.851L672.389 887.855L672.4 887.858C672.429 887.866 672.52 887.889 672.614 887.947L672.632 887.959L672.649 887.971C672.678 887.993 672.7 888.014 672.716 888.029C672.823 888.103 672.909 888.192 672.956 888.24C672.964 888.247 672.97 888.254 672.975 888.259L672.985 888.269C673.039 888.323 673.116 888.4 673.186 888.495C673.211 888.519 673.256 888.567 673.294 888.635L751.715 1024.45L760.206 1009.73L671.662 856.375ZM672.635 887.98L672.641 887.983C672.639 887.982 672.637 887.981 672.635 887.98ZM672.379 887.852L672.38 887.853C672.379 887.852 672.379 887.852 672.379 887.852Z" stroke="url(#paint12_linear_602_5657)"/>
<path d="M562.866 1007.86L716.441 1007.86L707.944 993.144L612.953 993.144L612.947 993.144L612.941 993.144L591.614 993.144L591.608 993.144C591.362 993.144 591.137 993.079 590.962 993.016L590.934 993.006L590.908 992.992C590.908 992.993 590.907 992.992 590.903 992.99L590.883 992.982L590.88 992.981C590.865 992.975 590.838 992.963 590.809 992.949C590.807 992.948 590.804 992.947 590.8 992.946L590.8 992.946C590.79 992.943 590.77 992.936 590.747 992.926C590.73 992.919 590.708 992.909 590.684 992.896C590.589 992.849 590.525 992.788 590.491 992.755C590.481 992.745 590.468 992.731 590.46 992.723C590.392 992.671 590.288 992.592 590.197 992.483C590.098 992.373 590.032 992.257 589.993 992.19L590.425 991.938L589.993 992.19C589.939 992.097 589.887 991.994 589.843 991.871L589.843 991.871L589.839 991.861C589.793 991.722 589.775 991.589 589.764 991.502L589.763 991.494C589.762 991.493 589.762 991.491 589.762 991.49C589.761 991.486 589.759 991.48 589.756 991.467C589.747 991.432 589.727 991.354 589.727 991.257C589.727 991.189 589.739 991.135 589.748 991.105C589.749 991.101 589.75 991.098 589.751 991.095C589.764 990.976 589.793 990.868 589.812 990.798C589.814 990.79 589.816 990.782 589.818 990.775L590.301 990.904L589.818 990.775C589.82 990.768 589.822 990.759 589.825 990.748C589.841 990.685 589.871 990.567 589.925 990.452C589.93 990.434 589.94 990.404 589.956 990.371C589.967 990.348 589.982 990.321 590.001 990.293L668.405 854.5L651.41 854.5L562.866 1007.86ZM589.916 990.48L589.917 990.479C589.916 990.482 589.916 990.483 589.916 990.48ZM589.765 991.052C589.765 991.052 589.765 991.053 589.764 991.053L589.765 991.052C589.765 991.051 589.765 991.051 589.765 991.052Z" stroke="url(#paint13_linear_602_5657)"/>
<path d="M748.446 1026.34L671.662 893.336L663.165 908.05L721.326 1008.8L721.334 1008.81L721.34 1008.82C721.362 1008.87 721.374 1008.9 721.381 1008.93C721.383 1008.93 721.384 1008.94 721.386 1008.95C721.437 1009.06 721.465 1009.17 721.481 1009.23C721.484 1009.24 721.486 1009.25 721.488 1009.26C721.49 1009.27 721.492 1009.27 721.494 1009.28C721.512 1009.35 721.539 1009.45 721.553 1009.56C721.563 1009.6 721.579 1009.66 721.579 1009.74C721.579 1009.84 721.559 1009.92 721.55 1009.95C721.547 1009.96 721.545 1009.97 721.544 1009.97C721.544 1009.97 721.543 1009.98 721.543 1009.98C721.531 1010.07 721.514 1010.2 721.47 1010.33C721.427 1010.48 721.358 1010.6 721.319 1010.66L721.313 1010.67L721.305 1010.69L721.297 1010.7C721.291 1010.71 721.284 1010.72 721.275 1010.73C721.239 1010.79 721.18 1010.88 721.119 1010.95L721.116 1010.96C721.016 1011.08 720.901 1011.16 720.832 1011.22L720.821 1011.22L720.813 1011.23C720.812 1011.23 720.811 1011.23 720.81 1011.23C720.806 1011.24 720.799 1011.24 720.79 1011.25C720.781 1011.26 720.77 1011.27 720.758 1011.28C720.734 1011.3 720.7 1011.33 720.656 1011.36L720.636 1011.37L720.615 1011.38C720.567 1011.41 720.525 1011.42 720.51 1011.43C720.506 1011.43 720.504 1011.43 720.502 1011.43L720.478 1011.44L720.445 1011.45C720.445 1011.45 720.44 1011.45 720.423 1011.46L720.42 1011.46C720.405 1011.47 720.377 1011.48 720.345 1011.49C720.149 1011.57 719.935 1011.62 719.698 1011.62L562.866 1011.62L571.363 1026.34L748.446 1026.34ZM721.545 1009.96L721.544 1009.97C721.544 1009.97 721.545 1009.97 721.545 1009.96Z" stroke="url(#paint14_linear_602_5657)"/>
<g filter="url(#filter0_f_602_5657)">
<ellipse rx="256" ry="12.5" transform="matrix(1 0 0 -1 306 848.5)" fill="black" fill-opacity="0.89"/>
</g>
<g filter="url(#filter1_f_602_5657)">
<ellipse rx="256" ry="12.5" transform="matrix(1 0 0 -1 1634 848.5)" fill="black" fill-opacity="0.89"/>
</g>
</g>
<defs>
<filter id="filter0_f_602_5657" x="-150" y="636" width="912" height="425" filterUnits="userSpaceOnUse" color-interpolation-filters="sRGB">
<feFlood flood-opacity="0" result="BackgroundImageFix"/>
<feBlend mode="normal" in="SourceGraphic" in2="BackgroundImageFix" result="shape"/>
<feGaussianBlur stdDeviation="100" result="effect1_foregroundBlur_602_5657"/>
</filter>
<filter id="filter1_f_602_5657" x="1178" y="636" width="912" height="425" filterUnits="userSpaceOnUse" color-interpolation-filters="sRGB">
<feFlood flood-opacity="0" result="BackgroundImageFix"/>
<feBlend mode="normal" in="SourceGraphic" in2="BackgroundImageFix" result="shape"/>
<feGaussianBlur stdDeviation="100" result="effect1_foregroundBlur_602_5657"/>
</filter>
<linearGradient id="paint0_linear_602_5657" x1="54.3354" y1="537.73" x2="461.4" y2="537.73" gradientUnits="userSpaceOnUse">
<stop stop-color="#002B99"/>
<stop offset="0.604167" stop-color="#8000FF"/>
<stop offset="1" stop-color="#F300F8"/>
</linearGradient>
<linearGradient id="paint1_linear_602_5657" x1="160.448" y1="515.367" x2="539.499" y2="515.367" gradientUnits="userSpaceOnUse">
<stop stop-color="#002B99"/>
<stop offset="0.604167" stop-color="#8000FF"/>
<stop offset="1" stop-color="#F300F8"/>
</linearGradient>
<linearGradient id="paint2_linear_602_5657" x1="82.3335" y1="584.912" x2="539.499" y2="584.912" gradientUnits="userSpaceOnUse">
<stop stop-color="#002B99"/>
<stop offset="0.604167" stop-color="#8000FF"/>
<stop offset="1" stop-color="#F300F8"/>
</linearGradient>
<linearGradient id="paint3_linear_602_5657" x1="1883.16" y1="541.066" x2="1476.1" y2="541.066" gradientUnits="userSpaceOnUse">
<stop stop-color="#002B99"/>
<stop offset="0.604167" stop-color="#8000FF"/>
<stop offset="1" stop-color="#F300F8"/>
</linearGradient>
<linearGradient id="paint4_linear_602_5657" x1="1777.05" y1="518.702" x2="1398" y2="518.702" gradientUnits="userSpaceOnUse">
<stop stop-color="#002B99"/>
<stop offset="0.604167" stop-color="#8000FF"/>
<stop offset="1" stop-color="#F300F8"/>
</linearGradient>
<linearGradient id="paint5_linear_602_5657" x1="1855.17" y1="588.247" x2="1398" y2="588.247" gradientUnits="userSpaceOnUse">
<stop stop-color="#002B99"/>
<stop offset="0.604167" stop-color="#8000FF"/>
<stop offset="1" stop-color="#F300F8"/>
</linearGradient>
<linearGradient id="paint6_linear_602_5657" x1="1358.78" y1="942.659" x2="1192" y2="942.659" gradientUnits="userSpaceOnUse">
<stop stop-color="#002B99"/>
<stop offset="0.604167" stop-color="#8000FF"/>
<stop offset="1" stop-color="#F300F8"/>
</linearGradient>
<linearGradient id="paint7_linear_602_5657" x1="1315.31" y1="933.496" x2="1160" y2="933.496" gradientUnits="userSpaceOnUse">
<stop stop-color="#002B99"/>
<stop offset="0.604167" stop-color="#8000FF"/>
<stop offset="1" stop-color="#F300F8"/>
</linearGradient>
<linearGradient id="paint8_linear_602_5657" x1="1347.31" y1="961.991" x2="1160" y2="961.991" gradientUnits="userSpaceOnUse">
<stop stop-color="#002B99"/>
<stop offset="0.604167" stop-color="#8000FF"/>
<stop offset="1" stop-color="#F300F8"/>
</linearGradient>
<linearGradient id="paint9_linear_602_5657" x1="1060" y1="941.659" x2="893.215" y2="941.659" gradientUnits="userSpaceOnUse">
<stop stop-color="#002B99"/>
<stop offset="0.604167" stop-color="#8000FF"/>
<stop offset="1" stop-color="#F300F8"/>
</linearGradient>
<linearGradient id="paint10_linear_602_5657" x1="1016.52" y1="932.496" x2="861.216" y2="932.496" gradientUnits="userSpaceOnUse">
<stop stop-color="#002B99"/>
<stop offset="0.604167" stop-color="#8000FF"/>
<stop offset="1" stop-color="#F300F8"/>
</linearGradient>
<linearGradient id="paint11_linear_602_5657" x1="1048.53" y1="960.991" x2="861.216" y2="960.991" gradientUnits="userSpaceOnUse">
<stop stop-color="#002B99"/>
<stop offset="0.604167" stop-color="#8000FF"/>
<stop offset="1" stop-color="#F300F8"/>
</linearGradient>
<linearGradient id="paint12_linear_602_5657" x1="760.784" y1="939.659" x2="593.999" y2="939.659" gradientUnits="userSpaceOnUse">
<stop stop-color="#002B99"/>
<stop offset="0.604167" stop-color="#8000FF"/>
<stop offset="1" stop-color="#F300F8"/>
</linearGradient>
<linearGradient id="paint13_linear_602_5657" x1="717.307" y1="930.496" x2="562" y2="930.496" gradientUnits="userSpaceOnUse">
<stop stop-color="#002B99"/>
<stop offset="0.604167" stop-color="#8000FF"/>
<stop offset="1" stop-color="#F300F8"/>
</linearGradient>
<linearGradient id="paint14_linear_602_5657" x1="749.312" y1="958.991" x2="562" y2="958.991" gradientUnits="userSpaceOnUse">
<stop stop-color="#002B99"/>
<stop offset="0.604167" stop-color="#8000FF"/>
<stop offset="1" stop-color="#F300F8"/>
</linearGradient>
<clipPath id="clip0_602_5657">
<rect width="1920" height="1080" fill="white"/>
</clipPath>
</defs>
</svg>
