<svg width="1867" height="188" viewBox="0 0 1867 188" fill="none" xmlns="http://www.w3.org/2000/svg">
    <g filter="url(#filter0_dddd_136_35)">
        <path d="M46.6992 47.6875V46.6875H45.303L45.7524 48.0094L46.6992 47.6875ZM63.457 47.6875L64.4092 47.382L64.1864 46.6875H63.457V47.6875ZM82.5 107.043L81.5478 107.348L82.5 110.316L83.4522 107.348L82.5 107.043ZM101.543 47.6875V46.6875H100.814L100.591 47.382L101.543 47.6875ZM118.301 47.6875L119.248 48.0094L119.697 46.6875H118.301V47.6875ZM89.2969 133V134H90.0131L90.2437 133.322L89.2969 133ZM75.7031 133L74.7563 133.322L74.9869 134H75.7031V133ZM36.5039 47.6875V46.6875H35.5039V47.6875H36.5039ZM53.8477 47.6875L54.8464 47.6383L54.7996 46.6875H53.8477V47.6875ZM57.0703 113.078H58.0703V113.053L58.0691 113.029L57.0703 113.078ZM57.0703 133V134H58.0703V133H57.0703ZM36.5039 133H35.5039V134H36.5039V133ZM111.152 47.6875V46.6875H110.2L110.154 47.6383L111.152 47.6875ZM128.555 47.6875H129.555V46.6875H128.555V47.6875ZM128.555 133V134H129.555V133H128.555ZM107.93 133H106.93V134H107.93V133ZM107.93 113.078L106.931 113.029L106.93 113.053V113.078H107.93ZM46.6992 48.6875H63.457V46.6875H46.6992V48.6875ZM62.5048 47.993L81.5478 107.348L83.4522 106.737L64.4092 47.382L62.5048 47.993ZM83.4522 107.348L102.495 47.993L100.591 47.382L81.5478 106.737L83.4522 107.348ZM101.543 48.6875H118.301V46.6875H101.543V48.6875ZM117.354 47.3656L88.3501 132.678L90.2437 133.322L119.248 48.0094L117.354 47.3656ZM89.2969 132H75.7031V134H89.2969V132ZM76.6499 132.678L47.646 47.3656L45.7524 48.0094L74.7563 133.322L76.6499 132.678ZM36.5039 48.6875H53.8477V46.6875H36.5039V48.6875ZM52.8489 47.7367L56.0715 113.127L58.0691 113.029L54.8464 47.6383L52.8489 47.7367ZM56.0703 113.078V133H58.0703V113.078H56.0703ZM57.0703 132H36.5039V134H57.0703V132ZM37.5039 133V47.6875H35.5039V133H37.5039ZM111.152 48.6875H128.555V46.6875H111.152V48.6875ZM127.555 47.6875V133H129.555V47.6875H127.555ZM128.555 132H107.93V134H128.555V132ZM108.93 133V113.078H106.93V133H108.93ZM108.928 113.127L112.151 47.7367L110.154 47.6383L106.931 113.029L108.928 113.127ZM228.745 65.6172L229.701 65.9121L229.725 65.8341L229.736 65.7532L228.745 65.6172ZM207.945 133V134H208.682L208.9 133.295L207.945 133ZM185.855 133L184.916 132.655L184.422 134H185.855V133ZM217.202 47.6875V46.6875H216.504L216.264 47.3426L217.202 47.6875ZM231.206 47.6875L232.197 47.8235L232.353 46.6875H231.206V47.6875ZM245.972 133L245.017 133.296L245.235 134H245.972V133ZM225.113 65.6172L224.124 65.7658L224.135 65.8406L224.157 65.9129L225.113 65.6172ZM222.417 47.6875V46.6875H221.256L221.428 47.8362L222.417 47.6875ZM236.597 47.6875L237.535 47.3409L237.293 46.6875H236.597V47.6875ZM268.12 133V134H269.556L269.058 132.653L268.12 133ZM245.152 101.184H246.152V100.184H245.152V101.184ZM245.152 117.062V118.062H246.152V117.062H245.152ZM201.382 117.062H200.382V118.062H201.382V117.062ZM201.382 101.184V100.184H200.382V101.184H201.382ZM227.79 65.3222L206.989 132.705L208.9 133.295L229.701 65.9121L227.79 65.3222ZM207.945 132H185.855V134H207.945V132ZM186.793 133.345L218.141 48.0324L216.264 47.3426L184.916 132.655L186.793 133.345ZM217.202 48.6875H231.206V46.6875H217.202V48.6875ZM230.216 47.5515L227.755 65.4812L229.736 65.7532L232.197 47.8235L230.216 47.5515ZM246.927 132.704L226.068 65.3215L224.157 65.9129L245.017 133.296L246.927 132.704ZM226.101 65.4685L223.406 47.5388L221.428 47.8362L224.124 65.7658L226.101 65.4685ZM222.417 48.6875H236.597V46.6875H222.417V48.6875ZM235.659 48.0341L267.182 133.347L269.058 132.653L237.535 47.3409L235.659 48.0341ZM268.12 132H245.972V134H268.12V132ZM244.152 101.184V117.062H246.152V101.184H244.152ZM245.152 116.062H201.382V118.062H245.152V116.062ZM202.382 117.062V101.184H200.382V117.062H202.382ZM201.382 102.184H245.152V100.184H201.382V102.184ZM344.756 47.6875H345.756V46.6875H344.756V47.6875ZM344.756 133V134H345.756V133H344.756ZM324.19 133H323.19V134H324.19V133ZM324.19 47.6875V46.6875H323.19V47.6875H324.19ZM395.674 47.6875L396.469 48.2947L397.697 46.6875H395.674V47.6875ZM362.627 90.9297L363.365 91.6044L363.395 91.5719L363.422 91.5369L362.627 90.9297ZM343.291 112.082L342.311 112.277L342.696 114.216L344.03 112.757L343.291 112.082ZM339.541 93.2148L338.707 92.6644L338.481 93.0071L338.561 93.4098L339.541 93.2148ZM351.905 74.4648L351.081 73.8985L351.075 73.9064L351.07 73.9144L351.905 74.4648ZM370.303 47.6875V46.6875H369.777L369.479 47.1212L370.303 47.6875ZM371.358 133L370.49 133.497L370.778 134H371.358V133ZM349.327 94.5625L348.734 93.7572L348.015 94.286L348.459 95.0598L349.327 94.5625ZM365.323 82.7852L366.178 82.2679L365.612 81.3304L364.73 81.9799L365.323 82.7852ZM395.674 133V134H397.447L396.53 132.483L395.674 133ZM343.756 47.6875V133H345.756V47.6875H343.756ZM344.756 132H324.19V134H344.756V132ZM325.19 133V47.6875H323.19V133H325.19ZM324.19 48.6875H344.756V46.6875H324.19V48.6875ZM394.88 47.0803L361.833 90.3225L363.422 91.5369L396.469 48.2947L394.88 47.0803ZM361.889 90.255L342.553 111.407L344.03 112.757L363.365 91.6044L361.889 90.255ZM344.272 111.887L340.522 93.0199L338.561 93.4098L342.311 112.277L344.272 111.887ZM340.376 93.7653L352.74 75.0153L351.07 73.9144L338.707 92.6644L340.376 93.7653ZM352.729 75.0311L371.127 48.2538L369.479 47.1212L351.081 73.8985L352.729 75.0311ZM370.303 48.6875H395.674V46.6875H370.303V48.6875ZM372.225 132.503L350.194 94.0652L348.459 95.0598L370.49 133.497L372.225 132.503ZM349.919 95.3678L365.916 83.5904L364.73 81.9799L348.734 93.7572L349.919 95.3678ZM364.467 83.3024L394.818 133.517L396.53 132.483L366.178 82.2679L364.467 83.3024ZM395.674 132H371.358V134H395.674V132ZM509.459 117.18H510.459V116.18H509.459V117.18ZM509.459 133V134H510.459V133H509.459ZM463.99 133H462.99V134H463.99V133ZM463.99 117.18V116.18H462.99V117.18H463.99ZM471.314 47.6875H472.314V46.6875H471.314V47.6875ZM471.314 133V134H472.314V133H471.314ZM450.748 133H449.748V134H450.748V133ZM450.748 47.6875V46.6875H449.748V47.6875H450.748ZM503.599 81.5547H504.599V80.5547H503.599V81.5547ZM503.599 96.8477V97.8477H504.599V96.8477H503.599ZM463.99 96.8477H462.99V97.8477H463.99V96.8477ZM463.99 81.5547V80.5547H462.99V81.5547H463.99ZM509.634 47.6875H510.634V46.6875H509.634V47.6875ZM509.634 63.5664V64.5664H510.634V63.5664H509.634ZM463.99 63.5664H462.99V64.5664H463.99V63.5664ZM463.99 47.6875V46.6875H462.99V47.6875H463.99ZM508.459 117.18V133H510.459V117.18H508.459ZM509.459 132H463.99V134H509.459V132ZM464.99 133V117.18H462.99V133H464.99ZM463.99 118.18H509.459V116.18H463.99V118.18ZM470.314 47.6875V133H472.314V47.6875H470.314ZM471.314 132H450.748V134H471.314V132ZM451.748 133V47.6875H449.748V133H451.748ZM450.748 48.6875H471.314V46.6875H450.748V48.6875ZM502.599 81.5547V96.8477H504.599V81.5547H502.599ZM503.599 95.8477H463.99V97.8477H503.599V95.8477ZM464.99 96.8477V81.5547H462.99V96.8477H464.99ZM463.99 82.5547H503.599V80.5547H463.99V82.5547ZM508.634 47.6875V63.5664H510.634V47.6875H508.634ZM509.634 62.5664H463.99V64.5664H509.634V62.5664ZM464.99 63.5664V47.6875H462.99V63.5664H464.99ZM463.99 48.6875H509.634V46.6875H463.99V48.6875ZM669.234 47.6875H670.234V46.6875H669.234V47.6875ZM669.234 133V134H670.234V133H669.234ZM648.727 133H647.727V134H648.727V133ZM648.727 47.6875V46.6875H647.727V47.6875H648.727ZM668.234 47.6875V133H670.234V47.6875H668.234ZM669.234 132H648.727V134H669.234V132ZM649.727 133V47.6875H647.727V133H649.727ZM648.727 48.6875H669.234V46.6875H648.727V48.6875ZM773.058 47.6875H774.058V46.6875H773.058V47.6875ZM773.058 133V134H774.058V133H773.058ZM752.491 133H751.491V134H752.491V133ZM752.491 47.6875V46.6875H751.491V47.6875H752.491ZM798.722 47.6875H799.722V46.6875H798.722V47.6875ZM798.722 63.5664V64.5664H799.722V63.5664H798.722ZM727.413 63.5664H726.413V64.5664H727.413V63.5664ZM727.413 47.6875V46.6875H726.413V47.6875H727.413ZM772.058 47.6875V133H774.058V47.6875H772.058ZM773.058 132H752.491V134H773.058V132ZM753.491 133V47.6875H751.491V133H753.491ZM752.491 48.6875H773.058V46.6875H752.491V48.6875ZM797.722 47.6875V63.5664H799.722V47.6875H797.722ZM798.722 62.5664H727.413V64.5664H798.722V62.5664ZM728.413 63.5664V47.6875H726.413V63.5664H728.413ZM727.413 48.6875H798.722V46.6875H727.413V48.6875Z" fill="black"/>
    </g>
    <path d="M971.634 104.055H950.423V88.1758H971.634C974.524 88.1758 976.868 87.6875 978.665 86.7109C980.462 85.7344 981.77 84.3867 982.591 82.668C983.45 80.9102 983.88 78.9375 983.88 76.75C983.88 74.4062 983.45 72.2383 982.591 70.2461C981.77 68.2539 980.462 66.6523 978.665 65.4414C976.868 64.1914 974.524 63.5664 971.634 63.5664H958.157V133H937.591V47.6875H971.634C978.47 47.6875 984.348 48.9375 989.27 51.4375C994.231 53.9375 998.04 57.375 1000.7 61.75C1003.35 66.0859 1004.68 71.0469 1004.68 76.6328C1004.68 82.1406 1003.35 86.9453 1000.7 91.0469C998.04 95.1484 994.231 98.3516 989.27 100.656C984.348 102.922 978.47 104.055 971.634 104.055ZM1137.74 88.6445V92.1016C1137.74 98.625 1136.82 104.484 1134.99 109.68C1133.19 114.836 1130.63 119.25 1127.31 122.922C1123.99 126.555 1120.07 129.348 1115.54 131.301C1111 133.215 1106 134.172 1100.54 134.172C1095.03 134.172 1089.99 133.215 1085.42 131.301C1080.89 129.348 1076.94 126.555 1073.58 122.922C1070.26 119.25 1067.68 114.836 1065.85 109.68C1064.05 104.484 1063.15 98.625 1063.15 92.1016V88.6445C1063.15 82.1211 1064.05 76.2617 1065.85 71.0664C1067.68 65.8711 1070.24 61.457 1073.52 57.8242C1076.84 54.1523 1080.77 51.3594 1085.3 49.4453C1089.87 47.4922 1094.91 46.5156 1100.42 46.5156C1105.89 46.5156 1110.89 47.4922 1115.42 49.4453C1119.99 51.3594 1123.93 54.1523 1127.25 57.8242C1130.57 61.457 1133.15 65.8711 1134.99 71.0664C1136.82 76.2617 1137.74 82.1211 1137.74 88.6445ZM1116.88 92.1016V88.5273C1116.88 84.3086 1116.51 80.5977 1115.77 77.3945C1115.07 74.1523 1114.01 71.4375 1112.61 69.25C1111.2 67.0625 1109.46 65.4219 1107.39 64.3281C1105.36 63.1953 1103.04 62.6289 1100.42 62.6289C1097.68 62.6289 1095.3 63.1953 1093.27 64.3281C1091.24 65.4219 1089.54 67.0625 1088.17 69.25C1086.8 71.4375 1085.77 74.1523 1085.07 77.3945C1084.4 80.5977 1084.07 84.3086 1084.07 88.5273V92.1016C1084.07 96.2812 1084.4 99.9922 1085.07 103.234C1085.77 106.438 1086.8 109.152 1088.17 111.379C1089.58 113.605 1091.3 115.285 1093.33 116.418C1095.4 117.551 1097.8 118.117 1100.54 118.117C1103.15 118.117 1105.48 117.551 1107.51 116.418C1109.54 115.285 1111.24 113.605 1112.61 111.379C1114.01 109.152 1115.07 106.438 1115.77 103.234C1116.51 99.9922 1116.88 96.2812 1116.88 92.1016ZM1242.15 110.324C1242.15 108.996 1241.96 107.805 1241.57 106.75C1241.18 105.656 1240.45 104.641 1239.4 103.703C1238.34 102.766 1236.82 101.828 1234.83 100.891C1232.87 99.9141 1230.3 98.8984 1227.09 97.8438C1223.34 96.5938 1219.73 95.1875 1216.25 93.625C1212.78 92.0234 1209.67 90.168 1206.94 88.0586C1204.2 85.9102 1202.03 83.4102 1200.43 80.5586C1198.83 77.668 1198.03 74.3086 1198.03 70.4805C1198.03 66.8086 1198.85 63.5078 1200.49 60.5781C1202.13 57.6094 1204.42 55.0898 1207.35 53.0195C1210.32 50.9102 1213.79 49.3086 1217.78 48.2148C1221.76 47.082 1226.12 46.5156 1230.84 46.5156C1237.09 46.5156 1242.6 47.6094 1247.37 49.7969C1252.17 51.9453 1255.92 55.0117 1258.62 58.9961C1261.35 62.9414 1262.72 67.6094 1262.72 73H1242.27C1242.27 70.8516 1241.82 68.957 1240.92 67.3164C1240.06 65.6758 1238.75 64.3867 1237 63.4492C1235.24 62.5117 1233.03 62.043 1230.37 62.043C1227.8 62.043 1225.63 62.4336 1223.87 63.2148C1222.11 63.9961 1220.78 65.0508 1219.89 66.3789C1218.99 67.668 1218.54 69.0938 1218.54 70.6562C1218.54 71.9453 1218.89 73.1172 1219.59 74.1719C1220.34 75.1875 1221.37 76.1445 1222.7 77.043C1224.07 77.9414 1225.71 78.8008 1227.62 79.6211C1229.57 80.4414 1231.76 81.2422 1234.18 82.0234C1238.71 83.4688 1242.74 85.0898 1246.25 86.8867C1249.81 88.6445 1252.8 90.6562 1255.22 92.9219C1257.68 95.1484 1259.53 97.6875 1260.78 100.539C1262.07 103.391 1262.72 106.613 1262.72 110.207C1262.72 114.035 1261.98 117.434 1260.49 120.402C1259.01 123.371 1256.88 125.891 1254.1 127.961C1251.33 129.992 1248.01 131.535 1244.14 132.59C1240.28 133.645 1235.96 134.172 1231.19 134.172C1226.82 134.172 1222.5 133.625 1218.25 132.531C1214.03 131.398 1210.2 129.68 1206.76 127.375C1203.32 125.031 1200.57 122.043 1198.5 118.41C1196.47 114.738 1195.45 110.383 1195.45 105.344H1216.08C1216.08 107.844 1216.41 109.953 1217.07 111.672C1217.74 113.391 1218.71 114.777 1220 115.832C1221.29 116.848 1222.87 117.59 1224.75 118.059C1226.62 118.488 1228.77 118.703 1231.19 118.703C1233.81 118.703 1235.92 118.332 1237.52 117.59C1239.12 116.809 1240.3 115.793 1241.04 114.543C1241.78 113.254 1242.15 111.848 1242.15 110.324ZM1367.07 110.324C1367.07 108.996 1366.87 107.805 1366.48 106.75C1366.09 105.656 1365.37 104.641 1364.31 103.703C1363.26 102.766 1361.74 101.828 1359.74 100.891C1357.79 99.9141 1355.21 98.8984 1352.01 97.8438C1348.26 96.5938 1344.65 95.1875 1341.17 93.625C1337.69 92.0234 1334.59 90.168 1331.85 88.0586C1329.12 85.9102 1326.95 83.4102 1325.35 80.5586C1323.75 77.668 1322.95 74.3086 1322.95 70.4805C1322.95 66.8086 1323.77 63.5078 1325.41 60.5781C1327.05 57.6094 1329.33 55.0898 1332.26 53.0195C1335.23 50.9102 1338.71 49.3086 1342.69 48.2148C1346.68 47.082 1351.03 46.5156 1355.76 46.5156C1362.01 46.5156 1367.52 47.6094 1372.28 49.7969C1377.09 51.9453 1380.84 55.0117 1383.53 58.9961C1386.27 62.9414 1387.64 67.6094 1387.64 73H1367.19C1367.19 70.8516 1366.74 68.957 1365.84 67.3164C1364.98 65.6758 1363.67 64.3867 1361.91 63.4492C1360.15 62.5117 1357.95 62.043 1355.29 62.043C1352.71 62.043 1350.55 62.4336 1348.79 63.2148C1347.03 63.9961 1345.7 65.0508 1344.8 66.3789C1343.9 67.668 1343.46 69.0938 1343.46 70.6562C1343.46 71.9453 1343.81 73.1172 1344.51 74.1719C1345.25 75.1875 1346.29 76.1445 1347.62 77.043C1348.98 77.9414 1350.62 78.8008 1352.54 79.6211C1354.49 80.4414 1356.68 81.2422 1359.1 82.0234C1363.63 83.4688 1367.65 85.0898 1371.17 86.8867C1374.73 88.6445 1377.71 90.6562 1380.14 92.9219C1382.6 95.1484 1384.45 97.6875 1385.7 100.539C1386.99 103.391 1387.64 106.613 1387.64 110.207C1387.64 114.035 1386.89 117.434 1385.41 120.402C1383.92 123.371 1381.8 125.891 1379.02 127.961C1376.25 129.992 1372.93 131.535 1369.06 132.59C1365.19 133.645 1360.88 134.172 1356.11 134.172C1351.74 134.172 1347.42 133.625 1343.16 132.531C1338.94 131.398 1335.12 129.68 1331.68 127.375C1328.24 125.031 1325.49 122.043 1323.42 118.41C1321.39 114.738 1320.37 110.383 1320.37 105.344H1340.99C1340.99 107.844 1341.33 109.953 1341.99 111.672C1342.65 113.391 1343.63 114.777 1344.92 115.832C1346.21 116.848 1347.79 117.59 1349.67 118.059C1351.54 118.488 1353.69 118.703 1356.11 118.703C1358.73 118.703 1360.84 118.332 1362.44 117.59C1364.04 116.809 1365.21 115.793 1365.96 114.543C1366.7 113.254 1367.07 111.848 1367.07 110.324ZM1469.9 47.6875V133H1449.39V47.6875H1469.9ZM1568.97 96.7305H1547L1546.88 83.2539H1564.7C1567.9 83.2539 1570.46 82.9023 1572.37 82.1992C1574.29 81.457 1575.67 80.3828 1576.53 78.9766C1577.43 77.5703 1577.88 75.8125 1577.88 73.7031C1577.88 71.2812 1577.43 69.3281 1576.53 67.8438C1575.63 66.3594 1574.21 65.2852 1572.25 64.6211C1570.34 63.918 1567.86 63.5664 1564.81 63.5664H1554.74V133H1534.17V47.6875H1564.81C1570.09 47.6875 1574.79 48.1758 1578.93 49.1523C1583.08 50.0898 1586.59 51.5352 1589.48 53.4883C1592.41 55.4414 1594.64 57.9023 1596.16 60.8711C1597.68 63.8008 1598.45 67.2578 1598.45 71.2422C1598.45 74.7188 1597.7 77.9805 1596.22 81.0273C1594.74 84.0742 1592.25 86.5547 1588.78 88.4688C1585.34 90.3438 1580.63 91.3203 1574.66 91.3984L1568.97 96.7305ZM1568.15 133H1542.02L1549.05 117.18H1568.15C1570.97 117.18 1573.21 116.75 1574.89 115.891C1576.61 114.992 1577.84 113.82 1578.58 112.375C1579.36 110.891 1579.75 109.25 1579.75 107.453C1579.75 105.266 1579.38 103.371 1578.64 101.77C1577.94 100.168 1576.81 98.9375 1575.24 98.0781C1573.68 97.1797 1571.59 96.7305 1568.97 96.7305H1551.69L1551.81 83.2539H1572.49L1577.29 88.6445C1583 88.4102 1587.51 89.2109 1590.83 91.0469C1594.19 92.8828 1596.59 95.3047 1598.04 98.3125C1599.48 101.32 1600.2 104.465 1600.2 107.746C1600.2 113.332 1598.99 118 1596.57 121.75C1594.19 125.5 1590.61 128.312 1585.85 130.188C1581.08 132.062 1575.18 133 1568.15 133ZM1717.8 117.18V133H1674.67V117.18H1717.8ZM1682 47.6875V133H1661.43V47.6875H1682ZM1834.98 117.18V133H1789.51V117.18H1834.98ZM1796.84 47.6875V133H1776.27V47.6875H1796.84ZM1829.12 81.5547V96.8477H1789.51V81.5547H1829.12ZM1835.16 47.6875V63.5664H1789.51V47.6875H1835.16Z" fill="url(#paint0_linear_136_35)"/>
    <g filter="url(#filter1_dddd_136_35)">
        <path d="M1 24V167H1712" stroke="black"/>
    </g>
    <g filter="url(#filter2_dddd_136_35)">
        <path d="M1866 164V21H131" stroke="url(#paint1_linear_136_35)"/>
    </g>
    <defs>
        <filter id="filter0_dddd_136_35" x="36.5039" y="47.6875" width="806.218" height="129.312" filterUnits="userSpaceOnUse" color-interpolation-filters="sRGB">
            <feFlood flood-opacity="0" result="BackgroundImageFix"/>
            <feColorMatrix in="SourceAlpha" type="matrix" values="0 0 0 0 0 0 0 0 0 0 0 0 0 0 0 0 0 0 127 0" result="hardAlpha"/>
            <feOffset dx="10" dy="10"/>
            <feComposite in2="hardAlpha" operator="out"/>
            <feColorMatrix type="matrix" values="0 0 0 0 0 0 0 0 0 0 0 0 0 0 0 0 0 0 0.8 0"/>
            <feBlend mode="normal" in2="BackgroundImageFix" result="effect1_dropShadow_136_35"/>
            <feColorMatrix in="SourceAlpha" type="matrix" values="0 0 0 0 0 0 0 0 0 0 0 0 0 0 0 0 0 0 127 0" result="hardAlpha"/>
            <feOffset dx="20" dy="20"/>
            <feGaussianBlur stdDeviation="2"/>
            <feComposite in2="hardAlpha" operator="out"/>
            <feColorMatrix type="matrix" values="0 0 0 0 0 0 0 0 0 0 0 0 0 0 0 0 0 0 0.6 0"/>
            <feBlend mode="normal" in2="effect1_dropShadow_136_35" result="effect2_dropShadow_136_35"/>
            <feColorMatrix in="SourceAlpha" type="matrix" values="0 0 0 0 0 0 0 0 0 0 0 0 0 0 0 0 0 0 127 0" result="hardAlpha"/>
            <feOffset dx="30" dy="30"/>
            <feGaussianBlur stdDeviation="2"/>
            <feComposite in2="hardAlpha" operator="out"/>
            <feColorMatrix type="matrix" values="0 0 0 0 0 0 0 0 0 0 0 0 0 0 0 0 0 0 0.4 0"/>
            <feBlend mode="normal" in2="effect2_dropShadow_136_35" result="effect3_dropShadow_136_35"/>
            <feColorMatrix in="SourceAlpha" type="matrix" values="0 0 0 0 0 0 0 0 0 0 0 0 0 0 0 0 0 0 127 0" result="hardAlpha"/>
            <feOffset dx="40" dy="40"/>
            <feGaussianBlur stdDeviation="2"/>
            <feComposite in2="hardAlpha" operator="out"/>
            <feColorMatrix type="matrix" values="0 0 0 0 0 0 0 0 0 0 0 0 0 0 0 0 0 0 0.2 0"/>
            <feBlend mode="normal" in2="effect3_dropShadow_136_35" result="effect4_dropShadow_136_35"/>
            <feBlend mode="normal" in="SourceGraphic" in2="effect4_dropShadow_136_35" result="shape"/>
        </filter>
        <filter id="filter1_dddd_136_35" x="0.5" y="24" width="1731.5" height="163.5" filterUnits="userSpaceOnUse" color-interpolation-filters="sRGB">
            <feFlood flood-opacity="0" result="BackgroundImageFix"/>
            <feColorMatrix in="SourceAlpha" type="matrix" values="0 0 0 0 0 0 0 0 0 0 0 0 0 0 0 0 0 0 127 0" result="hardAlpha"/>
            <feOffset dx="5" dy="5"/>
            <feComposite in2="hardAlpha" operator="out"/>
            <feColorMatrix type="matrix" values="0 0 0 0 0 0 0 0 0 0 0 0 0 0 0 0 0 0 0.8 0"/>
            <feBlend mode="normal" in2="BackgroundImageFix" result="effect1_dropShadow_136_35"/>
            <feColorMatrix in="SourceAlpha" type="matrix" values="0 0 0 0 0 0 0 0 0 0 0 0 0 0 0 0 0 0 127 0" result="hardAlpha"/>
            <feOffset dx="10" dy="10"/>
            <feComposite in2="hardAlpha" operator="out"/>
            <feColorMatrix type="matrix" values="0 0 0 0 0 0 0 0 0 0 0 0 0 0 0 0 0 0 0.7 0"/>
            <feBlend mode="normal" in2="effect1_dropShadow_136_35" result="effect2_dropShadow_136_35"/>
            <feColorMatrix in="SourceAlpha" type="matrix" values="0 0 0 0 0 0 0 0 0 0 0 0 0 0 0 0 0 0 127 0" result="hardAlpha"/>
            <feOffset dx="15" dy="15"/>
            <feComposite in2="hardAlpha" operator="out"/>
            <feColorMatrix type="matrix" values="0 0 0 0 0 0 0 0 0 0 0 0 0 0 0 0 0 0 0.6 0"/>
            <feBlend mode="normal" in2="effect2_dropShadow_136_35" result="effect3_dropShadow_136_35"/>
            <feColorMatrix in="SourceAlpha" type="matrix" values="0 0 0 0 0 0 0 0 0 0 0 0 0 0 0 0 0 0 127 0" result="hardAlpha"/>
            <feOffset dx="20" dy="20"/>
            <feComposite in2="hardAlpha" operator="out"/>
            <feColorMatrix type="matrix" values="0 0 0 0 0 0 0 0 0 0 0 0 0 0 0 0 0 0 0.5 0"/>
            <feBlend mode="normal" in2="effect3_dropShadow_136_35" result="effect4_dropShadow_136_35"/>
            <feBlend mode="normal" in="SourceGraphic" in2="effect4_dropShadow_136_35" result="shape"/>
        </filter>
        <filter id="filter2_dddd_136_35" x="111" y="0.5" width="1755.5" height="163.5" filterUnits="userSpaceOnUse" color-interpolation-filters="sRGB">
            <feFlood flood-opacity="0" result="BackgroundImageFix"/>
            <feColorMatrix in="SourceAlpha" type="matrix" values="0 0 0 0 0 0 0 0 0 0 0 0 0 0 0 0 0 0 127 0" result="hardAlpha"/>
            <feOffset dx="-5" dy="-5"/>
            <feComposite in2="hardAlpha" operator="out"/>
            <feColorMatrix type="matrix" values="0 0 0 0 0 0 0 0 0 0 0 0 0 0 0 0 0 0 0.8 0"/>
            <feBlend mode="normal" in2="BackgroundImageFix" result="effect1_dropShadow_136_35"/>
            <feColorMatrix in="SourceAlpha" type="matrix" values="0 0 0 0 0 0 0 0 0 0 0 0 0 0 0 0 0 0 127 0" result="hardAlpha"/>
            <feOffset dx="-10" dy="-10"/>
            <feComposite in2="hardAlpha" operator="out"/>
            <feColorMatrix type="matrix" values="0 0 0 0 0 0 0 0 0 0 0 0 0 0 0 0 0 0 0.7 0"/>
            <feBlend mode="normal" in2="effect1_dropShadow_136_35" result="effect2_dropShadow_136_35"/>
            <feColorMatrix in="SourceAlpha" type="matrix" values="0 0 0 0 0 0 0 0 0 0 0 0 0 0 0 0 0 0 127 0" result="hardAlpha"/>
            <feOffset dx="-15" dy="-15"/>
            <feComposite in2="hardAlpha" operator="out"/>
            <feColorMatrix type="matrix" values="0 0 0 0 0 0 0 0 0 0 0 0 0 0 0 0 0 0 0.6 0"/>
            <feBlend mode="normal" in2="effect2_dropShadow_136_35" result="effect3_dropShadow_136_35"/>
            <feColorMatrix in="SourceAlpha" type="matrix" values="0 0 0 0 0 0 0 0 0 0 0 0 0 0 0 0 0 0 127 0" result="hardAlpha"/>
            <feOffset dx="-20" dy="-20"/>
            <feComposite in2="hardAlpha" operator="out"/>
            <feColorMatrix type="matrix" values="0 0 0 0 0 0 0 0 0 0 0 0 0 0 0 0 0 0 0.5 0"/>
            <feBlend mode="normal" in2="effect3_dropShadow_136_35" result="effect4_dropShadow_136_35"/>
            <feBlend mode="normal" in="SourceGraphic" in2="effect4_dropShadow_136_35" result="shape"/>
        </filter>
        <linearGradient id="paint0_linear_136_35" x1="944" y1="91.0002" x2="1856" y2="91.0001" gradientUnits="userSpaceOnUse">
            <stop stop-color="#002B99"/>
            <stop offset="0.453125" stop-color="#8000FF"/>
            <stop offset="1" stop-color="#F300F8"/>
        </linearGradient>
        <linearGradient id="paint1_linear_136_35" x1="1866" y1="93.1327" x2="131" y2="93.1328" gradientUnits="userSpaceOnUse">
            <stop stop-color="#002B99"/>
            <stop offset="0.604167" stop-color="#8000FF"/>
            <stop offset="1" stop-color="#F300F8"/>
        </linearGradient>
    </defs>
</svg>
