<svg width="50" height="39" viewBox="0 0 50 39" fill="none" xmlns="http://www.w3.org/2000/svg">
<g clip-path="url(#clip0_611_886)">
<path d="M11.3637 38.8081V18.8211L5.37246 13.1503L0 10.0034V35.2809C0 37.2325 1.52832 38.8081 3.40918 38.8081H11.3637V38.8081Z" fill="url(#paint0_linear_611_886)"/>
<path d="M38.6367 38.8078H46.5912C48.4777 38.8078 50.0004 37.2264 50.0004 35.2807V10.0034L43.9152 13.6078L38.6367 18.8209V38.8078V38.8078Z" fill="url(#paint1_linear_611_886)"/>
<path d="M11.3641 18.8211L10.5488 11.0116L11.3641 3.53711L25.0004 14.1184L38.6367 3.53711L39.5486 10.608L38.6367 18.8211L25.0004 29.4024L11.3641 18.8211Z" fill="url(#paint2_linear_611_886)"/>
<path d="M38.6367 3.53702V18.821L50.0004 10.0033V5.3005C50.0004 0.938767 45.1879 -1.54774 41.8188 1.06809L38.6367 3.53702Z" fill="url(#paint3_linear_611_886)"/>
<path d="M0 10.0034L5.22637 14.059L11.3637 18.8211V3.53711L8.18164 1.06819C4.80664 -1.54785 0 0.938859 0 5.30039V10.0032V10.0034Z" fill="url(#paint4_linear_611_886)"/>
</g>
<defs>
<linearGradient id="paint0_linear_611_886" x1="1.78495e-08" y1="24.2783" x2="11.3637" y2="24.2783" gradientUnits="userSpaceOnUse">
<stop stop-color="#002B99"/>
<stop offset="0.604167" stop-color="#8000FF"/>
<stop offset="1" stop-color="#F300F8"/>
</linearGradient>
<linearGradient id="paint1_linear_611_886" x1="38.6367" y1="24.2782" x2="50.0004" y2="24.2782" gradientUnits="userSpaceOnUse">
<stop stop-color="#002B99"/>
<stop offset="0.604167" stop-color="#8000FF"/>
<stop offset="1" stop-color="#F300F8"/>
</linearGradient>
<linearGradient id="paint2_linear_611_886" x1="10.5488" y1="16.3553" x2="39.5486" y2="16.3553" gradientUnits="userSpaceOnUse">
<stop stop-color="#002B99"/>
<stop offset="0.604167" stop-color="#8000FF"/>
<stop offset="1" stop-color="#F300F8"/>
</linearGradient>
<linearGradient id="paint3_linear_611_886" x1="38.6367" y1="9.32721" x2="50.0004" y2="9.32721" gradientUnits="userSpaceOnUse">
<stop stop-color="#002B99"/>
<stop offset="0.604167" stop-color="#8000FF"/>
<stop offset="1" stop-color="#F300F8"/>
</linearGradient>
<linearGradient id="paint4_linear_611_886" x1="1.78495e-08" y1="9.32726" x2="11.3637" y2="9.32726" gradientUnits="userSpaceOnUse">
<stop stop-color="#002B99"/>
<stop offset="0.604167" stop-color="#8000FF"/>
<stop offset="1" stop-color="#F300F8"/>
</linearGradient>
<clipPath id="clip0_611_886">
<rect width="50" height="39" fill="white"/>
</clipPath>
</defs>
</svg>
