<svg width="57" height="57" viewBox="0 0 57 57" fill="none" xmlns="http://www.w3.org/2000/svg">
<path fill-rule="evenodd" clip-rule="evenodd" d="M7.04882e-07 4.7621C7.04882e-07 3.49911 0.501719 2.28786 1.39478 1.39479C2.28785 0.501725 3.49911 6.34854e-06 4.76209 6.34854e-06H52.2327C52.8586 -0.0010159 53.4786 0.121424 54.0571 0.360315C54.6356 0.599207 55.1613 0.949859 55.6041 1.3922C56.047 1.83453 56.3982 2.35987 56.6377 2.93812C56.8772 3.51638 57.0003 4.1362 57 4.7621V52.2327C57.0007 52.8587 56.8779 53.4788 56.6387 54.0573C56.3996 54.6358 56.0487 55.1615 55.6061 55.6043C55.1636 56.0471 54.6381 56.3983 54.0597 56.6378C53.4813 56.8772 52.8613 57.0003 52.2353 57H4.76209C4.13651 57 3.51705 56.8767 2.93912 56.6373C2.36119 56.3978 1.8361 56.0468 1.39387 55.6043C0.951633 55.1618 0.600914 54.6366 0.361749 54.0585C0.122584 53.4804 -0.000339657 52.8609 7.04882e-07 52.2353V4.7621ZM22.5616 21.7325H30.28V25.6085C31.394 23.3804 34.244 21.375 38.5268 21.375C46.7374 21.375 48.6832 25.8132 48.6832 33.9565V49.0407H40.3741V35.8115C40.3741 31.1738 39.26 28.557 36.4308 28.557C32.5055 28.557 30.8733 31.3785 30.8733 35.8115V49.0407H22.5616V21.7325ZM8.31164 48.6858H16.6233V21.375H8.31164V48.6832V48.6858ZM17.8125 12.4675C17.8282 13.1791 17.7015 13.8867 17.44 14.5488C17.1785 15.2108 16.7874 15.814 16.2896 16.3228C15.7919 16.8317 15.1975 17.236 14.5414 17.512C13.8852 17.788 13.1806 17.9302 12.4688 17.9302C11.7569 17.9302 11.0523 17.788 10.3961 17.512C9.74001 17.236 9.14562 16.8317 8.64785 16.3228C8.15009 15.814 7.75898 15.2108 7.49747 14.5488C7.23596 13.8867 7.10933 13.1791 7.125 12.4675C7.15576 11.0706 7.73227 9.74128 8.73107 8.76424C9.72986 7.78719 11.0715 7.24009 12.4688 7.24009C13.866 7.24009 15.2076 7.78719 16.2064 8.76424C17.2052 9.74128 17.7817 11.0706 17.8125 12.4675Z" fill="url(#paint0_linear_611_878)"/>
<defs>
<linearGradient id="paint0_linear_611_878" x1="8.9533e-08" y1="28.2478" x2="57" y2="28.2478" gradientUnits="userSpaceOnUse">
<stop stop-color="#002B99"/>
<stop offset="0.604167" stop-color="#8000FF"/>
<stop offset="1" stop-color="#F300F8"/>
</linearGradient>
</defs>
</svg>
