<svg width="768" height="1473" viewBox="0 0 768 1473" fill="none" xmlns="http://www.w3.org/2000/svg">
    <g clip-path="url(#clip0_778_4)">
        <path d="M489.758 916.197L449.132 845.848L408.523 916.197H489.758Z" fill="url(#paint0_linear_778_4)"/>
        <path d="M586.933 747.914L544.044 673.606H458.232L501.121 747.914H586.933Z" fill="url(#paint1_linear_778_4)"/>
        <path d="M349.677 837.966L257.062 677.546L214.174 751.854L306.789 912.256L349.677 837.966Z" fill="url(#paint2_linear_778_4)"/>
        <path d="M401.701 912.256L494.298 751.854L451.41 677.546L358.795 837.966L401.701 912.256Z" fill="url(#paint3_linear_778_4)"/>
        <path d="M299.95 916.197L257.062 841.907H166.744L209.632 916.197H299.95Z" fill="url(#paint4_linear_778_4)"/>
        <path d="M202.794 920.155L159.906 845.848L117 920.155L159.906 994.445L202.794 920.155Z" fill="url(#paint5_linear_778_4)"/>
        <path d="M544.045 841.907H544.027H455.971L498.877 916.197H684.09L641.184 841.907H544.062H544.045Z" fill="url(#paint6_linear_778_4)"/>
        <path d="M455.971 834.008H541.765L586.933 755.795H501.121L455.971 834.008Z" fill="url(#paint7_linear_778_4)"/>
        <path d="M442.309 998.387L401.701 928.037L361.074 998.387H442.309Z" fill="url(#paint8_linear_778_4)"/>
        <path d="M394.862 916.197L354.236 845.848L313.627 916.197H394.862Z" fill="url(#paint9_linear_778_4)"/>
        <path d="M458.232 1166.69H544.044L586.933 1092.38H501.121L458.232 1166.69Z" fill="url(#paint10_linear_778_4)"/>
        <path d="M408.523 924.097L501.121 1084.5H586.933L494.317 924.097H408.523Z" fill="url(#paint11_linear_778_4)"/>
        <path d="M494.3 1088.44L449.132 1010.23L406.244 1084.52L451.412 1162.75L494.3 1088.44Z" fill="url(#paint12_linear_778_4)"/>
        <path d="M442.31 1006.29H356.516L263.9 1166.69H349.695L442.31 1006.29Z" fill="url(#paint13_linear_778_4)"/>
        <path d="M394.863 924.097H306.807H306.789H306.772H209.632L166.744 998.387H351.957L394.863 924.097Z" fill="url(#paint14_linear_778_4)"/>
        <path d="M397.142 755.76L349.695 673.606H263.9L354.236 830.067L397.142 755.76Z" fill="url(#paint15_linear_778_4)"/>
        <path d="M546.326 998.387H641.185L684.091 924.097H503.42L546.326 998.387Z" fill="url(#paint16_linear_778_4)"/>
        <path d="M347.398 1006.29H261.603L214.174 1088.44L257.062 1162.75L347.398 1006.29Z" fill="url(#paint17_linear_778_4)"/>
        <path d="M419.618 906.338L456.721 842.062L493.84 906.338H419.618Z" stroke="black" stroke-width="4"/>
        <path d="M469.276 668H550.38L590.915 738.23H509.811L469.276 668Z" stroke="black" stroke-width="4"/>
        <path d="M314.528 900.401L224.319 744.166L264.853 673.937L355.062 830.189L314.528 900.401Z" stroke="black" stroke-width="4"/>
        <path d="M458.997 673.937L499.531 744.166L409.339 900.402L368.788 830.188L458.997 673.937Z" stroke="black" stroke-width="4"/>
        <path d="M178.093 836.126H263.698L304.232 906.339H218.627L178.093 836.126Z" stroke="black" stroke-width="4"/>
        <path d="M167.796 982.506L127.245 912.293L167.796 842.063L208.331 912.293L167.796 982.506Z" stroke="black" stroke-width="4"/>
        <path d="M551.517 836.126H551.535H551.552H647.418L687.969 906.339H507.568L467.017 836.126H551.517Z" stroke="black" stroke-width="4"/>
        <path d="M590.914 750.104L548.103 824.236H467.017L509.811 750.104H590.914Z" stroke="black" stroke-width="4"/>
        <path d="M372.22 988.443L409.339 924.167L446.442 988.443H372.22Z" stroke="black" stroke-width="4"/>
        <path d="M324.823 906.338L361.926 842.062L399.045 906.338H324.823Z" stroke="black" stroke-width="4"/>
        <path d="M590.915 1086.34L550.38 1156.57H469.276L509.811 1086.34H590.915Z" stroke="black" stroke-width="4"/>
        <path d="M509.81 1074.46L419.618 918.229H500.704L590.913 1074.46H509.81Z" stroke="black" stroke-width="4"/>
        <path d="M458.997 1150.63L416.186 1076.48L456.721 1006.27L499.532 1080.4L458.997 1150.63Z" stroke="black" stroke-width="4"/>
        <path d="M275.148 1156.57L365.357 1000.33H446.443L356.234 1156.57H275.148Z" stroke="black" stroke-width="4"/>
        <path d="M314.546 918.229H399.045L358.494 988.442H178.093L218.627 918.229H314.51H314.528H314.546Z" stroke="black" stroke-width="4"/>
        <path d="M275.148 668H356.234L402.477 748.068L361.925 818.299L275.148 668Z" stroke="black" stroke-width="4"/>
        <path d="M687.969 918.229L647.418 988.442H554.967L514.416 918.229H687.969Z" stroke="black" stroke-width="4"/>
        <path d="M224.319 1080.4L270.545 1000.33H351.63L264.853 1150.63L224.319 1080.4Z" stroke="black" stroke-width="4"/>
        <g filter="url(#filter0_f_778_4)">
            <ellipse cx="383.344" cy="1231" rx="251.5" ry="15" fill="black" fill-opacity="0.89"/>
        </g>
        <path d="M409.696 284.244L456.559 204.214L503.444 284.244H409.696Z" stroke="url(#paint18_linear_778_4)" stroke-opacity="0.2" stroke-width="2"/>
        <path d="M469.197 0H569.596L619.762 85.6791H519.363L469.197 0Z" stroke="url(#paint19_linear_778_4)" stroke-opacity="0.2" stroke-width="2"/>
        <path d="M286.178 278.615L176.477 91.3279L226.655 5.628L336.356 192.936L286.178 278.615Z" stroke="url(#paint20_linear_778_4)" stroke-opacity="0.2" stroke-width="2"/>
        <path d="M459.286 5.628L509.463 91.328L399.784 278.615L349.585 192.935L459.286 5.628Z" stroke="url(#paint21_linear_778_4)" stroke-opacity="0.2" stroke-width="2"/>
        <path d="M120.289 198.587H226.081L276.247 284.245H170.455L120.289 198.587Z" stroke="url(#paint22_linear_778_4)" stroke-opacity="0.2" stroke-width="2"/>
        <path d="M110.357 375.594L60.159 289.915L110.357 204.214L160.536 289.915L110.357 375.594Z" stroke="url(#paint23_linear_778_4)" stroke-opacity="0.2" stroke-width="2"/>
        <path d="M570.147 198.587H570.168H570.189H685.869L736.056 284.245H516.675L466.489 198.587H570.147Z" stroke="url(#paint24_linear_778_4)" stroke-opacity="0.2" stroke-width="2"/>
        <path d="M619.76 96.9796L566.866 187.267H466.489L519.362 96.9796H619.76Z" stroke="url(#paint25_linear_778_4)" stroke-opacity="0.2" stroke-width="2"/>
        <path d="M352.899 381.224L399.783 301.194L446.647 381.224H352.899Z" stroke="url(#paint26_linear_778_4)" stroke-opacity="0.2" stroke-width="2"/>
        <path d="M296.108 284.244L342.972 204.214L389.856 284.244H296.108Z" stroke="url(#paint27_linear_778_4)" stroke-opacity="0.2" stroke-width="2"/>
        <path d="M619.762 494.13L569.596 579.809H469.197L519.363 494.13H619.762Z" stroke="url(#paint28_linear_778_4)" stroke-opacity="0.2" stroke-width="2"/>
        <path d="M519.363 482.831L409.696 295.565H510.072L619.761 482.831H519.363Z" stroke="url(#paint29_linear_778_4)" stroke-opacity="0.2" stroke-width="2"/>
        <path d="M459.288 574.18L406.382 483.851L456.56 398.171L509.466 488.48L459.288 574.18Z" stroke="url(#paint30_linear_778_4)" stroke-opacity="0.2" stroke-width="2"/>
        <path d="M236.584 579.81L346.272 392.544H446.65L336.962 579.81H236.584Z" stroke="url(#paint31_linear_778_4)" stroke-opacity="0.2" stroke-width="2"/>
        <path d="M286.199 295.565H389.856L339.67 381.223H120.289L170.455 295.565H286.156H286.178H286.199Z" stroke="url(#paint32_linear_778_4)" stroke-opacity="0.2" stroke-width="2"/>
        <path d="M236.584 0H336.962L393.17 95.9371L342.971 181.637L236.584 0Z" stroke="url(#paint33_linear_778_4)" stroke-opacity="0.2" stroke-width="2"/>
        <path d="M736.056 295.565L685.87 381.223H573.47L523.284 295.565H736.056Z" stroke="url(#paint34_linear_778_4)" stroke-opacity="0.2" stroke-width="2"/>
        <path d="M176.477 488.481L232.664 392.544H333.041L226.655 574.181L176.477 488.481Z" stroke="url(#paint35_linear_778_4)" stroke-opacity="0.2" stroke-width="2"/>
    </g>
    <defs>
        <filter id="filter0_f_778_4" x="-68.1562" y="1016" width="903" height="430" filterUnits="userSpaceOnUse" color-interpolation-filters="sRGB">
            <feFlood flood-opacity="0" result="BackgroundImageFix"/>
            <feBlend mode="normal" in="SourceGraphic" in2="BackgroundImageFix" result="shape"/>
            <feGaussianBlur stdDeviation="100" result="effect1_foregroundBlur_778_4"/>
        </filter>
        <linearGradient id="paint0_linear_778_4" x1="408.523" y1="880.711" x2="489.758" y2="880.711" gradientUnits="userSpaceOnUse">
            <stop stop-color="#002B99"/>
            <stop offset="0.604167" stop-color="#8000FF"/>
            <stop offset="1" stop-color="#F300F8"/>
        </linearGradient>
        <linearGradient id="paint1_linear_778_4" x1="458.232" y1="710.431" x2="586.933" y2="710.431" gradientUnits="userSpaceOnUse">
            <stop stop-color="#002B99"/>
            <stop offset="0.604167" stop-color="#8000FF"/>
            <stop offset="1" stop-color="#F300F8"/>
        </linearGradient>
        <linearGradient id="paint2_linear_778_4" x1="214.174" y1="793.863" x2="349.677" y2="793.863" gradientUnits="userSpaceOnUse">
            <stop stop-color="#002B99"/>
            <stop offset="0.604167" stop-color="#8000FF"/>
            <stop offset="1" stop-color="#F300F8"/>
        </linearGradient>
        <linearGradient id="paint3_linear_778_4" x1="358.795" y1="793.863" x2="494.298" y2="793.863" gradientUnits="userSpaceOnUse">
            <stop stop-color="#002B99"/>
            <stop offset="0.604167" stop-color="#8000FF"/>
            <stop offset="1" stop-color="#F300F8"/>
        </linearGradient>
        <linearGradient id="paint4_linear_778_4" x1="166.744" y1="878.723" x2="299.95" y2="878.723" gradientUnits="userSpaceOnUse">
            <stop stop-color="#002B99"/>
            <stop offset="0.604167" stop-color="#8000FF"/>
            <stop offset="1" stop-color="#F300F8"/>
        </linearGradient>
        <linearGradient id="paint5_linear_778_4" x1="117" y1="919.489" x2="202.794" y2="919.489" gradientUnits="userSpaceOnUse">
            <stop stop-color="#002B99"/>
            <stop offset="0.604167" stop-color="#8000FF"/>
            <stop offset="1" stop-color="#F300F8"/>
        </linearGradient>
        <linearGradient id="paint6_linear_778_4" x1="455.971" y1="878.723" x2="684.09" y2="878.723" gradientUnits="userSpaceOnUse">
            <stop stop-color="#002B99"/>
            <stop offset="0.604167" stop-color="#8000FF"/>
            <stop offset="1" stop-color="#F300F8"/>
        </linearGradient>
        <linearGradient id="paint7_linear_778_4" x1="455.971" y1="794.556" x2="586.933" y2="794.556" gradientUnits="userSpaceOnUse">
            <stop stop-color="#002B99"/>
            <stop offset="0.604167" stop-color="#8000FF"/>
            <stop offset="1" stop-color="#F300F8"/>
        </linearGradient>
        <linearGradient id="paint8_linear_778_4" x1="361.074" y1="962.901" x2="442.309" y2="962.901" gradientUnits="userSpaceOnUse">
            <stop stop-color="#002B99"/>
            <stop offset="0.604167" stop-color="#8000FF"/>
            <stop offset="1" stop-color="#F300F8"/>
        </linearGradient>
        <linearGradient id="paint9_linear_778_4" x1="313.627" y1="880.711" x2="394.862" y2="880.711" gradientUnits="userSpaceOnUse">
            <stop stop-color="#002B99"/>
            <stop offset="0.604167" stop-color="#8000FF"/>
            <stop offset="1" stop-color="#F300F8"/>
        </linearGradient>
        <linearGradient id="paint10_linear_778_4" x1="458.232" y1="1129.21" x2="586.933" y2="1129.21" gradientUnits="userSpaceOnUse">
            <stop stop-color="#002B99"/>
            <stop offset="0.604167" stop-color="#8000FF"/>
            <stop offset="1" stop-color="#F300F8"/>
        </linearGradient>
        <linearGradient id="paint11_linear_778_4" x1="408.523" y1="1003.59" x2="586.933" y2="1003.59" gradientUnits="userSpaceOnUse">
            <stop stop-color="#002B99"/>
            <stop offset="0.604167" stop-color="#8000FF"/>
            <stop offset="1" stop-color="#F300F8"/>
        </linearGradient>
        <linearGradient id="paint12_linear_778_4" x1="406.244" y1="1085.81" x2="494.3" y2="1085.81" gradientUnits="userSpaceOnUse">
            <stop stop-color="#002B99"/>
            <stop offset="0.604167" stop-color="#8000FF"/>
            <stop offset="1" stop-color="#F300F8"/>
        </linearGradient>
        <linearGradient id="paint13_linear_778_4" x1="263.9" y1="1085.78" x2="442.31" y2="1085.78" gradientUnits="userSpaceOnUse">
            <stop stop-color="#002B99"/>
            <stop offset="0.604167" stop-color="#8000FF"/>
            <stop offset="1" stop-color="#F300F8"/>
        </linearGradient>
        <linearGradient id="paint14_linear_778_4" x1="166.744" y1="960.913" x2="394.863" y2="960.913" gradientUnits="userSpaceOnUse">
            <stop stop-color="#002B99"/>
            <stop offset="0.604167" stop-color="#8000FF"/>
            <stop offset="1" stop-color="#F300F8"/>
        </linearGradient>
        <linearGradient id="paint15_linear_778_4" x1="263.9" y1="751.144" x2="397.142" y2="751.144" gradientUnits="userSpaceOnUse">
            <stop stop-color="#002B99"/>
            <stop offset="0.604167" stop-color="#8000FF"/>
            <stop offset="1" stop-color="#F300F8"/>
        </linearGradient>
        <linearGradient id="paint16_linear_778_4" x1="503.42" y1="960.913" x2="684.091" y2="960.913" gradientUnits="userSpaceOnUse">
            <stop stop-color="#002B99"/>
            <stop offset="0.604167" stop-color="#8000FF"/>
            <stop offset="1" stop-color="#F300F8"/>
        </linearGradient>
        <linearGradient id="paint17_linear_778_4" x1="214.174" y1="1083.82" x2="347.398" y2="1083.82" gradientUnits="userSpaceOnUse">
            <stop stop-color="#002B99"/>
            <stop offset="0.604167" stop-color="#8000FF"/>
            <stop offset="1" stop-color="#F300F8"/>
        </linearGradient>
        <linearGradient id="paint18_linear_778_4" x1="407.951" y1="243.372" x2="505.189" y2="243.372" gradientUnits="userSpaceOnUse">
            <stop stop-color="#002B99"/>
            <stop offset="0.604167" stop-color="#8000FF"/>
            <stop offset="1" stop-color="#F300F8"/>
        </linearGradient>
        <linearGradient id="paint19_linear_778_4" x1="467.453" y1="42.4516" x2="621.506" y2="42.4516" gradientUnits="userSpaceOnUse">
            <stop stop-color="#002B99"/>
            <stop offset="0.604167" stop-color="#8000FF"/>
            <stop offset="1" stop-color="#F300F8"/>
        </linearGradient>
        <linearGradient id="paint20_linear_778_4" x1="175.318" y1="140.896" x2="337.515" y2="140.896" gradientUnits="userSpaceOnUse">
            <stop stop-color="#002B99"/>
            <stop offset="0.604167" stop-color="#8000FF"/>
            <stop offset="1" stop-color="#F300F8"/>
        </linearGradient>
        <linearGradient id="paint21_linear_778_4" x1="348.426" y1="140.896" x2="510.622" y2="140.896" gradientUnits="userSpaceOnUse">
            <stop stop-color="#002B99"/>
            <stop offset="0.604167" stop-color="#8000FF"/>
            <stop offset="1" stop-color="#F300F8"/>
        </linearGradient>
        <linearGradient id="paint22_linear_778_4" x1="118.545" y1="241.028" x2="277.991" y2="241.028" gradientUnits="userSpaceOnUse">
            <stop stop-color="#002B99"/>
            <stop offset="0.604167" stop-color="#8000FF"/>
            <stop offset="1" stop-color="#F300F8"/>
        </linearGradient>
        <linearGradient id="paint23_linear_778_4" x1="59" y1="289.128" x2="161.694" y2="289.128" gradientUnits="userSpaceOnUse">
            <stop stop-color="#002B99"/>
            <stop offset="0.604167" stop-color="#8000FF"/>
            <stop offset="1" stop-color="#F300F8"/>
        </linearGradient>
        <linearGradient id="paint24_linear_778_4" x1="464.744" y1="241.028" x2="737.8" y2="241.028" gradientUnits="userSpaceOnUse">
            <stop stop-color="#002B99"/>
            <stop offset="0.604167" stop-color="#8000FF"/>
            <stop offset="1" stop-color="#F300F8"/>
        </linearGradient>
        <linearGradient id="paint25_linear_778_4" x1="464.744" y1="141.715" x2="621.505" y2="141.715" gradientUnits="userSpaceOnUse">
            <stop stop-color="#002B99"/>
            <stop offset="0.604167" stop-color="#8000FF"/>
            <stop offset="1" stop-color="#F300F8"/>
        </linearGradient>
        <linearGradient id="paint26_linear_778_4" x1="351.154" y1="340.352" x2="448.392" y2="340.352" gradientUnits="userSpaceOnUse">
            <stop stop-color="#002B99"/>
            <stop offset="0.604167" stop-color="#8000FF"/>
            <stop offset="1" stop-color="#F300F8"/>
        </linearGradient>
        <linearGradient id="paint27_linear_778_4" x1="294.363" y1="243.372" x2="391.601" y2="243.372" gradientUnits="userSpaceOnUse">
            <stop stop-color="#002B99"/>
            <stop offset="0.604167" stop-color="#8000FF"/>
            <stop offset="1" stop-color="#F300F8"/>
        </linearGradient>
        <linearGradient id="paint28_linear_778_4" x1="467.453" y1="536.582" x2="621.506" y2="536.582" gradientUnits="userSpaceOnUse">
            <stop stop-color="#002B99"/>
            <stop offset="0.604167" stop-color="#8000FF"/>
            <stop offset="1" stop-color="#F300F8"/>
        </linearGradient>
        <linearGradient id="paint29_linear_778_4" x1="407.951" y1="388.36" x2="621.506" y2="388.36" gradientUnits="userSpaceOnUse">
            <stop stop-color="#002B99"/>
            <stop offset="0.604167" stop-color="#8000FF"/>
            <stop offset="1" stop-color="#F300F8"/>
        </linearGradient>
        <linearGradient id="paint30_linear_778_4" x1="405.223" y1="485.38" x2="510.625" y2="485.38" gradientUnits="userSpaceOnUse">
            <stop stop-color="#002B99"/>
            <stop offset="0.604167" stop-color="#8000FF"/>
            <stop offset="1" stop-color="#F300F8"/>
        </linearGradient>
        <linearGradient id="paint31_linear_778_4" x1="234.84" y1="485.34" x2="448.394" y2="485.34" gradientUnits="userSpaceOnUse">
            <stop stop-color="#002B99"/>
            <stop offset="0.604167" stop-color="#8000FF"/>
            <stop offset="1" stop-color="#F300F8"/>
        </linearGradient>
        <linearGradient id="paint32_linear_778_4" x1="118.545" y1="338.006" x2="391.601" y2="338.006" gradientUnits="userSpaceOnUse">
            <stop stop-color="#002B99"/>
            <stop offset="0.604167" stop-color="#8000FF"/>
            <stop offset="1" stop-color="#F300F8"/>
        </linearGradient>
        <linearGradient id="paint33_linear_778_4" x1="234.84" y1="90.4911" x2="394.329" y2="90.4911" gradientUnits="userSpaceOnUse">
            <stop stop-color="#002B99"/>
            <stop offset="0.604167" stop-color="#8000FF"/>
            <stop offset="1" stop-color="#F300F8"/>
        </linearGradient>
        <linearGradient id="paint34_linear_778_4" x1="521.539" y1="338.006" x2="737.801" y2="338.006" gradientUnits="userSpaceOnUse">
            <stop stop-color="#002B99"/>
            <stop offset="0.604167" stop-color="#8000FF"/>
            <stop offset="1" stop-color="#F300F8"/>
        </linearGradient>
        <linearGradient id="paint35_linear_778_4" x1="175.318" y1="483.035" x2="334.786" y2="483.035" gradientUnits="userSpaceOnUse">
            <stop stop-color="#002B99"/>
            <stop offset="0.604167" stop-color="#8000FF"/>
            <stop offset="1" stop-color="#F300F8"/>
        </linearGradient>
        <clipPath id="clip0_778_4">
            <rect width="768" height="1473" fill="white"/>
        </clipPath>
    </defs>
</svg>
