<svg width="61" height="61" viewBox="0 0 61 61" fill="none" xmlns="http://www.w3.org/2000/svg">
<path d="M30.0669 20.0343C35.5862 20.0343 40.0904 24.5385 40.0904 30.0578C40.0904 35.5771 35.5862 40.0813 30.0669 40.0813C24.5476 40.0813 20.0434 35.5771 20.0434 30.0578C20.0434 24.5385 24.5476 20.0343 30.0669 20.0343ZM0.00381851 30.0578C0.00381851 25.907 -0.033783 21.7938 0.199326 17.6506C0.43243 12.8381 1.53028 8.56698 5.04942 5.04784C8.57608 1.52118 12.8397 0.43085 17.6522 0.197744C21.8029 -0.0353611 25.9161 0.00223664 30.0594 0.00223664C34.2102 0.00223664 38.3233 -0.0353611 42.4666 0.197744C47.2791 0.43085 51.5502 1.5287 55.0693 5.04784C58.596 8.5745 59.6863 12.8381 59.9194 17.6506C60.1525 21.8014 60.115 25.9145 60.115 30.0578C60.115 34.2011 60.1525 38.3218 59.9194 42.465C59.6863 47.2775 58.5885 51.5486 55.0693 55.0678C51.5427 58.5944 47.2791 59.6848 42.4666 59.9179C38.3158 60.151 34.2026 60.1134 30.0594 60.1134C25.9086 60.1134 21.7954 60.151 17.6522 59.9179C12.8397 59.6848 8.56856 58.5869 5.04942 55.0678C1.52276 51.5411 0.43243 47.2775 0.199326 42.465C-0.0413017 38.3218 0.00381851 34.2086 0.00381851 30.0578ZM30.0669 45.4804C38.6016 45.4804 45.4895 38.5925 45.4895 30.0578C45.4895 21.5231 38.6016 14.6352 30.0669 14.6352C21.5322 14.6352 14.6443 21.5231 14.6443 30.0578C14.6443 38.5925 21.5322 45.4804 30.0669 45.4804ZM14.0127 17.6055C16.0054 17.6055 17.6146 15.9963 17.6146 14.0036C17.6146 12.0109 16.0054 10.4017 14.0127 10.4017C12.02 10.4017 10.4108 12.0109 10.4108 14.0036C10.4103 14.4768 10.503 14.9454 10.6838 15.3827C10.8646 15.8199 11.1299 16.2172 11.4645 16.5518C11.7991 16.8864 12.1964 17.1517 12.6336 17.3325C13.0709 17.5133 13.5395 17.6061 14.0127 17.6055Z" fill="url(#paint0_linear_611_876)"/>
<defs>
<linearGradient id="paint0_linear_611_876" x1="60.1172" y1="29.7918" x2="0.000465299" y2="29.7918" gradientUnits="userSpaceOnUse">
<stop stop-color="#002B99"/>
<stop offset="0.604167" stop-color="#8000FF"/>
<stop offset="1" stop-color="#F300F8"/>
</linearGradient>
</defs>
</svg>
