<svg width="768" height="1472" viewBox="0 0 768 1472" fill="none" xmlns="http://www.w3.org/2000/svg">
<g clip-path="url(#clip0_778_3)">
<path d="M706.667 587.029L661.769 664.807H571.954L616.852 587.029H706.667Z" stroke="url(#paint0_linear_778_3)" stroke-opacity="0.2" stroke-width="4"/>
<path d="M365.003 269.197L346.61 301.06H302.043L257.145 223.283H293.979L318.548 265.84L318.557 265.855L318.565 265.869C318.645 266.001 318.724 266.105 318.779 266.174C318.806 266.207 318.832 266.238 318.854 266.262C318.939 266.397 319.02 266.501 319.073 266.566C319.114 266.617 319.154 266.663 319.172 266.685C319.183 266.697 319.189 266.705 319.193 266.709C319.195 266.712 319.196 266.713 319.197 266.714M365.003 269.197L319.197 266.714M365.003 269.197H324.346H324.325C323.557 269.197 322.878 269.029 322.322 268.852L322.309 268.848L322.296 268.844C322.241 268.825 322.194 268.808 322.156 268.792C322.129 268.781 322.105 268.771 322.085 268.762C322.077 268.759 322.07 268.755 322.063 268.753C322.062 268.752 322.062 268.752 322.061 268.751M365.003 269.197L319.399 266.979M319.197 266.714C319.195 266.712 319.196 266.712 319.198 266.715C319.199 266.716 319.199 266.716 319.197 266.714ZM319.399 266.979C319.414 267 319.43 267.022 319.448 267.044C319.487 267.094 319.53 267.144 319.576 267.193C319.942 267.585 320.341 267.892 320.738 268.137C320.767 268.16 320.798 268.183 320.83 268.206C321.007 268.33 321.194 268.419 321.382 268.478C321.432 268.497 321.471 268.512 321.495 268.52L321.505 268.524C321.508 268.525 321.511 268.526 321.514 268.527M319.399 266.979C319.37 266.939 319.344 266.9 319.322 266.865C319.289 266.812 319.264 266.766 319.248 266.735C319.239 266.72 319.233 266.707 319.229 266.699L319.226 266.693M319.399 266.979C319.448 267.038 319.507 267.105 319.575 267.172C319.518 267.115 319.466 267.056 319.42 266.997C319.374 266.938 319.336 266.882 319.305 266.833C319.275 266.786 319.253 266.745 319.24 266.72C319.234 266.708 319.229 266.699 319.226 266.693M321.514 268.527C321.706 268.621 321.879 268.69 322.061 268.751M321.514 268.527C321.53 268.533 321.537 268.536 321.537 268.536C321.537 268.536 321.506 268.523 321.471 268.506C321.485 268.513 321.499 268.52 321.514 268.527ZM322.061 268.751C322.069 268.754 322.078 268.757 322.087 268.76L322.16 268.785L322.235 268.803C322.176 268.789 322.126 268.773 322.088 268.759C322.078 268.755 322.068 268.751 322.06 268.748C322.039 268.74 322.023 268.733 322.012 268.729L322 268.723L322.004 268.725L322.011 268.729C322.016 268.731 322.025 268.735 322.035 268.74C322.042 268.743 322.051 268.747 322.061 268.751ZM319.226 266.693L319.225 266.691C319.225 266.692 319.225 266.692 319.226 266.693ZM320.266 267.608L320.268 267.61C320.265 267.605 320.263 267.603 320.264 267.604L320.264 267.604L320.265 267.605L320.266 267.608Z" stroke="url(#paint1_linear_778_3)" stroke-opacity="0.2" stroke-width="4"/>
<path d="M605.318 580.358L560.4 658.158L542.067 626.418L566.74 583.694L566.77 583.642L566.797 583.588C566.88 583.421 566.928 583.274 566.956 583.178C566.962 583.155 566.968 583.133 566.974 583.112C567.047 582.947 567.141 582.725 567.219 582.492L567.228 582.463L567.237 582.434L567.243 582.414C567.301 582.22 567.388 581.932 567.449 581.626C567.493 581.404 567.521 581.203 567.54 581.026C567.579 580.886 567.634 580.651 567.634 580.358C567.634 580.125 567.598 579.927 567.557 579.774C567.553 579.759 567.549 579.743 567.545 579.729C567.524 579.543 567.497 579.329 567.449 579.09C567.388 578.785 567.301 578.497 567.243 578.302L567.237 578.282L567.228 578.253L567.219 578.225C567.141 577.992 567.047 577.77 566.974 577.604C566.968 577.584 566.962 577.561 566.956 577.539C566.928 577.443 566.88 577.295 566.797 577.129L566.77 577.075L566.74 577.023L542.088 534.32L560.421 502.58L605.318 580.358Z" stroke="url(#paint2_linear_778_3)" stroke-opacity="0.2" stroke-width="4"/>
<path d="M99.7607 664.807L144.659 587.029H234.475L189.577 664.807H99.7607Z" stroke="url(#paint3_linear_778_3)" stroke-opacity="0.2" stroke-width="4"/>
<path d="M290.531 580.358L245.632 658.178L227.196 626.272L251.765 583.714L251.795 583.662L251.822 583.609C251.905 583.442 251.953 583.294 251.98 583.198C251.987 583.176 251.993 583.154 251.998 583.133C252.071 582.967 252.166 582.745 252.243 582.513L252.253 582.484L252.261 582.455L252.27 582.426C252.327 582.235 252.414 581.949 252.474 581.647C252.518 581.424 252.546 581.222 252.565 581.046C252.604 580.906 252.658 580.671 252.658 580.379C252.658 580.112 252.609 579.9 252.576 579.782C252.574 579.776 252.573 579.77 252.571 579.764C252.551 579.577 252.523 579.357 252.474 579.111C252.414 578.81 252.328 578.523 252.27 578.332L252.261 578.303L252.253 578.274L252.243 578.245C252.167 578.017 252.075 577.799 252.002 577.633C251.975 577.53 251.92 577.346 251.822 577.149L251.795 577.096L251.765 577.044L231.228 541.469H268.082L290.531 580.358ZM252.517 581.202L252.517 581.202C252.516 581.207 252.516 581.208 252.517 581.202ZM252.513 579.585C252.511 579.579 252.511 579.581 252.514 579.588L252.513 579.585ZM252.025 577.727C252.026 577.733 252.027 577.737 252.027 577.737C252.027 577.737 252.026 577.734 252.025 577.727Z" stroke="url(#paint4_linear_778_3)" stroke-opacity="0.2" stroke-width="4"/>
<path d="M88.2279 658.157L43.3095 580.358L88.2279 502.58L133.146 580.358L88.2279 658.157Z" stroke="url(#paint5_linear_778_3)" stroke-opacity="0.2" stroke-width="4"/>
<path d="M240.573 403.036L240.574 403.038C240.574 403.037 240.574 403.037 240.573 403.036ZM240.573 403.036L240.57 403.029C240.569 403.027 240.571 403.031 240.573 403.036ZM223.579 437.093L178.662 359.315H215.14L239.897 402.186L239.905 402.2L239.914 402.214C239.993 402.346 240.072 402.45 240.128 402.519C240.166 402.566 240.203 402.609 240.227 402.635C240.347 402.81 240.462 402.954 240.534 403.044L240.545 403.058C240.546 403.059 240.549 403.063 240.555 403.071L240.577 403.101L240.612 403.149C240.639 403.187 240.685 403.249 240.748 403.324C240.763 403.345 240.779 403.367 240.796 403.389C240.847 403.453 240.903 403.517 240.965 403.58L240.991 403.606L241.018 403.631C241.313 403.905 241.667 404.201 242.075 404.461L242.098 404.483L242.309 404.61C242.444 404.691 242.566 404.747 242.656 404.784C242.741 404.819 242.817 404.845 242.85 404.857L242.852 404.857C242.855 404.859 242.858 404.86 242.861 404.861C243.036 404.945 243.195 405.009 243.36 405.066C243.399 405.084 243.458 405.11 243.527 405.136C243.604 405.166 243.702 405.199 243.818 405.228C244.362 405.38 244.994 405.5 245.653 405.5H245.674H294.77L313.011 437.093H223.579Z" stroke="url(#paint6_linear_778_3)" stroke-opacity="0.2" stroke-width="4"/>
<path d="M257.165 664.807L302.063 587.029H391.878L346.96 664.807H257.165Z" stroke="url(#paint7_linear_778_3)" stroke-opacity="0.2" stroke-width="4"/>
<path d="M290.529 307.752L245.632 385.53L225.661 350.964C225.364 349.8 224.772 348.72 223.873 347.866L200.714 307.752L245.632 229.974L290.529 307.752Z" stroke="url(#paint8_linear_778_3)" stroke-opacity="0.2" stroke-width="4"/>
<path d="M234.452 573.667H144.638L99.7205 495.889H136.949L161.331 538.113L161.339 538.128L161.348 538.142C161.428 538.275 161.507 538.38 161.563 538.449C161.59 538.481 161.616 538.512 161.637 538.537C161.722 538.67 161.802 538.772 161.854 538.837C161.895 538.888 161.935 538.935 161.954 538.957C161.971 538.977 161.978 538.985 161.98 538.987M234.452 573.667L161.98 538.987M234.452 573.667L215.87 541.47H167.129H167.108C166.34 541.47 165.66 541.302 165.104 541.125L165.091 541.121L165.078 541.117C165.023 541.098 164.976 541.08 164.937 541.065C164.899 541.049 164.867 541.035 164.844 541.025C164.843 541.024 164.842 541.024 164.842 541.024M234.452 573.667L162.182 539.253M161.98 538.987C161.978 538.985 161.979 538.986 161.98 538.988L161.981 538.988C161.981 538.988 161.98 538.988 161.98 538.987ZM162.182 539.253C162.197 539.274 162.213 539.295 162.231 539.317C162.27 539.367 162.312 539.417 162.358 539.465C162.725 539.858 163.124 540.165 163.521 540.41C163.55 540.433 163.581 540.456 163.613 540.479C163.79 540.603 163.976 540.691 164.164 540.751C164.214 540.77 164.253 540.784 164.277 540.793L164.287 540.796C164.29 540.798 164.293 540.799 164.295 540.8M162.182 539.253C162.153 539.212 162.127 539.173 162.105 539.138C162.072 539.085 162.047 539.039 162.031 539.008C162.025 538.998 162.021 538.989 162.017 538.982C162.015 538.978 162.013 538.975 162.012 538.972L162.009 538.966M162.182 539.253C162.231 539.311 162.29 539.378 162.358 539.445C162.301 539.388 162.249 539.329 162.203 539.27C162.156 539.211 162.119 539.155 162.088 539.106C162.058 539.059 162.036 539.018 162.023 538.993C162.016 538.981 162.012 538.972 162.009 538.966M164.295 540.8C164.489 540.894 164.663 540.963 164.842 541.024M164.295 540.8C164.312 540.806 164.318 540.808 164.318 540.808C164.318 540.808 164.288 540.796 164.253 540.779C164.267 540.786 164.281 540.793 164.295 540.8ZM164.842 541.024C164.851 541.027 164.861 541.03 164.87 541.033L164.943 541.058L165.018 541.076C164.959 541.062 164.91 541.046 164.871 541.032C164.86 541.028 164.85 541.024 164.841 541.02C164.82 541.012 164.804 541.006 164.793 541.001C164.782 540.996 164.775 540.993 164.775 540.993L164.779 540.995L164.784 540.997L164.791 541C164.797 541.003 164.806 541.007 164.817 541.012C164.824 541.016 164.833 541.02 164.842 541.024ZM162.009 538.966L162.008 538.964C162.008 538.965 162.008 538.965 162.009 538.966Z" stroke="url(#paint9_linear_778_3)" stroke-opacity="0.2" stroke-width="4"/>
<path d="M167.127 521.52L122.21 443.722L167.127 365.944L212.026 443.722L167.127 521.52Z" stroke="url(#paint10_linear_778_3)" stroke-opacity="0.2" stroke-width="4"/>
<path d="M448.122 580.358L403.204 658.157L384.683 626.084L409.148 583.693L409.178 583.641L409.205 583.588C409.289 583.42 409.337 583.271 409.365 583.174C409.371 583.152 409.377 583.13 409.382 583.11C409.455 582.945 409.549 582.724 409.626 582.492L409.636 582.463L409.644 582.434L409.653 582.405C409.71 582.214 409.796 581.928 409.857 581.626C409.901 581.403 409.928 581.201 409.948 581.026C409.987 580.886 410.041 580.65 410.041 580.358C410.041 580.125 410.005 579.927 409.965 579.774C409.96 579.759 409.956 579.744 409.952 579.729C409.932 579.545 409.905 579.33 409.857 579.09C409.796 578.789 409.71 578.503 409.653 578.312L409.644 578.282L409.636 578.253L409.626 578.225C409.549 577.993 409.455 577.772 409.382 577.606C409.377 577.586 409.371 577.565 409.365 577.542C409.337 577.446 409.289 577.297 409.205 577.129L409.178 577.075L409.148 577.023L384.579 534.486L403.1 502.413L448.122 580.358Z" stroke="url(#paint11_linear_778_3)" stroke-opacity="0.2" stroke-width="4"/>
<path d="M414.738 664.807L459.656 587.029H549.471L504.553 664.807H414.738Z" stroke="url(#paint12_linear_778_3)" stroke-opacity="0.2" stroke-width="4"/>
<path d="M526.627 444.055L504.365 482.631H459.073L436.811 444.055L481.709 366.277L526.627 444.055Z" stroke="url(#paint13_linear_778_3)" stroke-opacity="0.2" stroke-width="4"/>
<path d="M403.016 229.973L447.934 307.752L403.016 385.53L358.099 307.752L403.016 229.973Z" stroke="url(#paint14_linear_778_3)" stroke-opacity="0.2" stroke-width="4"/>
<path d="M324.325 249.227L279.407 171.448L324.325 93.6498L369.243 171.448L324.325 249.227Z" stroke="url(#paint15_linear_778_3)" stroke-opacity="0.2" stroke-width="4"/>
<path d="M279.801 535.153L302.438 495.931H346.98L391.879 573.709H302.063L279.801 535.153Z" stroke="url(#paint16_linear_778_3)" stroke-opacity="0.2" stroke-width="4"/>
<path d="M178.642 528.17L223.56 450.392H313.376L268.478 528.17H178.642Z" stroke="url(#paint17_linear_778_3)" stroke-opacity="0.2" stroke-width="4"/>
<path d="M257.165 392.179L302.063 314.401H346.585L369.242 353.645L346.981 392.179H257.165Z" stroke="url(#paint18_linear_778_3)" stroke-opacity="0.2" stroke-width="4"/>
<path d="M414.551 223.303H454.447C454.905 223.406 455.398 223.47 455.895 223.47C456.345 223.47 456.859 223.434 457.395 223.303H504.366L549.284 301.081H459.468L414.551 223.303Z" stroke="url(#paint19_linear_778_3)" stroke-opacity="0.2" stroke-width="4"/>
<path d="M451.404 392.179H414.551L459.489 314.401H549.305L530.888 346.307H481.75C481.523 346.307 481.334 346.341 481.198 346.375C481.169 346.382 481.141 346.389 481.116 346.397C480.936 346.416 480.73 346.443 480.501 346.488C480.279 346.529 479.924 346.595 479.539 346.742C479.33 346.815 479.12 346.909 478.988 346.969C478.97 346.974 478.951 346.979 478.932 346.985C478.836 347.012 478.688 347.06 478.52 347.144L478.359 347.224L478.215 347.333C478.09 347.426 477.991 347.519 477.936 347.573C477.803 347.672 477.61 347.815 477.41 347.99C477.192 348.181 476.995 348.376 476.804 348.591C476.621 348.78 476.466 348.976 476.335 349.165C476.237 349.264 476.089 349.434 475.961 349.664L451.404 392.179Z" stroke="url(#paint20_linear_778_3)" stroke-opacity="0.2" stroke-width="4"/>
<path d="M335.857 87H425.672L470.571 164.799H380.775L335.857 87Z" stroke="url(#paint21_linear_778_3)" stroke-opacity="0.2" stroke-width="4"/>
<path d="M534.669 359.627H534.69H534.711H583.077L627.975 437.405H538.159L493.242 359.627H534.669Z" stroke="url(#paint22_linear_778_3)" stroke-opacity="0.2" stroke-width="4"/>
<path d="M372.69 255.876H335.858L380.796 178.078H470.612L452.195 209.983H403.057C402.829 209.983 402.64 210.017 402.504 210.051C402.477 210.057 402.452 210.064 402.429 210.071C402.228 210.091 402.011 210.119 401.768 210.168C401.466 210.228 401.179 210.314 400.987 210.372L400.96 210.38C400.686 210.462 400.427 210.576 400.275 210.645C400.256 210.65 400.237 210.655 400.218 210.66C400.122 210.688 399.974 210.736 399.806 210.82L399.645 210.9L399.501 211.008C399.401 211.083 399.321 211.155 399.262 211.213C399.027 211.377 398.836 211.544 398.707 211.657L398.696 211.666C398.462 211.871 398.253 212.079 398.049 212.313L398.038 212.326C397.933 212.445 397.781 212.619 397.628 212.833C397.531 212.931 397.378 213.104 397.246 213.34L372.69 255.876Z" stroke="url(#paint23_linear_778_3)" stroke-opacity="0.2" stroke-width="4"/>
<path d="M628.016 450.705L609.599 482.61H560.461C560.234 482.61 560.044 482.645 559.908 482.678C559.879 482.685 559.852 482.693 559.826 482.7C559.642 482.72 559.43 482.748 559.194 482.795C558.891 482.856 558.604 482.942 558.412 483L558.386 483.007L558.357 483.016L558.328 483.026C558.1 483.102 557.883 483.194 557.717 483.266C557.613 483.293 557.429 483.348 557.232 483.447L557.07 483.528L556.926 483.636C556.827 483.71 556.747 483.782 556.687 483.84C556.452 484.004 556.261 484.171 556.132 484.284L556.121 484.294C555.888 484.498 555.679 484.707 555.474 484.94L555.463 484.953C555.359 485.073 555.206 485.247 555.054 485.46C554.956 485.558 554.803 485.731 554.672 485.967L534.418 521.022L515.982 489.115L538.199 450.705H628.016Z" stroke="url(#paint24_linear_778_3)" stroke-opacity="0.2" stroke-width="4"/>
<path d="M504.553 495.931L527.962 536.491C528.253 537.395 528.745 538.132 529.26 538.739L549.47 573.709H459.656L414.738 495.931H455.207H455.228H455.248H504.553Z" stroke="url(#paint25_linear_778_3)" stroke-opacity="0.2" stroke-width="4"/>
<path d="M616.852 573.709L571.954 495.931H613.382H613.403H661.769L706.667 573.709H616.852Z" stroke="url(#paint26_linear_778_3)" stroke-opacity="0.2" stroke-width="4"/>
<path d="M549.25 1234.33H625.757L664.002 1168.08H587.495L549.25 1234.33Z" fill="url(#paint27_linear_778_3)"/>
<path d="M370.407 939.673L387.198 910.584H351.453H351.436C351.047 910.584 350.676 910.499 350.304 910.381C350.254 910.364 350.203 910.33 350.135 910.313C350.034 910.28 349.95 910.246 349.848 910.195C349.747 910.144 349.662 910.127 349.561 910.077C349.561 910.077 349.561 910.077 349.544 910.077C349.527 910.077 349.527 910.06 349.51 910.043C349.24 909.891 348.986 909.705 348.767 909.469C348.75 909.452 348.75 909.435 348.733 909.418C348.665 909.35 348.615 909.266 348.547 909.182C348.48 909.097 348.395 909.013 348.345 908.911C348.294 908.827 348.21 908.759 348.159 908.675L327.786 873.386H294.203L332.449 939.639H370.407V939.673Z" fill="url(#paint28_linear_778_3)"/>
<path d="M580.96 1164.3L542.715 1098.04L525.992 1127L546.432 1162.4C546.465 1162.47 546.465 1162.56 546.499 1162.62C546.567 1162.78 546.634 1162.93 546.685 1163.08C546.736 1163.25 546.786 1163.42 546.82 1163.59C546.854 1163.76 546.871 1163.91 546.888 1164.08C546.888 1164.16 546.938 1164.21 546.938 1164.3C546.938 1164.38 546.905 1164.45 546.888 1164.52C546.871 1164.68 546.854 1164.84 546.82 1165.01C546.786 1165.17 546.736 1165.34 546.685 1165.51C546.634 1165.66 546.567 1165.82 546.499 1165.97C546.465 1166.04 546.465 1166.12 546.432 1166.19L525.975 1201.61L542.698 1230.57L580.96 1164.3Z" fill="url(#paint29_linear_778_3)"/>
<path d="M281.452 1168.08H204.945L166.699 1234.33H243.207L281.452 1168.08Z" fill="url(#paint30_linear_778_3)"/>
<path d="M325.93 1164.3L306.808 1131.17H273.208L291.249 1162.42C291.283 1162.49 291.283 1162.56 291.317 1162.64C291.385 1162.79 291.452 1162.94 291.503 1163.1C291.554 1163.27 291.604 1163.43 291.638 1163.6C291.672 1163.77 291.689 1163.92 291.705 1164.09C291.705 1164.18 291.756 1164.24 291.756 1164.31C291.756 1164.4 291.722 1164.46 291.705 1164.53C291.689 1164.7 291.672 1164.85 291.638 1165.02C291.604 1165.19 291.554 1165.36 291.503 1165.53C291.452 1165.68 291.385 1165.83 291.317 1165.98C291.283 1166.05 291.283 1166.14 291.249 1166.2L270.877 1201.49L287.685 1230.58L325.93 1164.3Z" fill="url(#paint31_linear_778_3)"/>
<path d="M198.423 1164.3L160.161 1098.04L121.898 1164.3L160.161 1230.57L198.423 1164.3Z" fill="url(#paint32_linear_778_3)"/>
<path d="M345.07 1049.83L328.43 1021.01H287.719H287.702C287.347 1021.01 286.975 1020.94 286.62 1020.84C286.536 1020.83 286.469 1020.77 286.401 1020.76C286.3 1020.72 286.215 1020.69 286.114 1020.64C286.013 1020.59 285.911 1020.57 285.827 1020.52L285.81 1020.5C285.539 1020.35 285.286 1020.15 285.05 1019.93C285.033 1019.91 285.033 1019.9 285.016 1019.88C284.948 1019.81 284.898 1019.73 284.83 1019.64C284.763 1019.56 284.695 1019.47 284.627 1019.37C284.577 1019.29 284.492 1019.22 284.442 1019.14L263.917 983.594H230.621L268.883 1049.85H345.07V1049.83Z" fill="url(#paint33_linear_778_3)"/>
<path d="M408.974 1168.08H332.466L294.221 1234.33H370.711L408.974 1168.08Z" fill="url(#paint34_linear_778_3)"/>
<path d="M269.981 979.05L287.684 1009.69L325.929 943.44L287.684 877.186L249.422 943.44L268.781 976.972C269.406 977.496 269.812 978.222 269.981 979.05Z" fill="url(#paint35_linear_778_3)"/>
<path d="M281.451 1160.53L264.507 1131.17H224.083H224.066C223.678 1131.17 223.306 1131.08 222.934 1130.97C222.883 1130.95 222.833 1130.92 222.765 1130.9C222.664 1130.87 222.579 1130.83 222.478 1130.78C222.376 1130.73 222.292 1130.71 222.191 1130.66C222.191 1130.66 222.191 1130.66 222.174 1130.66C222.157 1130.66 222.157 1130.65 222.14 1130.63C221.87 1130.48 221.616 1130.29 221.397 1130.05C221.38 1130.04 221.38 1130.02 221.363 1130C221.295 1129.94 221.245 1129.85 221.177 1129.77C221.109 1129.68 221.025 1129.6 220.975 1129.5C220.924 1129.41 220.839 1129.34 220.789 1129.26L200.568 1094.24H166.664L204.926 1160.49H281.451V1160.53Z" fill="url(#paint36_linear_778_3)"/>
<path d="M262.328 1053.6L224.082 987.344L185.82 1053.6L224.082 1119.87L262.328 1053.6Z" fill="url(#paint37_linear_778_3)"/>
<path d="M453.605 1164.3L415.259 1097.91L398.383 1127.13L418.756 1162.4C418.789 1162.47 418.789 1162.56 418.823 1162.62C418.89 1162.78 418.958 1162.93 419.009 1163.08C419.059 1163.25 419.11 1163.42 419.144 1163.59C419.178 1163.76 419.194 1163.91 419.211 1164.08C419.211 1164.16 419.262 1164.21 419.262 1164.3C419.262 1164.38 419.228 1164.45 419.211 1164.52C419.194 1164.68 419.178 1164.84 419.144 1165.01C419.11 1165.17 419.059 1165.34 419.009 1165.51C418.958 1165.66 418.89 1165.82 418.823 1165.97C418.789 1166.04 418.789 1166.12 418.756 1166.19L398.467 1201.34L415.343 1230.57L453.605 1164.3Z" fill="url(#paint38_linear_778_3)"/>
<path d="M536.65 1168.08H460.143L421.881 1234.33H498.388L536.65 1168.08Z" fill="url(#paint39_linear_778_3)"/>
<path d="M459.67 1086.74H498.236L517.206 1053.87L478.944 987.614L440.699 1053.87L459.67 1086.74Z" fill="url(#paint40_linear_778_3)"/>
<path d="M415.19 1009.69L453.452 943.44L415.19 877.186L376.928 943.44L415.19 1009.69Z" fill="url(#paint41_linear_778_3)"/>
<path d="M389.7 833.012L351.438 766.741L313.176 833.012L351.438 899.265L389.7 833.012Z" fill="url(#paint42_linear_778_3)"/>
<path d="M370.729 1094.28H332.771L313.496 1127.67L332.467 1160.53H408.974L370.729 1094.28Z" fill="url(#paint43_linear_778_3)"/>
<path d="M345.373 1057.38H268.865L230.604 1123.63H307.128L345.373 1057.38Z" fill="url(#paint44_linear_778_3)"/>
<path d="M370.728 1013.46L389.699 980.621L370.407 947.207H332.466L294.221 1013.46H370.728Z" fill="url(#paint45_linear_778_3)"/>
<path d="M458.031 873.538C457.71 873.538 457.373 873.487 457.052 873.403H421.729L459.991 939.656H536.498L498.236 873.403H459.028C458.707 873.504 458.369 873.538 458.031 873.538Z" fill="url(#paint46_linear_778_3)"/>
<path d="M421.729 1013.46H455.328L475.701 978.188C475.735 978.121 475.802 978.087 475.853 978.02C475.937 977.884 476.039 977.749 476.157 977.631C476.276 977.496 476.394 977.378 476.529 977.259C476.664 977.141 476.782 977.057 476.917 976.955C476.985 976.905 477.019 976.854 477.086 976.803C477.154 976.769 477.238 976.769 477.306 976.736C477.458 976.668 477.593 976.601 477.745 976.55C477.914 976.482 478.083 976.448 478.269 976.415C478.438 976.381 478.59 976.364 478.758 976.347C478.826 976.347 478.894 976.296 478.978 976.296H519.723L536.515 947.207H460.008L421.729 1013.46Z" fill="url(#paint47_linear_778_3)"/>
<path d="M472.727 829.245L434.482 762.974H357.975L396.237 829.245H472.727Z" fill="url(#paint48_linear_778_3)"/>
<path d="M521.867 983.847H521.85H485.48L523.742 1050.1H600.25L562.004 983.847H521.884H521.867Z" fill="url(#paint49_linear_778_3)"/>
<path d="M357.975 903.032H391.558L411.93 867.743C411.964 867.676 412.031 867.642 412.082 867.575C412.167 867.439 412.268 867.321 412.387 867.186C412.505 867.051 412.623 866.933 412.758 866.814C412.893 866.696 413.011 866.595 413.147 866.51C413.214 866.477 413.248 866.409 413.315 866.358C413.383 866.324 413.468 866.325 413.535 866.291C413.687 866.223 413.822 866.156 413.991 866.105C414.16 866.054 414.329 866.004 414.498 865.97C414.667 865.936 414.819 865.919 415.005 865.902C415.072 865.902 415.14 865.851 415.224 865.851H455.97L472.761 836.762H396.254L357.975 903.032Z" fill="url(#paint50_linear_778_3)"/>
<path d="M504.84 1090.37L521.648 1119.46L539.47 1088.62C539.504 1088.55 539.571 1088.51 539.622 1088.45C539.706 1088.31 539.808 1088.19 539.926 1088.06C540.044 1087.92 540.163 1087.81 540.298 1087.69C540.433 1087.57 540.551 1087.47 540.686 1087.38C540.754 1087.35 540.787 1087.28 540.855 1087.23C540.922 1087.2 540.99 1087.2 541.075 1087.16C541.227 1087.1 541.379 1087.03 541.531 1086.98C541.7 1086.93 541.869 1086.88 542.038 1086.84C542.207 1086.81 542.358 1086.79 542.527 1086.77C542.595 1086.77 542.663 1086.72 542.747 1086.72H583.492L600.284 1057.63H523.777L504.84 1090.37Z" fill="url(#paint51_linear_778_3)"/>
<path d="M518.795 1129.63C518.389 1129.18 518.068 1128.69 517.916 1128.11L498.388 1094.28H457.508H457.491H457.474H421.881L460.143 1160.53H536.65L518.795 1129.63Z" fill="url(#paint52_linear_778_3)"/>
<path d="M585.62 1094.28H549.25L587.495 1160.53H664.002L625.757 1094.28H585.637H585.62Z" fill="url(#paint53_linear_778_3)"/>
<path d="M644.639 1166.1L608.703 1228.36H536.815L572.751 1166.1H644.639Z" stroke="black" stroke-width="4"/>
<path d="M367.835 908.608L353.372 933.664H317.705L281.769 871.411H310.733L330.528 905.699L330.537 905.714L330.545 905.728C330.621 905.855 330.697 905.954 330.749 906.018C330.766 906.04 330.784 906.06 330.799 906.079C330.874 906.194 330.943 906.282 330.987 906.336C331.021 906.378 331.054 906.417 331.07 906.436L331.074 906.44C331.078 906.446 331.082 906.45 331.085 906.453L331.101 906.475L331.131 906.516C331.153 906.546 331.192 906.6 331.246 906.665C331.259 906.682 331.272 906.7 331.286 906.718C331.325 906.768 331.367 906.817 331.412 906.865C331.73 907.205 332.074 907.471 332.414 907.682C332.437 907.701 332.462 907.719 332.488 907.737C332.66 907.858 332.842 907.945 333.026 908.004C333.063 908.019 333.093 908.029 333.111 908.036C333.27 908.113 333.415 908.171 333.564 908.222C333.584 908.231 333.609 908.241 333.638 908.253C333.674 908.268 333.72 908.285 333.773 908.303L333.786 908.307L333.799 908.311C334.268 908.46 334.86 908.608 335.537 908.608H335.554H367.835Z" stroke="black" stroke-width="4"/>
<path d="M562.748 1160.32L526.795 1222.59L512.382 1197.63L532.261 1163.21L532.291 1163.16L532.318 1163.11C532.399 1162.94 532.446 1162.8 532.472 1162.71C532.475 1162.7 532.478 1162.69 532.481 1162.68C532.54 1162.54 532.616 1162.36 532.68 1162.17L532.69 1162.14L532.698 1162.11L532.704 1162.09C532.751 1161.93 532.826 1161.69 532.879 1161.42C532.915 1161.24 532.938 1161.07 532.955 1160.93C532.991 1160.8 533.036 1160.58 533.036 1160.32C533.036 1160.09 533.001 1159.9 532.961 1159.75C532.96 1159.74 532.959 1159.74 532.958 1159.74C532.941 1159.59 532.918 1159.41 532.879 1159.22C532.826 1158.95 532.751 1158.7 532.704 1158.55L532.698 1158.53L532.69 1158.5L532.68 1158.47C532.616 1158.28 532.54 1158.1 532.481 1157.96C532.478 1157.95 532.475 1157.94 532.472 1157.93C532.446 1157.84 532.399 1157.7 532.318 1157.53L532.291 1157.48L532.261 1157.43L512.399 1123.02L526.812 1098.07L562.748 1160.32ZM532.903 1161.1L532.904 1161.1L532.903 1161.1ZM532.515 1158.1L532.515 1158.1C532.517 1158.11 532.518 1158.11 532.515 1158.1Z" stroke="black" stroke-width="4"/>
<path d="M154.265 1228.36L190.201 1166.1H262.089L226.153 1228.36H154.265Z" stroke="black" stroke-width="4"/>
<path d="M307.72 1160.32L271.783 1222.61L257.286 1197.52L277.081 1163.23L277.111 1163.18L277.138 1163.12C277.219 1162.96 277.266 1162.82 277.292 1162.72C277.295 1162.71 277.298 1162.7 277.301 1162.69C277.36 1162.56 277.436 1162.38 277.5 1162.18L277.509 1162.16L277.518 1162.13L277.526 1162.1C277.572 1161.95 277.646 1161.7 277.699 1161.44C277.735 1161.26 277.758 1161.09 277.774 1160.95C277.81 1160.81 277.856 1160.6 277.856 1160.34C277.856 1160.08 277.811 1159.88 277.779 1159.77C277.763 1159.62 277.739 1159.43 277.699 1159.23C277.646 1158.97 277.572 1158.72 277.526 1158.57L277.518 1158.54L277.509 1158.52L277.5 1158.49C277.437 1158.3 277.363 1158.12 277.304 1157.99C277.276 1157.88 277.224 1157.72 277.138 1157.55L277.111 1157.5L277.081 1157.44L260.771 1129.19H289.752L307.72 1160.32ZM277.723 1161.12L277.724 1161.12L277.723 1161.12ZM277.716 1159.57C277.716 1159.56 277.716 1159.56 277.716 1159.57L277.716 1159.57ZM277.33 1158.09C277.333 1158.1 277.334 1158.11 277.334 1158.11C277.334 1158.11 277.333 1158.1 277.33 1158.09Z" stroke="black" stroke-width="4"/>
<path d="M144.262 1222.59L108.309 1160.32L144.262 1098.07L180.214 1160.32L144.262 1222.59Z" stroke="black" stroke-width="4"/>
<path d="M269.928 1016.55L269.911 1016.53C269.641 1016.38 269.387 1016.17 269.151 1015.95C269.142 1015.95 269.138 1015.94 269.134 1015.93C269.13 1015.92 269.125 1015.91 269.117 1015.9C269.074 1015.86 269.038 1015.81 269.001 1015.76C268.979 1015.73 268.956 1015.7 268.931 1015.67L268.928 1015.66C268.862 1015.58 268.795 1015.5 268.728 1015.4C268.703 1015.35 268.669 1015.32 268.636 1015.28C268.602 1015.24 268.568 1015.2 268.543 1015.16L269.928 1016.55ZM269.928 1016.55C269.973 1016.57 270.024 1016.59 270.077 1016.61C270.122 1016.62 270.169 1016.64 270.215 1016.66C270.317 1016.71 270.401 1016.75 270.502 1016.78L269.928 1016.55ZM254.139 1043.87L218.187 981.618H246.863L266.811 1016.16L266.819 1016.18L266.828 1016.19C266.904 1016.32 266.98 1016.42 267.032 1016.48C267.059 1016.51 267.086 1016.55 267.107 1016.57C267.208 1016.71 267.302 1016.83 267.359 1016.9L267.364 1016.91C267.365 1016.91 267.366 1016.91 267.366 1016.91L267.383 1016.94L267.413 1016.98C267.435 1017.01 267.475 1017.06 267.529 1017.13C267.542 1017.14 267.555 1017.16 267.569 1017.18C267.619 1017.24 267.675 1017.31 267.737 1017.37L267.763 1017.39L267.79 1017.42C268.03 1017.64 268.323 1017.89 268.665 1018.11L268.688 1018.13L268.899 1018.26C269.029 1018.34 269.145 1018.39 269.23 1018.43C269.301 1018.46 269.364 1018.48 269.397 1018.49C269.538 1018.56 269.67 1018.61 269.804 1018.66C269.84 1018.67 269.889 1018.69 269.945 1018.72C270.017 1018.74 270.109 1018.78 270.219 1018.8C270.681 1018.93 271.227 1019.04 271.803 1019.04H271.82H311.376L325.716 1043.87H254.139Z" stroke="black" stroke-width="4"/>
<path d="M281.786 1228.36L317.722 1166.1H389.61L353.658 1228.36H281.786Z" stroke="black" stroke-width="4"/>
<path d="M307.721 939.464L271.785 1001.72L255.96 974.327C255.703 973.359 255.207 972.453 254.459 971.727L235.833 939.465L271.785 877.211L307.721 939.464Z" stroke="black" stroke-width="4"/>
<path d="M262.069 1154.52H190.182L154.23 1092.27H183.515L203.158 1126.28L203.166 1126.3L203.175 1126.31C203.252 1126.44 203.328 1126.54 203.38 1126.6C203.397 1126.63 203.414 1126.65 203.43 1126.66C203.503 1126.78 203.571 1126.86 203.615 1126.92C203.652 1126.96 203.688 1127.01 203.702 1127.02C203.708 1127.03 203.712 1127.03 203.715 1127.04M262.069 1154.52L203.72 1127.04C203.72 1127.04 203.718 1127.04 203.717 1127.04C203.709 1127.03 203.707 1127.03 203.715 1127.04M262.069 1154.52L247.453 1129.19H208.184H208.167C207.49 1129.19 206.898 1129.04 206.429 1128.9L206.416 1128.89L206.403 1128.89C206.349 1128.87 206.303 1128.85 206.266 1128.84C206.238 1128.83 206.212 1128.81 206.192 1128.81C206.045 1128.76 205.9 1128.7 205.74 1128.62C205.722 1128.61 205.692 1128.6 205.655 1128.59C205.472 1128.53 205.29 1128.44 205.118 1128.32C205.092 1128.3 205.067 1128.28 205.044 1128.27C204.704 1128.06 204.36 1127.79 204.042 1127.45C203.997 1127.4 203.955 1127.35 203.916 1127.3C203.902 1127.28 203.889 1127.27 203.877 1127.25C203.823 1127.19 203.784 1127.13 203.762 1127.1L203.732 1127.06L203.715 1127.04C203.715 1127.04 203.715 1127.04 203.715 1127.04M262.069 1154.52L203.715 1127.04" stroke="black" stroke-width="4"/>
<path d="M208.183 1111.89L172.231 1049.62L208.183 987.368L244.12 1049.62L208.183 1111.89Z" stroke="black" stroke-width="4"/>
<path d="M435.395 1160.32L399.443 1222.59L384.876 1197.36L404.587 1163.21L404.617 1163.16L404.644 1163.11C404.726 1162.94 404.773 1162.8 404.799 1162.7C404.802 1162.69 404.805 1162.68 404.807 1162.67C404.866 1162.54 404.942 1162.36 405.006 1162.17L405.015 1162.14L405.024 1162.11L405.032 1162.08C405.078 1161.93 405.152 1161.68 405.205 1161.42C405.241 1161.24 405.264 1161.07 405.28 1160.93C405.316 1160.8 405.362 1160.58 405.362 1160.32C405.362 1160.09 405.326 1159.9 405.287 1159.75C405.286 1159.74 405.285 1159.74 405.284 1159.74C405.267 1159.59 405.244 1159.41 405.205 1159.22C405.152 1158.95 405.078 1158.71 405.032 1158.55L405.024 1158.53L405.015 1158.5L405.006 1158.47C404.942 1158.28 404.867 1158.1 404.807 1157.96C404.805 1157.95 404.802 1157.94 404.799 1157.93C404.773 1157.84 404.726 1157.7 404.644 1157.53L404.617 1157.48L404.587 1157.43L384.792 1123.15L399.358 1097.93L435.395 1160.32ZM405.229 1161.1L405.229 1161.1L405.229 1161.1ZM404.842 1158.11L404.842 1158.11C404.843 1158.11 404.844 1158.11 404.844 1158.11L404.842 1158.11Z" stroke="black" stroke-width="4"/>
<path d="M409.445 1228.36L445.397 1166.1H517.285L481.333 1228.36H409.445Z" stroke="black" stroke-width="4"/>
<path d="M498.996 1049.89L481.18 1080.76H444.924L427.108 1049.89L463.044 987.638L498.996 1049.89Z" stroke="black" stroke-width="4"/>
<path d="M399.291 877.211L435.243 939.464L399.291 1001.72L363.339 939.464L399.291 877.211Z" stroke="black" stroke-width="4"/>
<path d="M335.537 891.291L299.585 829.037L335.537 766.767L371.489 829.037L335.537 891.291Z" stroke="black" stroke-width="4"/>
<path d="M299.907 1123.7L318.027 1092.3H353.675L389.611 1154.55H317.723L299.907 1123.7Z" stroke="black" stroke-width="4"/>
<path d="M218.17 1117.66L254.121 1055.41H326.01L290.074 1117.66H218.17Z" stroke="black" stroke-width="4"/>
<path d="M281.786 1007.48L317.722 945.231H353.354L371.49 976.645L353.675 1007.48H281.786Z" stroke="black" stroke-width="4"/>
<path d="M409.293 871.427H440.917C441.299 871.51 441.711 871.563 442.131 871.563C442.502 871.563 442.934 871.534 443.39 871.427H481.181L517.133 933.68H445.245L409.293 871.427Z" stroke="black" stroke-width="4"/>
<path d="M438.273 1007.48H409.293L445.261 945.231H517.15L502.668 970.321H463.078C462.855 970.321 462.67 970.354 462.539 970.386C462.523 970.391 462.506 970.395 462.491 970.399C462.347 970.415 462.18 970.438 461.995 970.474C461.814 970.507 461.499 970.565 461.155 970.696C460.988 970.755 460.82 970.829 460.71 970.878C460.704 970.88 460.697 970.882 460.69 970.884C460.598 970.91 460.454 970.957 460.291 971.039L460.13 971.119L459.985 971.227C459.88 971.306 459.794 971.385 459.741 971.436C459.633 971.516 459.474 971.636 459.311 971.778C459.124 971.942 458.956 972.109 458.792 972.293C458.638 972.452 458.507 972.616 458.396 972.773C458.304 972.87 458.172 973.026 458.058 973.232L438.273 1007.48Z" stroke="black" stroke-width="4"/>
<path d="M345.54 761H417.428L453.365 823.27H381.493L345.54 761Z" stroke="black" stroke-width="4"/>
<path d="M505.95 981.872H505.967H505.983H544.949L580.885 1044.12H508.996L473.045 981.872H505.95Z" stroke="black" stroke-width="4"/>
<path d="M374.504 897.057H345.541L381.51 834.787H453.398L438.916 859.876H399.326C399.103 859.876 398.918 859.91 398.786 859.942C398.772 859.946 398.759 859.949 398.746 859.953C398.585 859.97 398.406 859.994 398.207 860.033C397.944 860.086 397.696 860.161 397.541 860.207L397.518 860.214C397.291 860.282 397.074 860.375 396.942 860.434C396.936 860.436 396.929 860.438 396.921 860.44C396.829 860.466 396.686 860.512 396.522 860.594L396.361 860.675L396.217 860.783C396.133 860.846 396.063 860.907 396.009 860.959C395.812 861.098 395.654 861.236 395.554 861.324L395.542 861.334C395.34 861.511 395.159 861.692 394.983 861.894L394.971 861.907C394.89 861.999 394.765 862.142 394.636 862.319C394.543 862.416 394.407 862.575 394.288 862.788L374.504 897.057Z" stroke="black" stroke-width="4"/>
<path d="M580.919 1055.66L566.437 1080.75H526.846C526.624 1080.75 526.439 1080.78 526.307 1080.81C526.291 1080.82 526.275 1080.82 526.26 1080.83C526.111 1080.84 525.937 1080.87 525.745 1080.9C525.482 1080.96 525.234 1081.03 525.079 1081.08L525.056 1081.09L525.027 1081.09L524.998 1081.1C524.81 1081.17 524.633 1081.24 524.497 1081.3C524.395 1081.33 524.233 1081.38 524.06 1081.47L523.899 1081.55L523.754 1081.65C523.67 1081.72 523.601 1081.78 523.547 1081.83C523.35 1081.97 523.192 1082.11 523.092 1082.2L523.08 1082.21C522.878 1082.38 522.697 1082.56 522.52 1082.77L522.509 1082.78C522.428 1082.87 522.303 1083.01 522.174 1083.19C522.081 1083.29 521.945 1083.45 521.826 1083.66L505.747 1111.49L491.25 1086.4L509.03 1055.66H580.919ZM524.62 1081.27C524.619 1081.27 524.615 1081.27 524.606 1081.27C524.615 1081.27 524.62 1081.27 524.62 1081.27Z" stroke="black" stroke-width="4"/>
<path d="M481.332 1092.3L500.168 1124.93C500.421 1125.7 500.833 1126.32 501.257 1126.82L517.283 1154.55H445.397L409.445 1092.3H441.573H441.59H441.607H481.332Z" stroke="black" stroke-width="4"/>
<path d="M572.751 1154.55L536.815 1092.3H569.721H569.738H608.703L644.639 1154.55H572.751Z" stroke="black" stroke-width="4"/>
<g filter="url(#filter0_f_778_3)">
<ellipse cx="382.5" cy="1304" rx="265.5" ry="13" fill="black" fill-opacity="0.89"/>
</g>
</g>
<defs>
<filter id="filter0_f_778_3" x="-83" y="1091" width="931" height="426" filterUnits="userSpaceOnUse" color-interpolation-filters="sRGB">
<feFlood flood-opacity="0" result="BackgroundImageFix"/>
<feBlend mode="normal" in="SourceGraphic" in2="BackgroundImageFix" result="shape"/>
<feGaussianBlur stdDeviation="100" result="effect1_foregroundBlur_778_3"/>
</filter>
<linearGradient id="paint0_linear_778_3" x1="568.49" y1="625.556" x2="710.131" y2="625.556" gradientUnits="userSpaceOnUse">
<stop stop-color="#002B99"/>
<stop offset="0.604167" stop-color="#8000FF"/>
<stop offset="1" stop-color="#F300F8"/>
</linearGradient>
<linearGradient id="paint1_linear_778_3" x1="253.682" y1="261.83" x2="368.467" y2="261.83" gradientUnits="userSpaceOnUse">
<stop stop-color="#002B99"/>
<stop offset="0.604167" stop-color="#8000FF"/>
<stop offset="1" stop-color="#F300F8"/>
</linearGradient>
<linearGradient id="paint2_linear_778_3" x1="539.758" y1="579.645" x2="607.628" y2="579.645" gradientUnits="userSpaceOnUse">
<stop stop-color="#002B99"/>
<stop offset="0.604167" stop-color="#8000FF"/>
<stop offset="1" stop-color="#F300F8"/>
</linearGradient>
<linearGradient id="paint3_linear_778_3" x1="96.2969" y1="625.556" x2="237.938" y2="625.556" gradientUnits="userSpaceOnUse">
<stop stop-color="#002B99"/>
<stop offset="0.604167" stop-color="#8000FF"/>
<stop offset="1" stop-color="#F300F8"/>
</linearGradient>
<linearGradient id="paint4_linear_778_3" x1="224.887" y1="600.28" x2="292.84" y2="600.28" gradientUnits="userSpaceOnUse">
<stop stop-color="#002B99"/>
<stop offset="0.604167" stop-color="#8000FF"/>
<stop offset="1" stop-color="#F300F8"/>
</linearGradient>
<linearGradient id="paint5_linear_778_3" x1="41" y1="579.645" x2="135.455" y2="579.645" gradientUnits="userSpaceOnUse">
<stop stop-color="#002B99"/>
<stop offset="0.604167" stop-color="#8000FF"/>
<stop offset="1" stop-color="#F300F8"/>
</linearGradient>
<linearGradient id="paint6_linear_778_3" x1="175.197" y1="397.842" x2="316.463" y2="397.842" gradientUnits="userSpaceOnUse">
<stop stop-color="#002B99"/>
<stop offset="0.604167" stop-color="#8000FF"/>
<stop offset="1" stop-color="#F300F8"/>
</linearGradient>
<linearGradient id="paint7_linear_778_3" x1="253.701" y1="625.556" x2="395.343" y2="625.556" gradientUnits="userSpaceOnUse">
<stop stop-color="#002B99"/>
<stop offset="0.604167" stop-color="#8000FF"/>
<stop offset="1" stop-color="#F300F8"/>
</linearGradient>
<linearGradient id="paint8_linear_778_3" x1="198.404" y1="307.028" x2="292.839" y2="307.028" gradientUnits="userSpaceOnUse">
<stop stop-color="#002B99"/>
<stop offset="0.604167" stop-color="#8000FF"/>
<stop offset="1" stop-color="#F300F8"/>
</linearGradient>
<linearGradient id="paint9_linear_778_3" x1="96.2559" y1="534.437" x2="237.939" y2="534.437" gradientUnits="userSpaceOnUse">
<stop stop-color="#002B99"/>
<stop offset="0.604167" stop-color="#8000FF"/>
<stop offset="1" stop-color="#F300F8"/>
</linearGradient>
<linearGradient id="paint10_linear_778_3" x1="119.9" y1="443.008" x2="214.335" y2="443.008" gradientUnits="userSpaceOnUse">
<stop stop-color="#002B99"/>
<stop offset="0.604167" stop-color="#8000FF"/>
<stop offset="1" stop-color="#F300F8"/>
</linearGradient>
<linearGradient id="paint11_linear_778_3" x1="382.27" y1="579.561" x2="450.431" y2="579.561" gradientUnits="userSpaceOnUse">
<stop stop-color="#002B99"/>
<stop offset="0.604167" stop-color="#8000FF"/>
<stop offset="1" stop-color="#F300F8"/>
</linearGradient>
<linearGradient id="paint12_linear_778_3" x1="411.273" y1="625.556" x2="552.935" y2="625.556" gradientUnits="userSpaceOnUse">
<stop stop-color="#002B99"/>
<stop offset="0.604167" stop-color="#8000FF"/>
<stop offset="1" stop-color="#F300F8"/>
</linearGradient>
<linearGradient id="paint13_linear_778_3" x1="434.502" y1="422.913" x2="528.936" y2="422.913" gradientUnits="userSpaceOnUse">
<stop stop-color="#002B99"/>
<stop offset="0.604167" stop-color="#8000FF"/>
<stop offset="1" stop-color="#F300F8"/>
</linearGradient>
<linearGradient id="paint14_linear_778_3" x1="355.789" y1="307.028" x2="450.244" y2="307.028" gradientUnits="userSpaceOnUse">
<stop stop-color="#002B99"/>
<stop offset="0.604167" stop-color="#8000FF"/>
<stop offset="1" stop-color="#F300F8"/>
</linearGradient>
<linearGradient id="paint15_linear_778_3" x1="277.098" y1="170.714" x2="371.552" y2="170.714" gradientUnits="userSpaceOnUse">
<stop stop-color="#002B99"/>
<stop offset="0.604167" stop-color="#8000FF"/>
<stop offset="1" stop-color="#F300F8"/>
</linearGradient>
<linearGradient id="paint16_linear_778_3" x1="277.492" y1="534.458" x2="395.342" y2="534.458" gradientUnits="userSpaceOnUse">
<stop stop-color="#002B99"/>
<stop offset="0.604167" stop-color="#8000FF"/>
<stop offset="1" stop-color="#F300F8"/>
</linearGradient>
<linearGradient id="paint17_linear_778_3" x1="175.178" y1="488.919" x2="316.84" y2="488.919" gradientUnits="userSpaceOnUse">
<stop stop-color="#002B99"/>
<stop offset="0.604167" stop-color="#8000FF"/>
<stop offset="1" stop-color="#F300F8"/>
</linearGradient>
<linearGradient id="paint18_linear_778_3" x1="253.701" y1="352.929" x2="371.551" y2="352.929" gradientUnits="userSpaceOnUse">
<stop stop-color="#002B99"/>
<stop offset="0.604167" stop-color="#8000FF"/>
<stop offset="1" stop-color="#F300F8"/>
</linearGradient>
<linearGradient id="paint19_linear_778_3" x1="411.086" y1="261.83" x2="552.748" y2="261.83" gradientUnits="userSpaceOnUse">
<stop stop-color="#002B99"/>
<stop offset="0.604167" stop-color="#8000FF"/>
<stop offset="1" stop-color="#F300F8"/>
</linearGradient>
<linearGradient id="paint20_linear_778_3" x1="411.086" y1="352.929" x2="552.769" y2="352.929" gradientUnits="userSpaceOnUse">
<stop stop-color="#002B99"/>
<stop offset="0.604167" stop-color="#8000FF"/>
<stop offset="1" stop-color="#F300F8"/>
</linearGradient>
<linearGradient id="paint21_linear_778_3" x1="332.393" y1="125.537" x2="474.034" y2="125.537" gradientUnits="userSpaceOnUse">
<stop stop-color="#002B99"/>
<stop offset="0.604167" stop-color="#8000FF"/>
<stop offset="1" stop-color="#F300F8"/>
</linearGradient>
<linearGradient id="paint22_linear_778_3" x1="489.777" y1="398.155" x2="631.439" y2="398.155" gradientUnits="userSpaceOnUse">
<stop stop-color="#002B99"/>
<stop offset="0.604167" stop-color="#8000FF"/>
<stop offset="1" stop-color="#F300F8"/>
</linearGradient>
<linearGradient id="paint23_linear_778_3" x1="332.393" y1="216.615" x2="474.076" y2="216.615" gradientUnits="userSpaceOnUse">
<stop stop-color="#002B99"/>
<stop offset="0.604167" stop-color="#8000FF"/>
<stop offset="1" stop-color="#F300F8"/>
</linearGradient>
<linearGradient id="paint24_linear_778_3" x1="513.672" y1="486.525" x2="631.48" y2="486.525" gradientUnits="userSpaceOnUse">
<stop stop-color="#002B99"/>
<stop offset="0.604167" stop-color="#8000FF"/>
<stop offset="1" stop-color="#F300F8"/>
</linearGradient>
<linearGradient id="paint25_linear_778_3" x1="411.273" y1="534.458" x2="552.935" y2="534.458" gradientUnits="userSpaceOnUse">
<stop stop-color="#002B99"/>
<stop offset="0.604167" stop-color="#8000FF"/>
<stop offset="1" stop-color="#F300F8"/>
</linearGradient>
<linearGradient id="paint26_linear_778_3" x1="568.49" y1="534.458" x2="710.131" y2="534.458" gradientUnits="userSpaceOnUse">
<stop stop-color="#002B99"/>
<stop offset="0.604167" stop-color="#8000FF"/>
<stop offset="1" stop-color="#F300F8"/>
</linearGradient>
<linearGradient id="paint27_linear_778_3" x1="549.25" y1="1200.91" x2="664.002" y2="1200.91" gradientUnits="userSpaceOnUse">
<stop stop-color="#002B99"/>
<stop offset="0.489583" stop-color="#8000FF"/>
<stop offset="0.859375" stop-color="#F300F8"/>
</linearGradient>
<linearGradient id="paint28_linear_778_3" x1="294.203" y1="906.236" x2="387.198" y2="906.236" gradientUnits="userSpaceOnUse">
<stop stop-color="#002B99"/>
<stop offset="0.489583" stop-color="#8000FF"/>
<stop offset="0.859375" stop-color="#F300F8"/>
</linearGradient>
<linearGradient id="paint29_linear_778_3" x1="525.975" y1="1163.72" x2="580.96" y2="1163.72" gradientUnits="userSpaceOnUse">
<stop stop-color="#002B99"/>
<stop offset="0.489583" stop-color="#8000FF"/>
<stop offset="0.859375" stop-color="#F300F8"/>
</linearGradient>
<linearGradient id="paint30_linear_778_3" x1="166.699" y1="1200.91" x2="281.452" y2="1200.91" gradientUnits="userSpaceOnUse">
<stop stop-color="#002B99"/>
<stop offset="0.489583" stop-color="#8000FF"/>
<stop offset="0.859375" stop-color="#F300F8"/>
</linearGradient>
<linearGradient id="paint31_linear_778_3" x1="270.877" y1="1180.44" x2="325.93" y2="1180.44" gradientUnits="userSpaceOnUse">
<stop stop-color="#002B99"/>
<stop offset="0.489583" stop-color="#8000FF"/>
<stop offset="0.859375" stop-color="#F300F8"/>
</linearGradient>
<linearGradient id="paint32_linear_778_3" x1="121.898" y1="1163.72" x2="198.423" y2="1163.72" gradientUnits="userSpaceOnUse">
<stop stop-color="#002B99"/>
<stop offset="0.489583" stop-color="#8000FF"/>
<stop offset="0.859375" stop-color="#F300F8"/>
</linearGradient>
<linearGradient id="paint33_linear_778_3" x1="230.621" y1="1016.43" x2="345.07" y2="1016.43" gradientUnits="userSpaceOnUse">
<stop stop-color="#002B99"/>
<stop offset="0.489583" stop-color="#8000FF"/>
<stop offset="0.859375" stop-color="#F300F8"/>
</linearGradient>
<linearGradient id="paint34_linear_778_3" x1="294.221" y1="1200.91" x2="408.974" y2="1200.91" gradientUnits="userSpaceOnUse">
<stop stop-color="#002B99"/>
<stop offset="0.489583" stop-color="#8000FF"/>
<stop offset="0.859375" stop-color="#F300F8"/>
</linearGradient>
<linearGradient id="paint35_linear_778_3" x1="249.422" y1="942.854" x2="325.929" y2="942.854" gradientUnits="userSpaceOnUse">
<stop stop-color="#002B99"/>
<stop offset="0.489583" stop-color="#8000FF"/>
<stop offset="0.859375" stop-color="#F300F8"/>
</linearGradient>
<linearGradient id="paint36_linear_778_3" x1="166.664" y1="1127.09" x2="281.451" y2="1127.09" gradientUnits="userSpaceOnUse">
<stop stop-color="#002B99"/>
<stop offset="0.489583" stop-color="#8000FF"/>
<stop offset="0.859375" stop-color="#F300F8"/>
</linearGradient>
<linearGradient id="paint37_linear_778_3" x1="185.82" y1="1053.02" x2="262.328" y2="1053.02" gradientUnits="userSpaceOnUse">
<stop stop-color="#002B99"/>
<stop offset="0.489583" stop-color="#8000FF"/>
<stop offset="0.859375" stop-color="#F300F8"/>
</linearGradient>
<linearGradient id="paint38_linear_778_3" x1="398.383" y1="1163.65" x2="453.605" y2="1163.65" gradientUnits="userSpaceOnUse">
<stop stop-color="#002B99"/>
<stop offset="0.489583" stop-color="#8000FF"/>
<stop offset="0.859375" stop-color="#F300F8"/>
</linearGradient>
<linearGradient id="paint39_linear_778_3" x1="421.881" y1="1200.91" x2="536.65" y2="1200.91" gradientUnits="userSpaceOnUse">
<stop stop-color="#002B99"/>
<stop offset="0.489583" stop-color="#8000FF"/>
<stop offset="0.859375" stop-color="#F300F8"/>
</linearGradient>
<linearGradient id="paint40_linear_778_3" x1="440.699" y1="1036.74" x2="517.206" y2="1036.74" gradientUnits="userSpaceOnUse">
<stop stop-color="#002B99"/>
<stop offset="0.489583" stop-color="#8000FF"/>
<stop offset="0.859375" stop-color="#F300F8"/>
</linearGradient>
<linearGradient id="paint41_linear_778_3" x1="376.928" y1="942.854" x2="453.452" y2="942.854" gradientUnits="userSpaceOnUse">
<stop stop-color="#002B99"/>
<stop offset="0.489583" stop-color="#8000FF"/>
<stop offset="0.859375" stop-color="#F300F8"/>
</linearGradient>
<linearGradient id="paint42_linear_778_3" x1="313.176" y1="832.417" x2="389.7" y2="832.417" gradientUnits="userSpaceOnUse">
<stop stop-color="#002B99"/>
<stop offset="0.489583" stop-color="#8000FF"/>
<stop offset="0.859375" stop-color="#F300F8"/>
</linearGradient>
<linearGradient id="paint43_linear_778_3" x1="313.496" y1="1127.11" x2="408.974" y2="1127.11" gradientUnits="userSpaceOnUse">
<stop stop-color="#002B99"/>
<stop offset="0.489583" stop-color="#8000FF"/>
<stop offset="0.859375" stop-color="#F300F8"/>
</linearGradient>
<linearGradient id="paint44_linear_778_3" x1="230.604" y1="1090.21" x2="345.373" y2="1090.21" gradientUnits="userSpaceOnUse">
<stop stop-color="#002B99"/>
<stop offset="0.489583" stop-color="#8000FF"/>
<stop offset="0.859375" stop-color="#F300F8"/>
</linearGradient>
<linearGradient id="paint45_linear_778_3" x1="294.221" y1="980.041" x2="389.699" y2="980.041" gradientUnits="userSpaceOnUse">
<stop stop-color="#002B99"/>
<stop offset="0.489583" stop-color="#8000FF"/>
<stop offset="0.859375" stop-color="#F300F8"/>
</linearGradient>
<linearGradient id="paint46_linear_778_3" x1="421.729" y1="906.236" x2="536.498" y2="906.236" gradientUnits="userSpaceOnUse">
<stop stop-color="#002B99"/>
<stop offset="0.489583" stop-color="#8000FF"/>
<stop offset="0.859375" stop-color="#F300F8"/>
</linearGradient>
<linearGradient id="paint47_linear_778_3" x1="421.729" y1="980.041" x2="536.515" y2="980.041" gradientUnits="userSpaceOnUse">
<stop stop-color="#002B99"/>
<stop offset="0.489583" stop-color="#8000FF"/>
<stop offset="0.859375" stop-color="#F300F8"/>
</linearGradient>
<linearGradient id="paint48_linear_778_3" x1="357.975" y1="795.816" x2="472.727" y2="795.816" gradientUnits="userSpaceOnUse">
<stop stop-color="#002B99"/>
<stop offset="0.489583" stop-color="#8000FF"/>
<stop offset="0.859375" stop-color="#F300F8"/>
</linearGradient>
<linearGradient id="paint49_linear_778_3" x1="485.48" y1="1016.68" x2="600.25" y2="1016.68" gradientUnits="userSpaceOnUse">
<stop stop-color="#002B99"/>
<stop offset="0.489583" stop-color="#8000FF"/>
<stop offset="0.859375" stop-color="#F300F8"/>
</linearGradient>
<linearGradient id="paint50_linear_778_3" x1="357.975" y1="869.604" x2="472.761" y2="869.604" gradientUnits="userSpaceOnUse">
<stop stop-color="#002B99"/>
<stop offset="0.489583" stop-color="#8000FF"/>
<stop offset="0.859375" stop-color="#F300F8"/>
</linearGradient>
<linearGradient id="paint51_linear_778_3" x1="504.84" y1="1088.27" x2="600.284" y2="1088.27" gradientUnits="userSpaceOnUse">
<stop stop-color="#002B99"/>
<stop offset="0.489583" stop-color="#8000FF"/>
<stop offset="0.859375" stop-color="#F300F8"/>
</linearGradient>
<linearGradient id="paint52_linear_778_3" x1="421.881" y1="1127.11" x2="536.65" y2="1127.11" gradientUnits="userSpaceOnUse">
<stop stop-color="#002B99"/>
<stop offset="0.489583" stop-color="#8000FF"/>
<stop offset="0.859375" stop-color="#F300F8"/>
</linearGradient>
<linearGradient id="paint53_linear_778_3" x1="549.25" y1="1127.11" x2="664.002" y2="1127.11" gradientUnits="userSpaceOnUse">
<stop stop-color="#002B99"/>
<stop offset="0.489583" stop-color="#8000FF"/>
<stop offset="0.859375" stop-color="#F300F8"/>
</linearGradient>
<clipPath id="clip0_778_3">
<rect width="768" height="1472" fill="white"/>
</clipPath>
</defs>
</svg>
