<svg width="1920" height="1080" viewBox="0 0 1920 1080" fill="none" xmlns="http://www.w3.org/2000/svg">
<g clip-path="url(#clip0_602_5652)">
<rect width="1920" height="1080" fill="white"/>
<path d="M619.638 807H715.888L764.004 723.649H667.752L619.638 807Z" fill="url(#paint0_linear_602_5652)"/>
<path d="M394.641 436.298L415.766 399.702H370.796H370.775C370.286 399.702 369.819 399.596 369.351 399.447C369.288 399.426 369.224 399.383 369.139 399.362C369.011 399.32 368.905 399.277 368.778 399.213C368.65 399.149 368.543 399.128 368.416 399.064C368.416 399.064 368.416 399.064 368.395 399.064C368.373 399.064 368.373 399.043 368.352 399.022C368.012 398.831 367.693 398.597 367.417 398.299C367.396 398.278 367.396 398.257 367.375 398.236C367.29 398.151 367.226 398.044 367.141 397.938C367.056 397.832 366.95 397.726 366.886 397.598C366.822 397.492 366.716 397.407 366.652 397.301L341.022 352.905H298.772L346.888 436.256H394.641V436.298Z" fill="url(#paint1_linear_602_5652)"/>
<path d="M659.528 718.888L611.414 635.537L590.374 671.964L616.089 716.508C616.132 716.593 616.132 716.699 616.174 716.784C616.259 716.976 616.344 717.167 616.408 717.358C616.472 717.571 616.535 717.783 616.578 717.996C616.62 718.208 616.642 718.4 616.663 718.612C616.663 718.718 616.727 718.782 616.727 718.888C616.727 718.995 616.684 719.08 616.663 719.165C616.642 719.377 616.62 719.569 616.578 719.781C616.535 719.994 616.472 720.206 616.408 720.419C616.344 720.61 616.259 720.801 616.174 720.992C616.132 721.077 616.132 721.184 616.089 721.269L590.353 765.835L611.392 802.261L659.528 718.888Z" fill="url(#paint2_linear_602_5652)"/>
<path d="M282.728 723.649H186.477L138.361 807H234.613L282.728 723.649Z" fill="url(#paint3_linear_602_5652)"/>
<path d="M338.684 718.888L314.627 677.213H272.356L295.053 716.529C295.096 716.614 295.096 716.699 295.138 716.805C295.223 716.997 295.308 717.188 295.372 717.379C295.436 717.592 295.5 717.804 295.542 718.017C295.585 718.229 295.606 718.42 295.627 718.633C295.627 718.739 295.691 718.824 295.691 718.909C295.691 719.016 295.648 719.101 295.627 719.186C295.606 719.398 295.585 719.589 295.542 719.802C295.5 720.014 295.436 720.227 295.372 720.44C295.308 720.631 295.223 720.822 295.138 721.013C295.096 721.098 295.096 721.205 295.053 721.29L269.423 765.685L290.569 802.282L338.684 718.888Z" fill="url(#paint4_linear_602_5652)"/>
<path d="M178.273 718.888L130.137 635.537L82 718.888L130.137 802.261L178.273 718.888Z" fill="url(#paint5_linear_602_5652)"/>
<path d="M362.762 574.883L341.829 538.627H290.611H290.59C290.144 538.627 289.676 538.542 289.23 538.415C289.123 538.393 289.039 538.33 288.954 538.309C288.826 538.266 288.72 538.223 288.592 538.16C288.465 538.096 288.337 538.075 288.231 538.011L288.21 537.99C287.869 537.798 287.551 537.543 287.253 537.267C287.232 537.246 287.232 537.225 287.211 537.203C287.126 537.118 287.062 537.012 286.977 536.906C286.892 536.8 286.807 536.693 286.722 536.566C286.658 536.46 286.552 536.375 286.488 536.268L260.667 491.554H218.779L266.915 574.905H362.762V574.883Z" fill="url(#paint6_linear_602_5652)"/>
<path d="M443.16 723.649H346.909L298.793 807H395.023L443.16 723.649Z" fill="url(#paint7_linear_602_5652)"/>
<path d="M268.296 485.837L290.569 524.388L338.683 441.037L290.569 357.686L242.432 441.037L266.788 483.223C267.574 483.882 268.084 484.796 268.296 485.837Z" fill="url(#paint8_linear_602_5652)"/>
<path d="M282.727 714.149L261.411 677.213H210.555H210.534C210.045 677.213 209.577 677.106 209.11 676.958C209.046 676.936 208.982 676.894 208.897 676.873C208.77 676.83 208.663 676.788 208.536 676.724C208.408 676.66 208.302 676.639 208.175 676.575C208.175 676.575 208.175 676.575 208.153 676.575C208.132 676.575 208.132 676.554 208.111 676.533C207.771 676.341 207.452 676.108 207.176 675.81C207.154 675.789 207.154 675.768 207.133 675.746C207.048 675.661 206.984 675.555 206.899 675.449C206.814 675.343 206.708 675.236 206.644 675.109C206.581 675.003 206.474 674.917 206.41 674.811L180.972 630.755H138.318L186.455 714.107H282.727V714.149Z" fill="url(#paint9_linear_602_5652)"/>
<path d="M258.67 579.623L210.554 496.271L162.418 579.623L210.554 662.995L258.67 579.623Z" fill="url(#paint10_linear_602_5652)"/>
<path d="M499.309 718.888L451.066 635.367L429.835 672.133L455.466 716.508C455.508 716.593 455.508 716.699 455.55 716.784C455.635 716.975 455.721 717.167 455.784 717.358C455.848 717.571 455.912 717.783 455.954 717.996C455.997 718.208 456.018 718.399 456.039 718.612C456.039 718.718 456.103 718.782 456.103 718.888C456.103 718.994 456.06 719.079 456.039 719.164C456.018 719.377 455.997 719.568 455.954 719.781C455.912 719.993 455.848 720.206 455.784 720.418C455.721 720.61 455.635 720.801 455.55 720.992C455.508 721.077 455.508 721.183 455.466 721.268L429.942 765.494L451.173 802.261L499.309 718.888Z" fill="url(#paint11_linear_602_5652)"/>
<path d="M603.784 723.649H507.533L459.396 807H555.648L603.784 723.649Z" fill="url(#paint12_linear_602_5652)"/>
<path d="M506.938 621.32H555.457L579.323 579.963L531.187 496.612L483.072 579.963L506.938 621.32Z" fill="url(#paint13_linear_602_5652)"/>
<path d="M450.981 524.388L499.117 441.037L450.981 357.686L402.845 441.037L450.981 524.388Z" fill="url(#paint14_linear_602_5652)"/>
<path d="M418.911 302.112L370.775 218.739L322.639 302.112L370.775 385.463L418.911 302.112Z" fill="url(#paint15_linear_602_5652)"/>
<path d="M395.045 630.798H347.291L323.042 672.814L346.909 714.149H443.16L395.045 630.798Z" fill="url(#paint16_linear_602_5652)"/>
<path d="M363.145 584.383H266.894L218.758 667.734H315.03L363.145 584.383Z" fill="url(#paint17_linear_602_5652)"/>
<path d="M395.045 529.128L418.911 487.813L394.641 445.777H346.909L298.793 529.128H395.045Z" fill="url(#paint18_linear_602_5652)"/>
<path d="M504.876 353.096C504.472 353.096 504.047 353.032 503.643 352.926H459.205L507.341 436.277H603.592L555.456 352.926H506.13C505.726 353.053 505.301 353.096 504.876 353.096Z" fill="url(#paint19_linear_602_5652)"/>
<path d="M459.205 529.128H501.475L527.106 484.753C527.148 484.668 527.233 484.626 527.297 484.541C527.403 484.371 527.531 484.201 527.68 484.052C527.828 483.882 527.977 483.733 528.147 483.584C528.317 483.436 528.466 483.329 528.636 483.202C528.721 483.138 528.763 483.074 528.848 483.01C528.933 482.968 529.04 482.968 529.125 482.926C529.316 482.841 529.486 482.756 529.677 482.692C529.89 482.607 530.102 482.564 530.336 482.522C530.549 482.479 530.739 482.458 530.952 482.437C531.037 482.437 531.122 482.373 531.229 482.373H582.489L603.614 445.777H507.362L459.205 529.128Z" fill="url(#paint20_linear_602_5652)"/>
<path d="M523.365 297.372L475.25 214H378.999L427.136 297.372H523.365Z" fill="url(#paint21_linear_602_5652)"/>
<path d="M585.187 491.873H585.166H539.411L587.547 575.224H683.798L635.683 491.873H585.209H585.187Z" fill="url(#paint22_linear_602_5652)"/>
<path d="M378.999 390.202H421.249L446.879 345.806C446.921 345.721 447.006 345.679 447.07 345.594C447.176 345.424 447.304 345.275 447.453 345.105C447.602 344.935 447.75 344.786 447.92 344.637C448.09 344.489 448.239 344.361 448.409 344.255C448.494 344.212 448.536 344.127 448.621 344.064C448.706 344.021 448.813 344.021 448.898 343.979C449.089 343.894 449.259 343.809 449.472 343.745C449.684 343.681 449.897 343.617 450.109 343.575C450.322 343.532 450.513 343.511 450.746 343.49C450.831 343.49 450.917 343.426 451.023 343.426H502.283L523.408 306.83H427.157L378.999 390.202Z" fill="url(#paint23_linear_602_5652)"/>
<path d="M563.766 625.889L584.911 662.485L607.333 623.678C607.375 623.593 607.46 623.551 607.524 623.466C607.63 623.296 607.758 623.147 607.906 622.977C608.055 622.807 608.204 622.658 608.374 622.509C608.544 622.361 608.693 622.233 608.863 622.127C608.948 622.084 608.99 621.999 609.075 621.936C609.16 621.893 609.245 621.893 609.351 621.851C609.543 621.766 609.734 621.681 609.925 621.617C610.138 621.553 610.35 621.489 610.563 621.447C610.775 621.404 610.966 621.383 611.179 621.362C611.264 621.362 611.349 621.298 611.455 621.298H662.715L683.84 584.702H587.589L563.766 625.889Z" fill="url(#paint24_linear_602_5652)"/>
<path d="M581.321 675.279C580.81 674.705 580.407 674.089 580.215 673.366L555.648 630.798H504.218H504.196H504.175H459.396L507.533 714.149H603.784L581.321 675.279Z" fill="url(#paint25_linear_602_5652)"/>
<path d="M665.393 630.798H619.638L667.752 714.149H764.004L715.888 630.798H665.414H665.393Z" fill="url(#paint26_linear_602_5652)"/>
<path d="M740.536 720.646L694.73 799.996H603.099L648.904 720.646H740.536Z" stroke="black" stroke-width="4"/>
<path d="M392.3 396.701L373.509 429.254H328.041L282.235 349.904H319.866L344.918 393.299L344.927 393.314L344.935 393.328C345.015 393.461 345.094 393.565 345.15 393.634C345.178 393.668 345.205 393.7 345.227 393.725C345.314 393.862 345.396 393.968 345.45 394.034C345.491 394.085 345.532 394.132 345.55 394.154C345.568 394.174 345.575 394.183 345.577 394.185C345.578 394.187 345.581 394.191 345.587 394.199L345.609 394.23L345.645 394.279C345.673 394.317 345.72 394.38 345.783 394.455C345.798 394.477 345.815 394.499 345.832 394.521C345.871 394.571 345.914 394.621 345.96 394.67C346.331 395.067 346.736 395.379 347.139 395.628C347.169 395.651 347.2 395.675 347.233 395.697C347.41 395.822 347.598 395.911 347.786 395.97C347.837 395.99 347.877 396.005 347.902 396.014L347.912 396.017C347.916 396.019 347.919 396.02 347.923 396.021C348.118 396.117 348.295 396.187 348.479 396.249C348.481 396.25 348.482 396.251 348.483 396.251C348.497 396.257 348.514 396.265 348.533 396.273C348.546 396.279 348.561 396.285 348.577 396.291C348.615 396.307 348.662 396.325 348.717 396.343L348.73 396.347L348.743 396.351C349.307 396.531 349.995 396.701 350.773 396.701H350.795H392.3ZM346.67 395.101C346.667 395.097 346.666 395.094 346.667 395.095L346.667 395.096L346.667 395.096L346.669 395.099L346.67 395.101Z" stroke="black" stroke-width="4"/>
<path d="M637.215 713.885L591.389 793.258L572.659 760.831L597.818 717.266L597.848 717.214L597.874 717.16C597.958 716.993 598.006 716.845 598.034 716.748C598.041 716.725 598.047 716.701 598.052 716.68C598.127 716.511 598.223 716.285 598.302 716.048L598.312 716.019L598.32 715.99L598.326 715.97C598.386 715.771 598.474 715.479 598.535 715.17L596.574 714.778L598.535 715.17C598.581 714.944 598.608 714.739 598.629 714.559C598.668 714.418 598.723 714.18 598.723 713.885C598.723 713.651 598.687 713.453 598.647 713.3C598.642 713.283 598.637 713.266 598.633 713.251C598.612 713.061 598.584 712.843 598.535 712.6L596.574 712.993L598.535 712.6C598.474 712.291 598.386 711.999 598.326 711.8L598.32 711.78L598.312 711.751L598.302 711.723C598.223 711.486 598.127 711.26 598.052 711.091C598.047 711.069 598.041 711.046 598.034 711.022C598.006 710.926 597.958 710.778 597.874 710.611L597.848 710.557L597.818 710.505L572.68 666.961L591.41 634.534L637.215 713.885Z" stroke="black" stroke-width="4"/>
<path d="M121.825 799.996L167.631 720.646H259.263L213.457 799.996H121.825Z" stroke="black" stroke-width="4"/>
<path d="M316.373 713.885L270.567 793.278L251.732 760.682L276.784 717.286L276.814 717.235L276.841 717.181C276.924 717.014 276.972 716.866 277 716.769C277.007 716.746 277.013 716.722 277.019 716.701C277.093 716.532 277.189 716.306 277.268 716.069L277.278 716.04L277.287 716.011L277.295 715.982C277.354 715.787 277.441 715.497 277.502 715.191C277.548 714.964 277.575 714.758 277.595 714.579C277.635 714.439 277.69 714.201 277.69 713.906C277.69 713.639 277.64 713.427 277.607 713.308C277.605 713.301 277.603 713.294 277.601 713.287C277.581 713.096 277.552 712.872 277.502 712.621C277.441 712.316 277.354 712.026 277.296 711.831L277.287 711.801L277.278 711.772L277.268 711.744C277.191 711.511 277.097 711.289 277.023 711.121C276.996 711.017 276.94 710.831 276.841 710.632L276.814 710.578L276.784 710.526L255.819 674.21H293.471L316.373 713.885ZM277.543 713.11C277.541 713.103 277.542 713.105 277.545 713.113L277.543 713.11ZM277.045 711.213C277.046 711.219 277.047 711.222 277.047 711.222C277.047 711.223 277.047 711.22 277.045 711.213Z" stroke="black" stroke-width="4"/>
<path d="M110.136 793.257L64.3095 713.885L110.136 634.534L155.962 713.885L110.136 793.257Z" stroke="black" stroke-width="4"/>
<path d="M248.069 567.902L202.243 488.552H239.511L264.756 532.266L264.764 532.281L264.773 532.295C264.852 532.428 264.932 532.532 264.988 532.601C265.027 532.65 265.065 532.694 265.089 532.721C265.211 532.898 265.328 533.045 265.402 533.137L265.413 533.151C265.414 533.153 265.417 533.157 265.424 533.166L265.446 533.196L265.482 533.245C265.51 533.283 265.557 533.347 265.62 533.423C265.635 533.444 265.652 533.466 265.669 533.489C265.72 533.553 265.776 533.617 265.838 533.68L265.864 533.706L265.891 533.731C266.192 534.01 266.552 534.311 266.967 534.574L266.99 534.597L267.201 534.724C267.336 534.805 267.459 534.861 267.549 534.898C267.635 534.934 267.711 534.96 267.745 534.972L267.746 534.973C267.751 534.974 267.755 534.976 267.759 534.977C267.936 535.063 268.098 535.128 268.266 535.185C268.306 535.204 268.366 535.231 268.436 535.257C268.513 535.287 268.612 535.321 268.728 535.35C269.281 535.504 269.922 535.625 270.589 535.625H270.61H320.673L339.309 567.902H248.069Z" stroke="black" stroke-width="4"/>
<path d="M282.256 799.996L328.062 720.646H419.693L373.867 799.996H282.256Z" stroke="black" stroke-width="4"/>
<path d="M316.373 436.036L270.567 515.387L250.177 480.093C249.875 478.91 249.273 477.812 248.36 476.945L224.741 436.036L270.567 356.685L316.373 436.036Z" stroke="black" stroke-width="4"/>
<path d="M186.992 673.207C187.17 673.331 187.357 673.42 187.545 673.479C187.596 673.499 187.636 673.514 187.66 673.523L187.67 673.526C187.674 673.528 187.678 673.529 187.681 673.53C187.878 673.626 188.055 673.696 188.237 673.758C188.238 673.759 188.239 673.759 188.24 673.76C188.264 673.77 188.296 673.785 188.335 673.8C188.373 673.816 188.421 673.834 188.476 673.852L188.489 673.857L188.502 673.861C189.067 674.04 189.755 674.21 190.533 674.21H190.554H240.255L259.238 707.103H167.609L121.782 627.753H159.816L184.678 670.808L184.686 670.823L184.695 670.837C184.775 670.971 184.855 671.076 184.911 671.145C184.939 671.179 184.966 671.211 184.988 671.236C185.073 671.371 185.154 671.475 185.208 671.541C185.249 671.593 185.289 671.64 185.309 671.662C185.327 671.684 185.334 671.692 185.336 671.695C185.337 671.696 185.341 671.701 185.347 671.71L185.37 671.741L185.406 671.79C185.434 671.828 185.48 671.891 185.543 671.965C185.558 671.987 185.574 672.008 185.592 672.031C185.631 672.081 185.674 672.131 185.72 672.18C186.091 672.577 186.496 672.889 186.899 673.137C186.929 673.161 186.96 673.184 186.992 673.207ZM186.428 672.609L186.43 672.61L186.426 672.605L186.426 672.605L186.427 672.606L186.428 672.609Z" stroke="black" stroke-width="4"/>
<path d="M190.553 653.992L144.727 574.621L190.553 495.27L236.359 574.621L190.553 653.992Z" stroke="black" stroke-width="4"/>
<path d="M476.996 713.885L431.17 793.257L412.248 760.49L437.195 717.265L437.225 717.213L437.251 717.16C437.336 716.991 437.384 716.842 437.412 716.744C437.418 716.721 437.424 716.699 437.43 716.677C437.504 716.508 437.6 716.284 437.679 716.048L437.688 716.019L437.697 715.99L437.706 715.96C437.764 715.765 437.851 715.475 437.913 715.17C437.958 714.943 437.985 714.737 438.005 714.558C438.045 714.418 438.1 714.18 438.1 713.885C438.1 713.651 438.064 713.453 438.023 713.3C438.019 713.283 438.014 713.267 438.01 713.251C437.989 713.064 437.961 712.844 437.913 712.6C437.851 712.295 437.764 712.005 437.706 711.81L437.697 711.78L437.688 711.751L437.679 711.722C437.6 711.487 437.504 711.262 437.43 711.093C437.424 711.072 437.418 711.049 437.412 711.026C437.384 710.928 437.336 710.779 437.251 710.61L437.225 710.557L437.194 710.505L412.142 667.13L431.064 634.364L476.996 713.885Z" stroke="black" stroke-width="4"/>
<path d="M442.859 799.996L488.685 720.646H580.316L534.491 799.996H442.859Z" stroke="black" stroke-width="4"/>
<path d="M557.01 574.961L534.298 614.317H488.09L465.379 574.961L511.184 495.61L557.01 574.961Z" stroke="black" stroke-width="4"/>
<path d="M430.978 356.684L476.805 436.036L430.978 515.387L385.152 436.036L430.978 356.684Z" stroke="black" stroke-width="4"/>
<path d="M350.773 376.462L304.947 297.111L350.773 217.739L396.6 297.111L350.773 376.462Z" stroke="black" stroke-width="4"/>
<path d="M305.35 667.811L328.444 627.796H373.888L419.694 707.146H328.062L305.35 667.811Z" stroke="black" stroke-width="4"/>
<path d="M202.222 660.731L248.048 581.381H339.68L293.874 660.731H202.222Z" stroke="black" stroke-width="4"/>
<path d="M282.256 522.126L328.062 442.775H373.485L396.6 482.811L373.889 522.126H282.256Z" stroke="black" stroke-width="4"/>
<path d="M442.667 349.925H483.402C483.868 350.029 484.369 350.095 484.874 350.095C485.331 350.095 485.853 350.058 486.397 349.925H534.299L580.125 429.275H488.493L442.667 349.925Z" stroke="black" stroke-width="4"/>
<path d="M480.319 522.126H442.668L488.514 442.775H580.147L561.331 475.371H511.226C510.998 475.371 510.808 475.405 510.672 475.439C510.642 475.446 510.613 475.454 510.587 475.462C510.403 475.482 510.193 475.509 509.96 475.555C509.734 475.596 509.374 475.663 508.986 475.812C508.772 475.887 508.558 475.983 508.424 476.044C508.405 476.049 508.385 476.054 508.364 476.06C508.268 476.088 508.119 476.136 507.951 476.22L507.79 476.3L507.646 476.409C507.519 476.504 507.418 476.598 507.363 476.652C507.228 476.753 507.032 476.899 506.828 477.077C506.606 477.271 506.407 477.469 506.213 477.687C506.027 477.879 505.869 478.078 505.736 478.27C505.638 478.369 505.488 478.541 505.359 478.773L480.319 522.126Z" stroke="black" stroke-width="4"/>
<path d="M362.462 211H454.093L499.9 290.372H408.288L362.462 211Z" stroke="black" stroke-width="4"/>
<path d="M565.163 488.871H565.185H565.206H614.525L660.331 568.221H568.698L522.873 488.871H565.163Z" stroke="black" stroke-width="4"/>
<path d="M400.092 383.201H362.462L408.309 303.829H499.942L481.126 336.425H431.021C430.793 336.425 430.603 336.46 430.466 336.493C430.439 336.5 430.412 336.507 430.388 336.514C430.183 336.535 429.962 336.563 429.715 336.613L430.107 338.574L429.715 336.613C429.409 336.674 429.118 336.761 428.922 336.82L428.895 336.828C428.616 336.912 428.353 337.027 428.198 337.098C428.179 337.103 428.159 337.108 428.138 337.114C428.041 337.142 427.893 337.19 427.725 337.274L427.564 337.354L427.419 337.463C427.318 337.538 427.238 337.611 427.178 337.67C426.939 337.836 426.744 338.006 426.612 338.122L426.601 338.131C426.364 338.339 426.153 338.55 425.946 338.787L425.935 338.8C425.828 338.922 425.672 339.099 425.517 339.316C425.42 339.415 425.265 339.589 425.132 339.828L400.092 383.201Z" stroke="black" stroke-width="4"/>
<path d="M589.923 616.615L589.923 616.614C590.135 616.551 590.348 616.487 590.56 616.444C590.773 616.402 590.964 616.381 591.176 616.36C591.216 616.36 591.256 616.345 591.299 616.33C591.346 616.313 591.397 616.296 591.453 616.296L589.923 616.615ZM589.923 616.615C589.731 616.678 589.54 616.763 589.349 616.848M589.923 616.615L589.349 616.848M589.349 616.848C589.299 616.868 589.254 616.879 589.211 616.889C589.163 616.9 589.117 616.911 589.072 616.933C589.035 616.961 589.007 616.992 588.979 617.023C588.943 617.063 588.908 617.1 588.86 617.125L589.349 616.848ZM660.374 581.7L641.558 614.296H591.453C591.225 614.296 591.034 614.33 590.898 614.364C590.868 614.371 590.839 614.379 590.813 614.387C590.625 614.407 590.409 614.435 590.168 614.483L590.168 614.483C589.861 614.545 589.571 614.632 589.375 614.691L589.348 614.699L589.319 614.708L589.29 614.717C589.058 614.795 588.837 614.888 588.668 614.962C588.564 614.989 588.377 615.045 588.178 615.144L588.016 615.225L587.872 615.333C587.771 615.409 587.69 615.482 587.63 615.541C587.391 615.707 587.197 615.877 587.065 615.993L587.054 616.002L588.371 617.507L587.054 616.002C586.817 616.209 586.606 616.421 586.399 616.658L586.387 616.67C586.28 616.793 586.125 616.97 585.97 617.187C585.872 617.285 585.718 617.459 585.585 617.698L564.909 653.484L546.073 620.887L568.74 581.7H660.374ZM588.761 614.94C588.767 614.938 588.77 614.938 588.77 614.938C588.771 614.937 588.768 614.938 588.761 614.94Z" stroke="black" stroke-width="4"/>
<path d="M558.362 669.158C558.657 670.077 559.157 670.826 559.682 671.443L580.315 707.146H488.685L442.859 627.796H484.173H484.194H484.215H534.49L558.362 669.158Z" stroke="black" stroke-width="4"/>
<path d="M648.904 707.146L603.099 627.796H645.39H645.411H694.73L740.536 707.146H648.904Z" stroke="black" stroke-width="4"/>
<path d="M1481.73 337.108L1481.73 338.696L1482.39 337.379C1482.27 337.321 1482.16 337.282 1482.06 337.243C1481.95 337.205 1481.84 337.166 1481.73 337.108ZM1481.73 337.108H1481.69C1481.66 337.108 1481.66 337.093 1481.64 337.073C1481.64 337.06 1481.63 337.045 1481.61 337.03L1481.73 337.108ZM1479.94 338.126L1479.94 338.129L1479.95 338.137C1479.95 338.132 1479.94 338.129 1479.94 338.126ZM1479.94 338.126L1479.94 338.126L1479.94 338.125L1479.94 338.124C1479.94 338.123 1479.94 338.124 1479.94 338.126ZM1528.39 402.855H1443.67L1358.33 255.025H1430.67L1476.78 334.895L1476.79 334.909L1476.8 334.924C1476.89 335.078 1476.99 335.203 1477.06 335.292C1477.13 335.378 1477.2 335.455 1477.23 335.493C1477.24 335.502 1477.25 335.509 1477.25 335.515C1477.38 335.733 1477.51 335.905 1477.6 336.02C1477.66 336.089 1477.72 336.154 1477.75 336.198L1477.76 336.208C1477.81 336.26 1477.83 336.285 1477.84 336.306L1477.84 336.306C1477.87 336.339 1477.89 336.362 1477.92 336.407C1477.94 336.435 1477.97 336.472 1478.01 336.527C1478.06 336.598 1478.14 336.702 1478.24 336.818C1478.26 336.854 1478.29 336.892 1478.32 336.931C1478.36 336.984 1478.41 337.037 1478.45 337.089C1479.04 337.719 1479.7 338.215 1480.36 338.615C1480.41 338.657 1480.46 338.699 1480.52 338.739C1480.71 338.876 1480.92 338.97 1481.13 339.029C1481.22 339.069 1481.3 339.098 1481.36 339.118L1481.37 339.123C1481.49 339.165 1481.49 339.168 1481.49 339.168C1481.82 339.331 1482.1 339.444 1482.41 339.547L1482.45 339.561L1482.45 339.561C1482.47 339.569 1482.5 339.582 1482.53 339.595C1482.58 339.62 1482.68 339.662 1482.8 339.702L1482.81 339.706L1482.83 339.711C1483.77 340.012 1484.85 340.269 1486.02 340.269H1486.06H1564.52L1528.39 402.855ZM1478.08 336.552C1478.08 336.552 1478.08 336.552 1478.08 336.553C1478.08 336.549 1478.08 336.547 1478.08 336.551L1478.08 336.552Z" stroke="url(#paint27_linear_602_5652)" stroke-opacity="0.2" stroke-width="4"/>
<path d="M1934.67 914.461L1934.64 914.407L1934.61 914.356L1888.35 834.215L1924.37 771.861L2009.7 919.691L1924.33 1067.56L1888.31 1005.21L1934.61 925.027L1934.64 924.975L1934.67 924.921C1934.76 924.737 1934.82 924.57 1934.85 924.455C1934.87 924.375 1934.89 924.299 1934.9 924.25C1935.04 923.933 1935.22 923.529 1935.36 923.111L1935.37 923.082L1935.38 923.053L1935.38 923.034C1935.5 922.664 1935.64 922.196 1935.73 921.71C1935.82 921.302 1935.86 920.934 1935.9 920.593C1935.9 920.57 1935.91 920.546 1935.92 920.522C1935.97 920.353 1936.04 920.059 1936.04 919.691C1936.04 919.332 1935.96 919.03 1935.91 918.865C1935.87 918.502 1935.82 918.111 1935.73 917.673C1935.64 917.187 1935.5 916.719 1935.38 916.348L1935.38 916.329L1935.37 916.3L1935.36 916.272C1935.22 915.853 1935.04 915.45 1934.9 915.132C1934.89 915.084 1934.87 915.008 1934.85 914.928C1934.82 914.812 1934.76 914.646 1934.67 914.461ZM1935.85 918.714C1935.85 918.714 1935.85 918.724 1935.86 918.741C1935.86 918.74 1935.86 918.738 1935.86 918.737C1935.85 918.721 1935.85 918.714 1935.85 918.714Z" stroke="url(#paint28_linear_602_5652)" stroke-opacity="0.2" stroke-width="4"/>
<path d="M1066.13 1078.19L1151.47 930.363H1322.18L1236.84 1078.19H1066.13Z" stroke="url(#paint29_linear_602_5652)" stroke-opacity="0.2" stroke-width="4"/>
<path d="M1425.26 919.691L1339.92 1067.6L1303.72 1004.94L1349.82 925.065L1349.85 925.013L1349.88 924.96C1349.97 924.775 1350.03 924.609 1350.06 924.493C1350.08 924.413 1350.1 924.337 1350.11 924.289C1350.25 923.971 1350.43 923.568 1350.57 923.15L1350.58 923.121L1350.59 923.092L1350.6 923.053C1350.71 922.689 1350.85 922.226 1350.94 921.748C1351.03 921.339 1351.07 920.97 1351.11 920.631C1351.11 920.609 1351.12 920.584 1351.13 920.561C1351.18 920.391 1351.25 920.097 1351.25 919.73C1351.25 919.445 1351.2 919.215 1351.16 919.079C1351.15 919.02 1351.13 918.97 1351.12 918.932C1351.08 918.565 1351.03 918.163 1350.94 917.712C1350.85 917.234 1350.71 916.771 1350.6 916.408L1350.59 916.368L1350.58 916.339L1350.57 916.31C1350.43 915.898 1350.26 915.501 1350.12 915.185C1350.12 915.181 1350.12 915.177 1350.12 915.172L1350.11 915.159C1350.09 915.066 1350.03 914.793 1349.88 914.499L1349.85 914.446L1349.82 914.394L1310.21 845.776H1382.59L1425.26 919.691Z" stroke="url(#paint30_linear_602_5652)" stroke-opacity="0.2" stroke-width="4"/>
<path d="M1047.68 1067.56L962.309 919.691L1047.68 771.86L1133.06 919.691L1047.68 1067.56Z" stroke="url(#paint31_linear_602_5652)" stroke-opacity="0.2" stroke-width="4"/>
<path d="M1297.99 655.414L1212.62 507.584H1284.3L1330.76 588.035L1330.77 588.05L1330.78 588.064C1330.87 588.219 1330.96 588.344 1331.04 588.433C1331.1 588.514 1331.17 588.587 1331.2 588.627L1331.21 588.634C1331.23 588.653 1331.24 588.666 1331.25 588.676L1331.25 588.687C1331.45 588.989 1331.65 589.238 1331.8 589.422L1331.82 589.446C1331.85 589.48 1331.86 589.502 1331.9 589.547C1331.92 589.575 1331.94 589.612 1331.98 589.667C1332.04 589.738 1332.11 589.842 1332.21 589.959C1332.24 589.995 1332.27 590.032 1332.3 590.072C1332.35 590.138 1332.41 590.205 1332.47 590.269L1332.5 590.295L1332.52 590.321C1333.07 590.824 1333.69 591.339 1334.39 591.766L1334.43 591.798L1334.64 591.925C1334.92 592.095 1335.2 592.191 1335.31 592.23L1335.32 592.235C1335.4 592.263 1335.44 592.274 1335.44 592.277C1335.76 592.435 1336.04 592.546 1336.34 592.648C1336.35 592.65 1336.36 592.654 1336.37 592.658L1336.38 592.662C1336.46 592.704 1336.69 592.812 1336.99 592.884C1337.9 593.142 1338.93 593.332 1339.96 593.332H1340H1432.14L1467.99 655.414H1297.99ZM1332.06 589.692C1332.06 589.693 1332.06 589.693 1332.06 589.693C1332.06 589.689 1332.06 589.688 1332.06 589.692L1332.06 589.692Z" stroke="url(#paint32_linear_602_5652)" stroke-opacity="0.2" stroke-width="4"/>
<path d="M1358.37 1078.19L1443.71 930.363H1614.42L1529.04 1078.19H1358.37Z" stroke="url(#paint33_linear_602_5652)" stroke-opacity="0.2" stroke-width="4"/>
<path d="M1425.26 413.565L1339.92 561.396L1301.24 494.438C1300.76 492.399 1299.74 490.541 1298.17 489.121L1254.55 413.565L1339.92 265.735L1425.26 413.565Z" stroke="url(#paint34_linear_602_5652)" stroke-opacity="0.2" stroke-width="4"/>
<path d="M1285.66 845.776L1322.13 908.981H1151.43L1066.05 761.151H1139.13L1184.89 840.402L1184.9 840.416L1184.91 840.431C1185 840.586 1185.1 840.711 1185.17 840.801C1185.24 840.887 1185.31 840.965 1185.34 841.002C1185.35 841.01 1185.35 841.017 1185.36 841.023C1185.49 841.239 1185.62 841.41 1185.71 841.525C1185.77 841.599 1185.83 841.669 1185.87 841.713C1185.91 841.765 1185.93 841.791 1185.95 841.812L1187.51 840.563L1185.95 841.812C1185.98 841.847 1186 841.87 1186.03 841.915C1186.05 841.943 1186.08 841.981 1186.12 842.036C1186.17 842.107 1186.25 842.21 1186.35 842.325C1186.37 842.361 1186.4 842.399 1186.43 842.438C1186.47 842.491 1186.51 842.543 1186.56 842.595C1187.15 843.226 1187.8 843.722 1188.47 844.122C1188.52 844.164 1188.57 844.206 1188.63 844.246C1188.82 844.383 1189.03 844.477 1189.24 844.536C1189.34 844.579 1189.43 844.61 1189.48 844.63C1189.54 844.651 1189.56 844.66 1189.58 844.668C1189.59 844.672 1189.6 844.674 1189.6 844.675C1189.93 844.839 1190.21 844.951 1190.52 845.054L1190.56 845.067L1190.56 845.067C1190.58 845.075 1190.6 845.087 1190.63 845.101C1190.69 845.127 1190.79 845.169 1190.91 845.209L1190.92 845.213L1190.93 845.218C1191.88 845.519 1192.95 845.776 1194.13 845.776H1194.17H1285.66ZM1186.19 842.059C1186.19 842.059 1186.19 842.059 1186.19 842.06C1186.19 842.056 1186.19 842.054 1186.19 842.058L1186.19 842.059ZM1188.05 843.634C1188.05 843.631 1188.05 843.63 1188.05 843.631L1188.05 843.632L1188.05 843.633L1188.05 843.634ZM1189.84 844.202L1189.84 842.615C1189.95 842.673 1190.06 842.712 1190.16 842.75C1190.27 842.789 1190.38 842.828 1190.49 842.886L1189.84 844.202Z" stroke="url(#paint35_linear_602_5652)" stroke-opacity="0.2" stroke-width="4"/>
<path d="M1194.17 813.877L1108.8 666.009L1194.17 518.179L1279.51 666.009L1194.17 813.877Z" stroke="url(#paint36_linear_602_5652)" stroke-opacity="0.2" stroke-width="4"/>
<path d="M1642.08 914.461L1642.06 914.407L1642.03 914.355L1595.92 834.524L1632.28 771.55L1717.85 919.691L1632.47 1067.56L1596.11 1004.59L1642.03 925.027L1642.06 924.975L1642.08 924.921C1642.18 924.735 1642.23 924.567 1642.26 924.451C1642.29 924.372 1642.3 924.296 1642.31 924.248C1642.46 923.93 1642.63 923.528 1642.77 923.111L1642.78 923.082L1642.79 923.053L1642.8 923.013C1642.91 922.649 1643.05 922.187 1643.15 921.709C1643.23 921.3 1643.27 920.931 1643.31 920.592C1643.32 920.57 1643.32 920.546 1643.33 920.522C1643.38 920.352 1643.45 920.058 1643.45 919.691C1643.45 919.332 1643.37 919.03 1643.32 918.865C1643.28 918.506 1643.23 918.113 1643.15 917.673C1643.05 917.195 1642.91 916.733 1642.8 916.37L1642.79 916.329L1642.78 916.3L1642.77 916.271C1642.63 915.854 1642.46 915.452 1642.31 915.134C1642.3 915.086 1642.29 915.01 1642.26 914.931C1642.23 914.815 1642.18 914.647 1642.08 914.461ZM1643.27 918.737C1643.26 918.704 1643.26 918.708 1643.27 918.741C1643.27 918.739 1643.27 918.738 1643.27 918.737Z" stroke="url(#paint37_linear_602_5652)" stroke-opacity="0.2" stroke-width="4"/>
<path d="M1650.92 1078.19L1736.3 930.363H1907L1821.63 1078.19H1650.92Z" stroke="url(#paint38_linear_602_5652)" stroke-opacity="0.2" stroke-width="4"/>
<path d="M1863.6 666.628L1821.28 739.962H1735.21L1692.89 666.628L1778.23 518.798L1863.6 666.628Z" stroke="url(#paint39_linear_602_5652)" stroke-opacity="0.2" stroke-width="4"/>
<path d="M1632.13 265.734L1717.5 413.565L1632.13 561.396L1546.75 413.565L1632.13 265.734Z" stroke="url(#paint40_linear_602_5652)" stroke-opacity="0.2" stroke-width="4"/>
<path d="M1486.03 308.333L1400.65 160.502L1486.03 12.633L1571.4 160.502L1486.03 308.333Z" stroke="url(#paint41_linear_602_5652)" stroke-opacity="0.2" stroke-width="4"/>
<path d="M1401.39 835.763L1444.4 761.229H1529.08L1614.42 909.059H1443.71L1401.39 835.763Z" stroke="url(#paint42_linear_602_5652)" stroke-opacity="0.2" stroke-width="4"/>
<path d="M1212.58 824.51L1297.95 676.68H1468.66L1383.33 824.51H1212.58Z" stroke="url(#paint43_linear_602_5652)" stroke-opacity="0.2" stroke-width="4"/>
<path d="M1358.37 572.028L1443.71 424.198H1528.34L1571.4 498.771L1529.08 572.028H1358.37Z" stroke="url(#paint44_linear_602_5652)" stroke-opacity="0.2" stroke-width="4"/>
<path d="M1650.57 255.063H1727.81C1728.61 255.254 1729.46 255.373 1730.3 255.373C1731.1 255.373 1731.98 255.302 1732.87 255.063H1821.28L1906.66 402.893H1735.95L1650.57 255.063Z" stroke="url(#paint45_linear_602_5652)" stroke-opacity="0.2" stroke-width="4"/>
<path d="M1773.07 488.233L1772.91 488.314L1772.77 488.422C1772.57 488.568 1772.43 488.714 1772.37 488.775L1772.36 488.784C1772.35 488.79 1772.35 488.795 1772.34 488.799C1772.31 488.822 1772.28 488.846 1772.25 488.87C1772 489.056 1771.7 489.28 1771.37 489.562C1771.01 489.878 1770.69 490.197 1770.38 490.555C1770.06 490.88 1769.79 491.226 1769.57 491.56C1769.47 491.652 1769.23 491.88 1769.05 492.225L1722.95 572.028H1650.57L1735.98 424.198H1906.69L1870.52 486.861H1778.3C1778.05 486.861 1777.84 486.898 1777.69 486.937C1777.6 486.958 1777.53 486.981 1777.47 487C1777.11 487.037 1776.73 487.082 1776.3 487.167C1775.89 487.242 1775.35 487.344 1774.79 487.563C1774.43 487.688 1774.07 487.851 1773.82 487.965C1773.8 487.978 1773.77 487.99 1773.74 488.002C1773.69 488.013 1773.62 488.03 1773.54 488.053C1773.43 488.086 1773.26 488.14 1773.07 488.233Z" stroke="url(#paint46_linear_602_5652)" stroke-opacity="0.2" stroke-width="4"/>
<path d="M1504.47 2H1675.18L1760.52 149.869H1589.85L1504.47 2Z" stroke="url(#paint47_linear_602_5652)" stroke-opacity="0.2" stroke-width="4"/>
<path d="M1876.56 508.165H1876.59H1876.63H1967.42L2052.76 655.995H1882.05L1796.67 508.165H1876.56Z" stroke="url(#paint48_linear_602_5652)" stroke-opacity="0.2" stroke-width="4"/>
<path d="M1576.81 318.965H1504.47L1589.88 171.096H1760.59L1724.42 233.759H1632.2C1631.95 233.759 1631.74 233.796 1631.59 233.835C1631.5 233.855 1631.43 233.878 1631.37 233.897C1630.98 233.935 1630.59 233.981 1630.15 234.068C1629.67 234.165 1629.2 234.304 1628.84 234.414L1628.8 234.424C1628.35 234.561 1627.93 234.749 1627.66 234.874C1627.64 234.883 1627.62 234.891 1627.6 234.9C1627.56 234.911 1627.48 234.928 1627.4 234.951C1627.29 234.984 1627.12 235.038 1626.93 235.131L1626.77 235.212L1626.63 235.32C1626.48 235.429 1626.37 235.536 1626.3 235.613C1626.28 235.627 1626.27 235.64 1626.26 235.652C1625.85 235.922 1625.51 236.22 1625.23 236.46C1624.86 236.79 1624.52 237.123 1624.19 237.5L1624.19 237.502C1623.97 237.759 1623.69 238.077 1623.43 238.454C1623.34 238.543 1623.1 238.773 1622.91 239.123L1576.81 318.965Z" stroke="url(#paint49_linear_602_5652)" stroke-opacity="0.2" stroke-width="4"/>
<path d="M1918.57 741.778C1918.56 741.792 1918.55 741.805 1918.54 741.817C1918.13 742.087 1917.79 742.385 1917.51 742.625L1918.83 744.13L1917.51 742.625C1917.14 742.955 1916.8 743.288 1916.47 743.665L1916.47 743.667C1916.25 743.924 1915.97 744.242 1915.71 744.619C1915.62 744.708 1915.38 744.938 1915.18 745.288L1876.09 812.951L1839.88 750.286L1882.12 677.261H2052.83L2016.66 739.924H1924.44C1924.19 739.924 1923.98 739.961 1923.83 740C1923.74 740.021 1923.66 740.044 1923.61 740.064C1923.25 740.101 1922.86 740.147 1922.43 740.234C1921.94 740.33 1921.48 740.469 1921.12 740.579L1921.08 740.589L1921.05 740.598L1921.02 740.607C1920.61 740.744 1920.22 740.917 1919.9 741.058C1919.9 741.059 1919.89 741.059 1919.89 741.061L1919.87 741.063C1919.78 741.085 1919.51 741.149 1919.21 741.296L1919.05 741.377L1918.91 741.485C1918.76 741.594 1918.65 741.701 1918.57 741.778Z" stroke="url(#paint50_linear_602_5652)" stroke-opacity="0.2" stroke-width="4"/>
<path d="M1736.3 909.059L1650.92 761.229H1729.02H1729.06H1729.1H1821.63L1865.68 837.554C1866.14 839.082 1866.98 840.344 1867.92 841.425L1907 909.059H1736.3Z" stroke="url(#paint51_linear_602_5652)" stroke-opacity="0.2" stroke-width="4"/>
<g filter="url(#filter0_f_602_5652)">
<ellipse cx="410" cy="894.5" rx="334" ry="16.5" fill="black" fill-opacity="0.89"/>
</g>
</g>
<defs>
<filter id="filter0_f_602_5652" x="-124" y="678" width="1068" height="433" filterUnits="userSpaceOnUse" color-interpolation-filters="sRGB">
<feFlood flood-opacity="0" result="BackgroundImageFix"/>
<feBlend mode="normal" in="SourceGraphic" in2="BackgroundImageFix" result="shape"/>
<feGaussianBlur stdDeviation="100" result="effect1_foregroundBlur_602_5652"/>
</filter>
<linearGradient id="paint0_linear_602_5652" x1="619.638" y1="764.956" x2="764.004" y2="764.956" gradientUnits="userSpaceOnUse">
<stop stop-color="#002B99"/>
<stop offset="0.489583" stop-color="#8000FF"/>
<stop offset="0.859375" stop-color="#F300F8"/>
</linearGradient>
<linearGradient id="paint1_linear_602_5652" x1="298.772" y1="394.233" x2="415.766" y2="394.233" gradientUnits="userSpaceOnUse">
<stop stop-color="#002B99"/>
<stop offset="0.489583" stop-color="#8000FF"/>
<stop offset="0.859375" stop-color="#F300F8"/>
</linearGradient>
<linearGradient id="paint2_linear_602_5652" x1="590.353" y1="718.161" x2="659.528" y2="718.161" gradientUnits="userSpaceOnUse">
<stop stop-color="#002B99"/>
<stop offset="0.489583" stop-color="#8000FF"/>
<stop offset="0.859375" stop-color="#F300F8"/>
</linearGradient>
<linearGradient id="paint3_linear_602_5652" x1="138.361" y1="764.956" x2="282.728" y2="764.956" gradientUnits="userSpaceOnUse">
<stop stop-color="#002B99"/>
<stop offset="0.489583" stop-color="#8000FF"/>
<stop offset="0.859375" stop-color="#F300F8"/>
</linearGradient>
<linearGradient id="paint4_linear_602_5652" x1="269.423" y1="739.194" x2="338.684" y2="739.194" gradientUnits="userSpaceOnUse">
<stop stop-color="#002B99"/>
<stop offset="0.489583" stop-color="#8000FF"/>
<stop offset="0.859375" stop-color="#F300F8"/>
</linearGradient>
<linearGradient id="paint5_linear_602_5652" x1="82" y1="718.161" x2="178.273" y2="718.161" gradientUnits="userSpaceOnUse">
<stop stop-color="#002B99"/>
<stop offset="0.489583" stop-color="#8000FF"/>
<stop offset="0.859375" stop-color="#F300F8"/>
</linearGradient>
<linearGradient id="paint6_linear_602_5652" x1="218.779" y1="532.86" x2="362.762" y2="532.86" gradientUnits="userSpaceOnUse">
<stop stop-color="#002B99"/>
<stop offset="0.489583" stop-color="#8000FF"/>
<stop offset="0.859375" stop-color="#F300F8"/>
</linearGradient>
<linearGradient id="paint7_linear_602_5652" x1="298.793" y1="764.956" x2="443.16" y2="764.956" gradientUnits="userSpaceOnUse">
<stop stop-color="#002B99"/>
<stop offset="0.489583" stop-color="#8000FF"/>
<stop offset="0.859375" stop-color="#F300F8"/>
</linearGradient>
<linearGradient id="paint8_linear_602_5652" x1="242.432" y1="440.3" x2="338.683" y2="440.3" gradientUnits="userSpaceOnUse">
<stop stop-color="#002B99"/>
<stop offset="0.489583" stop-color="#8000FF"/>
<stop offset="0.859375" stop-color="#F300F8"/>
</linearGradient>
<linearGradient id="paint9_linear_602_5652" x1="138.318" y1="672.083" x2="282.727" y2="672.083" gradientUnits="userSpaceOnUse">
<stop stop-color="#002B99"/>
<stop offset="0.489583" stop-color="#8000FF"/>
<stop offset="0.859375" stop-color="#F300F8"/>
</linearGradient>
<linearGradient id="paint10_linear_602_5652" x1="162.418" y1="578.895" x2="258.67" y2="578.895" gradientUnits="userSpaceOnUse">
<stop stop-color="#002B99"/>
<stop offset="0.489583" stop-color="#8000FF"/>
<stop offset="0.859375" stop-color="#F300F8"/>
</linearGradient>
<linearGradient id="paint11_linear_602_5652" x1="429.835" y1="718.075" x2="499.309" y2="718.075" gradientUnits="userSpaceOnUse">
<stop stop-color="#002B99"/>
<stop offset="0.489583" stop-color="#8000FF"/>
<stop offset="0.859375" stop-color="#F300F8"/>
</linearGradient>
<linearGradient id="paint12_linear_602_5652" x1="459.396" y1="764.956" x2="603.784" y2="764.956" gradientUnits="userSpaceOnUse">
<stop stop-color="#002B99"/>
<stop offset="0.489583" stop-color="#8000FF"/>
<stop offset="0.859375" stop-color="#F300F8"/>
</linearGradient>
<linearGradient id="paint13_linear_602_5652" x1="483.072" y1="558.414" x2="579.323" y2="558.414" gradientUnits="userSpaceOnUse">
<stop stop-color="#002B99"/>
<stop offset="0.489583" stop-color="#8000FF"/>
<stop offset="0.859375" stop-color="#F300F8"/>
</linearGradient>
<linearGradient id="paint14_linear_602_5652" x1="402.845" y1="440.3" x2="499.117" y2="440.3" gradientUnits="userSpaceOnUse">
<stop stop-color="#002B99"/>
<stop offset="0.489583" stop-color="#8000FF"/>
<stop offset="0.859375" stop-color="#F300F8"/>
</linearGradient>
<linearGradient id="paint15_linear_602_5652" x1="322.639" y1="301.363" x2="418.911" y2="301.363" gradientUnits="userSpaceOnUse">
<stop stop-color="#002B99"/>
<stop offset="0.489583" stop-color="#8000FF"/>
<stop offset="0.859375" stop-color="#F300F8"/>
</linearGradient>
<linearGradient id="paint16_linear_602_5652" x1="323.042" y1="672.105" x2="443.16" y2="672.105" gradientUnits="userSpaceOnUse">
<stop stop-color="#002B99"/>
<stop offset="0.489583" stop-color="#8000FF"/>
<stop offset="0.859375" stop-color="#F300F8"/>
</linearGradient>
<linearGradient id="paint17_linear_602_5652" x1="218.758" y1="625.69" x2="363.145" y2="625.69" gradientUnits="userSpaceOnUse">
<stop stop-color="#002B99"/>
<stop offset="0.489583" stop-color="#8000FF"/>
<stop offset="0.859375" stop-color="#F300F8"/>
</linearGradient>
<linearGradient id="paint18_linear_602_5652" x1="298.793" y1="487.083" x2="418.911" y2="487.083" gradientUnits="userSpaceOnUse">
<stop stop-color="#002B99"/>
<stop offset="0.489583" stop-color="#8000FF"/>
<stop offset="0.859375" stop-color="#F300F8"/>
</linearGradient>
<linearGradient id="paint19_linear_602_5652" x1="459.205" y1="394.232" x2="603.592" y2="394.232" gradientUnits="userSpaceOnUse">
<stop stop-color="#002B99"/>
<stop offset="0.489583" stop-color="#8000FF"/>
<stop offset="0.859375" stop-color="#F300F8"/>
</linearGradient>
<linearGradient id="paint20_linear_602_5652" x1="459.205" y1="487.083" x2="603.614" y2="487.083" gradientUnits="userSpaceOnUse">
<stop stop-color="#002B99"/>
<stop offset="0.489583" stop-color="#8000FF"/>
<stop offset="0.859375" stop-color="#F300F8"/>
</linearGradient>
<linearGradient id="paint21_linear_602_5652" x1="378.999" y1="255.317" x2="523.365" y2="255.317" gradientUnits="userSpaceOnUse">
<stop stop-color="#002B99"/>
<stop offset="0.489583" stop-color="#8000FF"/>
<stop offset="0.859375" stop-color="#F300F8"/>
</linearGradient>
<linearGradient id="paint22_linear_602_5652" x1="539.411" y1="533.179" x2="683.798" y2="533.179" gradientUnits="userSpaceOnUse">
<stop stop-color="#002B99"/>
<stop offset="0.489583" stop-color="#8000FF"/>
<stop offset="0.859375" stop-color="#F300F8"/>
</linearGradient>
<linearGradient id="paint23_linear_602_5652" x1="378.999" y1="348.147" x2="523.408" y2="348.147" gradientUnits="userSpaceOnUse">
<stop stop-color="#002B99"/>
<stop offset="0.489583" stop-color="#8000FF"/>
<stop offset="0.859375" stop-color="#F300F8"/>
</linearGradient>
<linearGradient id="paint24_linear_602_5652" x1="563.766" y1="623.249" x2="683.84" y2="623.249" gradientUnits="userSpaceOnUse">
<stop stop-color="#002B99"/>
<stop offset="0.489583" stop-color="#8000FF"/>
<stop offset="0.859375" stop-color="#F300F8"/>
</linearGradient>
<linearGradient id="paint25_linear_602_5652" x1="459.396" y1="672.105" x2="603.784" y2="672.105" gradientUnits="userSpaceOnUse">
<stop stop-color="#002B99"/>
<stop offset="0.489583" stop-color="#8000FF"/>
<stop offset="0.859375" stop-color="#F300F8"/>
</linearGradient>
<linearGradient id="paint26_linear_602_5652" x1="619.638" y1="672.105" x2="764.004" y2="672.105" gradientUnits="userSpaceOnUse">
<stop stop-color="#002B99"/>
<stop offset="0.489583" stop-color="#8000FF"/>
<stop offset="0.859375" stop-color="#F300F8"/>
</linearGradient>
<linearGradient id="paint27_linear_602_5652" x1="1354.87" y1="328.306" x2="1567.98" y2="328.306" gradientUnits="userSpaceOnUse">
<stop stop-color="#002B99"/>
<stop offset="0.604167" stop-color="#8000FF"/>
<stop offset="1" stop-color="#F300F8"/>
</linearGradient>
<linearGradient id="paint28_linear_602_5652" x1="1886" y1="918.367" x2="2012.01" y2="918.367" gradientUnits="userSpaceOnUse">
<stop stop-color="#002B99"/>
<stop offset="0.604167" stop-color="#8000FF"/>
<stop offset="1" stop-color="#F300F8"/>
</linearGradient>
<linearGradient id="paint29_linear_602_5652" x1="1062.67" y1="1003.61" x2="1325.64" y2="1003.61" gradientUnits="userSpaceOnUse">
<stop stop-color="#002B99"/>
<stop offset="0.604167" stop-color="#8000FF"/>
<stop offset="1" stop-color="#F300F8"/>
</linearGradient>
<linearGradient id="paint30_linear_602_5652" x1="1301.41" y1="956.679" x2="1427.57" y2="956.679" gradientUnits="userSpaceOnUse">
<stop stop-color="#002B99"/>
<stop offset="0.604167" stop-color="#8000FF"/>
<stop offset="1" stop-color="#F300F8"/>
</linearGradient>
<linearGradient id="paint31_linear_602_5652" x1="960" y1="918.367" x2="1135.37" y2="918.367" gradientUnits="userSpaceOnUse">
<stop stop-color="#002B99"/>
<stop offset="0.604167" stop-color="#8000FF"/>
<stop offset="1" stop-color="#F300F8"/>
</linearGradient>
<linearGradient id="paint32_linear_602_5652" x1="1209.15" y1="580.828" x2="1471.43" y2="580.828" gradientUnits="userSpaceOnUse">
<stop stop-color="#002B99"/>
<stop offset="0.604167" stop-color="#8000FF"/>
<stop offset="1" stop-color="#F300F8"/>
</linearGradient>
<linearGradient id="paint33_linear_602_5652" x1="1354.91" y1="1003.61" x2="1617.88" y2="1003.61" gradientUnits="userSpaceOnUse">
<stop stop-color="#002B99"/>
<stop offset="0.604167" stop-color="#8000FF"/>
<stop offset="1" stop-color="#F300F8"/>
</linearGradient>
<linearGradient id="paint34_linear_602_5652" x1="1252.24" y1="412.221" x2="1427.57" y2="412.221" gradientUnits="userSpaceOnUse">
<stop stop-color="#002B99"/>
<stop offset="0.604167" stop-color="#8000FF"/>
<stop offset="1" stop-color="#F300F8"/>
</linearGradient>
<linearGradient id="paint35_linear_602_5652" x1="1062.59" y1="834.432" x2="1325.64" y2="834.432" gradientUnits="userSpaceOnUse">
<stop stop-color="#002B99"/>
<stop offset="0.604167" stop-color="#8000FF"/>
<stop offset="1" stop-color="#F300F8"/>
</linearGradient>
<linearGradient id="paint36_linear_602_5652" x1="1106.49" y1="664.684" x2="1281.82" y2="664.684" gradientUnits="userSpaceOnUse">
<stop stop-color="#002B99"/>
<stop offset="0.604167" stop-color="#8000FF"/>
<stop offset="1" stop-color="#F300F8"/>
</linearGradient>
<linearGradient id="paint37_linear_602_5652" x1="1593.61" y1="918.21" x2="1720.16" y2="918.21" gradientUnits="userSpaceOnUse">
<stop stop-color="#002B99"/>
<stop offset="0.604167" stop-color="#8000FF"/>
<stop offset="1" stop-color="#F300F8"/>
</linearGradient>
<linearGradient id="paint38_linear_602_5652" x1="1647.46" y1="1003.61" x2="1910.47" y2="1003.61" gradientUnits="userSpaceOnUse">
<stop stop-color="#002B99"/>
<stop offset="0.604167" stop-color="#8000FF"/>
<stop offset="1" stop-color="#F300F8"/>
</linearGradient>
<linearGradient id="paint39_linear_602_5652" x1="1690.58" y1="627.375" x2="1865.91" y2="627.375" gradientUnits="userSpaceOnUse">
<stop stop-color="#002B99"/>
<stop offset="0.604167" stop-color="#8000FF"/>
<stop offset="1" stop-color="#F300F8"/>
</linearGradient>
<linearGradient id="paint40_linear_602_5652" x1="1544.44" y1="412.221" x2="1719.81" y2="412.221" gradientUnits="userSpaceOnUse">
<stop stop-color="#002B99"/>
<stop offset="0.604167" stop-color="#8000FF"/>
<stop offset="1" stop-color="#F300F8"/>
</linearGradient>
<linearGradient id="paint41_linear_602_5652" x1="1398.34" y1="159.139" x2="1573.71" y2="159.139" gradientUnits="userSpaceOnUse">
<stop stop-color="#002B99"/>
<stop offset="0.604167" stop-color="#8000FF"/>
<stop offset="1" stop-color="#F300F8"/>
</linearGradient>
<linearGradient id="paint42_linear_602_5652" x1="1399.08" y1="834.472" x2="1617.88" y2="834.472" gradientUnits="userSpaceOnUse">
<stop stop-color="#002B99"/>
<stop offset="0.604167" stop-color="#8000FF"/>
<stop offset="1" stop-color="#F300F8"/>
</linearGradient>
<linearGradient id="paint43_linear_602_5652" x1="1209.11" y1="749.923" x2="1472.13" y2="749.923" gradientUnits="userSpaceOnUse">
<stop stop-color="#002B99"/>
<stop offset="0.604167" stop-color="#8000FF"/>
<stop offset="1" stop-color="#F300F8"/>
</linearGradient>
<linearGradient id="paint44_linear_602_5652" x1="1354.91" y1="497.441" x2="1573.71" y2="497.441" gradientUnits="userSpaceOnUse">
<stop stop-color="#002B99"/>
<stop offset="0.604167" stop-color="#8000FF"/>
<stop offset="1" stop-color="#F300F8"/>
</linearGradient>
<linearGradient id="paint45_linear_602_5652" x1="1647.11" y1="328.307" x2="1910.12" y2="328.307" gradientUnits="userSpaceOnUse">
<stop stop-color="#002B99"/>
<stop offset="0.604167" stop-color="#8000FF"/>
<stop offset="1" stop-color="#F300F8"/>
</linearGradient>
<linearGradient id="paint46_linear_602_5652" x1="1647.11" y1="497.441" x2="1910.16" y2="497.441" gradientUnits="userSpaceOnUse">
<stop stop-color="#002B99"/>
<stop offset="0.604167" stop-color="#8000FF"/>
<stop offset="1" stop-color="#F300F8"/>
</linearGradient>
<linearGradient id="paint47_linear_602_5652" x1="1501.01" y1="75.2625" x2="1763.98" y2="75.2625" gradientUnits="userSpaceOnUse">
<stop stop-color="#002B99"/>
<stop offset="0.604167" stop-color="#8000FF"/>
<stop offset="1" stop-color="#F300F8"/>
</linearGradient>
<linearGradient id="paint48_linear_602_5652" x1="1793.21" y1="581.408" x2="2056.22" y2="581.408" gradientUnits="userSpaceOnUse">
<stop stop-color="#002B99"/>
<stop offset="0.604167" stop-color="#8000FF"/>
<stop offset="1" stop-color="#F300F8"/>
</linearGradient>
<linearGradient id="paint49_linear_602_5652" x1="1501.01" y1="244.358" x2="1764.06" y2="244.358" gradientUnits="userSpaceOnUse">
<stop stop-color="#002B99"/>
<stop offset="0.604167" stop-color="#8000FF"/>
<stop offset="1" stop-color="#F300F8"/>
</linearGradient>
<linearGradient id="paint50_linear_602_5652" x1="1837.57" y1="745.478" x2="2056.3" y2="745.478" gradientUnits="userSpaceOnUse">
<stop stop-color="#002B99"/>
<stop offset="0.604167" stop-color="#8000FF"/>
<stop offset="1" stop-color="#F300F8"/>
</linearGradient>
<linearGradient id="paint51_linear_602_5652" x1="1647.46" y1="834.472" x2="1910.47" y2="834.472" gradientUnits="userSpaceOnUse">
<stop stop-color="#002B99"/>
<stop offset="0.604167" stop-color="#8000FF"/>
<stop offset="1" stop-color="#F300F8"/>
</linearGradient>
<clipPath id="clip0_602_5652">
<rect width="1920" height="1080" fill="white"/>
</clipPath>
</defs>
</svg>
