<svg width="65" height="57" viewBox="0 0 65 57" fill="none" xmlns="http://www.w3.org/2000/svg">
<path d="M65 2.01904L54.7193 54.6272C54.7193 54.6272 53.2817 58.2756 49.3278 56.5244L24.5 39L16.978 33.8325L2.45653 28.8706C2.45653 28.8706 0.227986 28.0682 0.0121466 26.317C-0.203693 24.5658 2.52847 23.6175 2.52847 23.6175L60.2547 0.633426C60.2547 0.633426 64.9995 -1.48242 64.9995 2.01995" fill="url(#paint0_linear_611_879)"/>
<path d="M23.0129 54C23.0129 54 22.2991 53.9361 21.4092 51.2419C20.5206 48.5481 16 34.37 16 34.37L33.9699 23.4528L51.9398 12.5357C51.9398 12.5357 54.015 11.3304 53.9408 12.5357C53.9408 12.5357 54.3111 12.7485 53.1992 13.7409C52.0881 14.7337 24.9666 38.0566 24.9666 38.0566" fill="white"/>
<path d="M34 45.68L23.6881 53.6976C23.6881 53.6976 22.8816 54.2193 22 53.8923L23.9747 39" fill="url(#paint1_linear_611_879)"/>
<defs>
<linearGradient id="paint0_linear_611_879" x1="1.02099e-07" y1="28.2478" x2="65" y2="28.2478" gradientUnits="userSpaceOnUse">
<stop stop-color="#002B99"/>
<stop offset="0.604167" stop-color="#8000FF"/>
<stop offset="1" stop-color="#F300F8"/>
</linearGradient>
<linearGradient id="paint1_linear_611_879" x1="22" y1="46.4336" x2="34" y2="46.4336" gradientUnits="userSpaceOnUse">
<stop stop-color="#002B99"/>
<stop offset="0.604167" stop-color="#8000FF"/>
<stop offset="1" stop-color="#F300F8"/>
</linearGradient>
</defs>
</svg>
